<svg width="763px" height="109px" viewBox="0 0 763px 109px" xmlns="http://www.w3.org/2000/svg" xmlns:xlink="http://www.w3.org/1999/xlink" xml:space="preserve" version="1.1"  baseProfile="full">
<line x1="1" y1="1" x2="762" y2="1" style="stroke:#ddd;stroke-width:2" />
<line x1="1" y1="1" x2="1" y2="108" style="stroke:#ddd;stroke-width:2" />
<line x1="1" y1="108" x2="762" y2="108" style="stroke:#ddd;stroke-width:2" />
<line x1="762" y1="1" x2="762" y2="108" style="stroke:#ddd;stroke-width:2" />
<line x1="109" y1="1" x2="109" y2="108" style="stroke:#ddd;stroke-width:2" />
<line x1="218" y1="1" x2="218" y2="108" style="stroke:#ddd;stroke-width:2" />
<line x1="327" y1="1" x2="327" y2="108" style="stroke:#ddd;stroke-width:2" />
<line x1="436" y1="1" x2="436" y2="108" style="stroke:#ddd;stroke-width:2" />
<line x1="545" y1="1" x2="545" y2="108" style="stroke:#ddd;stroke-width:2" />
<line x1="654" y1="1" x2="654" y2="108" style="stroke:#ddd;stroke-width:2" />
<line x1="1" y1="54" x2="762" y2="54" style="stroke:#ddd;stroke-width:2;stroke-dasharray:3 3" />
<line x1="55" y1="1" x2="55" y2="108" style="stroke:#ddd;stroke-width:2;stroke-dasharray:3 3" />
<line x1="164" y1="1" x2="164" y2="108" style="stroke:#ddd;stroke-width:2;stroke-dasharray:3 3" />
<line x1="273" y1="1" x2="273" y2="108" style="stroke:#ddd;stroke-width:2;stroke-dasharray:3 3" />
<line x1="382" y1="1" x2="382" y2="108" style="stroke:#ddd;stroke-width:2;stroke-dasharray:3 3" />
<line x1="491" y1="1" x2="491" y2="108" style="stroke:#ddd;stroke-width:2;stroke-dasharray:3 3" />
<line x1="600" y1="1" x2="600" y2="108" style="stroke:#ddd;stroke-width:2;stroke-dasharray:3 3" />
<line x1="709" y1="1" x2="709" y2="108" style="stroke:#ddd;stroke-width:2;stroke-dasharray:3 3" />
<path d="M17.88,20.29c1.91,0.51,5.41,0.64,7.31,0.51c17.69-1.18,38.69-3.05,58.21-3.51c3.18-0.08,5.08,0.25,6.67,0.5" style="fill:none;stroke:black;stroke-width:3" />
<circle cx="17.88" cy="20.29" r="5" stroke-width="0" fill="#FF2A00" opacity="0.7" />
<path d="M126.88,20.29c1.91,0.51,5.41,0.64,7.31,0.51c17.69-1.18,38.69-3.05,58.21-3.51c3.18-0.08,5.08,0.25,6.67,0.5" style="fill:none;stroke:#999;stroke-width:3" />
<path d="M157.05,26.75c0.04,0.48,0.07,1.24-0.07,1.93c-0.85,4.08-6.22,14.11-11.57,17.82" style="fill:none;stroke:black;stroke-width:3" />
<circle cx="157.05" cy="26.75" r="5" stroke-width="0" fill="#FF2A00" opacity="0.7" />
<path d="M235.88,20.29c1.91,0.51,5.41,0.64,7.31,0.51c17.69-1.18,38.69-3.05,58.21-3.51c3.18-0.08,5.08,0.25,6.67,0.5" style="fill:none;stroke:#999;stroke-width:3" />
<path d="M266.05,26.75c0.04,0.48,0.07,1.24-0.07,1.93c-0.85,4.08-6.22,14.11-11.57,17.82" style="fill:none;stroke:#999;stroke-width:3" />
<path d="M265.12,38.02c1.17,0.28,3.33,0.41,4.48,0.28c6.77-0.8,13.54-1.92,21.98-3.32c1.9-0.32,3.64-0.32,4.61-0.18" style="fill:none;stroke:black;stroke-width:3" />
<circle cx="265.12" cy="38.02" r="5" stroke-width="0" fill="#FF2A00" opacity="0.7" />
<path d="M344.88,20.29c1.91,0.51,5.41,0.64,7.31,0.51c17.69-1.18,38.69-3.05,58.21-3.51c3.18-0.08,5.08,0.25,6.67,0.5" style="fill:none;stroke:#999;stroke-width:3" />
<path d="M375.05,26.75c0.04,0.48,0.07,1.24-0.07,1.93c-0.85,4.08-6.22,14.11-11.57,17.82" style="fill:none;stroke:#999;stroke-width:3" />
<path d="M374.12,38.02c1.17,0.28,3.33,0.41,4.48,0.28c6.77-0.8,13.54-1.92,21.98-3.32c1.9-0.32,3.64-0.32,4.61-0.18" style="fill:none;stroke:#999;stroke-width:3" />
<path d="M359.39,56.74c2.47,0.48,5.17,0.4,7.67,0.17c10.06-0.92,26.6-2.98,38.22-3.8c2.76-0.19,5.72-0.24,8.33,0.07" style="fill:none;stroke:black;stroke-width:3" />
<circle cx="359.39" cy="56.74" r="5" stroke-width="0" fill="#FF2A00" opacity="0.7" />
<path d="M453.88,20.29c1.91,0.51,5.41,0.64,7.31,0.51c17.69-1.18,38.69-3.05,58.21-3.51c3.18-0.08,5.08,0.25,6.67,0.5" style="fill:none;stroke:#999;stroke-width:3" />
<path d="M484.05,26.75c0.04,0.48,0.07,1.24-0.07,1.93c-0.85,4.08-6.22,14.11-11.57,17.82" style="fill:none;stroke:#999;stroke-width:3" />
<path d="M483.12,38.02c1.17,0.28,3.33,0.41,4.48,0.28c6.77-0.8,13.54-1.92,21.98-3.32c1.9-0.32,3.64-0.32,4.61-0.18" style="fill:none;stroke:#999;stroke-width:3" />
<path d="M468.39,56.74c2.47,0.48,5.17,0.4,7.67,0.17c10.06-0.92,26.6-2.98,38.22-3.8c2.76-0.19,5.72-0.24,8.33,0.07" style="fill:none;stroke:#999;stroke-width:3" />
<path d="M493.92,40.43c0.58,1.07,0.81,2.39,0.81,3.53C494.75,61.25,488.25,74,472.06,81.18" style="fill:none;stroke:black;stroke-width:3" />
<circle cx="493.92" cy="40.43" r="5" stroke-width="0" fill="#FF2A00" opacity="0.7" />
<path d="M562.88,20.29c1.91,0.51,5.41,0.64,7.31,0.51c17.69-1.18,38.69-3.05,58.21-3.51c3.18-0.08,5.08,0.25,6.67,0.5" style="fill:none;stroke:#999;stroke-width:3" />
<path d="M593.05,26.75c0.04,0.48,0.07,1.24-0.07,1.93c-0.85,4.08-6.22,14.11-11.57,17.82" style="fill:none;stroke:#999;stroke-width:3" />
<path d="M592.12,38.02c1.17,0.28,3.33,0.41,4.48,0.28c6.77-0.8,13.54-1.92,21.98-3.32c1.9-0.32,3.64-0.32,4.61-0.18" style="fill:none;stroke:#999;stroke-width:3" />
<path d="M577.39,56.74c2.47,0.48,5.17,0.4,7.67,0.17c10.06-0.92,26.6-2.98,38.22-3.8c2.76-0.19,5.72-0.24,8.33,0.07" style="fill:none;stroke:#999;stroke-width:3" />
<path d="M602.9200000000001,40.43c0.58,1.07,0.81,2.39,0.81,3.53C603.75,61.25,597.25,74,581.06,81.18" style="fill:none;stroke:#999;stroke-width:3" />
<path d="M606.03,60.17C615.29,63.76,628.25,74.25,632.25,81" style="fill:none;stroke:black;stroke-width:3" />
<circle cx="606.03" cy="60.17" r="5" stroke-width="0" fill="#FF2A00" opacity="0.7" />
<path d="M671.88,20.29c1.91,0.51,5.41,0.64,7.31,0.51c17.69-1.18,38.69-3.05,58.21-3.51c3.18-0.08,5.08,0.25,6.67,0.5" style="fill:none;stroke:#999;stroke-width:3" />
<path d="M702.05,26.75c0.04,0.48,0.07,1.24-0.07,1.93c-0.85,4.08-6.22,14.11-11.57,17.82" style="fill:none;stroke:#999;stroke-width:3" />
<path d="M701.12,38.02c1.17,0.28,3.33,0.41,4.48,0.28c6.77-0.8,13.54-1.92,21.98-3.32c1.9-0.32,3.64-0.32,4.61-0.18" style="fill:none;stroke:#999;stroke-width:3" />
<path d="M686.39,56.74c2.47,0.48,5.17,0.4,7.67,0.17c10.06-0.92,26.6-2.98,38.22-3.8c2.76-0.19,5.72-0.24,8.33,0.07" style="fill:none;stroke:#999;stroke-width:3" />
<path d="M711.9200000000001,40.43c0.58,1.07,0.81,2.39,0.81,3.53C712.75,61.25,706.25,74,690.06,81.18" style="fill:none;stroke:#999;stroke-width:3" />
<path d="M715.03,60.17C724.29,63.76,737.25,74.25,741.25,81" style="fill:none;stroke:#999;stroke-width:3" />
<path d="M675.83,21.46c0.67,1.54,1,3.26,1,5.79c0,14.77-0.33,47-1.5,60.48c-0.26,3,1.01,3.97,2.81,3.8c16.11-1.53,44.49-2.91,60.2-2.56c3.32,0.07,6.12,0.24,8.17,0.71" style="fill:none;stroke:black;stroke-width:3" />
<circle cx="675.83" cy="21.46" r="5" stroke-width="0" fill="#FF2A00" opacity="0.7" />
</svg>