<svg width="763px" height="109px" viewBox="0 0 763px 109px" xmlns="http://www.w3.org/2000/svg" xmlns:xlink="http://www.w3.org/1999/xlink" xml:space="preserve" version="1.1"  baseProfile="full">
<line x1="1" y1="1" x2="762" y2="1" style="stroke:#ddd;stroke-width:2" />
<line x1="1" y1="1" x2="1" y2="108" style="stroke:#ddd;stroke-width:2" />
<line x1="1" y1="108" x2="762" y2="108" style="stroke:#ddd;stroke-width:2" />
<line x1="762" y1="1" x2="762" y2="108" style="stroke:#ddd;stroke-width:2" />
<line x1="109" y1="1" x2="109" y2="108" style="stroke:#ddd;stroke-width:2" />
<line x1="218" y1="1" x2="218" y2="108" style="stroke:#ddd;stroke-width:2" />
<line x1="327" y1="1" x2="327" y2="108" style="stroke:#ddd;stroke-width:2" />
<line x1="436" y1="1" x2="436" y2="108" style="stroke:#ddd;stroke-width:2" />
<line x1="545" y1="1" x2="545" y2="108" style="stroke:#ddd;stroke-width:2" />
<line x1="654" y1="1" x2="654" y2="108" style="stroke:#ddd;stroke-width:2" />
<line x1="1" y1="54" x2="762" y2="54" style="stroke:#ddd;stroke-width:2;stroke-dasharray:3 3" />
<line x1="55" y1="1" x2="55" y2="108" style="stroke:#ddd;stroke-width:2;stroke-dasharray:3 3" />
<line x1="164" y1="1" x2="164" y2="108" style="stroke:#ddd;stroke-width:2;stroke-dasharray:3 3" />
<line x1="273" y1="1" x2="273" y2="108" style="stroke:#ddd;stroke-width:2;stroke-dasharray:3 3" />
<line x1="382" y1="1" x2="382" y2="108" style="stroke:#ddd;stroke-width:2;stroke-dasharray:3 3" />
<line x1="491" y1="1" x2="491" y2="108" style="stroke:#ddd;stroke-width:2;stroke-dasharray:3 3" />
<line x1="600" y1="1" x2="600" y2="108" style="stroke:#ddd;stroke-width:2;stroke-dasharray:3 3" />
<line x1="709" y1="1" x2="709" y2="108" style="stroke:#ddd;stroke-width:2;stroke-dasharray:3 3" />
<path d="M14.5,43.89c1.5,0.36,3.25,0.25,4,0.11c5.5-1,11.5-2,19-3.75c1.23-0.29,2.25-0.5,3.75-0.49" style="fill:none;stroke:black;stroke-width:3" />
<circle cx="14.5" cy="43.89" r="5" stroke-width="0" fill="#FF2A00" opacity="0.7" />
<path d="M123.5,43.89c1.5,0.36,3.25,0.25,4,0.11c5.5-1,11.5-2,19-3.75c1.23-0.29,2.25-0.5,3.75-0.49" style="fill:none;stroke:#999;stroke-width:3" />
<path d="M137.62,16c0.94,0.94,1.21,2.38,1.21,3.75c0,7.25,0.03,38.75,0.03,49.5" style="fill:none;stroke:black;stroke-width:3" />
<circle cx="137.62" cy="16.0" r="5" stroke-width="0" fill="#FF2A00" opacity="0.7" />
<path d="M232.5,43.89c1.5,0.36,3.25,0.25,4,0.11c5.5-1,11.5-2,19-3.75c1.23-0.29,2.25-0.5,3.75-0.49" style="fill:none;stroke:#999;stroke-width:3" />
<path d="M246.62,16c0.94,0.94,1.21,2.38,1.21,3.75c0,7.25,0.03,38.75,0.03,49.5" style="fill:none;stroke:#999;stroke-width:3" />
<path d="m234.26,80.76c1.15,0.36,2.73,0.3,4.12,-1.15,5.14,-5.37,14.42,-14.98,19.56,-20.34" style="fill:none;stroke:black;stroke-width:3" />
<circle cx="234.26" cy="80.76" r="5" stroke-width="0" fill="#FF2A00" opacity="0.7" />
<path d="M341.5,43.89c1.5,0.36,3.25,0.25,4,0.11c5.5-1,11.5-2,19-3.75c1.23-0.29,2.25-0.5,3.75-0.49" style="fill:none;stroke:#999;stroke-width:3" />
<path d="M355.62,16c0.94,0.94,1.21,2.38,1.21,3.75c0,7.25,0.03,38.75,0.03,49.5" style="fill:none;stroke:#999;stroke-width:3" />
<path d="m343.26,80.76c1.15,0.36,2.73,0.3,4.12,-1.15,5.14,-5.37,14.42,-14.98,19.56,-20.34" style="fill:none;stroke:#999;stroke-width:3" />
<path d="M388.04,13.75c0.05,0.86,0.01,2-0.35,3.19c-2.82,9.31-8.32,21.43-17.44,32.69" style="fill:none;stroke:black;stroke-width:3" />
<circle cx="388.04" cy="13.75" r="5" stroke-width="0" fill="#FF2A00" opacity="0.7" />
<path d="M450.5,43.89c1.5,0.36,3.25,0.25,4,0.11c5.5-1,11.5-2,19-3.75c1.23-0.29,2.25-0.5,3.75-0.49" style="fill:none;stroke:#999;stroke-width:3" />
<path d="M464.62,16c0.94,0.94,1.21,2.38,1.21,3.75c0,7.25,0.03,38.75,0.03,49.5" style="fill:none;stroke:#999;stroke-width:3" />
<path d="m452.26,80.76c1.15,0.36,2.73,0.3,4.12,-1.15,5.14,-5.37,14.42,-14.98,19.56,-20.34" style="fill:none;stroke:#999;stroke-width:3" />
<path d="M497.04,13.75c0.05,0.86,0.01,2-0.35,3.19c-2.82,9.31-8.32,21.43-17.44,32.69" style="fill:none;stroke:#999;stroke-width:3" />
<path d="M492.79,34.67c1.71,0.45,3.1,0.37,4.6,0.21c3.73-0.39,24.54-3.16,28.14-3.39c3.6-0.23,6.47,0.59,5.78,5.44C529.0,53.12,525.75,73.38,517.5699999999999,89.67c-2.08,4.14-5.45,3.46-8.51-0.66" style="fill:none;stroke:black;stroke-width:3" />
<circle cx="492.79" cy="34.67" r="5" stroke-width="0" fill="#FF2A00" opacity="0.7" />
<path d="M559.5,43.89c1.5,0.36,3.25,0.25,4,0.11c5.5-1,11.5-2,19-3.75c1.23-0.29,2.25-0.5,3.75-0.49" style="fill:none;stroke:#999;stroke-width:3" />
<path d="M573.62,16c0.94,0.94,1.21,2.38,1.21,3.75c0,7.25,0.03,38.75,0.03,49.5" style="fill:none;stroke:#999;stroke-width:3" />
<path d="m561.26,80.76c1.15,0.36,2.73,0.3,4.12,-1.15,5.14,-5.37,14.42,-14.98,19.56,-20.34" style="fill:none;stroke:#999;stroke-width:3" />
<path d="M606.04,13.75c0.05,0.86,0.01,2-0.35,3.19c-2.82,9.31-8.32,21.43-17.44,32.69" style="fill:none;stroke:#999;stroke-width:3" />
<path d="M601.79,34.67c1.71,0.45,3.1,0.37,4.6,0.21c3.73-0.39,24.54-3.16,28.14-3.39c3.6-0.23,6.47,0.59,5.78,5.44C638.0,53.12,634.75,73.38,626.5699999999999,89.67c-2.08,4.14-5.45,3.46-8.51-0.66" style="fill:none;stroke:#999;stroke-width:3" />
<path d="M601.02,46.58c4.07,1.66,9.61,5.92,11.54,9.38" style="fill:none;stroke:black;stroke-width:3" />
<circle cx="601.02" cy="46.58" r="5" stroke-width="0" fill="#FF2A00" opacity="0.7" />
<path d="M668.5,43.89c1.5,0.36,3.25,0.25,4,0.11c5.5-1,11.5-2,19-3.75c1.23-0.29,2.25-0.5,3.75-0.49" style="fill:none;stroke:#999;stroke-width:3" />
<path d="M682.62,16c0.94,0.94,1.21,2.38,1.21,3.75c0,7.25,0.03,38.75,0.03,49.5" style="fill:none;stroke:#999;stroke-width:3" />
<path d="m670.26,80.76c1.15,0.36,2.73,0.3,4.12,-1.15,5.14,-5.37,14.42,-14.98,19.56,-20.34" style="fill:none;stroke:#999;stroke-width:3" />
<path d="M715.04,13.75c0.05,0.86,0.01,2-0.35,3.19c-2.82,9.31-8.32,21.43-17.44,32.69" style="fill:none;stroke:#999;stroke-width:3" />
<path d="M710.79,34.67c1.71,0.45,3.1,0.37,4.6,0.21c3.73-0.39,24.54-3.16,28.14-3.39c3.6-0.23,6.47,0.59,5.78,5.44C747.0,53.12,743.75,73.38,735.5699999999999,89.67c-2.08,4.14-5.45,3.46-8.51-0.66" style="fill:none;stroke:#999;stroke-width:3" />
<path d="M710.02,46.58c4.07,1.66,9.61,5.92,11.54,9.38" style="fill:none;stroke:#999;stroke-width:3" />
<path d="M707.51,75.01C708.53,75.45,710.3,75.47,711.48,74.57C716.26,70.91,725.95,64.16,730.94,60.77" style="fill:none;stroke:black;stroke-width:3" />
<circle cx="707.51" cy="75.01" r="5" stroke-width="0" fill="#FF2A00" opacity="0.7" />
</svg>