<svg width="1417px" height="109px" viewBox="0 0 1417px 109px" xmlns="http://www.w3.org/2000/svg" xmlns:xlink="http://www.w3.org/1999/xlink" xml:space="preserve" version="1.1"  baseProfile="full">
<line x1="1" y1="1" x2="1416" y2="1" style="stroke:#ddd;stroke-width:2" />
<line x1="1" y1="1" x2="1" y2="108" style="stroke:#ddd;stroke-width:2" />
<line x1="1" y1="108" x2="1416" y2="108" style="stroke:#ddd;stroke-width:2" />
<line x1="1416" y1="1" x2="1416" y2="108" style="stroke:#ddd;stroke-width:2" />
<line x1="109" y1="1" x2="109" y2="108" style="stroke:#ddd;stroke-width:2" />
<line x1="218" y1="1" x2="218" y2="108" style="stroke:#ddd;stroke-width:2" />
<line x1="327" y1="1" x2="327" y2="108" style="stroke:#ddd;stroke-width:2" />
<line x1="436" y1="1" x2="436" y2="108" style="stroke:#ddd;stroke-width:2" />
<line x1="545" y1="1" x2="545" y2="108" style="stroke:#ddd;stroke-width:2" />
<line x1="654" y1="1" x2="654" y2="108" style="stroke:#ddd;stroke-width:2" />
<line x1="763" y1="1" x2="763" y2="108" style="stroke:#ddd;stroke-width:2" />
<line x1="872" y1="1" x2="872" y2="108" style="stroke:#ddd;stroke-width:2" />
<line x1="981" y1="1" x2="981" y2="108" style="stroke:#ddd;stroke-width:2" />
<line x1="1090" y1="1" x2="1090" y2="108" style="stroke:#ddd;stroke-width:2" />
<line x1="1199" y1="1" x2="1199" y2="108" style="stroke:#ddd;stroke-width:2" />
<line x1="1308" y1="1" x2="1308" y2="108" style="stroke:#ddd;stroke-width:2" />
<line x1="1" y1="54" x2="1416" y2="54" style="stroke:#ddd;stroke-width:2;stroke-dasharray:3 3" />
<line x1="55" y1="1" x2="55" y2="108" style="stroke:#ddd;stroke-width:2;stroke-dasharray:3 3" />
<line x1="164" y1="1" x2="164" y2="108" style="stroke:#ddd;stroke-width:2;stroke-dasharray:3 3" />
<line x1="273" y1="1" x2="273" y2="108" style="stroke:#ddd;stroke-width:2;stroke-dasharray:3 3" />
<line x1="382" y1="1" x2="382" y2="108" style="stroke:#ddd;stroke-width:2;stroke-dasharray:3 3" />
<line x1="491" y1="1" x2="491" y2="108" style="stroke:#ddd;stroke-width:2;stroke-dasharray:3 3" />
<line x1="600" y1="1" x2="600" y2="108" style="stroke:#ddd;stroke-width:2;stroke-dasharray:3 3" />
<line x1="709" y1="1" x2="709" y2="108" style="stroke:#ddd;stroke-width:2;stroke-dasharray:3 3" />
<line x1="818" y1="1" x2="818" y2="108" style="stroke:#ddd;stroke-width:2;stroke-dasharray:3 3" />
<line x1="927" y1="1" x2="927" y2="108" style="stroke:#ddd;stroke-width:2;stroke-dasharray:3 3" />
<line x1="1036" y1="1" x2="1036" y2="108" style="stroke:#ddd;stroke-width:2;stroke-dasharray:3 3" />
<line x1="1145" y1="1" x2="1145" y2="108" style="stroke:#ddd;stroke-width:2;stroke-dasharray:3 3" />
<line x1="1254" y1="1" x2="1254" y2="108" style="stroke:#ddd;stroke-width:2;stroke-dasharray:3 3" />
<line x1="1363" y1="1" x2="1363" y2="108" style="stroke:#ddd;stroke-width:2;stroke-dasharray:3 3" />
<path d="M52.257138,15.84293 c -1.142873,1.207149 -3.820057,2.715724 -4.560057,3.585724 C 39.291334,25.717217 33.25,32.25 16,40.23" style="fill:none;stroke:black;stroke-width:3" />
<circle cx="52.257138" cy="15.84293" r="5" stroke-width="0" fill="#FF2A00" opacity="0.7" />
<path d="M161.257138,15.84293 c -1.142873,1.207149 -3.820057,2.715724 -4.560057,3.585724 C 39.291334,25.717217 33.25,32.25 16,40.23" style="fill:none;stroke:#999;stroke-width:3" />
<path d="M  45.769909,10.777115 c 3.327116,2.029965 4.534539,3.378393 6.636773,5.024048 C 66.306226,26.681896 85.757058,35.34854 94.26,38.03" style="fill:none;stroke:black;stroke-width:3" />
<circle cx="154.76990899999998" cy="10.777115" r="5" stroke-width="0" fill="#FF2A00" opacity="0.7" />
<path d="M270.257138,15.84293 c -1.142873,1.207149 -3.820057,2.715724 -4.560057,3.585724 C 39.291334,25.717217 33.25,32.25 16,40.23" style="fill:none;stroke:#999;stroke-width:3" />
<path d="M  45.769909,10.777115 c 3.327116,2.029965 4.534539,3.378393 6.636773,5.024048 C 66.306226,26.681896 85.757058,35.34854 94.26,38.03" style="fill:none;stroke:#999;stroke-width:3" />
<path d="M  41.867149,33.044287 c 0.6,0.18 1.7,0.23 2.3,0.18 3.83,-0.31 16.72,-1.69 21.06,-1.79 1,-0.02 1.6,0.08 2.1,0.17" style="fill:none;stroke:black;stroke-width:3" />
<circle cx="259.867149" cy="33.044287" r="5" stroke-width="0" fill="#FF2A00" opacity="0.7" />
<path d="M379.257138,15.84293 c -1.142873,1.207149 -3.820057,2.715724 -4.560057,3.585724 C 39.291334,25.717217 33.25,32.25 16,40.23" style="fill:none;stroke:#999;stroke-width:3" />
<path d="M  45.769909,10.777115 c 3.327116,2.029965 4.534539,3.378393 6.636773,5.024048 C 66.306226,26.681896 85.757058,35.34854 94.26,38.03" style="fill:none;stroke:#999;stroke-width:3" />
<path d="M  41.867149,33.044287 c 0.6,0.18 1.7,0.23 2.3,0.18 3.83,-0.31 16.72,-1.69 21.06,-1.79 1,-0.02 1.6,0.08 2.1,0.17" style="fill:none;stroke:#999;stroke-width:3" />
<path d="M354.24,41.76c0.67,0.72,1.12,1.43,1.35,2.15c0.22,0.72,0.32,27.61,0.22,29.22" style="fill:none;stroke:black;stroke-width:3" />
<circle cx="354.24" cy="41.76" r="5" stroke-width="0" fill="#FF2A00" opacity="0.7" />
<path d="M488.257138,15.84293 c -1.142873,1.207149 -3.820057,2.715724 -4.560057,3.585724 C 39.291334,25.717217 33.25,32.25 16,40.23" style="fill:none;stroke:#999;stroke-width:3" />
<path d="M  45.769909,10.777115 c 3.327116,2.029965 4.534539,3.378393 6.636773,5.024048 C 66.306226,26.681896 85.757058,35.34854 94.26,38.03" style="fill:none;stroke:#999;stroke-width:3" />
<path d="M  41.867149,33.044287 c 0.6,0.18 1.7,0.23 2.3,0.18 3.83,-0.31 16.72,-1.69 21.06,-1.79 1,-0.02 1.6,0.08 2.1,0.17" style="fill:none;stroke:#999;stroke-width:3" />
<path d="M463.24,41.76c0.67,0.72,1.12,1.43,1.35,2.15c0.22,0.72,0.32,27.61,0.22,29.22" style="fill:none;stroke:#999;stroke-width:3" />
<path d="M465.94,42.81c1.5-0.1,14.1-1.82,15.22-1.94c2-0.2,2.76,1.33,2.5,1.94c-0.24,0.59-0.38,18.48-0.38,26.74c0,7.31-3.28,2.12-4.53,1.2" style="fill:none;stroke:black;stroke-width:3" />
<circle cx="465.94" cy="42.81" r="5" stroke-width="0" fill="#FF2A00" opacity="0.7" />
<path d="M597.2571379999999,15.84293 c -1.142873,1.207149 -3.820057,2.715724 -4.560057,3.585724 C 39.291334,25.717217 33.25,32.25 16,40.23" style="fill:none;stroke:#999;stroke-width:3" />
<path d="M  45.769909,10.777115 c 3.327116,2.029965 4.534539,3.378393 6.636773,5.024048 C 66.306226,26.681896 85.757058,35.34854 94.26,38.03" style="fill:none;stroke:#999;stroke-width:3" />
<path d="M  41.867149,33.044287 c 0.6,0.18 1.7,0.23 2.3,0.18 3.83,-0.31 16.72,-1.69 21.06,-1.79 1,-0.02 1.6,0.08 2.1,0.17" style="fill:none;stroke:#999;stroke-width:3" />
<path d="M572.24,41.76c0.67,0.72,1.12,1.43,1.35,2.15c0.22,0.72,0.32,27.61,0.22,29.22" style="fill:none;stroke:#999;stroke-width:3" />
<path d="M574.94,42.81c1.5-0.1,14.1-1.82,15.22-1.94c2-0.2,2.76,1.33,2.5,1.94c-0.24,0.59-0.38,18.48-0.38,26.74c0,7.31-3.28,2.12-4.53,1.2" style="fill:none;stroke:#999;stroke-width:3" />
<path d="M 35.699829,49.769829 c 2.87,1 4.302816,2.877127 5.022816,4.427127" style="fill:none;stroke:black;stroke-width:3" />
<circle cx="580.699829" cy="49.769829" r="5" stroke-width="0" fill="#FF2A00" opacity="0.7" />
<path d="M706.2571379999999,15.84293 c -1.142873,1.207149 -3.820057,2.715724 -4.560057,3.585724 C 39.291334,25.717217 33.25,32.25 16,40.23" style="fill:none;stroke:#999;stroke-width:3" />
<path d="M  45.769909,10.777115 c 3.327116,2.029965 4.534539,3.378393 6.636773,5.024048 C 66.306226,26.681896 85.757058,35.34854 94.26,38.03" style="fill:none;stroke:#999;stroke-width:3" />
<path d="M  41.867149,33.044287 c 0.6,0.18 1.7,0.23 2.3,0.18 3.83,-0.31 16.72,-1.69 21.06,-1.79 1,-0.02 1.6,0.08 2.1,0.17" style="fill:none;stroke:#999;stroke-width:3" />
<path d="M681.24,41.76c0.67,0.72,1.12,1.43,1.35,2.15c0.22,0.72,0.32,27.61,0.22,29.22" style="fill:none;stroke:#999;stroke-width:3" />
<path d="M683.94,42.81c1.5-0.1,14.1-1.82,15.22-1.94c2-0.2,2.76,1.33,2.5,1.94c-0.24,0.59-0.38,18.48-0.38,26.74c0,7.31-3.28,2.12-4.53,1.2" style="fill:none;stroke:#999;stroke-width:3" />
<path d="M 35.699829,49.769829 c 2.87,1 4.302816,2.877127 5.022816,4.427127" style="fill:none;stroke:#999;stroke-width:3" />
<path d="M 35.436955,58.844082 c 2.41,1.12 4.221403,3.004265 4.831403,4.754265" style="fill:none;stroke:black;stroke-width:3" />
<circle cx="689.436955" cy="58.844082" r="5" stroke-width="0" fill="#FF2A00" opacity="0.7" />
<path d="M815.2571379999999,15.84293 c -1.142873,1.207149 -3.820057,2.715724 -4.560057,3.585724 C 39.291334,25.717217 33.25,32.25 16,40.23" style="fill:none;stroke:#999;stroke-width:3" />
<path d="M  45.769909,10.777115 c 3.327116,2.029965 4.534539,3.378393 6.636773,5.024048 C 66.306226,26.681896 85.757058,35.34854 94.26,38.03" style="fill:none;stroke:#999;stroke-width:3" />
<path d="M  41.867149,33.044287 c 0.6,0.18 1.7,0.23 2.3,0.18 3.83,-0.31 16.72,-1.69 21.06,-1.79 1,-0.02 1.6,0.08 2.1,0.17" style="fill:none;stroke:#999;stroke-width:3" />
<path d="M790.24,41.76c0.67,0.72,1.12,1.43,1.35,2.15c0.22,0.72,0.32,27.61,0.22,29.22" style="fill:none;stroke:#999;stroke-width:3" />
<path d="M792.94,42.81c1.5-0.1,14.1-1.82,15.22-1.94c2-0.2,2.76,1.33,2.5,1.94c-0.24,0.59-0.38,18.48-0.38,26.74c0,7.31-3.28,2.12-4.53,1.2" style="fill:none;stroke:#999;stroke-width:3" />
<path d="M 35.699829,49.769829 c 2.87,1 4.302816,2.877127 5.022816,4.427127" style="fill:none;stroke:#999;stroke-width:3" />
<path d="M 35.436955,58.844082 c 2.41,1.12 4.221403,3.004265 4.831403,4.754265" style="fill:none;stroke:#999;stroke-width:3" />
<path d="M 64.128,44.941323 c -0.728563,2.521402 -4.661426,8.471368 -6.504253,10.888472 -0.965809,1.7888 -0.337795,2.567869 0.414287,3.351437 4.442851,3.945701 7.37285,6.877081 9.231414,12.098438" style="fill:none;stroke:black;stroke-width:3" />
<circle cx="827.128" cy="44.941323" r="5" stroke-width="0" fill="#FF2A00" opacity="0.7" />
<path d="M924.2571379999999,15.84293 c -1.142873,1.207149 -3.820057,2.715724 -4.560057,3.585724 C 39.291334,25.717217 33.25,32.25 16,40.23" style="fill:none;stroke:#999;stroke-width:3" />
<path d="M  45.769909,10.777115 c 3.327116,2.029965 4.534539,3.378393 6.636773,5.024048 C 66.306226,26.681896 85.757058,35.34854 94.26,38.03" style="fill:none;stroke:#999;stroke-width:3" />
<path d="M  41.867149,33.044287 c 0.6,0.18 1.7,0.23 2.3,0.18 3.83,-0.31 16.72,-1.69 21.06,-1.79 1,-0.02 1.6,0.08 2.1,0.17" style="fill:none;stroke:#999;stroke-width:3" />
<path d="M899.24,41.76c0.67,0.72,1.12,1.43,1.35,2.15c0.22,0.72,0.32,27.61,0.22,29.22" style="fill:none;stroke:#999;stroke-width:3" />
<path d="M901.94,42.81c1.5-0.1,14.1-1.82,15.22-1.94c2-0.2,2.76,1.33,2.5,1.94c-0.24,0.59-0.38,18.48-0.38,26.74c0,7.31-3.28,2.12-4.53,1.2" style="fill:none;stroke:#999;stroke-width:3" />
<path d="M 35.699829,49.769829 c 2.87,1 4.302816,2.877127 5.022816,4.427127" style="fill:none;stroke:#999;stroke-width:3" />
<path d="M 35.436955,58.844082 c 2.41,1.12 4.221403,3.004265 4.831403,4.754265" style="fill:none;stroke:#999;stroke-width:3" />
<path d="M 64.128,44.941323 c -0.728563,2.521402 -4.661426,8.471368 -6.504253,10.888472 -0.965809,1.7888 -0.337795,2.567869 0.414287,3.351437 4.442851,3.945701 7.37285,6.877081 9.231414,12.098438" style="fill:none;stroke:#999;stroke-width:3" />
<path d="M 74,44.941323 c -0.728563,2.521402 -4.661426,8.471368 -6.504253,10.888472 -0.965809,1.7888 -0.337795,2.567869 0.414287,3.351437 4.442851,3.945701 7.37285,6.877081 9.231414,12.098438" style="fill:none;stroke:black;stroke-width:3" />
<circle cx="946.0" cy="44.941323" r="5" stroke-width="0" fill="#FF2A00" opacity="0.7" />
<path d="M1033.257138,15.84293 c -1.142873,1.207149 -3.820057,2.715724 -4.560057,3.585724 C 39.291334,25.717217 33.25,32.25 16,40.23" style="fill:none;stroke:#999;stroke-width:3" />
<path d="M  45.769909,10.777115 c 3.327116,2.029965 4.534539,3.378393 6.636773,5.024048 C 66.306226,26.681896 85.757058,35.34854 94.26,38.03" style="fill:none;stroke:#999;stroke-width:3" />
<path d="M  41.867149,33.044287 c 0.6,0.18 1.7,0.23 2.3,0.18 3.83,-0.31 16.72,-1.69 21.06,-1.79 1,-0.02 1.6,0.08 2.1,0.17" style="fill:none;stroke:#999;stroke-width:3" />
<path d="M1008.24,41.76c0.67,0.72,1.12,1.43,1.35,2.15c0.22,0.72,0.32,27.61,0.22,29.22" style="fill:none;stroke:#999;stroke-width:3" />
<path d="M1010.94,42.81c1.5-0.1,14.1-1.82,15.22-1.94c2-0.2,2.76,1.33,2.5,1.94c-0.24,0.59-0.38,18.48-0.38,26.74c0,7.31-3.28,2.12-4.53,1.2" style="fill:none;stroke:#999;stroke-width:3" />
<path d="M 35.699829,49.769829 c 2.87,1 4.302816,2.877127 5.022816,4.427127" style="fill:none;stroke:#999;stroke-width:3" />
<path d="M 35.436955,58.844082 c 2.41,1.12 4.221403,3.004265 4.831403,4.754265" style="fill:none;stroke:#999;stroke-width:3" />
<path d="M 64.128,44.941323 c -0.728563,2.521402 -4.661426,8.471368 -6.504253,10.888472 -0.965809,1.7888 -0.337795,2.567869 0.414287,3.351437 4.442851,3.945701 7.37285,6.877081 9.231414,12.098438" style="fill:none;stroke:#999;stroke-width:3" />
<path d="M 74,44.941323 c -0.728563,2.521402 -4.661426,8.471368 -6.504253,10.888472 -0.965809,1.7888 -0.337795,2.567869 0.414287,3.351437 4.442851,3.945701 7.37285,6.877081 9.231414,12.098438" style="fill:none;stroke:#999;stroke-width:3" />
<path d="M1004.03,83.24c0.33,2.02-3.31,10.94-5.95,14.31" style="fill:none;stroke:black;stroke-width:3" />
<circle cx="1004.03" cy="83.24" r="5" stroke-width="0" fill="#FF2A00" opacity="0.7" />
<path d="M1142.257138,15.84293 c -1.142873,1.207149 -3.820057,2.715724 -4.560057,3.585724 C 39.291334,25.717217 33.25,32.25 16,40.23" style="fill:none;stroke:#999;stroke-width:3" />
<path d="M  45.769909,10.777115 c 3.327116,2.029965 4.534539,3.378393 6.636773,5.024048 C 66.306226,26.681896 85.757058,35.34854 94.26,38.03" style="fill:none;stroke:#999;stroke-width:3" />
<path d="M  41.867149,33.044287 c 0.6,0.18 1.7,0.23 2.3,0.18 3.83,-0.31 16.72,-1.69 21.06,-1.79 1,-0.02 1.6,0.08 2.1,0.17" style="fill:none;stroke:#999;stroke-width:3" />
<path d="M1117.24,41.76c0.67,0.72,1.12,1.43,1.35,2.15c0.22,0.72,0.32,27.61,0.22,29.22" style="fill:none;stroke:#999;stroke-width:3" />
<path d="M1119.94,42.81c1.5-0.1,14.1-1.82,15.22-1.94c2-0.2,2.76,1.33,2.5,1.94c-0.24,0.59-0.38,18.48-0.38,26.74c0,7.31-3.28,2.12-4.53,1.2" style="fill:none;stroke:#999;stroke-width:3" />
<path d="M 35.699829,49.769829 c 2.87,1 4.302816,2.877127 5.022816,4.427127" style="fill:none;stroke:#999;stroke-width:3" />
<path d="M 35.436955,58.844082 c 2.41,1.12 4.221403,3.004265 4.831403,4.754265" style="fill:none;stroke:#999;stroke-width:3" />
<path d="M 64.128,44.941323 c -0.728563,2.521402 -4.661426,8.471368 -6.504253,10.888472 -0.965809,1.7888 -0.337795,2.567869 0.414287,3.351437 4.442851,3.945701 7.37285,6.877081 9.231414,12.098438" style="fill:none;stroke:#999;stroke-width:3" />
<path d="M 74,44.941323 c -0.728563,2.521402 -4.661426,8.471368 -6.504253,10.888472 -0.965809,1.7888 -0.337795,2.567869 0.414287,3.351437 4.442851,3.945701 7.37285,6.877081 9.231414,12.098438" style="fill:none;stroke:#999;stroke-width:3" />
<path d="M1113.03,83.24c0.33,2.02-3.31,10.94-5.95,14.31" style="fill:none;stroke:#999;stroke-width:3" />
<path d="M1124.0,80.63c6.31,9.73,16.29,18.18,40.61,18.3c11.74,0.06,11.64-3.68,4.71-9.53" style="fill:none;stroke:black;stroke-width:3" />
<circle cx="1124.0" cy="80.63" r="5" stroke-width="0" fill="#FF2A00" opacity="0.7" />
<path d="M1251.257138,15.84293 c -1.142873,1.207149 -3.820057,2.715724 -4.560057,3.585724 C 39.291334,25.717217 33.25,32.25 16,40.23" style="fill:none;stroke:#999;stroke-width:3" />
<path d="M  45.769909,10.777115 c 3.327116,2.029965 4.534539,3.378393 6.636773,5.024048 C 66.306226,26.681896 85.757058,35.34854 94.26,38.03" style="fill:none;stroke:#999;stroke-width:3" />
<path d="M  41.867149,33.044287 c 0.6,0.18 1.7,0.23 2.3,0.18 3.83,-0.31 16.72,-1.69 21.06,-1.79 1,-0.02 1.6,0.08 2.1,0.17" style="fill:none;stroke:#999;stroke-width:3" />
<path d="M1226.24,41.76c0.67,0.72,1.12,1.43,1.35,2.15c0.22,0.72,0.32,27.61,0.22,29.22" style="fill:none;stroke:#999;stroke-width:3" />
<path d="M1228.94,42.81c1.5-0.1,14.1-1.82,15.22-1.94c2-0.2,2.76,1.33,2.5,1.94c-0.24,0.59-0.38,18.48-0.38,26.74c0,7.31-3.28,2.12-4.53,1.2" style="fill:none;stroke:#999;stroke-width:3" />
<path d="M 35.699829,49.769829 c 2.87,1 4.302816,2.877127 5.022816,4.427127" style="fill:none;stroke:#999;stroke-width:3" />
<path d="M 35.436955,58.844082 c 2.41,1.12 4.221403,3.004265 4.831403,4.754265" style="fill:none;stroke:#999;stroke-width:3" />
<path d="M 64.128,44.941323 c -0.728563,2.521402 -4.661426,8.471368 -6.504253,10.888472 -0.965809,1.7888 -0.337795,2.567869 0.414287,3.351437 4.442851,3.945701 7.37285,6.877081 9.231414,12.098438" style="fill:none;stroke:#999;stroke-width:3" />
<path d="M 74,44.941323 c -0.728563,2.521402 -4.661426,8.471368 -6.504253,10.888472 -0.965809,1.7888 -0.337795,2.567869 0.414287,3.351437 4.442851,3.945701 7.37285,6.877081 9.231414,12.098438" style="fill:none;stroke:#999;stroke-width:3" />
<path d="M1222.03,83.24c0.33,2.02-3.31,10.94-5.95,14.31" style="fill:none;stroke:#999;stroke-width:3" />
<path d="M1233.0,80.63c6.31,9.73,16.29,18.18,40.61,18.3c11.74,0.06,11.64-3.68,4.71-9.53" style="fill:none;stroke:#999;stroke-width:3" />
<path d="M1254.31,77.53c2,4.2,4.92,8.4,7.06,1.97" style="fill:none;stroke:black;stroke-width:3" />
<circle cx="1254.31" cy="77.53" r="5" stroke-width="0" fill="#FF2A00" opacity="0.7" />
<path d="M1360.257138,15.84293 c -1.142873,1.207149 -3.820057,2.715724 -4.560057,3.585724 C 39.291334,25.717217 33.25,32.25 16,40.23" style="fill:none;stroke:#999;stroke-width:3" />
<path d="M  45.769909,10.777115 c 3.327116,2.029965 4.534539,3.378393 6.636773,5.024048 C 66.306226,26.681896 85.757058,35.34854 94.26,38.03" style="fill:none;stroke:#999;stroke-width:3" />
<path d="M  41.867149,33.044287 c 0.6,0.18 1.7,0.23 2.3,0.18 3.83,-0.31 16.72,-1.69 21.06,-1.79 1,-0.02 1.6,0.08 2.1,0.17" style="fill:none;stroke:#999;stroke-width:3" />
<path d="M1335.24,41.76c0.67,0.72,1.12,1.43,1.35,2.15c0.22,0.72,0.32,27.61,0.22,29.22" style="fill:none;stroke:#999;stroke-width:3" />
<path d="M1337.94,42.81c1.5-0.1,14.1-1.82,15.22-1.94c2-0.2,2.76,1.33,2.5,1.94c-0.24,0.59-0.38,18.48-0.38,26.74c0,7.31-3.28,2.12-4.53,1.2" style="fill:none;stroke:#999;stroke-width:3" />
<path d="M 35.699829,49.769829 c 2.87,1 4.302816,2.877127 5.022816,4.427127" style="fill:none;stroke:#999;stroke-width:3" />
<path d="M 35.436955,58.844082 c 2.41,1.12 4.221403,3.004265 4.831403,4.754265" style="fill:none;stroke:#999;stroke-width:3" />
<path d="M 64.128,44.941323 c -0.728563,2.521402 -4.661426,8.471368 -6.504253,10.888472 -0.965809,1.7888 -0.337795,2.567869 0.414287,3.351437 4.442851,3.945701 7.37285,6.877081 9.231414,12.098438" style="fill:none;stroke:#999;stroke-width:3" />
<path d="M 74,44.941323 c -0.728563,2.521402 -4.661426,8.471368 -6.504253,10.888472 -0.965809,1.7888 -0.337795,2.567869 0.414287,3.351437 4.442851,3.945701 7.37285,6.877081 9.231414,12.098438" style="fill:none;stroke:#999;stroke-width:3" />
<path d="M1331.03,83.24c0.33,2.02-3.31,10.94-5.95,14.31" style="fill:none;stroke:#999;stroke-width:3" />
<path d="M1342.0,80.63c6.31,9.73,16.29,18.18,40.61,18.3c11.74,0.06,11.64-3.68,4.71-9.53" style="fill:none;stroke:#999;stroke-width:3" />
<path d="M1363.31,77.53c2,4.2,4.92,8.4,7.06,1.97" style="fill:none;stroke:#999;stroke-width:3" />
<path d="M1391.61,78.73c4.83,2.33,8.45,4.45,12.38,11.67" style="fill:none;stroke:black;stroke-width:3" />
<circle cx="1391.61" cy="78.73" r="5" stroke-width="0" fill="#FF2A00" opacity="0.7" />
</svg>