<svg width="1635px" height="109px" viewBox="0 0 1635px 109px" xmlns="http://www.w3.org/2000/svg" xmlns:xlink="http://www.w3.org/1999/xlink" xml:space="preserve" version="1.1"  baseProfile="full">
<line x1="1" y1="1" x2="1634" y2="1" style="stroke:#ddd;stroke-width:2" />
<line x1="1" y1="1" x2="1" y2="108" style="stroke:#ddd;stroke-width:2" />
<line x1="1" y1="108" x2="1634" y2="108" style="stroke:#ddd;stroke-width:2" />
<line x1="1634" y1="1" x2="1634" y2="108" style="stroke:#ddd;stroke-width:2" />
<line x1="109" y1="1" x2="109" y2="108" style="stroke:#ddd;stroke-width:2" />
<line x1="218" y1="1" x2="218" y2="108" style="stroke:#ddd;stroke-width:2" />
<line x1="327" y1="1" x2="327" y2="108" style="stroke:#ddd;stroke-width:2" />
<line x1="436" y1="1" x2="436" y2="108" style="stroke:#ddd;stroke-width:2" />
<line x1="545" y1="1" x2="545" y2="108" style="stroke:#ddd;stroke-width:2" />
<line x1="654" y1="1" x2="654" y2="108" style="stroke:#ddd;stroke-width:2" />
<line x1="763" y1="1" x2="763" y2="108" style="stroke:#ddd;stroke-width:2" />
<line x1="872" y1="1" x2="872" y2="108" style="stroke:#ddd;stroke-width:2" />
<line x1="981" y1="1" x2="981" y2="108" style="stroke:#ddd;stroke-width:2" />
<line x1="1090" y1="1" x2="1090" y2="108" style="stroke:#ddd;stroke-width:2" />
<line x1="1199" y1="1" x2="1199" y2="108" style="stroke:#ddd;stroke-width:2" />
<line x1="1308" y1="1" x2="1308" y2="108" style="stroke:#ddd;stroke-width:2" />
<line x1="1417" y1="1" x2="1417" y2="108" style="stroke:#ddd;stroke-width:2" />
<line x1="1526" y1="1" x2="1526" y2="108" style="stroke:#ddd;stroke-width:2" />
<line x1="1" y1="54" x2="1634" y2="54" style="stroke:#ddd;stroke-width:2;stroke-dasharray:3 3" />
<line x1="55" y1="1" x2="55" y2="108" style="stroke:#ddd;stroke-width:2;stroke-dasharray:3 3" />
<line x1="164" y1="1" x2="164" y2="108" style="stroke:#ddd;stroke-width:2;stroke-dasharray:3 3" />
<line x1="273" y1="1" x2="273" y2="108" style="stroke:#ddd;stroke-width:2;stroke-dasharray:3 3" />
<line x1="382" y1="1" x2="382" y2="108" style="stroke:#ddd;stroke-width:2;stroke-dasharray:3 3" />
<line x1="491" y1="1" x2="491" y2="108" style="stroke:#ddd;stroke-width:2;stroke-dasharray:3 3" />
<line x1="600" y1="1" x2="600" y2="108" style="stroke:#ddd;stroke-width:2;stroke-dasharray:3 3" />
<line x1="709" y1="1" x2="709" y2="108" style="stroke:#ddd;stroke-width:2;stroke-dasharray:3 3" />
<line x1="818" y1="1" x2="818" y2="108" style="stroke:#ddd;stroke-width:2;stroke-dasharray:3 3" />
<line x1="927" y1="1" x2="927" y2="108" style="stroke:#ddd;stroke-width:2;stroke-dasharray:3 3" />
<line x1="1036" y1="1" x2="1036" y2="108" style="stroke:#ddd;stroke-width:2;stroke-dasharray:3 3" />
<line x1="1145" y1="1" x2="1145" y2="108" style="stroke:#ddd;stroke-width:2;stroke-dasharray:3 3" />
<line x1="1254" y1="1" x2="1254" y2="108" style="stroke:#ddd;stroke-width:2;stroke-dasharray:3 3" />
<line x1="1363" y1="1" x2="1363" y2="108" style="stroke:#ddd;stroke-width:2;stroke-dasharray:3 3" />
<line x1="1472" y1="1" x2="1472" y2="108" style="stroke:#ddd;stroke-width:2;stroke-dasharray:3 3" />
<line x1="1581" y1="1" x2="1581" y2="108" style="stroke:#ddd;stroke-width:2;stroke-dasharray:3 3" />
<path d="M11.0,37.42c2.08,0.25,1.27,0.55,3.5,0.25c5.5-0.75,14.5-2,23.67-3.17" style="fill:none;stroke:black;stroke-width:3" />
<circle cx="11.0" cy="37.42" r="5" stroke-width="0" fill="#FF2A00" opacity="0.7" />
<path d="M120.0,37.42c2.08,0.25,1.27,0.55,3.5,0.25c5.5-0.75,14.5-2,23.67-3.17" style="fill:none;stroke:#999;stroke-width:3" />
<path d="M133.27,13c0.48,0.92,1.76,2.49,1.76,5.52c0,15.23,0.24,57.46,0.24,68.9c0,14.25-6.32,3.53-7.77,2" style="fill:none;stroke:black;stroke-width:3" />
<circle cx="133.27" cy="13.0" r="5" stroke-width="0" fill="#FF2A00" opacity="0.7" />
<path d="M229.0,37.42c2.08,0.25,1.27,0.55,3.5,0.25c5.5-0.75,14.5-2,23.67-3.17" style="fill:none;stroke:#999;stroke-width:3" />
<path d="M242.27,13c0.48,0.92,1.76,2.49,1.76,5.52c0,15.23,0.24,57.46,0.24,68.9c0,14.25-6.32,3.53-7.77,2" style="fill:none;stroke:#999;stroke-width:3" />
<path d="M229.0,63.7c0.74,0.88,1.92,1.39,3.55,0.58c0.96-0.48,18.61-9.56,22.7-11.86" style="fill:none;stroke:black;stroke-width:3" />
<circle cx="229.0" cy="63.7" r="5" stroke-width="0" fill="#FF2A00" opacity="0.7" />
<path d="M338.0,37.42c2.08,0.25,1.27,0.55,3.5,0.25c5.5-0.75,14.5-2,23.67-3.17" style="fill:none;stroke:#999;stroke-width:3" />
<path d="M351.27,13c0.48,0.92,1.76,2.49,1.76,5.52c0,15.23,0.24,57.46,0.24,68.9c0,14.25-6.32,3.53-7.77,2" style="fill:none;stroke:#999;stroke-width:3" />
<path d="M338.0,63.7c0.74,0.88,1.92,1.39,3.55,0.58c0.96-0.48,18.61-9.56,22.7-11.86" style="fill:none;stroke:#999;stroke-width:3" />
<path d="M393.51,10.5c0.08,0.77-0.07,2.07-0.54,3.11c-2.98,6.71-13.55,21.31-29.3,29.76" style="fill:none;stroke:black;stroke-width:3" />
<circle cx="393.51" cy="10.5" r="5" stroke-width="0" fill="#FF2A00" opacity="0.7" />
<path d="M447.0,37.42c2.08,0.25,1.27,0.55,3.5,0.25c5.5-0.75,14.5-2,23.67-3.17" style="fill:none;stroke:#999;stroke-width:3" />
<path d="M460.27,13c0.48,0.92,1.76,2.49,1.76,5.52c0,15.23,0.24,57.46,0.24,68.9c0,14.25-6.32,3.53-7.77,2" style="fill:none;stroke:#999;stroke-width:3" />
<path d="M447.0,63.7c0.74,0.88,1.92,1.39,3.55,0.58c0.96-0.48,18.61-9.56,22.7-11.86" style="fill:none;stroke:#999;stroke-width:3" />
<path d="M502.51,10.5c0.08,0.77-0.07,2.07-0.54,3.11c-2.98,6.71-13.55,21.31-29.3,29.76" style="fill:none;stroke:#999;stroke-width:3" />
<path d="M501.81,14.58c4.16,4.52,22.07,19.28,26.66,22.59c1.56,1.12,3.55,1.6,5.11,1.92" style="fill:none;stroke:black;stroke-width:3" />
<circle cx="501.81" cy="14.58" r="5" stroke-width="0" fill="#FF2A00" opacity="0.7" />
<path d="M556.0,37.42c2.08,0.25,1.27,0.55,3.5,0.25c5.5-0.75,14.5-2,23.67-3.17" style="fill:none;stroke:#999;stroke-width:3" />
<path d="M569.27,13c0.48,0.92,1.76,2.49,1.76,5.52c0,15.23,0.24,57.46,0.24,68.9c0,14.25-6.32,3.53-7.77,2" style="fill:none;stroke:#999;stroke-width:3" />
<path d="M556.0,63.7c0.74,0.88,1.92,1.39,3.55,0.58c0.96-0.48,18.61-9.56,22.7-11.86" style="fill:none;stroke:#999;stroke-width:3" />
<path d="M611.51,10.5c0.08,0.77-0.07,2.07-0.54,3.11c-2.98,6.71-13.55,21.31-29.3,29.76" style="fill:none;stroke:#999;stroke-width:3" />
<path d="M610.81,14.58c4.16,4.52,22.07,19.28,26.66,22.59c1.56,1.12,3.55,1.6,5.11,1.92" style="fill:none;stroke:#999;stroke-width:3" />
<path d="M611.06,27.92c0.64,0.41,1.7,1.98,1.7,2.79c0,2.98-0.2,6.28-0.08,8.81" style="fill:none;stroke:black;stroke-width:3" />
<circle cx="611.06" cy="27.92" r="5" stroke-width="0" fill="#FF2A00" opacity="0.7" />
<path d="M665.0,37.42c2.08,0.25,1.27,0.55,3.5,0.25c5.5-0.75,14.5-2,23.67-3.17" style="fill:none;stroke:#999;stroke-width:3" />
<path d="M678.27,13c0.48,0.92,1.76,2.49,1.76,5.52c0,15.23,0.24,57.46,0.24,68.9c0,14.25-6.32,3.53-7.77,2" style="fill:none;stroke:#999;stroke-width:3" />
<path d="M665.0,63.7c0.74,0.88,1.92,1.39,3.55,0.58c0.96-0.48,18.61-9.56,22.7-11.86" style="fill:none;stroke:#999;stroke-width:3" />
<path d="M720.51,10.5c0.08,0.77-0.07,2.07-0.54,3.11c-2.98,6.71-13.55,21.31-29.3,29.76" style="fill:none;stroke:#999;stroke-width:3" />
<path d="M719.81,14.58c4.16,4.52,22.07,19.28,26.66,22.59c1.56,1.12,3.55,1.6,5.11,1.92" style="fill:none;stroke:#999;stroke-width:3" />
<path d="M720.06,27.92c0.64,0.41,1.7,1.98,1.7,2.79c0,2.98-0.2,6.28-0.08,8.81" style="fill:none;stroke:#999;stroke-width:3" />
<path d="M704.43,40.94c0.87,0.2,1.64,0.42,2.64,0.28c5.96-0.84,22.52-2.28,29.46-2.69c1.02-0.06,1.54,0.02,2.31,0.36" style="fill:none;stroke:black;stroke-width:3" />
<circle cx="704.43" cy="40.94" r="5" stroke-width="0" fill="#FF2A00" opacity="0.7" />
<path d="M774.0,37.42c2.08,0.25,1.27,0.55,3.5,0.25c5.5-0.75,14.5-2,23.67-3.17" style="fill:none;stroke:#999;stroke-width:3" />
<path d="M787.27,13c0.48,0.92,1.76,2.49,1.76,5.52c0,15.23,0.24,57.46,0.24,68.9c0,14.25-6.32,3.53-7.77,2" style="fill:none;stroke:#999;stroke-width:3" />
<path d="M774.0,63.7c0.74,0.88,1.92,1.39,3.55,0.58c0.96-0.48,18.61-9.56,22.7-11.86" style="fill:none;stroke:#999;stroke-width:3" />
<path d="M829.51,10.5c0.08,0.77-0.07,2.07-0.54,3.11c-2.98,6.71-13.55,21.31-29.3,29.76" style="fill:none;stroke:#999;stroke-width:3" />
<path d="M828.81,14.58c4.16,4.52,22.07,19.28,26.66,22.59c1.56,1.12,3.55,1.6,5.11,1.92" style="fill:none;stroke:#999;stroke-width:3" />
<path d="M829.06,27.92c0.64,0.41,1.7,1.98,1.7,2.79c0,2.98-0.2,6.28-0.08,8.81" style="fill:none;stroke:#999;stroke-width:3" />
<path d="M813.43,40.94c0.87,0.2,1.64,0.42,2.64,0.28c5.96-0.84,22.52-2.28,29.46-2.69c1.02-0.06,1.54,0.02,2.31,0.36" style="fill:none;stroke:#999;stroke-width:3" />
<path d="M837.65,42.36c0.16,0.78,0.29,1.73-0.25,2.37c-5.14,6.02-10.64,9.52-18.34,13.99" style="fill:none;stroke:black;stroke-width:3" />
<circle cx="837.65" cy="42.36" r="5" stroke-width="0" fill="#FF2A00" opacity="0.7" />
<path d="M883.0,37.42c2.08,0.25,1.27,0.55,3.5,0.25c5.5-0.75,14.5-2,23.67-3.17" style="fill:none;stroke:#999;stroke-width:3" />
<path d="M896.27,13c0.48,0.92,1.76,2.49,1.76,5.52c0,15.23,0.24,57.46,0.24,68.9c0,14.25-6.32,3.53-7.77,2" style="fill:none;stroke:#999;stroke-width:3" />
<path d="M883.0,63.7c0.74,0.88,1.92,1.39,3.55,0.58c0.96-0.48,18.61-9.56,22.7-11.86" style="fill:none;stroke:#999;stroke-width:3" />
<path d="M938.51,10.5c0.08,0.77-0.07,2.07-0.54,3.11c-2.98,6.71-13.55,21.31-29.3,29.76" style="fill:none;stroke:#999;stroke-width:3" />
<path d="M937.81,14.58c4.16,4.52,22.07,19.28,26.66,22.59c1.56,1.12,3.55,1.6,5.11,1.92" style="fill:none;stroke:#999;stroke-width:3" />
<path d="M938.06,27.92c0.64,0.41,1.7,1.98,1.7,2.79c0,2.98-0.2,6.28-0.08,8.81" style="fill:none;stroke:#999;stroke-width:3" />
<path d="M922.43,40.94c0.87,0.2,1.64,0.42,2.64,0.28c5.96-0.84,22.52-2.28,29.46-2.69c1.02-0.06,1.54,0.02,2.31,0.36" style="fill:none;stroke:#999;stroke-width:3" />
<path d="M946.65,42.36c0.16,0.78,0.29,1.73-0.25,2.37c-5.14,6.02-10.64,9.52-18.34,13.99" style="fill:none;stroke:#999;stroke-width:3" />
<path d="M929.78,46.8c6.65,1.49,16.21,6.34,19.69,9.89" style="fill:none;stroke:black;stroke-width:3" />
<circle cx="929.78" cy="46.8" r="5" stroke-width="0" fill="#FF2A00" opacity="0.7" />
<path d="M992.0,37.42c2.08,0.25,1.27,0.55,3.5,0.25c5.5-0.75,14.5-2,23.67-3.17" style="fill:none;stroke:#999;stroke-width:3" />
<path d="M1005.27,13c0.48,0.92,1.76,2.49,1.76,5.52c0,15.23,0.24,57.46,0.24,68.9c0,14.25-6.32,3.53-7.77,2" style="fill:none;stroke:#999;stroke-width:3" />
<path d="M992.0,63.7c0.74,0.88,1.92,1.39,3.55,0.58c0.96-0.48,18.61-9.56,22.7-11.86" style="fill:none;stroke:#999;stroke-width:3" />
<path d="M1047.51,10.5c0.08,0.77-0.07,2.07-0.54,3.11c-2.98,6.71-13.55,21.31-29.3,29.76" style="fill:none;stroke:#999;stroke-width:3" />
<path d="M1046.81,14.58c4.16,4.52,22.07,19.28,26.66,22.59c1.56,1.12,3.55,1.6,5.11,1.92" style="fill:none;stroke:#999;stroke-width:3" />
<path d="M1047.06,27.92c0.64,0.41,1.7,1.98,1.7,2.79c0,2.98-0.2,6.28-0.08,8.81" style="fill:none;stroke:#999;stroke-width:3" />
<path d="M1031.4299999999998,40.94c0.87,0.2,1.64,0.42,2.64,0.28c5.96-0.84,22.52-2.28,29.46-2.69c1.02-0.06,1.54,0.02,2.31,0.36" style="fill:none;stroke:#999;stroke-width:3" />
<path d="M1055.65,42.36c0.16,0.78,0.29,1.73-0.25,2.37c-5.14,6.02-10.64,9.52-18.34,13.99" style="fill:none;stroke:#999;stroke-width:3" />
<path d="M1038.78,46.8c6.65,1.49,16.21,6.34,19.69,9.89" style="fill:none;stroke:#999;stroke-width:3" />
<path d="M1030.77,46.49c0.39,0.16,1.23,1.67,1.31,2c0.58,2.34-1.63,12.03-1.67,12.79c-0.04,0.76,0.86,1.66,1.64,1.62c7.18-0.29,30.4-2.2,34.5-2.36" style="fill:none;stroke:black;stroke-width:3" />
<circle cx="1030.77" cy="46.49" r="5" stroke-width="0" fill="#FF2A00" opacity="0.7" />
<path d="M1101.0,37.42c2.08,0.25,1.27,0.55,3.5,0.25c5.5-0.75,14.5-2,23.67-3.17" style="fill:none;stroke:#999;stroke-width:3" />
<path d="M1114.27,13c0.48,0.92,1.76,2.49,1.76,5.52c0,15.23,0.24,57.46,0.24,68.9c0,14.25-6.32,3.53-7.77,2" style="fill:none;stroke:#999;stroke-width:3" />
<path d="M1101.0,63.7c0.74,0.88,1.92,1.39,3.55,0.58c0.96-0.48,18.61-9.56,22.7-11.86" style="fill:none;stroke:#999;stroke-width:3" />
<path d="M1156.51,10.5c0.08,0.77-0.07,2.07-0.54,3.11c-2.98,6.71-13.55,21.31-29.3,29.76" style="fill:none;stroke:#999;stroke-width:3" />
<path d="M1155.81,14.58c4.16,4.52,22.07,19.28,26.66,22.59c1.56,1.12,3.55,1.6,5.11,1.92" style="fill:none;stroke:#999;stroke-width:3" />
<path d="M1156.06,27.92c0.64,0.41,1.7,1.98,1.7,2.79c0,2.98-0.2,6.28-0.08,8.81" style="fill:none;stroke:#999;stroke-width:3" />
<path d="M1140.4299999999998,40.94c0.87,0.2,1.64,0.42,2.64,0.28c5.96-0.84,22.52-2.28,29.46-2.69c1.02-0.06,1.54,0.02,2.31,0.36" style="fill:none;stroke:#999;stroke-width:3" />
<path d="M1164.65,42.36c0.16,0.78,0.29,1.73-0.25,2.37c-5.14,6.02-10.64,9.52-18.34,13.99" style="fill:none;stroke:#999;stroke-width:3" />
<path d="M1147.78,46.8c6.65,1.49,16.21,6.34,19.69,9.89" style="fill:none;stroke:#999;stroke-width:3" />
<path d="M1139.77,46.49c0.39,0.16,1.23,1.67,1.31,2c0.58,2.34-1.63,12.03-1.67,12.79c-0.04,0.76,0.86,1.66,1.64,1.62c7.18-0.29,30.4-2.2,34.5-2.36" style="fill:none;stroke:#999;stroke-width:3" />
<path d="M1175.09,42.64c0.22,0.17,0.69,1.31,0.73,1.66c0.04,0.35-0.17,11.74-0.37,18.62" style="fill:none;stroke:black;stroke-width:3" />
<circle cx="1175.09" cy="42.64" r="5" stroke-width="0" fill="#FF2A00" opacity="0.7" />
<path d="M1210.0,37.42c2.08,0.25,1.27,0.55,3.5,0.25c5.5-0.75,14.5-2,23.67-3.17" style="fill:none;stroke:#999;stroke-width:3" />
<path d="M1223.27,13c0.48,0.92,1.76,2.49,1.76,5.52c0,15.23,0.24,57.46,0.24,68.9c0,14.25-6.32,3.53-7.77,2" style="fill:none;stroke:#999;stroke-width:3" />
<path d="M1210.0,63.7c0.74,0.88,1.92,1.39,3.55,0.58c0.96-0.48,18.61-9.56,22.7-11.86" style="fill:none;stroke:#999;stroke-width:3" />
<path d="M1265.51,10.5c0.08,0.77-0.07,2.07-0.54,3.11c-2.98,6.71-13.55,21.31-29.3,29.76" style="fill:none;stroke:#999;stroke-width:3" />
<path d="M1264.81,14.58c4.16,4.52,22.07,19.28,26.66,22.59c1.56,1.12,3.55,1.6,5.11,1.92" style="fill:none;stroke:#999;stroke-width:3" />
<path d="M1265.06,27.92c0.64,0.41,1.7,1.98,1.7,2.79c0,2.98-0.2,6.28-0.08,8.81" style="fill:none;stroke:#999;stroke-width:3" />
<path d="M1249.4299999999998,40.94c0.87,0.2,1.64,0.42,2.64,0.28c5.96-0.84,22.52-2.28,29.46-2.69c1.02-0.06,1.54,0.02,2.31,0.36" style="fill:none;stroke:#999;stroke-width:3" />
<path d="M1273.65,42.36c0.16,0.78,0.29,1.73-0.25,2.37c-5.14,6.02-10.64,9.52-18.34,13.99" style="fill:none;stroke:#999;stroke-width:3" />
<path d="M1256.78,46.8c6.65,1.49,16.21,6.34,19.69,9.89" style="fill:none;stroke:#999;stroke-width:3" />
<path d="M1248.77,46.49c0.39,0.16,1.23,1.67,1.31,2c0.58,2.34-1.63,12.03-1.67,12.79c-0.04,0.76,0.86,1.66,1.64,1.62c7.18-0.29,30.4-2.2,34.5-2.36" style="fill:none;stroke:#999;stroke-width:3" />
<path d="M1284.09,42.64c0.22,0.17,0.69,1.31,0.73,1.66c0.04,0.35-0.17,11.74-0.37,18.62" style="fill:none;stroke:#999;stroke-width:3" />
<path d="M1243.31,69.53c0.58,1.17,1.43,2.67,1.52,3.52c0.45,4.18,1.05,17.06,1.79,24.95" style="fill:none;stroke:black;stroke-width:3" />
<circle cx="1243.31" cy="69.53" r="5" stroke-width="0" fill="#FF2A00" opacity="0.7" />
<path d="M1319.0,37.42c2.08,0.25,1.27,0.55,3.5,0.25c5.5-0.75,14.5-2,23.67-3.17" style="fill:none;stroke:#999;stroke-width:3" />
<path d="M1332.27,13c0.48,0.92,1.76,2.49,1.76,5.52c0,15.23,0.24,57.46,0.24,68.9c0,14.25-6.32,3.53-7.77,2" style="fill:none;stroke:#999;stroke-width:3" />
<path d="M1319.0,63.7c0.74,0.88,1.92,1.39,3.55,0.58c0.96-0.48,18.61-9.56,22.7-11.86" style="fill:none;stroke:#999;stroke-width:3" />
<path d="M1374.51,10.5c0.08,0.77-0.07,2.07-0.54,3.11c-2.98,6.71-13.55,21.31-29.3,29.76" style="fill:none;stroke:#999;stroke-width:3" />
<path d="M1373.81,14.58c4.16,4.52,22.07,19.28,26.66,22.59c1.56,1.12,3.55,1.6,5.11,1.92" style="fill:none;stroke:#999;stroke-width:3" />
<path d="M1374.06,27.92c0.64,0.41,1.7,1.98,1.7,2.79c0,2.98-0.2,6.28-0.08,8.81" style="fill:none;stroke:#999;stroke-width:3" />
<path d="M1358.4299999999998,40.94c0.87,0.2,1.64,0.42,2.64,0.28c5.96-0.84,22.52-2.28,29.46-2.69c1.02-0.06,1.54,0.02,2.31,0.36" style="fill:none;stroke:#999;stroke-width:3" />
<path d="M1382.65,42.36c0.16,0.78,0.29,1.73-0.25,2.37c-5.14,6.02-10.64,9.52-18.34,13.99" style="fill:none;stroke:#999;stroke-width:3" />
<path d="M1365.78,46.8c6.65,1.49,16.21,6.34,19.69,9.89" style="fill:none;stroke:#999;stroke-width:3" />
<path d="M1357.77,46.49c0.39,0.16,1.23,1.67,1.31,2c0.58,2.34-1.63,12.03-1.67,12.79c-0.04,0.76,0.86,1.66,1.64,1.62c7.18-0.29,30.4-2.2,34.5-2.36" style="fill:none;stroke:#999;stroke-width:3" />
<path d="M1393.09,42.64c0.22,0.17,0.69,1.31,0.73,1.66c0.04,0.35-0.17,11.74-0.37,18.62" style="fill:none;stroke:#999;stroke-width:3" />
<path d="M1352.31,69.53c0.58,1.17,1.43,2.67,1.52,3.52c0.45,4.18,1.05,17.06,1.79,24.95" style="fill:none;stroke:#999;stroke-width:3" />
<path d="M1354.2,72.92c6.87-0.49,41.73-3.47,43-3.7c2.71-0.5,4.51,1.21,4.41,2.68c-0.24,3.53-2.63,18.7-4.77,23.19c-2.67,5.6-3.64,3.45-6.04-0.04" style="fill:none;stroke:black;stroke-width:3" />
<circle cx="1354.2" cy="72.92" r="5" stroke-width="0" fill="#FF2A00" opacity="0.7" />
<path d="M1428.0,37.42c2.08,0.25,1.27,0.55,3.5,0.25c5.5-0.75,14.5-2,23.67-3.17" style="fill:none;stroke:#999;stroke-width:3" />
<path d="M1441.27,13c0.48,0.92,1.76,2.49,1.76,5.52c0,15.23,0.24,57.46,0.24,68.9c0,14.25-6.32,3.53-7.77,2" style="fill:none;stroke:#999;stroke-width:3" />
<path d="M1428.0,63.7c0.74,0.88,1.92,1.39,3.55,0.58c0.96-0.48,18.61-9.56,22.7-11.86" style="fill:none;stroke:#999;stroke-width:3" />
<path d="M1483.51,10.5c0.08,0.77-0.07,2.07-0.54,3.11c-2.98,6.71-13.55,21.31-29.3,29.76" style="fill:none;stroke:#999;stroke-width:3" />
<path d="M1482.81,14.58c4.16,4.52,22.07,19.28,26.66,22.59c1.56,1.12,3.55,1.6,5.11,1.92" style="fill:none;stroke:#999;stroke-width:3" />
<path d="M1483.06,27.92c0.64,0.41,1.7,1.98,1.7,2.79c0,2.98-0.2,6.28-0.08,8.81" style="fill:none;stroke:#999;stroke-width:3" />
<path d="M1467.4299999999998,40.94c0.87,0.2,1.64,0.42,2.64,0.28c5.96-0.84,22.52-2.28,29.46-2.69c1.02-0.06,1.54,0.02,2.31,0.36" style="fill:none;stroke:#999;stroke-width:3" />
<path d="M1491.65,42.36c0.16,0.78,0.29,1.73-0.25,2.37c-5.14,6.02-10.64,9.52-18.34,13.99" style="fill:none;stroke:#999;stroke-width:3" />
<path d="M1474.78,46.8c6.65,1.49,16.21,6.34,19.69,9.89" style="fill:none;stroke:#999;stroke-width:3" />
<path d="M1466.77,46.49c0.39,0.16,1.23,1.67,1.31,2c0.58,2.34-1.63,12.03-1.67,12.79c-0.04,0.76,0.86,1.66,1.64,1.62c7.18-0.29,30.4-2.2,34.5-2.36" style="fill:none;stroke:#999;stroke-width:3" />
<path d="M1502.09,42.64c0.22,0.17,0.69,1.31,0.73,1.66c0.04,0.35-0.17,11.74-0.37,18.62" style="fill:none;stroke:#999;stroke-width:3" />
<path d="M1461.31,69.53c0.58,1.17,1.43,2.67,1.52,3.52c0.45,4.18,1.05,17.06,1.79,24.95" style="fill:none;stroke:#999;stroke-width:3" />
<path d="M1463.2,72.92c6.87-0.49,41.73-3.47,43-3.7c2.71-0.5,4.51,1.21,4.41,2.68c-0.24,3.53-2.63,18.7-4.77,23.19c-2.67,5.6-3.64,3.45-6.04-0.04" style="fill:none;stroke:#999;stroke-width:3" />
<path d="M1483.82,64.44c0.31,0.37,0.53,1.35,0.31,1.81c-3.37,6.99-6.9,14.68-11.07,18.9c-1.32,1.34-1.32,1.64,0.61,1.34c4.05-0.62,13.5-3.2,21.53-4.47" style="fill:none;stroke:black;stroke-width:3" />
<circle cx="1483.82" cy="64.44" r="5" stroke-width="0" fill="#FF2A00" opacity="0.7" />
<path d="M1537.0,37.42c2.08,0.25,1.27,0.55,3.5,0.25c5.5-0.75,14.5-2,23.67-3.17" style="fill:none;stroke:#999;stroke-width:3" />
<path d="M1550.27,13c0.48,0.92,1.76,2.49,1.76,5.52c0,15.23,0.24,57.46,0.24,68.9c0,14.25-6.32,3.53-7.77,2" style="fill:none;stroke:#999;stroke-width:3" />
<path d="M1537.0,63.7c0.74,0.88,1.92,1.39,3.55,0.58c0.96-0.48,18.61-9.56,22.7-11.86" style="fill:none;stroke:#999;stroke-width:3" />
<path d="M1592.51,10.5c0.08,0.77-0.07,2.07-0.54,3.11c-2.98,6.71-13.55,21.31-29.3,29.76" style="fill:none;stroke:#999;stroke-width:3" />
<path d="M1591.81,14.58c4.16,4.52,22.07,19.28,26.66,22.59c1.56,1.12,3.55,1.6,5.11,1.92" style="fill:none;stroke:#999;stroke-width:3" />
<path d="M1592.06,27.92c0.64,0.41,1.7,1.98,1.7,2.79c0,2.98-0.2,6.28-0.08,8.81" style="fill:none;stroke:#999;stroke-width:3" />
<path d="M1576.4299999999998,40.94c0.87,0.2,1.64,0.42,2.64,0.28c5.96-0.84,22.52-2.28,29.46-2.69c1.02-0.06,1.54,0.02,2.31,0.36" style="fill:none;stroke:#999;stroke-width:3" />
<path d="M1600.65,42.36c0.16,0.78,0.29,1.73-0.25,2.37c-5.14,6.02-10.64,9.52-18.34,13.99" style="fill:none;stroke:#999;stroke-width:3" />
<path d="M1583.78,46.8c6.65,1.49,16.21,6.34,19.69,9.89" style="fill:none;stroke:#999;stroke-width:3" />
<path d="M1575.77,46.49c0.39,0.16,1.23,1.67,1.31,2c0.58,2.34-1.63,12.03-1.67,12.79c-0.04,0.76,0.86,1.66,1.64,1.62c7.18-0.29,30.4-2.2,34.5-2.36" style="fill:none;stroke:#999;stroke-width:3" />
<path d="M1611.09,42.64c0.22,0.17,0.69,1.31,0.73,1.66c0.04,0.35-0.17,11.74-0.37,18.62" style="fill:none;stroke:#999;stroke-width:3" />
<path d="M1570.31,69.53c0.58,1.17,1.43,2.67,1.52,3.52c0.45,4.18,1.05,17.06,1.79,24.95" style="fill:none;stroke:#999;stroke-width:3" />
<path d="M1572.2,72.92c6.87-0.49,41.73-3.47,43-3.7c2.71-0.5,4.51,1.21,4.41,2.68c-0.24,3.53-2.63,18.7-4.77,23.19c-2.67,5.6-3.64,3.45-6.04-0.04" style="fill:none;stroke:#999;stroke-width:3" />
<path d="M1592.82,64.44c0.31,0.37,0.53,1.35,0.31,1.81c-3.37,6.99-6.9,14.68-11.07,18.9c-1.32,1.34-1.32,1.64,0.61,1.34c4.05-0.62,13.5-3.2,21.53-4.47" style="fill:none;stroke:#999;stroke-width:3" />
<path d="M1599.33,76.32c2.66,1.8,6.88,7.38,7.54,10.18" style="fill:none;stroke:black;stroke-width:3" />
<circle cx="1599.33" cy="76.32" r="5" stroke-width="0" fill="#FF2A00" opacity="0.7" />
</svg>