<svg width="1199px" height="109px" viewBox="0 0 1199px 109px" xmlns="http://www.w3.org/2000/svg" xmlns:xlink="http://www.w3.org/1999/xlink" xml:space="preserve" version="1.1"  baseProfile="full">
<line x1="1" y1="1" x2="1198" y2="1" style="stroke:#ddd;stroke-width:2" />
<line x1="1" y1="1" x2="1" y2="108" style="stroke:#ddd;stroke-width:2" />
<line x1="1" y1="108" x2="1198" y2="108" style="stroke:#ddd;stroke-width:2" />
<line x1="1198" y1="1" x2="1198" y2="108" style="stroke:#ddd;stroke-width:2" />
<line x1="109" y1="1" x2="109" y2="108" style="stroke:#ddd;stroke-width:2" />
<line x1="218" y1="1" x2="218" y2="108" style="stroke:#ddd;stroke-width:2" />
<line x1="327" y1="1" x2="327" y2="108" style="stroke:#ddd;stroke-width:2" />
<line x1="436" y1="1" x2="436" y2="108" style="stroke:#ddd;stroke-width:2" />
<line x1="545" y1="1" x2="545" y2="108" style="stroke:#ddd;stroke-width:2" />
<line x1="654" y1="1" x2="654" y2="108" style="stroke:#ddd;stroke-width:2" />
<line x1="763" y1="1" x2="763" y2="108" style="stroke:#ddd;stroke-width:2" />
<line x1="872" y1="1" x2="872" y2="108" style="stroke:#ddd;stroke-width:2" />
<line x1="981" y1="1" x2="981" y2="108" style="stroke:#ddd;stroke-width:2" />
<line x1="1090" y1="1" x2="1090" y2="108" style="stroke:#ddd;stroke-width:2" />
<line x1="1" y1="54" x2="1198" y2="54" style="stroke:#ddd;stroke-width:2;stroke-dasharray:3 3" />
<line x1="55" y1="1" x2="55" y2="108" style="stroke:#ddd;stroke-width:2;stroke-dasharray:3 3" />
<line x1="164" y1="1" x2="164" y2="108" style="stroke:#ddd;stroke-width:2;stroke-dasharray:3 3" />
<line x1="273" y1="1" x2="273" y2="108" style="stroke:#ddd;stroke-width:2;stroke-dasharray:3 3" />
<line x1="382" y1="1" x2="382" y2="108" style="stroke:#ddd;stroke-width:2;stroke-dasharray:3 3" />
<line x1="491" y1="1" x2="491" y2="108" style="stroke:#ddd;stroke-width:2;stroke-dasharray:3 3" />
<line x1="600" y1="1" x2="600" y2="108" style="stroke:#ddd;stroke-width:2;stroke-dasharray:3 3" />
<line x1="709" y1="1" x2="709" y2="108" style="stroke:#ddd;stroke-width:2;stroke-dasharray:3 3" />
<line x1="818" y1="1" x2="818" y2="108" style="stroke:#ddd;stroke-width:2;stroke-dasharray:3 3" />
<line x1="927" y1="1" x2="927" y2="108" style="stroke:#ddd;stroke-width:2;stroke-dasharray:3 3" />
<line x1="1036" y1="1" x2="1036" y2="108" style="stroke:#ddd;stroke-width:2;stroke-dasharray:3 3" />
<line x1="1145" y1="1" x2="1145" y2="108" style="stroke:#ddd;stroke-width:2;stroke-dasharray:3 3" />
<path d="M29.64,14.25c0.65,0.61,1.73,2.96,1.73,4.16c0,4.45-0.21,9.38-0.09,13.15" style="fill:none;stroke:black;stroke-width:3" />
<circle cx="29.64" cy="14.25" r="5" stroke-width="0" fill="#FF2A00" opacity="0.7" />
<path d="M138.64,14.25c0.65,0.61,1.73,2.96,1.73,4.16c0,4.45-0.21,9.38-0.09,13.15" style="fill:none;stroke:#999;stroke-width:3" />
<path d="M120.75,33.44c0.94,0.04,4.22,0.29,5.14,0.23c7.39-0.48,21.25-3.32,26.55-3.76c1.54-0.13,2.36-0.15,4.06-0.15" style="fill:none;stroke:black;stroke-width:3" />
<circle cx="120.75" cy="33.44" r="5" stroke-width="0" fill="#FF2A00" opacity="0.7" />
<path d="M247.64,14.25c0.65,0.61,1.73,2.96,1.73,4.16c0,4.45-0.21,9.38-0.09,13.15" style="fill:none;stroke:#999;stroke-width:3" />
<path d="M229.75,33.44c0.94,0.04,4.22,0.29,5.14,0.23c7.39-0.48,21.25-3.32,26.55-3.76c1.54-0.13,2.36-0.15,4.06-0.15" style="fill:none;stroke:#999;stroke-width:3" />
<path d="M247.17000000000002,46.5c3.33,1,6.58,2.75,10.46,4.11c1.91,0.67,2.53,1.71,2.42,4.36c-0.29,7-7.67,31.41-12.12,35.85c-3.18,3.18-6.49-2.24-7.29-3.07" style="fill:none;stroke:black;stroke-width:3" />
<circle cx="247.17000000000002" cy="46.5" r="5" stroke-width="0" fill="#FF2A00" opacity="0.7" />
<path d="M356.64,14.25c0.65,0.61,1.73,2.96,1.73,4.16c0,4.45-0.21,9.38-0.09,13.15" style="fill:none;stroke:#999;stroke-width:3" />
<path d="M338.75,33.44c0.94,0.04,4.22,0.29,5.14,0.23c7.39-0.48,21.25-3.32,26.55-3.76c1.54-0.13,2.36-0.15,4.06-0.15" style="fill:none;stroke:#999;stroke-width:3" />
<path d="M356.17,46.5c3.33,1,6.58,2.75,10.46,4.11c1.91,0.67,2.53,1.71,2.42,4.36c-0.29,7-7.67,31.41-12.12,35.85c-3.18,3.18-6.49-2.24-7.29-3.07" style="fill:none;stroke:#999;stroke-width:3" />
<path d="M356.77,36.25c0.05,1.01,0.14,2.6-0.11,4.04C354.81,50.96,349.07,68.01,336.89,79" style="fill:none;stroke:black;stroke-width:3" />
<circle cx="356.77" cy="36.25" r="5" stroke-width="0" fill="#FF2A00" opacity="0.7" />
<path d="M465.64,14.25c0.65,0.61,1.73,2.96,1.73,4.16c0,4.45-0.21,9.38-0.09,13.15" style="fill:none;stroke:#999;stroke-width:3" />
<path d="M447.75,33.44c0.94,0.04,4.22,0.29,5.14,0.23c7.39-0.48,21.25-3.32,26.55-3.76c1.54-0.13,2.36-0.15,4.06-0.15" style="fill:none;stroke:#999;stroke-width:3" />
<path d="M465.17,46.5c3.33,1,6.58,2.75,10.46,4.11c1.91,0.67,2.53,1.71,2.42,4.36c-0.29,7-7.67,31.41-12.12,35.85c-3.18,3.18-6.49-2.24-7.29-3.07" style="fill:none;stroke:#999;stroke-width:3" />
<path d="M465.77,36.25c0.05,1.01,0.14,2.6-0.11,4.04C463.81,50.96,458.07,68.01,445.89,79" style="fill:none;stroke:#999;stroke-width:3" />
<path d="M496.03,13.25c0.15,1.51-0.04,3.49-0.53,4.78c-3.13,8.25-7.09,15.22-14.25,25.26" style="fill:none;stroke:black;stroke-width:3" />
<circle cx="496.03" cy="13.25" r="5" stroke-width="0" fill="#FF2A00" opacity="0.7" />
<path d="M574.64,14.25c0.65,0.61,1.73,2.96,1.73,4.16c0,4.45-0.21,9.38-0.09,13.15" style="fill:none;stroke:#999;stroke-width:3" />
<path d="M556.75,33.44c0.94,0.04,4.22,0.29,5.14,0.23c7.39-0.48,21.25-3.32,26.55-3.76c1.54-0.13,2.36-0.15,4.06-0.15" style="fill:none;stroke:#999;stroke-width:3" />
<path d="M574.1700000000001,46.5c3.33,1,6.58,2.75,10.46,4.11c1.91,0.67,2.53,1.71,2.42,4.36c-0.29,7-7.67,31.41-12.12,35.85c-3.18,3.18-6.49-2.24-7.29-3.07" style="fill:none;stroke:#999;stroke-width:3" />
<path d="M574.77,36.25c0.05,1.01,0.14,2.6-0.11,4.04C572.81,50.96,567.0699999999999,68.01,554.89,79" style="fill:none;stroke:#999;stroke-width:3" />
<path d="M605.03,13.25c0.15,1.51-0.04,3.49-0.53,4.78c-3.13,8.25-7.09,15.22-14.25,25.26" style="fill:none;stroke:#999;stroke-width:3" />
<path d="M601.25,27.89c1.02,0.11,3,0.59,4.79,0.48c8.35-0.51,21.39-3.47,26.92-3.98c1.56-0.14,3,0.18,3.79,0.37" style="fill:none;stroke:black;stroke-width:3" />
<circle cx="601.25" cy="27.89" r="5" stroke-width="0" fill="#FF2A00" opacity="0.7" />
<path d="M683.64,14.25c0.65,0.61,1.73,2.96,1.73,4.16c0,4.45-0.21,9.38-0.09,13.15" style="fill:none;stroke:#999;stroke-width:3" />
<path d="M665.75,33.44c0.94,0.04,4.22,0.29,5.14,0.23c7.39-0.48,21.25-3.32,26.55-3.76c1.54-0.13,2.36-0.15,4.06-0.15" style="fill:none;stroke:#999;stroke-width:3" />
<path d="M683.1700000000001,46.5c3.33,1,6.58,2.75,10.46,4.11c1.91,0.67,2.53,1.71,2.42,4.36c-0.29,7-7.67,31.41-12.12,35.85c-3.18,3.18-6.49-2.24-7.29-3.07" style="fill:none;stroke:#999;stroke-width:3" />
<path d="M683.77,36.25c0.05,1.01,0.14,2.6-0.11,4.04C681.81,50.96,676.0699999999999,68.01,663.89,79" style="fill:none;stroke:#999;stroke-width:3" />
<path d="M714.03,13.25c0.15,1.51-0.04,3.49-0.53,4.78c-3.13,8.25-7.09,15.22-14.25,25.26" style="fill:none;stroke:#999;stroke-width:3" />
<path d="M710.25,27.89c1.02,0.11,3,0.59,4.79,0.48c8.35-0.51,21.39-3.47,26.92-3.98c1.56-0.14,3,0.18,3.79,0.37" style="fill:none;stroke:#999;stroke-width:3" />
<path d="M723.08,32.75c0.69,0.49,1.83,2.37,1.83,3.34c0,3.57-0.22,4.31-0.09,7.33" style="fill:none;stroke:black;stroke-width:3" />
<circle cx="723.08" cy="32.75" r="5" stroke-width="0" fill="#FF2A00" opacity="0.7" />
<path d="M792.64,14.25c0.65,0.61,1.73,2.96,1.73,4.16c0,4.45-0.21,9.38-0.09,13.15" style="fill:none;stroke:#999;stroke-width:3" />
<path d="M774.75,33.44c0.94,0.04,4.22,0.29,5.14,0.23c7.39-0.48,21.25-3.32,26.55-3.76c1.54-0.13,2.36-0.15,4.06-0.15" style="fill:none;stroke:#999;stroke-width:3" />
<path d="M792.1700000000001,46.5c3.33,1,6.58,2.75,10.46,4.11c1.91,0.67,2.53,1.71,2.42,4.36c-0.29,7-7.67,31.41-12.12,35.85c-3.18,3.18-6.49-2.24-7.29-3.07" style="fill:none;stroke:#999;stroke-width:3" />
<path d="M792.77,36.25c0.05,1.01,0.14,2.6-0.11,4.04C790.81,50.96,785.0699999999999,68.01,772.89,79" style="fill:none;stroke:#999;stroke-width:3" />
<path d="M823.03,13.25c0.15,1.51-0.04,3.49-0.53,4.78c-3.13,8.25-7.09,15.22-14.25,25.26" style="fill:none;stroke:#999;stroke-width:3" />
<path d="M819.25,27.89c1.02,0.11,3,0.59,4.79,0.48c8.35-0.51,21.39-3.47,26.92-3.98c1.56-0.14,3,0.18,3.79,0.37" style="fill:none;stroke:#999;stroke-width:3" />
<path d="M832.08,32.75c0.69,0.49,1.83,2.37,1.83,3.34c0,3.57-0.22,4.31-0.09,7.33" style="fill:none;stroke:#999;stroke-width:3" />
<path d="M810.25,45.62c1.05,0.07,3.43,0.42,4.46,0.37c9.94-0.42,30.97-4.02,42.15-4.22c1.73-0.03,2.61,0.03,3.9,0.48" style="fill:none;stroke:black;stroke-width:3" />
<circle cx="810.25" cy="45.62" r="5" stroke-width="0" fill="#FF2A00" opacity="0.7" />
<path d="M901.64,14.25c0.65,0.61,1.73,2.96,1.73,4.16c0,4.45-0.21,9.38-0.09,13.15" style="fill:none;stroke:#999;stroke-width:3" />
<path d="M883.75,33.44c0.94,0.04,4.22,0.29,5.14,0.23c7.39-0.48,21.25-3.32,26.55-3.76c1.54-0.13,2.36-0.15,4.06-0.15" style="fill:none;stroke:#999;stroke-width:3" />
<path d="M901.1700000000001,46.5c3.33,1,6.58,2.75,10.46,4.11c1.91,0.67,2.53,1.71,2.42,4.36c-0.29,7-7.67,31.41-12.12,35.85c-3.18,3.18-6.49-2.24-7.29-3.07" style="fill:none;stroke:#999;stroke-width:3" />
<path d="M901.77,36.25c0.05,1.01,0.14,2.6-0.11,4.04C899.81,50.96,894.0699999999999,68.01,881.89,79" style="fill:none;stroke:#999;stroke-width:3" />
<path d="M932.03,13.25c0.15,1.51-0.04,3.49-0.53,4.78c-3.13,8.25-7.09,15.22-14.25,25.26" style="fill:none;stroke:#999;stroke-width:3" />
<path d="M928.25,27.89c1.02,0.11,3,0.59,4.79,0.48c8.35-0.51,21.39-3.47,26.92-3.98c1.56-0.14,3,0.18,3.79,0.37" style="fill:none;stroke:#999;stroke-width:3" />
<path d="M941.08,32.75c0.69,0.49,1.83,2.37,1.83,3.34c0,3.57-0.22,4.31-0.09,7.33" style="fill:none;stroke:#999;stroke-width:3" />
<path d="M919.25,45.62c1.05,0.07,3.43,0.42,4.46,0.37c9.94-0.42,30.97-4.02,42.15-4.22c1.73-0.03,2.61,0.03,3.9,0.48" style="fill:none;stroke:#999;stroke-width:3" />
<path d="M924.22,57.78c0.44,0.3,1.36,2.68,1.44,3.29c0.58,4.43,1.94,23.01,1.86,26.82" style="fill:none;stroke:black;stroke-width:3" />
<circle cx="924.22" cy="57.78" r="5" stroke-width="0" fill="#FF2A00" opacity="0.7" />
<path d="M1010.64,14.25c0.65,0.61,1.73,2.96,1.73,4.16c0,4.45-0.21,9.38-0.09,13.15" style="fill:none;stroke:#999;stroke-width:3" />
<path d="M992.75,33.44c0.94,0.04,4.22,0.29,5.14,0.23c7.39-0.48,21.25-3.32,26.55-3.76c1.54-0.13,2.36-0.15,4.06-0.15" style="fill:none;stroke:#999;stroke-width:3" />
<path d="M1010.1700000000001,46.5c3.33,1,6.58,2.75,10.46,4.11c1.91,0.67,2.53,1.71,2.42,4.36c-0.29,7-7.67,31.41-12.12,35.85c-3.18,3.18-6.49-2.24-7.29-3.07" style="fill:none;stroke:#999;stroke-width:3" />
<path d="M1010.77,36.25c0.05,1.01,0.14,2.6-0.11,4.04C1008.81,50.96,1003.0699999999999,68.01,990.89,79" style="fill:none;stroke:#999;stroke-width:3" />
<path d="M1041.03,13.25c0.15,1.51-0.04,3.49-0.53,4.78c-3.13,8.25-7.09,15.22-14.25,25.26" style="fill:none;stroke:#999;stroke-width:3" />
<path d="M1037.25,27.89c1.02,0.11,3,0.59,4.79,0.48c8.35-0.51,21.39-3.47,26.92-3.98c1.56-0.14,3,0.18,3.79,0.37" style="fill:none;stroke:#999;stroke-width:3" />
<path d="M1050.08,32.75c0.69,0.49,1.83,2.37,1.83,3.34c0,3.57-0.22,4.31-0.09,7.33" style="fill:none;stroke:#999;stroke-width:3" />
<path d="M1028.25,45.62c1.05,0.07,3.43,0.42,4.46,0.37c9.94-0.42,30.97-4.02,42.15-4.22c1.73-0.03,2.61,0.03,3.9,0.48" style="fill:none;stroke:#999;stroke-width:3" />
<path d="M1033.22,57.78c0.44,0.3,1.36,2.68,1.44,3.29c0.58,4.43,1.94,23.01,1.86,26.82" style="fill:none;stroke:#999;stroke-width:3" />
<path d="M1034.55,59.62c3.2-0.22,33.11-3.89,35.49-4.14c2.21-0.23,3.36,1.72,3.31,3.14C1073.0,68.5,1071.5,77.5,1069.52,84.51c-1.8,6.39-4.99,0.05-6.05-1.04" style="fill:none;stroke:black;stroke-width:3" />
<circle cx="1034.55" cy="59.62" r="5" stroke-width="0" fill="#FF2A00" opacity="0.7" />
<path d="M1119.6399999999999,14.25c0.65,0.61,1.73,2.96,1.73,4.16c0,4.45-0.21,9.38-0.09,13.15" style="fill:none;stroke:#999;stroke-width:3" />
<path d="M1101.75,33.44c0.94,0.04,4.22,0.29,5.14,0.23c7.39-0.48,21.25-3.32,26.55-3.76c1.54-0.13,2.36-0.15,4.06-0.15" style="fill:none;stroke:#999;stroke-width:3" />
<path d="M1119.17,46.5c3.33,1,6.58,2.75,10.46,4.11c1.91,0.67,2.53,1.71,2.42,4.36c-0.29,7-7.67,31.41-12.12,35.85c-3.18,3.18-6.49-2.24-7.29-3.07" style="fill:none;stroke:#999;stroke-width:3" />
<path d="M1119.77,36.25c0.05,1.01,0.14,2.6-0.11,4.04C1117.81,50.96,1112.07,68.01,1099.8899999999999,79" style="fill:none;stroke:#999;stroke-width:3" />
<path d="M1150.03,13.25c0.15,1.51-0.04,3.49-0.53,4.78c-3.13,8.25-7.09,15.22-14.25,25.26" style="fill:none;stroke:#999;stroke-width:3" />
<path d="M1146.25,27.89c1.02,0.11,3,0.59,4.79,0.48c8.35-0.51,21.39-3.47,26.92-3.98c1.56-0.14,3,0.18,3.79,0.37" style="fill:none;stroke:#999;stroke-width:3" />
<path d="M1159.08,32.75c0.69,0.49,1.83,2.37,1.83,3.34c0,3.57-0.22,4.31-0.09,7.33" style="fill:none;stroke:#999;stroke-width:3" />
<path d="M1137.25,45.62c1.05,0.07,3.43,0.42,4.46,0.37c9.94-0.42,30.97-4.02,42.15-4.22c1.73-0.03,2.61,0.03,3.9,0.48" style="fill:none;stroke:#999;stroke-width:3" />
<path d="M1142.22,57.78c0.44,0.3,1.36,2.68,1.44,3.29c0.58,4.43,1.94,23.01,1.86,26.82" style="fill:none;stroke:#999;stroke-width:3" />
<path d="M1143.55,59.62c3.2-0.22,33.11-3.89,35.49-4.14c2.21-0.23,3.36,1.72,3.31,3.14C1182.0,68.5,1180.5,77.5,1178.52,84.51c-1.8,6.39-4.99,0.05-6.05-1.04" style="fill:none;stroke:#999;stroke-width:3" />
<path d="M1159.91,48.08c0.44,0.3,1.36,2.28,1.44,2.89c0.09,0.61,0.24,43.03,0.24,49.17" style="fill:none;stroke:black;stroke-width:3" />
<circle cx="1159.91" cy="48.08" r="5" stroke-width="0" fill="#FF2A00" opacity="0.7" />
</svg>