<svg width="1199px" height="109px" viewBox="0 0 1199px 109px" xmlns="http://www.w3.org/2000/svg" xmlns:xlink="http://www.w3.org/1999/xlink" xml:space="preserve" version="1.1"  baseProfile="full">
<line x1="1" y1="1" x2="1198" y2="1" style="stroke:#ddd;stroke-width:2" />
<line x1="1" y1="1" x2="1" y2="108" style="stroke:#ddd;stroke-width:2" />
<line x1="1" y1="108" x2="1198" y2="108" style="stroke:#ddd;stroke-width:2" />
<line x1="1198" y1="1" x2="1198" y2="108" style="stroke:#ddd;stroke-width:2" />
<line x1="109" y1="1" x2="109" y2="108" style="stroke:#ddd;stroke-width:2" />
<line x1="218" y1="1" x2="218" y2="108" style="stroke:#ddd;stroke-width:2" />
<line x1="327" y1="1" x2="327" y2="108" style="stroke:#ddd;stroke-width:2" />
<line x1="436" y1="1" x2="436" y2="108" style="stroke:#ddd;stroke-width:2" />
<line x1="545" y1="1" x2="545" y2="108" style="stroke:#ddd;stroke-width:2" />
<line x1="654" y1="1" x2="654" y2="108" style="stroke:#ddd;stroke-width:2" />
<line x1="763" y1="1" x2="763" y2="108" style="stroke:#ddd;stroke-width:2" />
<line x1="872" y1="1" x2="872" y2="108" style="stroke:#ddd;stroke-width:2" />
<line x1="981" y1="1" x2="981" y2="108" style="stroke:#ddd;stroke-width:2" />
<line x1="1090" y1="1" x2="1090" y2="108" style="stroke:#ddd;stroke-width:2" />
<line x1="1" y1="54" x2="1198" y2="54" style="stroke:#ddd;stroke-width:2;stroke-dasharray:3 3" />
<line x1="55" y1="1" x2="55" y2="108" style="stroke:#ddd;stroke-width:2;stroke-dasharray:3 3" />
<line x1="164" y1="1" x2="164" y2="108" style="stroke:#ddd;stroke-width:2;stroke-dasharray:3 3" />
<line x1="273" y1="1" x2="273" y2="108" style="stroke:#ddd;stroke-width:2;stroke-dasharray:3 3" />
<line x1="382" y1="1" x2="382" y2="108" style="stroke:#ddd;stroke-width:2;stroke-dasharray:3 3" />
<line x1="491" y1="1" x2="491" y2="108" style="stroke:#ddd;stroke-width:2;stroke-dasharray:3 3" />
<line x1="600" y1="1" x2="600" y2="108" style="stroke:#ddd;stroke-width:2;stroke-dasharray:3 3" />
<line x1="709" y1="1" x2="709" y2="108" style="stroke:#ddd;stroke-width:2;stroke-dasharray:3 3" />
<line x1="818" y1="1" x2="818" y2="108" style="stroke:#ddd;stroke-width:2;stroke-dasharray:3 3" />
<line x1="927" y1="1" x2="927" y2="108" style="stroke:#ddd;stroke-width:2;stroke-dasharray:3 3" />
<line x1="1036" y1="1" x2="1036" y2="108" style="stroke:#ddd;stroke-width:2;stroke-dasharray:3 3" />
<line x1="1145" y1="1" x2="1145" y2="108" style="stroke:#ddd;stroke-width:2;stroke-dasharray:3 3" />
<path d="M15.53,37.67c1.76,0.35,3.51,0.34,5.25-0.01c4.47-0.62,12.18-1.65,17.35-2.44c1.12-0.27,2.25-0.36,3.39-0.28" style="fill:none;stroke:black;stroke-width:3" />
<circle cx="15.53" cy="37.67" r="5" stroke-width="0" fill="#FF2A00" opacity="0.7" />
<path d="M124.53,37.67c1.76,0.35,3.51,0.34,5.25-0.01c4.47-0.62,12.18-1.65,17.35-2.44c1.12-0.27,2.25-0.36,3.39-0.28" style="fill:none;stroke:#999;stroke-width:3" />
<path d="M138.86,18c1.01,1.01,1.54,3,1.54,5.92c0,2.56,0,41.82-0.02,61.08c0,4.8-0.01,8.38-0.01,9.88" style="fill:none;stroke:black;stroke-width:3" />
<circle cx="138.86" cy="18.0" r="5" stroke-width="0" fill="#FF2A00" opacity="0.7" />
<path d="M233.53,37.67c1.76,0.35,3.51,0.34,5.25-0.01c4.47-0.62,12.18-1.65,17.35-2.44c1.12-0.27,2.25-0.36,3.39-0.28" style="fill:none;stroke:#999;stroke-width:3" />
<path d="M247.86,18c1.01,1.01,1.54,3,1.54,5.92c0,2.56,0,41.82-0.02,61.08c0,4.8-0.01,8.38-0.01,9.88" style="fill:none;stroke:#999;stroke-width:3" />
<path d="M248.94,37.78c0,1.97-0.69,3.59-1.5,5.66c-5.06,12.87-8.49,19.46-16.83,31.9" style="fill:none;stroke:black;stroke-width:3" />
<circle cx="248.94" cy="37.78" r="5" stroke-width="0" fill="#FF2A00" opacity="0.7" />
<path d="M342.53,37.67c1.76,0.35,3.51,0.34,5.25-0.01c4.47-0.62,12.18-1.65,17.35-2.44c1.12-0.27,2.25-0.36,3.39-0.28" style="fill:none;stroke:#999;stroke-width:3" />
<path d="M356.86,18c1.01,1.01,1.54,3,1.54,5.92c0,2.56,0,41.82-0.02,61.08c0,4.8-0.01,8.38-0.01,9.88" style="fill:none;stroke:#999;stroke-width:3" />
<path d="M357.94,37.78c0,1.97-0.69,3.59-1.5,5.66c-5.06,12.87-8.49,19.46-16.83,31.9" style="fill:none;stroke:#999;stroke-width:3" />
<path d="M361.5,48.88c2,1.03,5,5.47,7.13,8.41" style="fill:none;stroke:black;stroke-width:3" />
<circle cx="361.5" cy="48.88" r="5" stroke-width="0" fill="#FF2A00" opacity="0.7" />
<path d="M451.53,37.67c1.76,0.35,3.51,0.34,5.25-0.01c4.47-0.62,12.18-1.65,17.35-2.44c1.12-0.27,2.25-0.36,3.39-0.28" style="fill:none;stroke:#999;stroke-width:3" />
<path d="M465.86,18c1.01,1.01,1.54,3,1.54,5.92c0,2.56,0,41.82-0.02,61.08c0,4.8-0.01,8.38-0.01,9.88" style="fill:none;stroke:#999;stroke-width:3" />
<path d="M466.94,37.78c0,1.97-0.69,3.59-1.5,5.66c-5.06,12.87-8.49,19.46-16.83,31.9" style="fill:none;stroke:#999;stroke-width:3" />
<path d="M470.5,48.88c2,1.03,5,5.47,7.13,8.41" style="fill:none;stroke:#999;stroke-width:3" />
<path d="M480.25,30.83c2.07,0.51,4.15,0.57,6.25,0.18c10.72-1.18,22.26-3.1,36.38-3.47c2.11-0.19,4.2-0.07,6.28,0.36" style="fill:none;stroke:black;stroke-width:3" />
<circle cx="480.25" cy="30.83" r="5" stroke-width="0" fill="#FF2A00" opacity="0.7" />
<path d="M560.53,37.67c1.76,0.35,3.51,0.34,5.25-0.01c4.47-0.62,12.18-1.65,17.35-2.44c1.12-0.27,2.25-0.36,3.39-0.28" style="fill:none;stroke:#999;stroke-width:3" />
<path d="M574.86,18c1.01,1.01,1.54,3,1.54,5.92c0,2.56,0,41.82-0.02,61.08c0,4.8-0.01,8.38-0.01,9.88" style="fill:none;stroke:#999;stroke-width:3" />
<path d="M575.94,37.78c0,1.97-0.69,3.59-1.5,5.66c-5.06,12.87-8.49,19.46-16.83,31.9" style="fill:none;stroke:#999;stroke-width:3" />
<path d="M579.5,48.88c2,1.03,5,5.47,7.13,8.41" style="fill:none;stroke:#999;stroke-width:3" />
<path d="M589.25,30.83c2.07,0.51,4.15,0.57,6.25,0.18c10.72-1.18,22.26-3.1,36.38-3.47c2.11-0.19,4.2-0.07,6.28,0.36" style="fill:none;stroke:#999;stroke-width:3" />
<path d="M600.27,17.98c0.9,0.9,1.38,1.94,1.45,3.12C602.64,28.08,603.74,35.48,604.0,38" style="fill:none;stroke:black;stroke-width:3" />
<circle cx="600.27" cy="17.98" r="5" stroke-width="0" fill="#FF2A00" opacity="0.7" />
<path d="M669.53,37.67c1.76,0.35,3.51,0.34,5.25-0.01c4.47-0.62,12.18-1.65,17.35-2.44c1.12-0.27,2.25-0.36,3.39-0.28" style="fill:none;stroke:#999;stroke-width:3" />
<path d="M683.86,18c1.01,1.01,1.54,3,1.54,5.92c0,2.56,0,41.82-0.02,61.08c0,4.8-0.01,8.38-0.01,9.88" style="fill:none;stroke:#999;stroke-width:3" />
<path d="M684.94,37.78c0,1.97-0.69,3.59-1.5,5.66c-5.06,12.87-8.49,19.46-16.83,31.9" style="fill:none;stroke:#999;stroke-width:3" />
<path d="M688.5,48.88c2,1.03,5,5.47,7.13,8.41" style="fill:none;stroke:#999;stroke-width:3" />
<path d="M698.25,30.83c2.07,0.51,4.15,0.57,6.25,0.18c10.72-1.18,22.26-3.1,36.38-3.47c2.11-0.19,4.2-0.07,6.28,0.36" style="fill:none;stroke:#999;stroke-width:3" />
<path d="M709.27,17.98c0.9,0.9,1.38,1.94,1.45,3.12C711.64,28.08,712.74,35.48,713.0,38" style="fill:none;stroke:#999;stroke-width:3" />
<path d="M732.66,14.91c0.59,0.84,0.55,1.84,0.29,3.13c-1.58,7.6-2.3,11.85-4.02,19.01" style="fill:none;stroke:black;stroke-width:3" />
<circle cx="732.66" cy="14.91" r="5" stroke-width="0" fill="#FF2A00" opacity="0.7" />
<path d="M778.53,37.67c1.76,0.35,3.51,0.34,5.25-0.01c4.47-0.62,12.18-1.65,17.35-2.44c1.12-0.27,2.25-0.36,3.39-0.28" style="fill:none;stroke:#999;stroke-width:3" />
<path d="M792.86,18c1.01,1.01,1.54,3,1.54,5.92c0,2.56,0,41.82-0.02,61.08c0,4.8-0.01,8.38-0.01,9.88" style="fill:none;stroke:#999;stroke-width:3" />
<path d="M793.94,37.78c0,1.97-0.69,3.59-1.5,5.66c-5.06,12.87-8.49,19.46-16.83,31.9" style="fill:none;stroke:#999;stroke-width:3" />
<path d="M797.5,48.88c2,1.03,5,5.47,7.13,8.41" style="fill:none;stroke:#999;stroke-width:3" />
<path d="M807.25,30.83c2.07,0.51,4.15,0.57,6.25,0.18c10.72-1.18,22.26-3.1,36.38-3.47c2.11-0.19,4.2-0.07,6.28,0.36" style="fill:none;stroke:#999;stroke-width:3" />
<path d="M818.27,17.98c0.9,0.9,1.38,1.94,1.45,3.12C820.64,28.08,821.74,35.48,822.0,38" style="fill:none;stroke:#999;stroke-width:3" />
<path d="M841.66,14.91c0.59,0.84,0.55,1.84,0.29,3.13c-1.58,7.6-2.3,11.85-4.02,19.01" style="fill:none;stroke:#999;stroke-width:3" />
<path d="M819.36,44.69c0,1.39-0.54,3.27-1.08,4.46c-3.51,7.76-10.47,17.5-15.11,22.63" style="fill:none;stroke:black;stroke-width:3" />
<circle cx="819.36" cy="44.69" r="5" stroke-width="0" fill="#FF2A00" opacity="0.7" />
<path d="M887.53,37.67c1.76,0.35,3.51,0.34,5.25-0.01c4.47-0.62,12.18-1.65,17.35-2.44c1.12-0.27,2.25-0.36,3.39-0.28" style="fill:none;stroke:#999;stroke-width:3" />
<path d="M901.86,18c1.01,1.01,1.54,3,1.54,5.92c0,2.56,0,41.82-0.02,61.08c0,4.8-0.01,8.38-0.01,9.88" style="fill:none;stroke:#999;stroke-width:3" />
<path d="M902.94,37.78c0,1.97-0.69,3.59-1.5,5.66c-5.06,12.87-8.49,19.46-16.83,31.9" style="fill:none;stroke:#999;stroke-width:3" />
<path d="M906.5,48.88c2,1.03,5,5.47,7.13,8.41" style="fill:none;stroke:#999;stroke-width:3" />
<path d="M916.25,30.83c2.07,0.51,4.15,0.57,6.25,0.18c10.72-1.18,22.26-3.1,36.38-3.47c2.11-0.19,4.2-0.07,6.28,0.36" style="fill:none;stroke:#999;stroke-width:3" />
<path d="M927.27,17.98c0.9,0.9,1.38,1.94,1.45,3.12C929.64,28.08,930.74,35.48,931.0,38" style="fill:none;stroke:#999;stroke-width:3" />
<path d="M950.66,14.91c0.59,0.84,0.55,1.84,0.29,3.13c-1.58,7.6-2.3,11.85-4.02,19.01" style="fill:none;stroke:#999;stroke-width:3" />
<path d="M928.36,44.69c0,1.39-0.54,3.27-1.08,4.46c-3.51,7.76-10.47,17.5-15.11,22.63" style="fill:none;stroke:#999;stroke-width:3" />
<path d="M923.38,59.38c0.81,0.81,1.15,2.03,1.15,3.15c0,6.63-0.01,17.6-0.02,25.1c0,2.94-0.01,5.34-0.01,6.75" style="fill:none;stroke:black;stroke-width:3" />
<circle cx="923.38" cy="59.38" r="5" stroke-width="0" fill="#FF2A00" opacity="0.7" />
<path d="M996.53,37.67c1.76,0.35,3.51,0.34,5.25-0.01c4.47-0.62,12.18-1.65,17.35-2.44c1.12-0.27,2.25-0.36,3.39-0.28" style="fill:none;stroke:#999;stroke-width:3" />
<path d="M1010.86,18c1.01,1.01,1.54,3,1.54,5.92c0,2.56,0,41.82-0.02,61.08c0,4.8-0.01,8.38-0.01,9.88" style="fill:none;stroke:#999;stroke-width:3" />
<path d="M1011.94,37.78c0,1.97-0.69,3.59-1.5,5.66c-5.06,12.87-8.49,19.46-16.83,31.9" style="fill:none;stroke:#999;stroke-width:3" />
<path d="M1015.5,48.88c2,1.03,5,5.47,7.13,8.41" style="fill:none;stroke:#999;stroke-width:3" />
<path d="M1025.25,30.83c2.07,0.51,4.15,0.57,6.25,0.18c10.72-1.18,22.26-3.1,36.38-3.47c2.11-0.19,4.2-0.07,6.28,0.36" style="fill:none;stroke:#999;stroke-width:3" />
<path d="M1036.27,17.98c0.9,0.9,1.38,1.94,1.45,3.12C1038.6399999999999,28.08,1039.74,35.48,1040.0,38" style="fill:none;stroke:#999;stroke-width:3" />
<path d="M1059.6599999999999,14.91c0.59,0.84,0.55,1.84,0.29,3.13c-1.58,7.6-2.3,11.85-4.02,19.01" style="fill:none;stroke:#999;stroke-width:3" />
<path d="M1037.3600000000001,44.69c0,1.39-0.54,3.27-1.08,4.46c-3.51,7.76-10.47,17.5-15.11,22.63" style="fill:none;stroke:#999;stroke-width:3" />
<path d="M1032.38,59.38c0.81,0.81,1.15,2.03,1.15,3.15c0,6.63-0.01,17.6-0.02,25.1c0,2.94-0.01,5.34-0.01,6.75" style="fill:none;stroke:#999;stroke-width:3" />
<path d="M1070.16,52.6c0,1.54-0.96,3.26-2.34,4.5c-6.31,5.65-12.06,10.65-20.45,16.01" style="fill:none;stroke:black;stroke-width:3" />
<circle cx="1070.16" cy="52.6" r="5" stroke-width="0" fill="#FF2A00" opacity="0.7" />
<path d="M1105.53,37.67c1.76,0.35,3.51,0.34,5.25-0.01c4.47-0.62,12.18-1.65,17.35-2.44c1.12-0.27,2.25-0.36,3.39-0.28" style="fill:none;stroke:#999;stroke-width:3" />
<path d="M1119.8600000000001,18c1.01,1.01,1.54,3,1.54,5.92c0,2.56,0,41.82-0.02,61.08c0,4.8-0.01,8.38-0.01,9.88" style="fill:none;stroke:#999;stroke-width:3" />
<path d="M1120.94,37.78c0,1.97-0.69,3.59-1.5,5.66c-5.06,12.87-8.49,19.46-16.83,31.9" style="fill:none;stroke:#999;stroke-width:3" />
<path d="M1124.5,48.88c2,1.03,5,5.47,7.13,8.41" style="fill:none;stroke:#999;stroke-width:3" />
<path d="M1134.25,30.83c2.07,0.51,4.15,0.57,6.25,0.18c10.72-1.18,22.26-3.1,36.38-3.47c2.11-0.19,4.2-0.07,6.28,0.36" style="fill:none;stroke:#999;stroke-width:3" />
<path d="M1145.27,17.98c0.9,0.9,1.38,1.94,1.45,3.12C1147.6399999999999,28.08,1148.74,35.48,1149.0,38" style="fill:none;stroke:#999;stroke-width:3" />
<path d="M1168.6599999999999,14.91c0.59,0.84,0.55,1.84,0.29,3.13c-1.58,7.6-2.3,11.85-4.02,19.01" style="fill:none;stroke:#999;stroke-width:3" />
<path d="M1146.3600000000001,44.69c0,1.39-0.54,3.27-1.08,4.46c-3.51,7.76-10.47,17.5-15.11,22.63" style="fill:none;stroke:#999;stroke-width:3" />
<path d="M1141.38,59.38c0.81,0.81,1.15,2.03,1.15,3.15c0,6.63-0.01,17.6-0.02,25.1c0,2.94-0.01,5.34-0.01,6.75" style="fill:none;stroke:#999;stroke-width:3" />
<path d="M1179.16,52.6c0,1.54-0.96,3.26-2.34,4.5c-6.31,5.65-12.06,10.65-20.45,16.01" style="fill:none;stroke:#999;stroke-width:3" />
<path d="M1161.62,44.21c0.96,0.96,1.15,2.16,1.15,3.64c0,3.25-0.07,25.94-0.07,34.91c0,6.49,0.8,9.87,11.3,9.87C1185.5,92.62,1186.0,90.75,1186.0,83.26" style="fill:none;stroke:black;stroke-width:3" />
<circle cx="1161.62" cy="44.21" r="5" stroke-width="0" fill="#FF2A00" opacity="0.7" />
</svg>