<svg width="1744px" height="109px" viewBox="0 0 1744px 109px" xmlns="http://www.w3.org/2000/svg" xmlns:xlink="http://www.w3.org/1999/xlink" xml:space="preserve" version="1.1"  baseProfile="full">
<line x1="1" y1="1" x2="1743" y2="1" style="stroke:#ddd;stroke-width:2" />
<line x1="1" y1="1" x2="1" y2="108" style="stroke:#ddd;stroke-width:2" />
<line x1="1" y1="108" x2="1743" y2="108" style="stroke:#ddd;stroke-width:2" />
<line x1="1743" y1="1" x2="1743" y2="108" style="stroke:#ddd;stroke-width:2" />
<line x1="109" y1="1" x2="109" y2="108" style="stroke:#ddd;stroke-width:2" />
<line x1="218" y1="1" x2="218" y2="108" style="stroke:#ddd;stroke-width:2" />
<line x1="327" y1="1" x2="327" y2="108" style="stroke:#ddd;stroke-width:2" />
<line x1="436" y1="1" x2="436" y2="108" style="stroke:#ddd;stroke-width:2" />
<line x1="545" y1="1" x2="545" y2="108" style="stroke:#ddd;stroke-width:2" />
<line x1="654" y1="1" x2="654" y2="108" style="stroke:#ddd;stroke-width:2" />
<line x1="763" y1="1" x2="763" y2="108" style="stroke:#ddd;stroke-width:2" />
<line x1="872" y1="1" x2="872" y2="108" style="stroke:#ddd;stroke-width:2" />
<line x1="981" y1="1" x2="981" y2="108" style="stroke:#ddd;stroke-width:2" />
<line x1="1090" y1="1" x2="1090" y2="108" style="stroke:#ddd;stroke-width:2" />
<line x1="1199" y1="1" x2="1199" y2="108" style="stroke:#ddd;stroke-width:2" />
<line x1="1308" y1="1" x2="1308" y2="108" style="stroke:#ddd;stroke-width:2" />
<line x1="1417" y1="1" x2="1417" y2="108" style="stroke:#ddd;stroke-width:2" />
<line x1="1526" y1="1" x2="1526" y2="108" style="stroke:#ddd;stroke-width:2" />
<line x1="1635" y1="1" x2="1635" y2="108" style="stroke:#ddd;stroke-width:2" />
<line x1="1" y1="54" x2="1743" y2="54" style="stroke:#ddd;stroke-width:2;stroke-dasharray:3 3" />
<line x1="55" y1="1" x2="55" y2="108" style="stroke:#ddd;stroke-width:2;stroke-dasharray:3 3" />
<line x1="164" y1="1" x2="164" y2="108" style="stroke:#ddd;stroke-width:2;stroke-dasharray:3 3" />
<line x1="273" y1="1" x2="273" y2="108" style="stroke:#ddd;stroke-width:2;stroke-dasharray:3 3" />
<line x1="382" y1="1" x2="382" y2="108" style="stroke:#ddd;stroke-width:2;stroke-dasharray:3 3" />
<line x1="491" y1="1" x2="491" y2="108" style="stroke:#ddd;stroke-width:2;stroke-dasharray:3 3" />
<line x1="600" y1="1" x2="600" y2="108" style="stroke:#ddd;stroke-width:2;stroke-dasharray:3 3" />
<line x1="709" y1="1" x2="709" y2="108" style="stroke:#ddd;stroke-width:2;stroke-dasharray:3 3" />
<line x1="818" y1="1" x2="818" y2="108" style="stroke:#ddd;stroke-width:2;stroke-dasharray:3 3" />
<line x1="927" y1="1" x2="927" y2="108" style="stroke:#ddd;stroke-width:2;stroke-dasharray:3 3" />
<line x1="1036" y1="1" x2="1036" y2="108" style="stroke:#ddd;stroke-width:2;stroke-dasharray:3 3" />
<line x1="1145" y1="1" x2="1145" y2="108" style="stroke:#ddd;stroke-width:2;stroke-dasharray:3 3" />
<line x1="1254" y1="1" x2="1254" y2="108" style="stroke:#ddd;stroke-width:2;stroke-dasharray:3 3" />
<line x1="1363" y1="1" x2="1363" y2="108" style="stroke:#ddd;stroke-width:2;stroke-dasharray:3 3" />
<line x1="1472" y1="1" x2="1472" y2="108" style="stroke:#ddd;stroke-width:2;stroke-dasharray:3 3" />
<line x1="1581" y1="1" x2="1581" y2="108" style="stroke:#ddd;stroke-width:2;stroke-dasharray:3 3" />
<line x1="1690" y1="1" x2="1690" y2="108" style="stroke:#ddd;stroke-width:2;stroke-dasharray:3 3" />
<path d="M11.78,38.72c2.21,0.48,4.4,0.42,6.58-0.19c4.53-0.82,11.53-2.37,16.64-3.41c1.39-0.45,2.82-0.61,4.26-0.5" style="fill:none;stroke:black;stroke-width:3" />
<circle cx="11.78" cy="38.72" r="5" stroke-width="0" fill="#FF2A00" opacity="0.7" />
<path d="M120.78,38.72c2.21,0.48,4.4,0.42,6.58-0.19c4.53-0.82,11.53-2.37,16.64-3.41c1.39-0.45,2.82-0.61,4.26-0.5" style="fill:none;stroke:#999;stroke-width:3" />
<path d="M136.11,14c0.94,0.94,1.29,2.5,1.29,4.17c0,0.65,0.07,51.67,0.09,72.33c0.01,4.9,0.01,8.09,0.01,8.5" style="fill:none;stroke:black;stroke-width:3" />
<circle cx="136.11" cy="14.0" r="5" stroke-width="0" fill="#FF2A00" opacity="0.7" />
<path d="M229.78,38.72c2.21,0.48,4.4,0.42,6.58-0.19c4.53-0.82,11.53-2.37,16.64-3.41c1.39-0.45,2.82-0.61,4.26-0.5" style="fill:none;stroke:#999;stroke-width:3" />
<path d="M245.11,14c0.94,0.94,1.29,2.5,1.29,4.17c0,0.65,0.07,51.67,0.09,72.33c0.01,4.9,0.01,8.09,0.01,8.5" style="fill:none;stroke:#999;stroke-width:3" />
<path d="M246.12,37.88c0,2.75-1.25,5.38-2.07,7.4c-4.7,11.57-8.32,17.96-15.94,29.57" style="fill:none;stroke:black;stroke-width:3" />
<circle cx="246.12" cy="37.88" r="5" stroke-width="0" fill="#FF2A00" opacity="0.7" />
<path d="M338.78,38.72c2.21,0.48,4.4,0.42,6.58-0.19c4.53-0.82,11.53-2.37,16.64-3.41c1.39-0.45,2.82-0.61,4.26-0.5" style="fill:none;stroke:#999;stroke-width:3" />
<path d="M354.11,14c0.94,0.94,1.29,2.5,1.29,4.17c0,0.65,0.07,51.67,0.09,72.33c0.01,4.9,0.01,8.09,0.01,8.5" style="fill:none;stroke:#999;stroke-width:3" />
<path d="M355.12,37.88c0,2.75-1.25,5.38-2.07,7.4c-4.7,11.57-8.32,17.96-15.94,29.57" style="fill:none;stroke:#999;stroke-width:3" />
<path d="M358.47,48.9c2.37,1.59,5.66,7.05,7.66,10.14" style="fill:none;stroke:black;stroke-width:3" />
<circle cx="358.47" cy="48.9" r="5" stroke-width="0" fill="#FF2A00" opacity="0.7" />
<path d="M447.78,38.72c2.21,0.48,4.4,0.42,6.58-0.19c4.53-0.82,11.53-2.37,16.64-3.41c1.39-0.45,2.82-0.61,4.26-0.5" style="fill:none;stroke:#999;stroke-width:3" />
<path d="M463.11,14c0.94,0.94,1.29,2.5,1.29,4.17c0,0.65,0.07,51.67,0.09,72.33c0.01,4.9,0.01,8.09,0.01,8.5" style="fill:none;stroke:#999;stroke-width:3" />
<path d="M464.12,37.88c0,2.75-1.25,5.38-2.07,7.4c-4.7,11.57-8.32,17.96-15.94,29.57" style="fill:none;stroke:#999;stroke-width:3" />
<path d="M467.47,48.9c2.37,1.59,5.66,7.05,7.66,10.14" style="fill:none;stroke:#999;stroke-width:3" />
<path d="M500.27,11.25c0.02,1.38-0.23,2.7-0.92,3.86c-4.48,7.52-10.98,17.02-22.75,24.96" style="fill:none;stroke:black;stroke-width:3" />
<circle cx="500.27" cy="11.25" r="5" stroke-width="0" fill="#FF2A00" opacity="0.7" />
<path d="M556.78,38.72c2.21,0.48,4.4,0.42,6.58-0.19c4.53-0.82,11.53-2.37,16.64-3.41c1.39-0.45,2.82-0.61,4.26-0.5" style="fill:none;stroke:#999;stroke-width:3" />
<path d="M572.11,14c0.94,0.94,1.29,2.5,1.29,4.17c0,0.65,0.07,51.67,0.09,72.33c0.01,4.9,0.01,8.09,0.01,8.5" style="fill:none;stroke:#999;stroke-width:3" />
<path d="M573.12,37.88c0,2.75-1.25,5.38-2.07,7.4c-4.7,11.57-8.32,17.96-15.94,29.57" style="fill:none;stroke:#999;stroke-width:3" />
<path d="M576.47,48.9c2.37,1.59,5.66,7.05,7.66,10.14" style="fill:none;stroke:#999;stroke-width:3" />
<path d="M609.27,11.25c0.02,1.38-0.23,2.7-0.92,3.86c-4.48,7.52-10.98,17.02-22.75,24.96" style="fill:none;stroke:#999;stroke-width:3" />
<path d="M610.88,15.5c4.5,4.12,14,11.12,20.78,15.45c3.17,2.02,6.31,3.81,10,4.57" style="fill:none;stroke:black;stroke-width:3" />
<circle cx="610.88" cy="15.5" r="5" stroke-width="0" fill="#FF2A00" opacity="0.7" />
<path d="M665.78,38.72c2.21,0.48,4.4,0.42,6.58-0.19c4.53-0.82,11.53-2.37,16.64-3.41c1.39-0.45,2.82-0.61,4.26-0.5" style="fill:none;stroke:#999;stroke-width:3" />
<path d="M681.11,14c0.94,0.94,1.29,2.5,1.29,4.17c0,0.65,0.07,51.67,0.09,72.33c0.01,4.9,0.01,8.09,0.01,8.5" style="fill:none;stroke:#999;stroke-width:3" />
<path d="M682.12,37.88c0,2.75-1.25,5.38-2.07,7.4c-4.7,11.57-8.32,17.96-15.94,29.57" style="fill:none;stroke:#999;stroke-width:3" />
<path d="M685.47,48.9c2.37,1.59,5.66,7.05,7.66,10.14" style="fill:none;stroke:#999;stroke-width:3" />
<path d="M718.27,11.25c0.02,1.38-0.23,2.7-0.92,3.86c-4.48,7.52-10.98,17.02-22.75,24.96" style="fill:none;stroke:#999;stroke-width:3" />
<path d="M719.88,15.5c4.5,4.12,14,11.12,20.78,15.45c3.17,2.02,6.31,3.81,10,4.57" style="fill:none;stroke:#999;stroke-width:3" />
<path d="M719.44,26.75c0.71,0.71,0.94,1.75,0.94,2.88c0,2.55-0.01,4.21-0.01,6.62" style="fill:none;stroke:black;stroke-width:3" />
<circle cx="719.44" cy="26.75" r="5" stroke-width="0" fill="#FF2A00" opacity="0.7" />
<path d="M774.78,38.72c2.21,0.48,4.4,0.42,6.58-0.19c4.53-0.82,11.53-2.37,16.64-3.41c1.39-0.45,2.82-0.61,4.26-0.5" style="fill:none;stroke:#999;stroke-width:3" />
<path d="M790.11,14c0.94,0.94,1.29,2.5,1.29,4.17c0,0.65,0.07,51.67,0.09,72.33c0.01,4.9,0.01,8.09,0.01,8.5" style="fill:none;stroke:#999;stroke-width:3" />
<path d="M791.12,37.88c0,2.75-1.25,5.38-2.07,7.4c-4.7,11.57-8.32,17.96-15.94,29.57" style="fill:none;stroke:#999;stroke-width:3" />
<path d="M794.47,48.9c2.37,1.59,5.66,7.05,7.66,10.14" style="fill:none;stroke:#999;stroke-width:3" />
<path d="M827.27,11.25c0.02,1.38-0.23,2.7-0.92,3.86c-4.48,7.52-10.98,17.02-22.75,24.96" style="fill:none;stroke:#999;stroke-width:3" />
<path d="M828.88,15.5c4.5,4.12,14,11.12,20.78,15.45c3.17,2.02,6.31,3.81,10,4.57" style="fill:none;stroke:#999;stroke-width:3" />
<path d="M828.44,26.75c0.71,0.71,0.94,1.75,0.94,2.88c0,2.55-0.01,4.21-0.01,6.62" style="fill:none;stroke:#999;stroke-width:3" />
<path d="M812.77,38.6c2.12,0.43,4.18,0.36,6.35,0.07c6.4-0.84,14.76-1.55,21.89-1.98c2.22-0.13,4.24-0.07,6.73,0.09" style="fill:none;stroke:black;stroke-width:3" />
<circle cx="812.77" cy="38.6" r="5" stroke-width="0" fill="#FF2A00" opacity="0.7" />
<path d="M883.78,38.72c2.21,0.48,4.4,0.42,6.58-0.19c4.53-0.82,11.53-2.37,16.64-3.41c1.39-0.45,2.82-0.61,4.26-0.5" style="fill:none;stroke:#999;stroke-width:3" />
<path d="M899.11,14c0.94,0.94,1.29,2.5,1.29,4.17c0,0.65,0.07,51.67,0.09,72.33c0.01,4.9,0.01,8.09,0.01,8.5" style="fill:none;stroke:#999;stroke-width:3" />
<path d="M900.12,37.88c0,2.75-1.25,5.38-2.07,7.4c-4.7,11.57-8.32,17.96-15.94,29.57" style="fill:none;stroke:#999;stroke-width:3" />
<path d="M903.47,48.9c2.37,1.59,5.66,7.05,7.66,10.14" style="fill:none;stroke:#999;stroke-width:3" />
<path d="M936.27,11.25c0.02,1.38-0.23,2.7-0.92,3.86c-4.48,7.52-10.98,17.02-22.75,24.96" style="fill:none;stroke:#999;stroke-width:3" />
<path d="M937.88,15.5c4.5,4.12,14,11.12,20.78,15.45c3.17,2.02,6.31,3.81,10,4.57" style="fill:none;stroke:#999;stroke-width:3" />
<path d="M937.44,26.75c0.71,0.71,0.94,1.75,0.94,2.88c0,2.55-0.01,4.21-0.01,6.62" style="fill:none;stroke:#999;stroke-width:3" />
<path d="M921.77,38.6c2.12,0.43,4.18,0.36,6.35,0.07c6.4-0.84,14.76-1.55,21.89-1.98c2.22-0.13,4.24-0.07,6.73,0.09" style="fill:none;stroke:#999;stroke-width:3" />
<path d="M948.11,40.03c0,0.85-0.43,1.94-1.02,2.53c-6.21,6.2-11.09,9.7-18.72,12.93" style="fill:none;stroke:black;stroke-width:3" />
<circle cx="948.11" cy="40.03" r="5" stroke-width="0" fill="#FF2A00" opacity="0.7" />
<path d="M992.78,38.72c2.21,0.48,4.4,0.42,6.58-0.19c4.53-0.82,11.53-2.37,16.64-3.41c1.39-0.45,2.82-0.61,4.26-0.5" style="fill:none;stroke:#999;stroke-width:3" />
<path d="M1008.11,14c0.94,0.94,1.29,2.5,1.29,4.17c0,0.65,0.07,51.67,0.09,72.33c0.01,4.9,0.01,8.09,0.01,8.5" style="fill:none;stroke:#999;stroke-width:3" />
<path d="M1009.12,37.88c0,2.75-1.25,5.38-2.07,7.4c-4.7,11.57-8.32,17.96-15.94,29.57" style="fill:none;stroke:#999;stroke-width:3" />
<path d="M1012.47,48.9c2.37,1.59,5.66,7.05,7.66,10.14" style="fill:none;stroke:#999;stroke-width:3" />
<path d="M1045.27,11.25c0.02,1.38-0.23,2.7-0.92,3.86c-4.48,7.52-10.98,17.02-22.75,24.96" style="fill:none;stroke:#999;stroke-width:3" />
<path d="M1046.88,15.5c4.5,4.12,14,11.12,20.78,15.45c3.17,2.02,6.31,3.81,10,4.57" style="fill:none;stroke:#999;stroke-width:3" />
<path d="M1046.44,26.75c0.71,0.71,0.94,1.75,0.94,2.88c0,2.55-0.01,4.21-0.01,6.62" style="fill:none;stroke:#999;stroke-width:3" />
<path d="M1030.77,38.6c2.12,0.43,4.18,0.36,6.35,0.07c6.4-0.84,14.76-1.55,21.89-1.98c2.22-0.13,4.24-0.07,6.73,0.09" style="fill:none;stroke:#999;stroke-width:3" />
<path d="M1057.1100000000001,40.03c0,0.85-0.43,1.94-1.02,2.53c-6.21,6.2-11.09,9.7-18.72,12.93" style="fill:none;stroke:#999;stroke-width:3" />
<path d="M1038.83,43.74c6.36,1.35,15.51,5.74,18.84,8.95" style="fill:none;stroke:black;stroke-width:3" />
<circle cx="1038.83" cy="43.74" r="5" stroke-width="0" fill="#FF2A00" opacity="0.7" />
<path d="M1101.78,38.72c2.21,0.48,4.4,0.42,6.58-0.19c4.53-0.82,11.53-2.37,16.64-3.41c1.39-0.45,2.82-0.61,4.26-0.5" style="fill:none;stroke:#999;stroke-width:3" />
<path d="M1117.1100000000001,14c0.94,0.94,1.29,2.5,1.29,4.17c0,0.65,0.07,51.67,0.09,72.33c0.01,4.9,0.01,8.09,0.01,8.5" style="fill:none;stroke:#999;stroke-width:3" />
<path d="M1118.12,37.88c0,2.75-1.25,5.38-2.07,7.4c-4.7,11.57-8.32,17.96-15.94,29.57" style="fill:none;stroke:#999;stroke-width:3" />
<path d="M1121.47,48.9c2.37,1.59,5.66,7.05,7.66,10.14" style="fill:none;stroke:#999;stroke-width:3" />
<path d="M1154.27,11.25c0.02,1.38-0.23,2.7-0.92,3.86c-4.48,7.52-10.98,17.02-22.75,24.96" style="fill:none;stroke:#999;stroke-width:3" />
<path d="M1155.88,15.5c4.5,4.12,14,11.12,20.78,15.45c3.17,2.02,6.31,3.81,10,4.57" style="fill:none;stroke:#999;stroke-width:3" />
<path d="M1155.44,26.75c0.71,0.71,0.94,1.75,0.94,2.88c0,2.55-0.01,4.21-0.01,6.62" style="fill:none;stroke:#999;stroke-width:3" />
<path d="M1139.77,38.6c2.12,0.43,4.18,0.36,6.35,0.07c6.4-0.84,14.76-1.55,21.89-1.98c2.22-0.13,4.24-0.07,6.73,0.09" style="fill:none;stroke:#999;stroke-width:3" />
<path d="M1166.1100000000001,40.03c0,0.85-0.43,1.94-1.02,2.53c-6.21,6.2-11.09,9.7-18.72,12.93" style="fill:none;stroke:#999;stroke-width:3" />
<path d="M1147.83,43.74c6.36,1.35,15.51,5.74,18.84,8.95" style="fill:none;stroke:#999;stroke-width:3" />
<path d="M1138.86,43.17c0.76,0.71,1.05,1.83,1.05,2.76c0,1.74-0.07,7.22-0.12,10.46c-0.05,3.35,0.56,4.15,3.96,3.83c10.52-0.97,26.16-2.51,29.94-2.66" style="fill:none;stroke:black;stroke-width:3" />
<circle cx="1138.86" cy="43.17" r="5" stroke-width="0" fill="#FF2A00" opacity="0.7" />
<path d="M1210.78,38.72c2.21,0.48,4.4,0.42,6.58-0.19c4.53-0.82,11.53-2.37,16.64-3.41c1.39-0.45,2.82-0.61,4.26-0.5" style="fill:none;stroke:#999;stroke-width:3" />
<path d="M1226.1100000000001,14c0.94,0.94,1.29,2.5,1.29,4.17c0,0.65,0.07,51.67,0.09,72.33c0.01,4.9,0.01,8.09,0.01,8.5" style="fill:none;stroke:#999;stroke-width:3" />
<path d="M1227.12,37.88c0,2.75-1.25,5.38-2.07,7.4c-4.7,11.57-8.32,17.96-15.94,29.57" style="fill:none;stroke:#999;stroke-width:3" />
<path d="M1230.47,48.9c2.37,1.59,5.66,7.05,7.66,10.14" style="fill:none;stroke:#999;stroke-width:3" />
<path d="M1263.27,11.25c0.02,1.38-0.23,2.7-0.92,3.86c-4.48,7.52-10.98,17.02-22.75,24.96" style="fill:none;stroke:#999;stroke-width:3" />
<path d="M1264.88,15.5c4.5,4.12,14,11.12,20.78,15.45c3.17,2.02,6.31,3.81,10,4.57" style="fill:none;stroke:#999;stroke-width:3" />
<path d="M1264.44,26.75c0.71,0.71,0.94,1.75,0.94,2.88c0,2.55-0.01,4.21-0.01,6.62" style="fill:none;stroke:#999;stroke-width:3" />
<path d="M1248.77,38.6c2.12,0.43,4.18,0.36,6.35,0.07c6.4-0.84,14.76-1.55,21.89-1.98c2.22-0.13,4.24-0.07,6.73,0.09" style="fill:none;stroke:#999;stroke-width:3" />
<path d="M1275.1100000000001,40.03c0,0.85-0.43,1.94-1.02,2.53c-6.21,6.2-11.09,9.7-18.72,12.93" style="fill:none;stroke:#999;stroke-width:3" />
<path d="M1256.83,43.74c6.36,1.35,15.51,5.74,18.84,8.95" style="fill:none;stroke:#999;stroke-width:3" />
<path d="M1247.86,43.17c0.76,0.71,1.05,1.83,1.05,2.76c0,1.74-0.07,7.22-0.12,10.46c-0.05,3.35,0.56,4.15,3.96,3.83c10.52-0.97,26.16-2.51,29.94-2.66" style="fill:none;stroke:#999;stroke-width:3" />
<path d="M1284.96,42.06c0.8,0.8,0.91,1.57,0.78,2.77c-0.04,0.34-1.37,8.54-2.39,14.37" style="fill:none;stroke:black;stroke-width:3" />
<circle cx="1284.96" cy="42.06" r="5" stroke-width="0" fill="#FF2A00" opacity="0.7" />
<path d="M1319.78,38.72c2.21,0.48,4.4,0.42,6.58-0.19c4.53-0.82,11.53-2.37,16.64-3.41c1.39-0.45,2.82-0.61,4.26-0.5" style="fill:none;stroke:#999;stroke-width:3" />
<path d="M1335.1100000000001,14c0.94,0.94,1.29,2.5,1.29,4.17c0,0.65,0.07,51.67,0.09,72.33c0.01,4.9,0.01,8.09,0.01,8.5" style="fill:none;stroke:#999;stroke-width:3" />
<path d="M1336.12,37.88c0,2.75-1.25,5.38-2.07,7.4c-4.7,11.57-8.32,17.96-15.94,29.57" style="fill:none;stroke:#999;stroke-width:3" />
<path d="M1339.47,48.9c2.37,1.59,5.66,7.05,7.66,10.14" style="fill:none;stroke:#999;stroke-width:3" />
<path d="M1372.27,11.25c0.02,1.38-0.23,2.7-0.92,3.86c-4.48,7.52-10.98,17.02-22.75,24.96" style="fill:none;stroke:#999;stroke-width:3" />
<path d="M1373.88,15.5c4.5,4.12,14,11.12,20.78,15.45c3.17,2.02,6.31,3.81,10,4.57" style="fill:none;stroke:#999;stroke-width:3" />
<path d="M1373.44,26.75c0.71,0.71,0.94,1.75,0.94,2.88c0,2.55-0.01,4.21-0.01,6.62" style="fill:none;stroke:#999;stroke-width:3" />
<path d="M1357.77,38.6c2.12,0.43,4.18,0.36,6.35,0.07c6.4-0.84,14.76-1.55,21.89-1.98c2.22-0.13,4.24-0.07,6.73,0.09" style="fill:none;stroke:#999;stroke-width:3" />
<path d="M1384.1100000000001,40.03c0,0.85-0.43,1.94-1.02,2.53c-6.21,6.2-11.09,9.7-18.72,12.93" style="fill:none;stroke:#999;stroke-width:3" />
<path d="M1365.83,43.74c6.36,1.35,15.51,5.74,18.84,8.95" style="fill:none;stroke:#999;stroke-width:3" />
<path d="M1356.86,43.17c0.76,0.71,1.05,1.83,1.05,2.76c0,1.74-0.07,7.22-0.12,10.46c-0.05,3.35,0.56,4.15,3.96,3.83c10.52-0.97,26.16-2.51,29.94-2.66" style="fill:none;stroke:#999;stroke-width:3" />
<path d="M1393.96,42.06c0.8,0.8,0.91,1.57,0.78,2.77c-0.04,0.34-1.37,8.54-2.39,14.37" style="fill:none;stroke:#999;stroke-width:3" />
<path d="M1353.19,68.17c0.88,0.88,1.29,2.2,1.29,3.97c0,4.53,0.03,11.09,0.05,17.61c0.01,2.64,0.01,5.27,0.01,7.75" style="fill:none;stroke:black;stroke-width:3" />
<circle cx="1353.19" cy="68.17" r="5" stroke-width="0" fill="#FF2A00" opacity="0.7" />
<path d="M1428.78,38.72c2.21,0.48,4.4,0.42,6.58-0.19c4.53-0.82,11.53-2.37,16.64-3.41c1.39-0.45,2.82-0.61,4.26-0.5" style="fill:none;stroke:#999;stroke-width:3" />
<path d="M1444.1100000000001,14c0.94,0.94,1.29,2.5,1.29,4.17c0,0.65,0.07,51.67,0.09,72.33c0.01,4.9,0.01,8.09,0.01,8.5" style="fill:none;stroke:#999;stroke-width:3" />
<path d="M1445.12,37.88c0,2.75-1.25,5.38-2.07,7.4c-4.7,11.57-8.32,17.96-15.94,29.57" style="fill:none;stroke:#999;stroke-width:3" />
<path d="M1448.47,48.9c2.37,1.59,5.66,7.05,7.66,10.14" style="fill:none;stroke:#999;stroke-width:3" />
<path d="M1481.27,11.25c0.02,1.38-0.23,2.7-0.92,3.86c-4.48,7.52-10.98,17.02-22.75,24.96" style="fill:none;stroke:#999;stroke-width:3" />
<path d="M1482.88,15.5c4.5,4.12,14,11.12,20.78,15.45c3.17,2.02,6.31,3.81,10,4.57" style="fill:none;stroke:#999;stroke-width:3" />
<path d="M1482.44,26.75c0.71,0.71,0.94,1.75,0.94,2.88c0,2.55-0.01,4.21-0.01,6.62" style="fill:none;stroke:#999;stroke-width:3" />
<path d="M1466.77,38.6c2.12,0.43,4.18,0.36,6.35,0.07c6.4-0.84,14.76-1.55,21.89-1.98c2.22-0.13,4.24-0.07,6.73,0.09" style="fill:none;stroke:#999;stroke-width:3" />
<path d="M1493.1100000000001,40.03c0,0.85-0.43,1.94-1.02,2.53c-6.21,6.2-11.09,9.7-18.72,12.93" style="fill:none;stroke:#999;stroke-width:3" />
<path d="M1474.83,43.74c6.36,1.35,15.51,5.74,18.84,8.95" style="fill:none;stroke:#999;stroke-width:3" />
<path d="M1465.86,43.17c0.76,0.71,1.05,1.83,1.05,2.76c0,1.74-0.07,7.22-0.12,10.46c-0.05,3.35,0.56,4.15,3.96,3.83c10.52-0.97,26.16-2.51,29.94-2.66" style="fill:none;stroke:#999;stroke-width:3" />
<path d="M1502.96,42.06c0.8,0.8,0.91,1.57,0.78,2.77c-0.04,0.34-1.37,8.54-2.39,14.37" style="fill:none;stroke:#999;stroke-width:3" />
<path d="M1462.19,68.17c0.88,0.88,1.29,2.2,1.29,3.97c0,4.53,0.03,11.09,0.05,17.61c0.01,2.64,0.01,5.27,0.01,7.75" style="fill:none;stroke:#999;stroke-width:3" />
<path d="M1464.75,70.62c6.94-0.52,39.73-4.09,41.01-4.34c2.74-0.53,4.55,1.28,4.45,2.82c-0.24,3.73-2.66,19.51-4.81,24.24c-2.69,5.92-3.67,3.64-6.09-0.04" style="fill:none;stroke:black;stroke-width:3" />
<circle cx="1464.75" cy="70.62" r="5" stroke-width="0" fill="#FF2A00" opacity="0.7" />
<path d="M1537.78,38.72c2.21,0.48,4.4,0.42,6.58-0.19c4.53-0.82,11.53-2.37,16.64-3.41c1.39-0.45,2.82-0.61,4.26-0.5" style="fill:none;stroke:#999;stroke-width:3" />
<path d="M1553.1100000000001,14c0.94,0.94,1.29,2.5,1.29,4.17c0,0.65,0.07,51.67,0.09,72.33c0.01,4.9,0.01,8.09,0.01,8.5" style="fill:none;stroke:#999;stroke-width:3" />
<path d="M1554.12,37.88c0,2.75-1.25,5.38-2.07,7.4c-4.7,11.57-8.32,17.96-15.94,29.57" style="fill:none;stroke:#999;stroke-width:3" />
<path d="M1557.47,48.9c2.37,1.59,5.66,7.05,7.66,10.14" style="fill:none;stroke:#999;stroke-width:3" />
<path d="M1590.27,11.25c0.02,1.38-0.23,2.7-0.92,3.86c-4.48,7.52-10.98,17.02-22.75,24.96" style="fill:none;stroke:#999;stroke-width:3" />
<path d="M1591.88,15.5c4.5,4.12,14,11.12,20.78,15.45c3.17,2.02,6.31,3.81,10,4.57" style="fill:none;stroke:#999;stroke-width:3" />
<path d="M1591.44,26.75c0.71,0.71,0.94,1.75,0.94,2.88c0,2.55-0.01,4.21-0.01,6.62" style="fill:none;stroke:#999;stroke-width:3" />
<path d="M1575.77,38.6c2.12,0.43,4.18,0.36,6.35,0.07c6.4-0.84,14.76-1.55,21.89-1.98c2.22-0.13,4.24-0.07,6.73,0.09" style="fill:none;stroke:#999;stroke-width:3" />
<path d="M1602.1100000000001,40.03c0,0.85-0.43,1.94-1.02,2.53c-6.21,6.2-11.09,9.7-18.72,12.93" style="fill:none;stroke:#999;stroke-width:3" />
<path d="M1583.83,43.74c6.36,1.35,15.51,5.74,18.84,8.95" style="fill:none;stroke:#999;stroke-width:3" />
<path d="M1574.86,43.17c0.76,0.71,1.05,1.83,1.05,2.76c0,1.74-0.07,7.22-0.12,10.46c-0.05,3.35,0.56,4.15,3.96,3.83c10.52-0.97,26.16-2.51,29.94-2.66" style="fill:none;stroke:#999;stroke-width:3" />
<path d="M1611.96,42.06c0.8,0.8,0.91,1.57,0.78,2.77c-0.04,0.34-1.37,8.54-2.39,14.37" style="fill:none;stroke:#999;stroke-width:3" />
<path d="M1571.19,68.17c0.88,0.88,1.29,2.2,1.29,3.97c0,4.53,0.03,11.09,0.05,17.61c0.01,2.64,0.01,5.27,0.01,7.75" style="fill:none;stroke:#999;stroke-width:3" />
<path d="M1573.75,70.62c6.94-0.52,39.73-4.09,41.01-4.34c2.74-0.53,4.55,1.28,4.45,2.82c-0.24,3.73-2.66,19.51-4.81,24.24c-2.69,5.92-3.67,3.64-6.09-0.04" style="fill:none;stroke:#999;stroke-width:3" />
<path d="M1592.57,61.49c0.5,1.2,0.4,2.32-0.17,3.44c-3.33,6.55-6.35,10.45-10.03,15.94c-1.49,2.24-0.31,3.39,2.12,2.75C1589.9,82.21,1596.67,80.33,1604.0,79" style="fill:none;stroke:black;stroke-width:3" />
<circle cx="1592.57" cy="61.49" r="5" stroke-width="0" fill="#FF2A00" opacity="0.7" />
<path d="M1646.78,38.72c2.21,0.48,4.4,0.42,6.58-0.19c4.53-0.82,11.53-2.37,16.64-3.41c1.39-0.45,2.82-0.61,4.26-0.5" style="fill:none;stroke:#999;stroke-width:3" />
<path d="M1662.1100000000001,14c0.94,0.94,1.29,2.5,1.29,4.17c0,0.65,0.07,51.67,0.09,72.33c0.01,4.9,0.01,8.09,0.01,8.5" style="fill:none;stroke:#999;stroke-width:3" />
<path d="M1663.12,37.88c0,2.75-1.25,5.38-2.07,7.4c-4.7,11.57-8.32,17.96-15.94,29.57" style="fill:none;stroke:#999;stroke-width:3" />
<path d="M1666.47,48.9c2.37,1.59,5.66,7.05,7.66,10.14" style="fill:none;stroke:#999;stroke-width:3" />
<path d="M1699.27,11.25c0.02,1.38-0.23,2.7-0.92,3.86c-4.48,7.52-10.98,17.02-22.75,24.96" style="fill:none;stroke:#999;stroke-width:3" />
<path d="M1700.88,15.5c4.5,4.12,14,11.12,20.78,15.45c3.17,2.02,6.31,3.81,10,4.57" style="fill:none;stroke:#999;stroke-width:3" />
<path d="M1700.44,26.75c0.71,0.71,0.94,1.75,0.94,2.88c0,2.55-0.01,4.21-0.01,6.62" style="fill:none;stroke:#999;stroke-width:3" />
<path d="M1684.77,38.6c2.12,0.43,4.18,0.36,6.35,0.07c6.4-0.84,14.76-1.55,21.89-1.98c2.22-0.13,4.24-0.07,6.73,0.09" style="fill:none;stroke:#999;stroke-width:3" />
<path d="M1711.1100000000001,40.03c0,0.85-0.43,1.94-1.02,2.53c-6.21,6.2-11.09,9.7-18.72,12.93" style="fill:none;stroke:#999;stroke-width:3" />
<path d="M1692.83,43.74c6.36,1.35,15.51,5.74,18.84,8.95" style="fill:none;stroke:#999;stroke-width:3" />
<path d="M1683.86,43.17c0.76,0.71,1.05,1.83,1.05,2.76c0,1.74-0.07,7.22-0.12,10.46c-0.05,3.35,0.56,4.15,3.96,3.83c10.52-0.97,26.16-2.51,29.94-2.66" style="fill:none;stroke:#999;stroke-width:3" />
<path d="M1720.96,42.06c0.8,0.8,0.91,1.57,0.78,2.77c-0.04,0.34-1.37,8.54-2.39,14.37" style="fill:none;stroke:#999;stroke-width:3" />
<path d="M1680.19,68.17c0.88,0.88,1.29,2.2,1.29,3.97c0,4.53,0.03,11.09,0.05,17.61c0.01,2.64,0.01,5.27,0.01,7.75" style="fill:none;stroke:#999;stroke-width:3" />
<path d="M1682.75,70.62c6.94-0.52,39.73-4.09,41.01-4.34c2.74-0.53,4.55,1.28,4.45,2.82c-0.24,3.73-2.66,19.51-4.81,24.24c-2.69,5.92-3.67,3.64-6.09-0.04" style="fill:none;stroke:#999;stroke-width:3" />
<path d="M1701.57,61.49c0.5,1.2,0.4,2.32-0.17,3.44c-3.33,6.55-6.35,10.45-10.03,15.94c-1.49,2.24-0.31,3.39,2.12,2.75C1698.9,82.21,1705.67,80.33,1713.0,79" style="fill:none;stroke:#999;stroke-width:3" />
<path d="M1710.29,72.92c2.21,1.9,5.7,7.8,6.25,10.75" style="fill:none;stroke:black;stroke-width:3" />
<circle cx="1710.29" cy="72.92" r="5" stroke-width="0" fill="#FF2A00" opacity="0.7" />
</svg>