<svg width="1308px" height="109px" viewBox="0 0 1308px 109px" xmlns="http://www.w3.org/2000/svg" xmlns:xlink="http://www.w3.org/1999/xlink" xml:space="preserve" version="1.1"  baseProfile="full">
<line x1="1" y1="1" x2="1307" y2="1" style="stroke:#ddd;stroke-width:2" />
<line x1="1" y1="1" x2="1" y2="108" style="stroke:#ddd;stroke-width:2" />
<line x1="1" y1="108" x2="1307" y2="108" style="stroke:#ddd;stroke-width:2" />
<line x1="1307" y1="1" x2="1307" y2="108" style="stroke:#ddd;stroke-width:2" />
<line x1="109" y1="1" x2="109" y2="108" style="stroke:#ddd;stroke-width:2" />
<line x1="218" y1="1" x2="218" y2="108" style="stroke:#ddd;stroke-width:2" />
<line x1="327" y1="1" x2="327" y2="108" style="stroke:#ddd;stroke-width:2" />
<line x1="436" y1="1" x2="436" y2="108" style="stroke:#ddd;stroke-width:2" />
<line x1="545" y1="1" x2="545" y2="108" style="stroke:#ddd;stroke-width:2" />
<line x1="654" y1="1" x2="654" y2="108" style="stroke:#ddd;stroke-width:2" />
<line x1="763" y1="1" x2="763" y2="108" style="stroke:#ddd;stroke-width:2" />
<line x1="872" y1="1" x2="872" y2="108" style="stroke:#ddd;stroke-width:2" />
<line x1="981" y1="1" x2="981" y2="108" style="stroke:#ddd;stroke-width:2" />
<line x1="1090" y1="1" x2="1090" y2="108" style="stroke:#ddd;stroke-width:2" />
<line x1="1199" y1="1" x2="1199" y2="108" style="stroke:#ddd;stroke-width:2" />
<line x1="1" y1="54" x2="1307" y2="54" style="stroke:#ddd;stroke-width:2;stroke-dasharray:3 3" />
<line x1="55" y1="1" x2="55" y2="108" style="stroke:#ddd;stroke-width:2;stroke-dasharray:3 3" />
<line x1="164" y1="1" x2="164" y2="108" style="stroke:#ddd;stroke-width:2;stroke-dasharray:3 3" />
<line x1="273" y1="1" x2="273" y2="108" style="stroke:#ddd;stroke-width:2;stroke-dasharray:3 3" />
<line x1="382" y1="1" x2="382" y2="108" style="stroke:#ddd;stroke-width:2;stroke-dasharray:3 3" />
<line x1="491" y1="1" x2="491" y2="108" style="stroke:#ddd;stroke-width:2;stroke-dasharray:3 3" />
<line x1="600" y1="1" x2="600" y2="108" style="stroke:#ddd;stroke-width:2;stroke-dasharray:3 3" />
<line x1="709" y1="1" x2="709" y2="108" style="stroke:#ddd;stroke-width:2;stroke-dasharray:3 3" />
<line x1="818" y1="1" x2="818" y2="108" style="stroke:#ddd;stroke-width:2;stroke-dasharray:3 3" />
<line x1="927" y1="1" x2="927" y2="108" style="stroke:#ddd;stroke-width:2;stroke-dasharray:3 3" />
<line x1="1036" y1="1" x2="1036" y2="108" style="stroke:#ddd;stroke-width:2;stroke-dasharray:3 3" />
<line x1="1145" y1="1" x2="1145" y2="108" style="stroke:#ddd;stroke-width:2;stroke-dasharray:3 3" />
<line x1="1254" y1="1" x2="1254" y2="108" style="stroke:#ddd;stroke-width:2;stroke-dasharray:3 3" />
<path d="M19.88,17c3.31,1.47,8.12,5.38,10.37,8.34" style="fill:none;stroke:black;stroke-width:3" />
<circle cx="19.88" cy="17.0" r="5" stroke-width="0" fill="#FF2A00" opacity="0.7" />
<path d="M128.88,17c3.31,1.47,8.12,5.38,10.37,8.34" style="fill:none;stroke:#999;stroke-width:3" />
<path d="M124.5,38.75c3.71,1.41,8.5,5.12,10.5,8" style="fill:none;stroke:black;stroke-width:3" />
<circle cx="124.5" cy="38.75" r="5" stroke-width="0" fill="#FF2A00" opacity="0.7" />
<path d="M237.88,17c3.31,1.47,8.12,5.38,10.37,8.34" style="fill:none;stroke:#999;stroke-width:3" />
<path d="M233.5,38.75c3.71,1.41,8.5,5.12,10.5,8" style="fill:none;stroke:#999;stroke-width:3" />
<path d="M230.62,90.48c1.3,0.38,2.57,0,3.35-1.29c3.32-5.52,6.64-12.27,9.65-19.31" style="fill:none;stroke:black;stroke-width:3" />
<circle cx="230.62" cy="90.48" r="5" stroke-width="0" fill="#FF2A00" opacity="0.7" />
<path d="M346.88,17c3.31,1.47,8.12,5.38,10.37,8.34" style="fill:none;stroke:#999;stroke-width:3" />
<path d="M342.5,38.75c3.71,1.41,8.5,5.12,10.5,8" style="fill:none;stroke:#999;stroke-width:3" />
<path d="M339.62,90.48c1.3,0.38,2.57,0,3.35-1.29c3.32-5.52,6.64-12.27,9.65-19.31" style="fill:none;stroke:#999;stroke-width:3" />
<path d="M364.38,29.02c1.76,0.53,5.09,0.47,6.84,0.28c14.78-1.67,30.03-3.42,43.13-4.03c2.93-0.14,4.69,0.25,6.15,0.51" style="fill:none;stroke:black;stroke-width:3" />
<circle cx="364.38" cy="29.02" r="5" stroke-width="0" fill="#FF2A00" opacity="0.7" />
<path d="M455.88,17c3.31,1.47,8.12,5.38,10.37,8.34" style="fill:none;stroke:#999;stroke-width:3" />
<path d="M451.5,38.75c3.71,1.41,8.5,5.12,10.5,8" style="fill:none;stroke:#999;stroke-width:3" />
<path d="M448.62,90.48c1.3,0.38,2.57,0,3.35-1.29c3.32-5.52,6.64-12.27,9.65-19.31" style="fill:none;stroke:#999;stroke-width:3" />
<path d="M473.38,29.02c1.76,0.53,5.09,0.47,6.84,0.28c14.78-1.67,30.03-3.42,43.13-4.03c2.93-0.14,4.69,0.25,6.15,0.51" style="fill:none;stroke:#999;stroke-width:3" />
<path d="M487.67,15.5c1.04,1.04,1.92,2.36,1.99,3.25C490.5,29,491.25,34.5,491.65999999999997,41" style="fill:none;stroke:black;stroke-width:3" />
<circle cx="487.67" cy="15.5" r="5" stroke-width="0" fill="#FF2A00" opacity="0.7" />
<path d="M564.88,17c3.31,1.47,8.12,5.38,10.37,8.34" style="fill:none;stroke:#999;stroke-width:3" />
<path d="M560.5,38.75c3.71,1.41,8.5,5.12,10.5,8" style="fill:none;stroke:#999;stroke-width:3" />
<path d="M557.62,90.48c1.3,0.38,2.57,0,3.35-1.29c3.32-5.52,6.64-12.27,9.65-19.31" style="fill:none;stroke:#999;stroke-width:3" />
<path d="M582.38,29.02c1.76,0.53,5.09,0.47,6.84,0.28c14.78-1.67,30.03-3.42,43.13-4.03c2.93-0.14,4.69,0.25,6.15,0.51" style="fill:none;stroke:#999;stroke-width:3" />
<path d="M596.6700000000001,15.5c1.04,1.04,1.92,2.36,1.99,3.25C599.5,29,600.25,34.5,600.66,41" style="fill:none;stroke:#999;stroke-width:3" />
<path d="M621.25,13.55C622.03,14.34,622.28,15.49,622.1,16.97C621.04,25.69,620.4300000000001,31.28,619.1,39.52" style="fill:none;stroke:black;stroke-width:3" />
<circle cx="621.25" cy="13.55" r="5" stroke-width="0" fill="#FF2A00" opacity="0.7" />
<path d="M673.88,17c3.31,1.47,8.12,5.38,10.37,8.34" style="fill:none;stroke:#999;stroke-width:3" />
<path d="M669.5,38.75c3.71,1.41,8.5,5.12,10.5,8" style="fill:none;stroke:#999;stroke-width:3" />
<path d="M666.62,90.48c1.3,0.38,2.57,0,3.35-1.29c3.32-5.52,6.64-12.27,9.65-19.31" style="fill:none;stroke:#999;stroke-width:3" />
<path d="M691.38,29.02c1.76,0.53,5.09,0.47,6.84,0.28c14.78-1.67,30.03-3.42,43.13-4.03c2.93-0.14,4.69,0.25,6.15,0.51" style="fill:none;stroke:#999;stroke-width:3" />
<path d="M705.6700000000001,15.5c1.04,1.04,1.92,2.36,1.99,3.25C708.5,29,709.25,34.5,709.66,41" style="fill:none;stroke:#999;stroke-width:3" />
<path d="M730.25,13.55C731.03,14.34,731.28,15.49,731.1,16.97C730.04,25.69,729.4300000000001,31.28,728.1,39.52" style="fill:none;stroke:#999;stroke-width:3" />
<path d="M696.17,43.43c1.55,0.42,4.41,0.66,5.94,0.42c10.65-1.6,23.46-3.23,35.48-3.84c2.58-0.13,4.13,0.2,5.42,0.42" style="fill:none;stroke:black;stroke-width:3" />
<circle cx="696.17" cy="43.43" r="5" stroke-width="0" fill="#FF2A00" opacity="0.7" />
<path d="M782.88,17c3.31,1.47,8.12,5.38,10.37,8.34" style="fill:none;stroke:#999;stroke-width:3" />
<path d="M778.5,38.75c3.71,1.41,8.5,5.12,10.5,8" style="fill:none;stroke:#999;stroke-width:3" />
<path d="M775.62,90.48c1.3,0.38,2.57,0,3.35-1.29c3.32-5.52,6.64-12.27,9.65-19.31" style="fill:none;stroke:#999;stroke-width:3" />
<path d="M800.38,29.02c1.76,0.53,5.09,0.47,6.84,0.28c14.78-1.67,30.03-3.42,43.13-4.03c2.93-0.14,4.69,0.25,6.15,0.51" style="fill:none;stroke:#999;stroke-width:3" />
<path d="M814.6700000000001,15.5c1.04,1.04,1.92,2.36,1.99,3.25C817.5,29,818.25,34.5,818.66,41" style="fill:none;stroke:#999;stroke-width:3" />
<path d="M839.25,13.55C840.03,14.34,840.28,15.49,840.1,16.97C839.04,25.69,838.4300000000001,31.28,837.1,39.52" style="fill:none;stroke:#999;stroke-width:3" />
<path d="M805.17,43.43c1.55,0.42,4.41,0.66,5.94,0.42c10.65-1.6,23.46-3.23,35.48-3.84c2.58-0.13,4.13,0.2,5.42,0.42" style="fill:none;stroke:#999;stroke-width:3" />
<path d="M802.82,55.91c0.88,0.88,1.24,2.21,1.28,3.43c0.27,7.71,0.11,20.47-0.02,28.29c-0.06,3.5-0.11,6.01-0.11,6.62" style="fill:none;stroke:black;stroke-width:3" />
<circle cx="802.82" cy="55.91" r="5" stroke-width="0" fill="#FF2A00" opacity="0.7" />
<path d="M891.88,17c3.31,1.47,8.12,5.38,10.37,8.34" style="fill:none;stroke:#999;stroke-width:3" />
<path d="M887.5,38.75c3.71,1.41,8.5,5.12,10.5,8" style="fill:none;stroke:#999;stroke-width:3" />
<path d="M884.62,90.48c1.3,0.38,2.57,0,3.35-1.29c3.32-5.52,6.64-12.27,9.65-19.31" style="fill:none;stroke:#999;stroke-width:3" />
<path d="M909.38,29.02c1.76,0.53,5.09,0.47,6.84,0.28c14.78-1.67,30.03-3.42,43.13-4.03c2.93-0.14,4.69,0.25,6.15,0.51" style="fill:none;stroke:#999;stroke-width:3" />
<path d="M923.6700000000001,15.5c1.04,1.04,1.92,2.36,1.99,3.25C926.5,29,927.25,34.5,927.66,41" style="fill:none;stroke:#999;stroke-width:3" />
<path d="M948.25,13.55C949.03,14.34,949.28,15.49,949.1,16.97C948.04,25.69,947.4300000000001,31.28,946.1,39.52" style="fill:none;stroke:#999;stroke-width:3" />
<path d="M914.17,43.43c1.55,0.42,4.41,0.66,5.94,0.42c10.65-1.6,23.46-3.23,35.48-3.84c2.58-0.13,4.13,0.2,5.42,0.42" style="fill:none;stroke:#999;stroke-width:3" />
<path d="M911.82,55.91c0.88,0.88,1.24,2.21,1.28,3.43c0.27,7.71,0.11,20.47-0.02,28.29c-0.06,3.5-0.11,6.01-0.11,6.62" style="fill:none;stroke:#999;stroke-width:3" />
<path d="M913.75,57.27c7.44-0.53,44.85-5.27,46.32-5.37c4.18-0.28,5.87,1.59,5.87,6.37c0,2.77-0.31,21.4-1.28,33.31c-0.66,8.04-5.41,1.29-7.15-0.78" style="fill:none;stroke:black;stroke-width:3" />
<circle cx="913.75" cy="57.27" r="5" stroke-width="0" fill="#FF2A00" opacity="0.7" />
<path d="M1000.88,17c3.31,1.47,8.12,5.38,10.37,8.34" style="fill:none;stroke:#999;stroke-width:3" />
<path d="M996.5,38.75c3.71,1.41,8.5,5.12,10.5,8" style="fill:none;stroke:#999;stroke-width:3" />
<path d="M993.62,90.48c1.3,0.38,2.57,0,3.35-1.29c3.32-5.52,6.64-12.27,9.65-19.31" style="fill:none;stroke:#999;stroke-width:3" />
<path d="M1018.38,29.02c1.76,0.53,5.09,0.47,6.84,0.28c14.78-1.67,30.03-3.42,43.13-4.03c2.93-0.14,4.69,0.25,6.15,0.51" style="fill:none;stroke:#999;stroke-width:3" />
<path d="M1032.67,15.5c1.04,1.04,1.92,2.36,1.99,3.25C1035.5,29,1036.25,34.5,1036.6599999999999,41" style="fill:none;stroke:#999;stroke-width:3" />
<path d="M1057.25,13.55C1058.03,14.34,1058.28,15.49,1058.1,16.97C1057.04,25.69,1056.43,31.28,1055.1,39.52" style="fill:none;stroke:#999;stroke-width:3" />
<path d="M1023.17,43.43c1.55,0.42,4.41,0.66,5.94,0.42c10.65-1.6,23.46-3.23,35.48-3.84c2.58-0.13,4.13,0.2,5.42,0.42" style="fill:none;stroke:#999;stroke-width:3" />
<path d="M1020.82,55.91c0.88,0.88,1.24,2.21,1.28,3.43c0.27,7.71,0.11,20.47-0.02,28.29c-0.06,3.5-0.11,6.01-0.11,6.62" style="fill:none;stroke:#999;stroke-width:3" />
<path d="M1022.75,57.27c7.44-0.53,44.85-5.27,46.32-5.37c4.18-0.28,5.87,1.59,5.87,6.37c0,2.77-0.31,21.4-1.28,33.31c-0.66,8.04-5.41,1.29-7.15-0.78" style="fill:none;stroke:#999;stroke-width:3" />
<path d="M1045.8,43.91c0.83,0.83,1.25,1.96,1.25,3.33c0,0.71-0.06,26.44-0.15,30.82" style="fill:none;stroke:black;stroke-width:3" />
<circle cx="1045.8" cy="43.91" r="5" stroke-width="0" fill="#FF2A00" opacity="0.7" />
<path d="M1109.88,17c3.31,1.47,8.12,5.38,10.37,8.34" style="fill:none;stroke:#999;stroke-width:3" />
<path d="M1105.5,38.75c3.71,1.41,8.5,5.12,10.5,8" style="fill:none;stroke:#999;stroke-width:3" />
<path d="M1102.62,90.48c1.3,0.38,2.57,0,3.35-1.29c3.32-5.52,6.64-12.27,9.65-19.31" style="fill:none;stroke:#999;stroke-width:3" />
<path d="M1127.38,29.02c1.76,0.53,5.09,0.47,6.84,0.28c14.78-1.67,30.03-3.42,43.13-4.03c2.93-0.14,4.69,0.25,6.15,0.51" style="fill:none;stroke:#999;stroke-width:3" />
<path d="M1141.67,15.5c1.04,1.04,1.92,2.36,1.99,3.25C1144.5,29,1145.25,34.5,1145.6599999999999,41" style="fill:none;stroke:#999;stroke-width:3" />
<path d="M1166.25,13.55C1167.03,14.34,1167.28,15.49,1167.1,16.97C1166.04,25.69,1165.43,31.28,1164.1,39.52" style="fill:none;stroke:#999;stroke-width:3" />
<path d="M1132.17,43.43c1.55,0.42,4.41,0.66,5.94,0.42c10.65-1.6,23.46-3.23,35.48-3.84c2.58-0.13,4.13,0.2,5.42,0.42" style="fill:none;stroke:#999;stroke-width:3" />
<path d="M1129.8200000000002,55.91c0.88,0.88,1.24,2.21,1.28,3.43c0.27,7.71,0.11,20.47-0.02,28.29c-0.06,3.5-0.11,6.01-0.11,6.62" style="fill:none;stroke:#999;stroke-width:3" />
<path d="M1131.75,57.27c7.44-0.53,44.85-5.27,46.32-5.37c4.18-0.28,5.87,1.59,5.87,6.37c0,2.77-0.31,21.4-1.28,33.31c-0.66,8.04-5.41,1.29-7.15-0.78" style="fill:none;stroke:#999;stroke-width:3" />
<path d="M1154.8,43.91c0.83,0.83,1.25,1.96,1.25,3.33c0,0.71-0.06,26.44-0.15,30.82" style="fill:none;stroke:#999;stroke-width:3" />
<path d="M1143.41,67.46c0.82,0.82,1.09,2.04,0.95,3.29c-0.34,3.13-0.49,4.75-0.78,7.25c-0.2,1.73,0.84,3.19,2.12,2.94c6.55-1.32,15.17-2.57,21.97-3.41" style="fill:none;stroke:black;stroke-width:3" />
<circle cx="1143.41" cy="67.46" r="5" stroke-width="0" fill="#FF2A00" opacity="0.7" />
<path d="M1218.88,17c3.31,1.47,8.12,5.38,10.37,8.34" style="fill:none;stroke:#999;stroke-width:3" />
<path d="M1214.5,38.75c3.71,1.41,8.5,5.12,10.5,8" style="fill:none;stroke:#999;stroke-width:3" />
<path d="M1211.62,90.48c1.3,0.38,2.57,0,3.35-1.29c3.32-5.52,6.64-12.27,9.65-19.31" style="fill:none;stroke:#999;stroke-width:3" />
<path d="M1236.38,29.02c1.76,0.53,5.09,0.47,6.84,0.28c14.78-1.67,30.03-3.42,43.13-4.03c2.93-0.14,4.69,0.25,6.15,0.51" style="fill:none;stroke:#999;stroke-width:3" />
<path d="M1250.67,15.5c1.04,1.04,1.92,2.36,1.99,3.25C1253.5,29,1254.25,34.5,1254.6599999999999,41" style="fill:none;stroke:#999;stroke-width:3" />
<path d="M1275.25,13.55C1276.03,14.34,1276.28,15.49,1276.1,16.97C1275.04,25.69,1274.43,31.28,1273.1,39.52" style="fill:none;stroke:#999;stroke-width:3" />
<path d="M1241.17,43.43c1.55,0.42,4.41,0.66,5.94,0.42c10.65-1.6,23.46-3.23,35.48-3.84c2.58-0.13,4.13,0.2,5.42,0.42" style="fill:none;stroke:#999;stroke-width:3" />
<path d="M1238.8200000000002,55.91c0.88,0.88,1.24,2.21,1.28,3.43c0.27,7.71,0.11,20.47-0.02,28.29c-0.06,3.5-0.11,6.01-0.11,6.62" style="fill:none;stroke:#999;stroke-width:3" />
<path d="M1240.75,57.27c7.44-0.53,44.85-5.27,46.32-5.37c4.18-0.28,5.87,1.59,5.87,6.37c0,2.77-0.31,21.4-1.28,33.31c-0.66,8.04-5.41,1.29-7.15-0.78" style="fill:none;stroke:#999;stroke-width:3" />
<path d="M1263.8,43.91c0.83,0.83,1.25,1.96,1.25,3.33c0,0.71-0.06,26.44-0.15,30.82" style="fill:none;stroke:#999;stroke-width:3" />
<path d="M1252.41,67.46c0.82,0.82,1.09,2.04,0.95,3.29c-0.34,3.13-0.49,4.75-0.78,7.25c-0.2,1.73,0.84,3.19,2.12,2.94c6.55-1.32,15.17-2.57,21.97-3.41" style="fill:none;stroke:#999;stroke-width:3" />
<path d="M1277.22,64.99c0.83,0.83,1.03,2.14,0.96,3.33c-0.18,2.96-0.31,5.85-0.43,8.93c-0.06,1.53-0.11,3.11-0.17,4.77" style="fill:none;stroke:black;stroke-width:3" />
<circle cx="1277.22" cy="64.99" r="5" stroke-width="0" fill="#FF2A00" opacity="0.7" />
</svg>