<svg width="1417px" height="109px" viewBox="0 0 1417px 109px" xmlns="http://www.w3.org/2000/svg" xmlns:xlink="http://www.w3.org/1999/xlink" xml:space="preserve" version="1.1"  baseProfile="full">
<line x1="1" y1="1" x2="1416" y2="1" style="stroke:#ddd;stroke-width:2" />
<line x1="1" y1="1" x2="1" y2="108" style="stroke:#ddd;stroke-width:2" />
<line x1="1" y1="108" x2="1416" y2="108" style="stroke:#ddd;stroke-width:2" />
<line x1="1416" y1="1" x2="1416" y2="108" style="stroke:#ddd;stroke-width:2" />
<line x1="109" y1="1" x2="109" y2="108" style="stroke:#ddd;stroke-width:2" />
<line x1="218" y1="1" x2="218" y2="108" style="stroke:#ddd;stroke-width:2" />
<line x1="327" y1="1" x2="327" y2="108" style="stroke:#ddd;stroke-width:2" />
<line x1="436" y1="1" x2="436" y2="108" style="stroke:#ddd;stroke-width:2" />
<line x1="545" y1="1" x2="545" y2="108" style="stroke:#ddd;stroke-width:2" />
<line x1="654" y1="1" x2="654" y2="108" style="stroke:#ddd;stroke-width:2" />
<line x1="763" y1="1" x2="763" y2="108" style="stroke:#ddd;stroke-width:2" />
<line x1="872" y1="1" x2="872" y2="108" style="stroke:#ddd;stroke-width:2" />
<line x1="981" y1="1" x2="981" y2="108" style="stroke:#ddd;stroke-width:2" />
<line x1="1090" y1="1" x2="1090" y2="108" style="stroke:#ddd;stroke-width:2" />
<line x1="1199" y1="1" x2="1199" y2="108" style="stroke:#ddd;stroke-width:2" />
<line x1="1308" y1="1" x2="1308" y2="108" style="stroke:#ddd;stroke-width:2" />
<line x1="1" y1="54" x2="1416" y2="54" style="stroke:#ddd;stroke-width:2;stroke-dasharray:3 3" />
<line x1="55" y1="1" x2="55" y2="108" style="stroke:#ddd;stroke-width:2;stroke-dasharray:3 3" />
<line x1="164" y1="1" x2="164" y2="108" style="stroke:#ddd;stroke-width:2;stroke-dasharray:3 3" />
<line x1="273" y1="1" x2="273" y2="108" style="stroke:#ddd;stroke-width:2;stroke-dasharray:3 3" />
<line x1="382" y1="1" x2="382" y2="108" style="stroke:#ddd;stroke-width:2;stroke-dasharray:3 3" />
<line x1="491" y1="1" x2="491" y2="108" style="stroke:#ddd;stroke-width:2;stroke-dasharray:3 3" />
<line x1="600" y1="1" x2="600" y2="108" style="stroke:#ddd;stroke-width:2;stroke-dasharray:3 3" />
<line x1="709" y1="1" x2="709" y2="108" style="stroke:#ddd;stroke-width:2;stroke-dasharray:3 3" />
<line x1="818" y1="1" x2="818" y2="108" style="stroke:#ddd;stroke-width:2;stroke-dasharray:3 3" />
<line x1="927" y1="1" x2="927" y2="108" style="stroke:#ddd;stroke-width:2;stroke-dasharray:3 3" />
<line x1="1036" y1="1" x2="1036" y2="108" style="stroke:#ddd;stroke-width:2;stroke-dasharray:3 3" />
<line x1="1145" y1="1" x2="1145" y2="108" style="stroke:#ddd;stroke-width:2;stroke-dasharray:3 3" />
<line x1="1254" y1="1" x2="1254" y2="108" style="stroke:#ddd;stroke-width:2;stroke-dasharray:3 3" />
<line x1="1363" y1="1" x2="1363" y2="108" style="stroke:#ddd;stroke-width:2;stroke-dasharray:3 3" />
<path d="M16.63,17.5c4.45,1.52,11.5,6.23,12.62,8.59" style="fill:none;stroke:black;stroke-width:3" />
<circle cx="16.63" cy="17.5" r="5" stroke-width="0" fill="#FF2A00" opacity="0.7" />
<path d="M125.63,17.5c4.45,1.52,11.5,6.23,12.62,8.59" style="fill:none;stroke:#999;stroke-width:3" />
<path d="M122.75,41c4.5,1.59,11.62,6.53,12.75,9" style="fill:none;stroke:black;stroke-width:3" />
<circle cx="122.75" cy="41.0" r="5" stroke-width="0" fill="#FF2A00" opacity="0.7" />
<path d="M234.63,17.5c4.45,1.52,11.5,6.23,12.62,8.59" style="fill:none;stroke:#999;stroke-width:3" />
<path d="M231.75,41c4.5,1.59,11.62,6.53,12.75,9" style="fill:none;stroke:#999;stroke-width:3" />
<path d="M231.25,89.73c1.71,1.27,3.78,1.32,4.86-0.25c3.14-4.57,8.79-16.66,11.64-22.49" style="fill:none;stroke:black;stroke-width:3" />
<circle cx="231.25" cy="89.73" r="5" stroke-width="0" fill="#FF2A00" opacity="0.7" />
<path d="M343.63,17.5c4.45,1.52,11.5,6.23,12.62,8.59" style="fill:none;stroke:#999;stroke-width:3" />
<path d="M340.75,41c4.5,1.59,11.62,6.53,12.75,9" style="fill:none;stroke:#999;stroke-width:3" />
<path d="M340.25,89.73c1.71,1.27,3.78,1.32,4.86-0.25c3.14-4.57,8.79-16.66,11.64-22.49" style="fill:none;stroke:#999;stroke-width:3" />
<path d="M391.69,10.25c0.74,0.34,1.96,1.67,1.96,2.36c0,2.52-0.23,8.49-0.1,10.62" style="fill:none;stroke:black;stroke-width:3" />
<circle cx="391.69" cy="10.25" r="5" stroke-width="0" fill="#FF2A00" opacity="0.7" />
<path d="M452.63,17.5c4.45,1.52,11.5,6.23,12.62,8.59" style="fill:none;stroke:#999;stroke-width:3" />
<path d="M449.75,41c4.5,1.59,11.62,6.53,12.75,9" style="fill:none;stroke:#999;stroke-width:3" />
<path d="M449.25,89.73c1.71,1.27,3.78,1.32,4.86-0.25c3.14-4.57,8.79-16.66,11.64-22.49" style="fill:none;stroke:#999;stroke-width:3" />
<path d="M500.69,10.25c0.74,0.34,1.96,1.67,1.96,2.36c0,2.52-0.23,8.49-0.1,10.62" style="fill:none;stroke:#999;stroke-width:3" />
<path d="M476.42,24.01c2.09,0.33,3.92,0.56,6.33,0.47C495.5,24,507.38,22.77,524.04,22.1c2.45-0.1,3.7,0.04,5.53,0.6" style="fill:none;stroke:black;stroke-width:3" />
<circle cx="476.42" cy="24.01" r="5" stroke-width="0" fill="#FF2A00" opacity="0.7" />
<path d="M561.63,17.5c4.45,1.52,11.5,6.23,12.62,8.59" style="fill:none;stroke:#999;stroke-width:3" />
<path d="M558.75,41c4.5,1.59,11.62,6.53,12.75,9" style="fill:none;stroke:#999;stroke-width:3" />
<path d="M558.25,89.73c1.71,1.27,3.78,1.32,4.86-0.25c3.14-4.57,8.79-16.66,11.64-22.49" style="fill:none;stroke:#999;stroke-width:3" />
<path d="M609.69,10.25c0.74,0.34,1.96,1.67,1.96,2.36c0,2.52-0.23,8.49-0.1,10.62" style="fill:none;stroke:#999;stroke-width:3" />
<path d="M585.4200000000001,24.01c2.09,0.33,3.92,0.56,6.33,0.47C604.5,24,616.38,22.77,633.04,22.1c2.45-0.1,3.7,0.04,5.53,0.6" style="fill:none;stroke:#999;stroke-width:3" />
<path d="M620.96,27.93c0.35,0.45,0.7,0.81,0.18,1.61c-4.71,7.16-10.89,11.71-21.87,16.9" style="fill:none;stroke:black;stroke-width:3" />
<circle cx="620.96" cy="27.93" r="5" stroke-width="0" fill="#FF2A00" opacity="0.7" />
<path d="M670.63,17.5c4.45,1.52,11.5,6.23,12.62,8.59" style="fill:none;stroke:#999;stroke-width:3" />
<path d="M667.75,41c4.5,1.59,11.62,6.53,12.75,9" style="fill:none;stroke:#999;stroke-width:3" />
<path d="M667.25,89.73c1.71,1.27,3.78,1.32,4.86-0.25c3.14-4.57,8.79-16.66,11.64-22.49" style="fill:none;stroke:#999;stroke-width:3" />
<path d="M718.69,10.25c0.74,0.34,1.96,1.67,1.96,2.36c0,2.52-0.23,8.49-0.1,10.62" style="fill:none;stroke:#999;stroke-width:3" />
<path d="M694.4200000000001,24.01c2.09,0.33,3.92,0.56,6.33,0.47C713.5,24,725.38,22.77,742.04,22.1c2.45-0.1,3.7,0.04,5.53,0.6" style="fill:none;stroke:#999;stroke-width:3" />
<path d="M729.96,27.93c0.35,0.45,0.7,0.81,0.18,1.61c-4.71,7.16-10.89,11.71-21.87,16.9" style="fill:none;stroke:#999;stroke-width:3" />
<path d="M710.56,31.35c7.37,2.18,17.98,9.26,21.83,14.45" style="fill:none;stroke:black;stroke-width:3" />
<circle cx="710.56" cy="31.35" r="5" stroke-width="0" fill="#FF2A00" opacity="0.7" />
<path d="M779.63,17.5c4.45,1.52,11.5,6.23,12.62,8.59" style="fill:none;stroke:#999;stroke-width:3" />
<path d="M776.75,41c4.5,1.59,11.62,6.53,12.75,9" style="fill:none;stroke:#999;stroke-width:3" />
<path d="M776.25,89.73c1.71,1.27,3.78,1.32,4.86-0.25c3.14-4.57,8.79-16.66,11.64-22.49" style="fill:none;stroke:#999;stroke-width:3" />
<path d="M827.69,10.25c0.74,0.34,1.96,1.67,1.96,2.36c0,2.52-0.23,8.49-0.1,10.62" style="fill:none;stroke:#999;stroke-width:3" />
<path d="M803.4200000000001,24.01c2.09,0.33,3.92,0.56,6.33,0.47C822.5,24,834.38,22.77,851.04,22.1c2.45-0.1,3.7,0.04,5.53,0.6" style="fill:none;stroke:#999;stroke-width:3" />
<path d="M838.96,27.93c0.35,0.45,0.7,0.81,0.18,1.61c-4.71,7.16-10.89,11.71-21.87,16.9" style="fill:none;stroke:#999;stroke-width:3" />
<path d="M819.56,31.35c7.37,2.18,17.98,9.26,21.83,14.45" style="fill:none;stroke:#999;stroke-width:3" />
<path d="M810.67,31.3c0.42,0.2,1.3,1.47,1.38,1.86c0.61,2.87-0.54,16.6-0.58,17.53c-0.04,0.93,0.91,1.41,1.73,1.33c13.05-1.27,31.65-2.36,35.97-2.55" style="fill:none;stroke:black;stroke-width:3" />
<circle cx="810.67" cy="31.3" r="5" stroke-width="0" fill="#FF2A00" opacity="0.7" />
<path d="M888.63,17.5c4.45,1.52,11.5,6.23,12.62,8.59" style="fill:none;stroke:#999;stroke-width:3" />
<path d="M885.75,41c4.5,1.59,11.62,6.53,12.75,9" style="fill:none;stroke:#999;stroke-width:3" />
<path d="M885.25,89.73c1.71,1.27,3.78,1.32,4.86-0.25c3.14-4.57,8.79-16.66,11.64-22.49" style="fill:none;stroke:#999;stroke-width:3" />
<path d="M936.69,10.25c0.74,0.34,1.96,1.67,1.96,2.36c0,2.52-0.23,8.49-0.1,10.62" style="fill:none;stroke:#999;stroke-width:3" />
<path d="M912.4200000000001,24.01c2.09,0.33,3.92,0.56,6.33,0.47C931.5,24,943.38,22.77,960.04,22.1c2.45-0.1,3.7,0.04,5.53,0.6" style="fill:none;stroke:#999;stroke-width:3" />
<path d="M947.96,27.93c0.35,0.45,0.7,0.81,0.18,1.61c-4.71,7.16-10.89,11.71-21.87,16.9" style="fill:none;stroke:#999;stroke-width:3" />
<path d="M928.56,31.35c7.37,2.18,17.98,9.26,21.83,14.45" style="fill:none;stroke:#999;stroke-width:3" />
<path d="M919.67,31.3c0.42,0.2,1.3,1.47,1.38,1.86c0.61,2.87-0.54,16.6-0.58,17.53c-0.04,0.93,0.91,1.41,1.73,1.33c13.05-1.27,31.65-2.36,35.97-2.55" style="fill:none;stroke:#999;stroke-width:3" />
<path d="M958.88,28.08c0.42,0.2,1.3,1.47,1.38,1.86c0.08,0.39-1.31,14.7-1.68,22.42" style="fill:none;stroke:black;stroke-width:3" />
<circle cx="958.88" cy="28.08" r="5" stroke-width="0" fill="#FF2A00" opacity="0.7" />
<path d="M997.63,17.5c4.45,1.52,11.5,6.23,12.62,8.59" style="fill:none;stroke:#999;stroke-width:3" />
<path d="M994.75,41c4.5,1.59,11.62,6.53,12.75,9" style="fill:none;stroke:#999;stroke-width:3" />
<path d="M994.25,89.73c1.71,1.27,3.78,1.32,4.86-0.25c3.14-4.57,8.79-16.66,11.64-22.49" style="fill:none;stroke:#999;stroke-width:3" />
<path d="M1045.69,10.25c0.74,0.34,1.96,1.67,1.96,2.36c0,2.52-0.23,8.49-0.1,10.62" style="fill:none;stroke:#999;stroke-width:3" />
<path d="M1021.4200000000001,24.01c2.09,0.33,3.92,0.56,6.33,0.47C1040.5,24,1052.38,22.77,1069.04,22.1c2.45-0.1,3.7,0.04,5.53,0.6" style="fill:none;stroke:#999;stroke-width:3" />
<path d="M1056.96,27.93c0.35,0.45,0.7,0.81,0.18,1.61c-4.71,7.16-10.89,11.71-21.87,16.9" style="fill:none;stroke:#999;stroke-width:3" />
<path d="M1037.56,31.35c7.37,2.18,17.98,9.26,21.83,14.45" style="fill:none;stroke:#999;stroke-width:3" />
<path d="M1028.67,31.3c0.42,0.2,1.3,1.47,1.38,1.86c0.61,2.87-0.54,16.6-0.58,17.53c-0.04,0.93,0.91,1.41,1.73,1.33c13.05-1.27,31.65-2.36,35.97-2.55" style="fill:none;stroke:#999;stroke-width:3" />
<path d="M1067.88,28.08c0.42,0.2,1.3,1.47,1.38,1.86c0.08,0.39-1.31,14.7-1.68,22.42" style="fill:none;stroke:#999;stroke-width:3" />
<path d="M1023.9,61.73c0.75,0.9,0.88,2.34,1.01,3.98C1025.25,70,1026.66,96.29,1026.66,99" style="fill:none;stroke:black;stroke-width:3" />
<circle cx="1023.9" cy="61.73" r="5" stroke-width="0" fill="#FF2A00" opacity="0.7" />
<path d="M1106.63,17.5c4.45,1.52,11.5,6.23,12.62,8.59" style="fill:none;stroke:#999;stroke-width:3" />
<path d="M1103.75,41c4.5,1.59,11.62,6.53,12.75,9" style="fill:none;stroke:#999;stroke-width:3" />
<path d="M1103.25,89.73c1.71,1.27,3.78,1.32,4.86-0.25c3.14-4.57,8.79-16.66,11.64-22.49" style="fill:none;stroke:#999;stroke-width:3" />
<path d="M1154.69,10.25c0.74,0.34,1.96,1.67,1.96,2.36c0,2.52-0.23,8.49-0.1,10.62" style="fill:none;stroke:#999;stroke-width:3" />
<path d="M1130.42,24.01c2.09,0.33,3.92,0.56,6.33,0.47C1149.5,24,1161.38,22.77,1178.04,22.1c2.45-0.1,3.7,0.04,5.53,0.6" style="fill:none;stroke:#999;stroke-width:3" />
<path d="M1165.96,27.93c0.35,0.45,0.7,0.81,0.18,1.61c-4.71,7.16-10.89,11.71-21.87,16.9" style="fill:none;stroke:#999;stroke-width:3" />
<path d="M1146.56,31.35c7.37,2.18,17.98,9.26,21.83,14.45" style="fill:none;stroke:#999;stroke-width:3" />
<path d="M1137.67,31.3c0.42,0.2,1.3,1.47,1.38,1.86c0.61,2.87-0.54,16.6-0.58,17.53c-0.04,0.93,0.91,1.41,1.73,1.33c13.05-1.27,31.65-2.36,35.97-2.55" style="fill:none;stroke:#999;stroke-width:3" />
<path d="M1176.88,28.08c0.42,0.2,1.3,1.47,1.38,1.86c0.08,0.39-1.31,14.7-1.68,22.42" style="fill:none;stroke:#999;stroke-width:3" />
<path d="M1132.9,61.73c0.75,0.9,0.88,2.34,1.01,3.98C1134.25,70,1135.66,96.29,1135.66,99" style="fill:none;stroke:#999;stroke-width:3" />
<path d="M1134.13,63.46c6.68-0.76,46.19-2.96,47.52-2.96c1.93,0,3.16,0.57,3.16,2.27c0,3.59-2.07,23.36-3.35,28.72c-2.06,8.65-5.45,3.74-7.24,1.94" style="fill:none;stroke:black;stroke-width:3" />
<circle cx="1134.13" cy="63.46" r="5" stroke-width="0" fill="#FF2A00" opacity="0.7" />
<path d="M1215.63,17.5c4.45,1.52,11.5,6.23,12.62,8.59" style="fill:none;stroke:#999;stroke-width:3" />
<path d="M1212.75,41c4.5,1.59,11.62,6.53,12.75,9" style="fill:none;stroke:#999;stroke-width:3" />
<path d="M1212.25,89.73c1.71,1.27,3.78,1.32,4.86-0.25c3.14-4.57,8.79-16.66,11.64-22.49" style="fill:none;stroke:#999;stroke-width:3" />
<path d="M1263.69,10.25c0.74,0.34,1.96,1.67,1.96,2.36c0,2.52-0.23,8.49-0.1,10.62" style="fill:none;stroke:#999;stroke-width:3" />
<path d="M1239.42,24.01c2.09,0.33,3.92,0.56,6.33,0.47C1258.5,24,1270.38,22.77,1287.04,22.1c2.45-0.1,3.7,0.04,5.53,0.6" style="fill:none;stroke:#999;stroke-width:3" />
<path d="M1274.96,27.93c0.35,0.45,0.7,0.81,0.18,1.61c-4.71,7.16-10.89,11.71-21.87,16.9" style="fill:none;stroke:#999;stroke-width:3" />
<path d="M1255.56,31.35c7.37,2.18,17.98,9.26,21.83,14.45" style="fill:none;stroke:#999;stroke-width:3" />
<path d="M1246.67,31.3c0.42,0.2,1.3,1.47,1.38,1.86c0.61,2.87-0.54,16.6-0.58,17.53c-0.04,0.93,0.91,1.41,1.73,1.33c13.05-1.27,31.65-2.36,35.97-2.55" style="fill:none;stroke:#999;stroke-width:3" />
<path d="M1285.88,28.08c0.42,0.2,1.3,1.47,1.38,1.86c0.08,0.39-1.31,14.7-1.68,22.42" style="fill:none;stroke:#999;stroke-width:3" />
<path d="M1241.9,61.73c0.75,0.9,0.88,2.34,1.01,3.98C1243.25,70,1244.66,96.29,1244.66,99" style="fill:none;stroke:#999;stroke-width:3" />
<path d="M1243.13,63.46c6.68-0.76,46.19-2.96,47.52-2.96c1.93,0,3.16,0.57,3.16,2.27c0,3.59-2.07,23.36-3.35,28.72c-2.06,8.65-5.45,3.74-7.24,1.94" style="fill:none;stroke:#999;stroke-width:3" />
<path d="M1265.54,53.25c0.29,0.5,0.37,2.46,0.1,3.08c-3.88,8.92-8.29,15.85-12.27,21.57c-1.26,1.81-1.25,3.35,0.58,2.81c8.3-2.46,15.55-4.46,22.99-6.56" style="fill:none;stroke:black;stroke-width:3" />
<circle cx="1265.54" cy="53.25" r="5" stroke-width="0" fill="#FF2A00" opacity="0.7" />
<path d="M1324.63,17.5c4.45,1.52,11.5,6.23,12.62,8.59" style="fill:none;stroke:#999;stroke-width:3" />
<path d="M1321.75,41c4.5,1.59,11.62,6.53,12.75,9" style="fill:none;stroke:#999;stroke-width:3" />
<path d="M1321.25,89.73c1.71,1.27,3.78,1.32,4.86-0.25c3.14-4.57,8.79-16.66,11.64-22.49" style="fill:none;stroke:#999;stroke-width:3" />
<path d="M1372.69,10.25c0.74,0.34,1.96,1.67,1.96,2.36c0,2.52-0.23,8.49-0.1,10.62" style="fill:none;stroke:#999;stroke-width:3" />
<path d="M1348.42,24.01c2.09,0.33,3.92,0.56,6.33,0.47C1367.5,24,1379.38,22.77,1396.04,22.1c2.45-0.1,3.7,0.04,5.53,0.6" style="fill:none;stroke:#999;stroke-width:3" />
<path d="M1383.96,27.93c0.35,0.45,0.7,0.81,0.18,1.61c-4.71,7.16-10.89,11.71-21.87,16.9" style="fill:none;stroke:#999;stroke-width:3" />
<path d="M1364.56,31.35c7.37,2.18,17.98,9.26,21.83,14.45" style="fill:none;stroke:#999;stroke-width:3" />
<path d="M1355.67,31.3c0.42,0.2,1.3,1.47,1.38,1.86c0.61,2.87-0.54,16.6-0.58,17.53c-0.04,0.93,0.91,1.41,1.73,1.33c13.05-1.27,31.65-2.36,35.97-2.55" style="fill:none;stroke:#999;stroke-width:3" />
<path d="M1394.88,28.08c0.42,0.2,1.3,1.47,1.38,1.86c0.08,0.39-1.31,14.7-1.68,22.42" style="fill:none;stroke:#999;stroke-width:3" />
<path d="M1350.9,61.73c0.75,0.9,0.88,2.34,1.01,3.98C1352.25,70,1353.66,96.29,1353.66,99" style="fill:none;stroke:#999;stroke-width:3" />
<path d="M1352.13,63.46c6.68-0.76,46.19-2.96,47.52-2.96c1.93,0,3.16,0.57,3.16,2.27c0,3.59-2.07,23.36-3.35,28.72c-2.06,8.65-5.45,3.74-7.24,1.94" style="fill:none;stroke:#999;stroke-width:3" />
<path d="M1374.54,53.25c0.29,0.5,0.37,2.46,0.1,3.08c-3.88,8.92-8.29,15.85-12.27,21.57c-1.26,1.81-1.25,3.35,0.58,2.81c8.3-2.46,15.55-4.46,22.99-6.56" style="fill:none;stroke:#999;stroke-width:3" />
<path d="M1381.08,66.81c3.08,2.76,7.96,11.36,8.73,15.66" style="fill:none;stroke:black;stroke-width:3" />
<circle cx="1381.08" cy="66.81" r="5" stroke-width="0" fill="#FF2A00" opacity="0.7" />
</svg>