<svg width="1526px" height="109px" viewBox="0 0 1526px 109px" xmlns="http://www.w3.org/2000/svg" xmlns:xlink="http://www.w3.org/1999/xlink" xml:space="preserve" version="1.1"  baseProfile="full">
<line x1="1" y1="1" x2="1525" y2="1" style="stroke:#ddd;stroke-width:2" />
<line x1="1" y1="1" x2="1" y2="108" style="stroke:#ddd;stroke-width:2" />
<line x1="1" y1="108" x2="1525" y2="108" style="stroke:#ddd;stroke-width:2" />
<line x1="1525" y1="1" x2="1525" y2="108" style="stroke:#ddd;stroke-width:2" />
<line x1="109" y1="1" x2="109" y2="108" style="stroke:#ddd;stroke-width:2" />
<line x1="218" y1="1" x2="218" y2="108" style="stroke:#ddd;stroke-width:2" />
<line x1="327" y1="1" x2="327" y2="108" style="stroke:#ddd;stroke-width:2" />
<line x1="436" y1="1" x2="436" y2="108" style="stroke:#ddd;stroke-width:2" />
<line x1="545" y1="1" x2="545" y2="108" style="stroke:#ddd;stroke-width:2" />
<line x1="654" y1="1" x2="654" y2="108" style="stroke:#ddd;stroke-width:2" />
<line x1="763" y1="1" x2="763" y2="108" style="stroke:#ddd;stroke-width:2" />
<line x1="872" y1="1" x2="872" y2="108" style="stroke:#ddd;stroke-width:2" />
<line x1="981" y1="1" x2="981" y2="108" style="stroke:#ddd;stroke-width:2" />
<line x1="1090" y1="1" x2="1090" y2="108" style="stroke:#ddd;stroke-width:2" />
<line x1="1199" y1="1" x2="1199" y2="108" style="stroke:#ddd;stroke-width:2" />
<line x1="1308" y1="1" x2="1308" y2="108" style="stroke:#ddd;stroke-width:2" />
<line x1="1417" y1="1" x2="1417" y2="108" style="stroke:#ddd;stroke-width:2" />
<line x1="1" y1="54" x2="1525" y2="54" style="stroke:#ddd;stroke-width:2;stroke-dasharray:3 3" />
<line x1="55" y1="1" x2="55" y2="108" style="stroke:#ddd;stroke-width:2;stroke-dasharray:3 3" />
<line x1="164" y1="1" x2="164" y2="108" style="stroke:#ddd;stroke-width:2;stroke-dasharray:3 3" />
<line x1="273" y1="1" x2="273" y2="108" style="stroke:#ddd;stroke-width:2;stroke-dasharray:3 3" />
<line x1="382" y1="1" x2="382" y2="108" style="stroke:#ddd;stroke-width:2;stroke-dasharray:3 3" />
<line x1="491" y1="1" x2="491" y2="108" style="stroke:#ddd;stroke-width:2;stroke-dasharray:3 3" />
<line x1="600" y1="1" x2="600" y2="108" style="stroke:#ddd;stroke-width:2;stroke-dasharray:3 3" />
<line x1="709" y1="1" x2="709" y2="108" style="stroke:#ddd;stroke-width:2;stroke-dasharray:3 3" />
<line x1="818" y1="1" x2="818" y2="108" style="stroke:#ddd;stroke-width:2;stroke-dasharray:3 3" />
<line x1="927" y1="1" x2="927" y2="108" style="stroke:#ddd;stroke-width:2;stroke-dasharray:3 3" />
<line x1="1036" y1="1" x2="1036" y2="108" style="stroke:#ddd;stroke-width:2;stroke-dasharray:3 3" />
<line x1="1145" y1="1" x2="1145" y2="108" style="stroke:#ddd;stroke-width:2;stroke-dasharray:3 3" />
<line x1="1254" y1="1" x2="1254" y2="108" style="stroke:#ddd;stroke-width:2;stroke-dasharray:3 3" />
<line x1="1363" y1="1" x2="1363" y2="108" style="stroke:#ddd;stroke-width:2;stroke-dasharray:3 3" />
<line x1="1472" y1="1" x2="1472" y2="108" style="stroke:#ddd;stroke-width:2;stroke-dasharray:3 3" />
<path d="M11.35,24.75c1.24,0.68,3.63,0.46,4.99,0.34c4.96-0.45,10.35-1.04,17.44-2.02c1.45-0.2,3.25-0.59,4.67-0.07" style="fill:none;stroke:black;stroke-width:3" />
<circle cx="11.35" cy="24.75" r="5" stroke-width="0" fill="#FF2A00" opacity="0.7" />
<path d="M120.35,24.75c1.24,0.68,3.63,0.46,4.99,0.34c4.96-0.45,10.35-1.04,17.44-2.02c1.45-0.2,3.25-0.59,4.67-0.07" style="fill:none;stroke:#999;stroke-width:3" />
<path d="M134.05,27.77c1.09,1.09,1.33,2.36,1.33,3.98c0,5.95-0.01,38.8-0.01,45.12" style="fill:none;stroke:black;stroke-width:3" />
<circle cx="134.05" cy="27.77" r="5" stroke-width="0" fill="#FF2A00" opacity="0.7" />
<path d="M229.35,24.75c1.24,0.68,3.63,0.46,4.99,0.34c4.96-0.45,10.35-1.04,17.44-2.02c1.45-0.2,3.25-0.59,4.67-0.07" style="fill:none;stroke:#999;stroke-width:3" />
<path d="M243.05,27.77c1.09,1.09,1.33,2.36,1.33,3.98c0,5.95-0.01,38.8-0.01,45.12" style="fill:none;stroke:#999;stroke-width:3" />
<path d="M230.27,51.25c1.86,0.38,3.32,0.42,5.15,0.1c4.7-0.83,12.24-2.75,16.46-3.55c1.36-0.26,2.48-0.47,3.87-0.21" style="fill:none;stroke:black;stroke-width:3" />
<circle cx="230.27" cy="51.25" r="5" stroke-width="0" fill="#FF2A00" opacity="0.7" />
<path d="M338.35,24.75c1.24,0.68,3.63,0.46,4.99,0.34c4.96-0.45,10.35-1.04,17.44-2.02c1.45-0.2,3.25-0.59,4.67-0.07" style="fill:none;stroke:#999;stroke-width:3" />
<path d="M352.05,27.77c1.09,1.09,1.33,2.36,1.33,3.98c0,5.95-0.01,38.8-0.01,45.12" style="fill:none;stroke:#999;stroke-width:3" />
<path d="M339.27,51.25c1.86,0.38,3.32,0.42,5.15,0.1c4.7-0.83,12.24-2.75,16.46-3.55c1.36-0.26,2.48-0.47,3.87-0.21" style="fill:none;stroke:#999;stroke-width:3" />
<path d="M338.0,82.75c1.38,1.38,2.62,1.62,4.49,0.75c5.65-2.65,12.01-6.25,21.92-11.5" style="fill:none;stroke:black;stroke-width:3" />
<circle cx="338.0" cy="82.75" r="5" stroke-width="0" fill="#FF2A00" opacity="0.7" />
<path d="M447.35,24.75c1.24,0.68,3.63,0.46,4.99,0.34c4.96-0.45,10.35-1.04,17.44-2.02c1.45-0.2,3.25-0.59,4.67-0.07" style="fill:none;stroke:#999;stroke-width:3" />
<path d="M461.05,27.77c1.09,1.09,1.33,2.36,1.33,3.98c0,5.95-0.01,38.8-0.01,45.12" style="fill:none;stroke:#999;stroke-width:3" />
<path d="M448.27,51.25c1.86,0.38,3.32,0.42,5.15,0.1c4.7-0.83,12.24-2.75,16.46-3.55c1.36-0.26,2.48-0.47,3.87-0.21" style="fill:none;stroke:#999;stroke-width:3" />
<path d="M447.0,82.75c1.38,1.38,2.62,1.62,4.49,0.75c5.65-2.65,12.01-6.25,21.92-11.5" style="fill:none;stroke:#999;stroke-width:3" />
<path d="M502.04,10.03c0.96,0.96,1.21,2.12,1.21,3.47c0,2.37,0.05,4.75,0.05,7.48" style="fill:none;stroke:black;stroke-width:3" />
<circle cx="502.04" cy="10.03" r="5" stroke-width="0" fill="#FF2A00" opacity="0.7" />
<path d="M556.35,24.75c1.24,0.68,3.63,0.46,4.99,0.34c4.96-0.45,10.35-1.04,17.44-2.02c1.45-0.2,3.25-0.59,4.67-0.07" style="fill:none;stroke:#999;stroke-width:3" />
<path d="M570.05,27.77c1.09,1.09,1.33,2.36,1.33,3.98c0,5.95-0.01,38.8-0.01,45.12" style="fill:none;stroke:#999;stroke-width:3" />
<path d="M557.27,51.25c1.86,0.38,3.32,0.42,5.15,0.1c4.7-0.83,12.24-2.75,16.46-3.55c1.36-0.26,2.48-0.47,3.87-0.21" style="fill:none;stroke:#999;stroke-width:3" />
<path d="M556.0,82.75c1.38,1.38,2.62,1.62,4.49,0.75c5.65-2.65,12.01-6.25,21.92-11.5" style="fill:none;stroke:#999;stroke-width:3" />
<path d="M611.04,10.03c0.96,0.96,1.21,2.12,1.21,3.47c0,2.37,0.05,4.75,0.05,7.48" style="fill:none;stroke:#999;stroke-width:3" />
<path d="M590.17,23.9c3.01,0.48,5.82,0.11,8.83-0.21c8.95-0.94,23.18-2.7,32.49-3.33c2.48-0.17,5.16-0.59,7.58,0.14" style="fill:none;stroke:black;stroke-width:3" />
<circle cx="590.17" cy="23.9" r="5" stroke-width="0" fill="#FF2A00" opacity="0.7" />
<path d="M665.35,24.75c1.24,0.68,3.63,0.46,4.99,0.34c4.96-0.45,10.35-1.04,17.44-2.02c1.45-0.2,3.25-0.59,4.67-0.07" style="fill:none;stroke:#999;stroke-width:3" />
<path d="M679.05,27.77c1.09,1.09,1.33,2.36,1.33,3.98c0,5.95-0.01,38.8-0.01,45.12" style="fill:none;stroke:#999;stroke-width:3" />
<path d="M666.27,51.25c1.86,0.38,3.32,0.42,5.15,0.1c4.7-0.83,12.24-2.75,16.46-3.55c1.36-0.26,2.48-0.47,3.87-0.21" style="fill:none;stroke:#999;stroke-width:3" />
<path d="M665.0,82.75c1.38,1.38,2.62,1.62,4.49,0.75c5.65-2.65,12.01-6.25,21.92-11.5" style="fill:none;stroke:#999;stroke-width:3" />
<path d="M720.04,10.03c0.96,0.96,1.21,2.12,1.21,3.47c0,2.37,0.05,4.75,0.05,7.48" style="fill:none;stroke:#999;stroke-width:3" />
<path d="M699.17,23.9c3.01,0.48,5.82,0.11,8.83-0.21c8.95-0.94,23.18-2.7,32.49-3.33c2.48-0.17,5.16-0.59,7.58,0.14" style="fill:none;stroke:#999;stroke-width:3" />
<path d="M730.28,27.18c0.1,0.82,0.17,1.68-0.35,2.51c-3.68,5.94-8.8,11.81-17.66,17.99" style="fill:none;stroke:black;stroke-width:3" />
<circle cx="730.28" cy="27.18" r="5" stroke-width="0" fill="#FF2A00" opacity="0.7" />
<path d="M774.35,24.75c1.24,0.68,3.63,0.46,4.99,0.34c4.96-0.45,10.35-1.04,17.44-2.02c1.45-0.2,3.25-0.59,4.67-0.07" style="fill:none;stroke:#999;stroke-width:3" />
<path d="M788.05,27.77c1.09,1.09,1.33,2.36,1.33,3.98c0,5.95-0.01,38.8-0.01,45.12" style="fill:none;stroke:#999;stroke-width:3" />
<path d="M775.27,51.25c1.86,0.38,3.32,0.42,5.15,0.1c4.7-0.83,12.24-2.75,16.46-3.55c1.36-0.26,2.48-0.47,3.87-0.21" style="fill:none;stroke:#999;stroke-width:3" />
<path d="M774.0,82.75c1.38,1.38,2.62,1.62,4.49,0.75c5.65-2.65,12.01-6.25,21.92-11.5" style="fill:none;stroke:#999;stroke-width:3" />
<path d="M829.04,10.03c0.96,0.96,1.21,2.12,1.21,3.47c0,2.37,0.05,4.75,0.05,7.48" style="fill:none;stroke:#999;stroke-width:3" />
<path d="M808.17,23.9c3.01,0.48,5.82,0.11,8.83-0.21c8.95-0.94,23.18-2.7,32.49-3.33c2.48-0.17,5.16-0.59,7.58,0.14" style="fill:none;stroke:#999;stroke-width:3" />
<path d="M839.28,27.18c0.1,0.82,0.17,1.68-0.35,2.51c-3.68,5.94-8.8,11.81-17.66,17.99" style="fill:none;stroke:#999;stroke-width:3" />
<path d="M823.31,31.6C829.5,34,838.16,40.58,841.4,45.05" style="fill:none;stroke:black;stroke-width:3" />
<circle cx="823.31" cy="31.6" r="5" stroke-width="0" fill="#FF2A00" opacity="0.7" />
<path d="M883.35,24.75c1.24,0.68,3.63,0.46,4.99,0.34c4.96-0.45,10.35-1.04,17.44-2.02c1.45-0.2,3.25-0.59,4.67-0.07" style="fill:none;stroke:#999;stroke-width:3" />
<path d="M897.05,27.77c1.09,1.09,1.33,2.36,1.33,3.98c0,5.95-0.01,38.8-0.01,45.12" style="fill:none;stroke:#999;stroke-width:3" />
<path d="M884.27,51.25c1.86,0.38,3.32,0.42,5.15,0.1c4.7-0.83,12.24-2.75,16.46-3.55c1.36-0.26,2.48-0.47,3.87-0.21" style="fill:none;stroke:#999;stroke-width:3" />
<path d="M883.0,82.75c1.38,1.38,2.62,1.62,4.49,0.75c5.65-2.65,12.01-6.25,21.92-11.5" style="fill:none;stroke:#999;stroke-width:3" />
<path d="M938.04,10.03c0.96,0.96,1.21,2.12,1.21,3.47c0,2.37,0.05,4.75,0.05,7.48" style="fill:none;stroke:#999;stroke-width:3" />
<path d="M917.17,23.9c3.01,0.48,5.82,0.11,8.83-0.21c8.95-0.94,23.18-2.7,32.49-3.33c2.48-0.17,5.16-0.59,7.58,0.14" style="fill:none;stroke:#999;stroke-width:3" />
<path d="M948.28,27.18c0.1,0.82,0.17,1.68-0.35,2.51c-3.68,5.94-8.8,11.81-17.66,17.99" style="fill:none;stroke:#999;stroke-width:3" />
<path d="M932.31,31.6C938.5,34,947.16,40.58,950.4,45.05" style="fill:none;stroke:#999;stroke-width:3" />
<path d="M922.42,31.3c0.7,0.7,1.13,1.7,1.13,2.86c0,2.2,0.09,10.03-0.01,14.34c-0.07,2.85-0.02,4.25,3.12,3.81c6.16-0.87,28.63-3.43,32.26-3.6" style="fill:none;stroke:black;stroke-width:3" />
<circle cx="922.42" cy="31.3" r="5" stroke-width="0" fill="#FF2A00" opacity="0.7" />
<path d="M992.35,24.75c1.24,0.68,3.63,0.46,4.99,0.34c4.96-0.45,10.35-1.04,17.44-2.02c1.45-0.2,3.25-0.59,4.67-0.07" style="fill:none;stroke:#999;stroke-width:3" />
<path d="M1006.05,27.77c1.09,1.09,1.33,2.36,1.33,3.98c0,5.95-0.01,38.8-0.01,45.12" style="fill:none;stroke:#999;stroke-width:3" />
<path d="M993.27,51.25c1.86,0.38,3.32,0.42,5.15,0.1c4.7-0.83,12.24-2.75,16.46-3.55c1.36-0.26,2.48-0.47,3.87-0.21" style="fill:none;stroke:#999;stroke-width:3" />
<path d="M992.0,82.75c1.38,1.38,2.62,1.62,4.49,0.75c5.65-2.65,12.01-6.25,21.92-11.5" style="fill:none;stroke:#999;stroke-width:3" />
<path d="M1047.04,10.03c0.96,0.96,1.21,2.12,1.21,3.47c0,2.37,0.05,4.75,0.05,7.48" style="fill:none;stroke:#999;stroke-width:3" />
<path d="M1026.17,23.9c3.01,0.48,5.82,0.11,8.83-0.21c8.95-0.94,23.18-2.7,32.49-3.33c2.48-0.17,5.16-0.59,7.58,0.14" style="fill:none;stroke:#999;stroke-width:3" />
<path d="M1057.28,27.18c0.1,0.82,0.17,1.68-0.35,2.51c-3.68,5.94-8.8,11.81-17.66,17.99" style="fill:none;stroke:#999;stroke-width:3" />
<path d="M1041.31,31.6C1047.5,34,1056.1599999999999,40.58,1059.4,45.05" style="fill:none;stroke:#999;stroke-width:3" />
<path d="M1031.42,31.3c0.7,0.7,1.13,1.7,1.13,2.86c0,2.2,0.09,10.03-0.01,14.34c-0.07,2.85-0.02,4.25,3.12,3.81c6.16-0.87,28.63-3.43,32.26-3.6" style="fill:none;stroke:#999;stroke-width:3" />
<path d="M1068.38,27.08c0.96,0.96,1.39,2.02,1.34,3.17c-0.13,2.84-0.29,10.01-0.62,15.99c-0.11,1.95-0.2,3.8-0.28,5.37" style="fill:none;stroke:black;stroke-width:3" />
<circle cx="1068.38" cy="27.08" r="5" stroke-width="0" fill="#FF2A00" opacity="0.7" />
<path d="M1101.35,24.75c1.24,0.68,3.63,0.46,4.99,0.34c4.96-0.45,10.35-1.04,17.44-2.02c1.45-0.2,3.25-0.59,4.67-0.07" style="fill:none;stroke:#999;stroke-width:3" />
<path d="M1115.05,27.77c1.09,1.09,1.33,2.36,1.33,3.98c0,5.95-0.01,38.8-0.01,45.12" style="fill:none;stroke:#999;stroke-width:3" />
<path d="M1102.27,51.25c1.86,0.38,3.32,0.42,5.15,0.1c4.7-0.83,12.24-2.75,16.46-3.55c1.36-0.26,2.48-0.47,3.87-0.21" style="fill:none;stroke:#999;stroke-width:3" />
<path d="M1101.0,82.75c1.38,1.38,2.62,1.62,4.49,0.75c5.65-2.65,12.01-6.25,21.92-11.5" style="fill:none;stroke:#999;stroke-width:3" />
<path d="M1156.04,10.03c0.96,0.96,1.21,2.12,1.21,3.47c0,2.37,0.05,4.75,0.05,7.48" style="fill:none;stroke:#999;stroke-width:3" />
<path d="M1135.17,23.9c3.01,0.48,5.82,0.11,8.83-0.21c8.95-0.94,23.18-2.7,32.49-3.33c2.48-0.17,5.16-0.59,7.58,0.14" style="fill:none;stroke:#999;stroke-width:3" />
<path d="M1166.28,27.18c0.1,0.82,0.17,1.68-0.35,2.51c-3.68,5.94-8.8,11.81-17.66,17.99" style="fill:none;stroke:#999;stroke-width:3" />
<path d="M1150.31,31.6C1156.5,34,1165.1599999999999,40.58,1168.4,45.05" style="fill:none;stroke:#999;stroke-width:3" />
<path d="M1140.42,31.3c0.7,0.7,1.13,1.7,1.13,2.86c0,2.2,0.09,10.03-0.01,14.34c-0.07,2.85-0.02,4.25,3.12,3.81c6.16-0.87,28.63-3.43,32.26-3.6" style="fill:none;stroke:#999;stroke-width:3" />
<path d="M1177.38,27.08c0.96,0.96,1.39,2.02,1.34,3.17c-0.13,2.84-0.29,10.01-0.62,15.99c-0.11,1.95-0.2,3.8-0.28,5.37" style="fill:none;stroke:#999;stroke-width:3" />
<path d="M1134.77,64.23c0.94,0.94,1.34,2.37,1.46,4.04c0.23,3.11,0.99,15.5,1.4,23.36c0.17,3.16,0.28,5.58,0.28,6.38" style="fill:none;stroke:black;stroke-width:3" />
<circle cx="1134.77" cy="64.23" r="5" stroke-width="0" fill="#FF2A00" opacity="0.7" />
<path d="M1210.35,24.75c1.24,0.68,3.63,0.46,4.99,0.34c4.96-0.45,10.35-1.04,17.44-2.02c1.45-0.2,3.25-0.59,4.67-0.07" style="fill:none;stroke:#999;stroke-width:3" />
<path d="M1224.05,27.77c1.09,1.09,1.33,2.36,1.33,3.98c0,5.95-0.01,38.8-0.01,45.12" style="fill:none;stroke:#999;stroke-width:3" />
<path d="M1211.27,51.25c1.86,0.38,3.32,0.42,5.15,0.1c4.7-0.83,12.24-2.75,16.46-3.55c1.36-0.26,2.48-0.47,3.87-0.21" style="fill:none;stroke:#999;stroke-width:3" />
<path d="M1210.0,82.75c1.38,1.38,2.62,1.62,4.49,0.75c5.65-2.65,12.01-6.25,21.92-11.5" style="fill:none;stroke:#999;stroke-width:3" />
<path d="M1265.04,10.03c0.96,0.96,1.21,2.12,1.21,3.47c0,2.37,0.05,4.75,0.05,7.48" style="fill:none;stroke:#999;stroke-width:3" />
<path d="M1244.17,23.9c3.01,0.48,5.82,0.11,8.83-0.21c8.95-0.94,23.18-2.7,32.49-3.33c2.48-0.17,5.16-0.59,7.58,0.14" style="fill:none;stroke:#999;stroke-width:3" />
<path d="M1275.28,27.18c0.1,0.82,0.17,1.68-0.35,2.51c-3.68,5.94-8.8,11.81-17.66,17.99" style="fill:none;stroke:#999;stroke-width:3" />
<path d="M1259.31,31.6C1265.5,34,1274.1599999999999,40.58,1277.4,45.05" style="fill:none;stroke:#999;stroke-width:3" />
<path d="M1249.42,31.3c0.7,0.7,1.13,1.7,1.13,2.86c0,2.2,0.09,10.03-0.01,14.34c-0.07,2.85-0.02,4.25,3.12,3.81c6.16-0.87,28.63-3.43,32.26-3.6" style="fill:none;stroke:#999;stroke-width:3" />
<path d="M1286.38,27.08c0.96,0.96,1.39,2.02,1.34,3.17c-0.13,2.84-0.29,10.01-0.62,15.99c-0.11,1.95-0.2,3.8-0.28,5.37" style="fill:none;stroke:#999;stroke-width:3" />
<path d="M1243.77,64.23c0.94,0.94,1.34,2.37,1.46,4.04c0.23,3.11,0.99,15.5,1.4,23.36c0.17,3.16,0.28,5.58,0.28,6.38" style="fill:none;stroke:#999;stroke-width:3" />
<path d="M1245.88,65.96c5.89-0.67,35.91-4.21,43.88-5.04c3.63-0.38,5.3,0.33,4.91,4.21c-0.62,6.14-3.09,20.95-4.2,25.6c-2.06,8.65-5.59,4.14-8.24,0.94" style="fill:none;stroke:black;stroke-width:3" />
<circle cx="1245.88" cy="65.96" r="5" stroke-width="0" fill="#FF2A00" opacity="0.7" />
<path d="M1319.35,24.75c1.24,0.68,3.63,0.46,4.99,0.34c4.96-0.45,10.35-1.04,17.44-2.02c1.45-0.2,3.25-0.59,4.67-0.07" style="fill:none;stroke:#999;stroke-width:3" />
<path d="M1333.05,27.77c1.09,1.09,1.33,2.36,1.33,3.98c0,5.95-0.01,38.8-0.01,45.12" style="fill:none;stroke:#999;stroke-width:3" />
<path d="M1320.27,51.25c1.86,0.38,3.32,0.42,5.15,0.1c4.7-0.83,12.24-2.75,16.46-3.55c1.36-0.26,2.48-0.47,3.87-0.21" style="fill:none;stroke:#999;stroke-width:3" />
<path d="M1319.0,82.75c1.38,1.38,2.62,1.62,4.49,0.75c5.65-2.65,12.01-6.25,21.92-11.5" style="fill:none;stroke:#999;stroke-width:3" />
<path d="M1374.04,10.03c0.96,0.96,1.21,2.12,1.21,3.47c0,2.37,0.05,4.75,0.05,7.48" style="fill:none;stroke:#999;stroke-width:3" />
<path d="M1353.17,23.9c3.01,0.48,5.82,0.11,8.83-0.21c8.95-0.94,23.18-2.7,32.49-3.33c2.48-0.17,5.16-0.59,7.58,0.14" style="fill:none;stroke:#999;stroke-width:3" />
<path d="M1384.28,27.18c0.1,0.82,0.17,1.68-0.35,2.51c-3.68,5.94-8.8,11.81-17.66,17.99" style="fill:none;stroke:#999;stroke-width:3" />
<path d="M1368.31,31.6C1374.5,34,1383.1599999999999,40.58,1386.4,45.05" style="fill:none;stroke:#999;stroke-width:3" />
<path d="M1358.42,31.3c0.7,0.7,1.13,1.7,1.13,2.86c0,2.2,0.09,10.03-0.01,14.34c-0.07,2.85-0.02,4.25,3.12,3.81c6.16-0.87,28.63-3.43,32.26-3.6" style="fill:none;stroke:#999;stroke-width:3" />
<path d="M1395.38,27.08c0.96,0.96,1.39,2.02,1.34,3.17c-0.13,2.84-0.29,10.01-0.62,15.99c-0.11,1.95-0.2,3.8-0.28,5.37" style="fill:none;stroke:#999;stroke-width:3" />
<path d="M1352.77,64.23c0.94,0.94,1.34,2.37,1.46,4.04c0.23,3.11,0.99,15.5,1.4,23.36c0.17,3.16,0.28,5.58,0.28,6.38" style="fill:none;stroke:#999;stroke-width:3" />
<path d="M1354.88,65.96c5.89-0.67,35.91-4.21,43.88-5.04c3.63-0.38,5.3,0.33,4.91,4.21c-0.62,6.14-3.09,20.95-4.2,25.6c-2.06,8.65-5.59,4.14-8.24,0.94" style="fill:none;stroke:#999;stroke-width:3" />
<path d="M1376.29,53.5c0.34,1.12,0.34,1.88-0.15,3.08c-3.48,8.52-6.42,14.27-10.34,21.76c-1.38,2.64-0.86,3.5,1.57,2.76c4.84-1.45,13.11-4.14,18.82-6.21" style="fill:none;stroke:black;stroke-width:3" />
<circle cx="1376.29" cy="53.5" r="5" stroke-width="0" fill="#FF2A00" opacity="0.7" />
<path d="M1428.35,24.75c1.24,0.68,3.63,0.46,4.99,0.34c4.96-0.45,10.35-1.04,17.44-2.02c1.45-0.2,3.25-0.59,4.67-0.07" style="fill:none;stroke:#999;stroke-width:3" />
<path d="M1442.05,27.77c1.09,1.09,1.33,2.36,1.33,3.98c0,5.95-0.01,38.8-0.01,45.12" style="fill:none;stroke:#999;stroke-width:3" />
<path d="M1429.27,51.25c1.86,0.38,3.32,0.42,5.15,0.1c4.7-0.83,12.24-2.75,16.46-3.55c1.36-0.26,2.48-0.47,3.87-0.21" style="fill:none;stroke:#999;stroke-width:3" />
<path d="M1428.0,82.75c1.38,1.38,2.62,1.62,4.49,0.75c5.65-2.65,12.01-6.25,21.92-11.5" style="fill:none;stroke:#999;stroke-width:3" />
<path d="M1483.04,10.03c0.96,0.96,1.21,2.12,1.21,3.47c0,2.37,0.05,4.75,0.05,7.48" style="fill:none;stroke:#999;stroke-width:3" />
<path d="M1462.17,23.9c3.01,0.48,5.82,0.11,8.83-0.21c8.95-0.94,23.18-2.7,32.49-3.33c2.48-0.17,5.16-0.59,7.58,0.14" style="fill:none;stroke:#999;stroke-width:3" />
<path d="M1493.28,27.18c0.1,0.82,0.17,1.68-0.35,2.51c-3.68,5.94-8.8,11.81-17.66,17.99" style="fill:none;stroke:#999;stroke-width:3" />
<path d="M1477.31,31.6C1483.5,34,1492.1599999999999,40.58,1495.4,45.05" style="fill:none;stroke:#999;stroke-width:3" />
<path d="M1467.42,31.3c0.7,0.7,1.13,1.7,1.13,2.86c0,2.2,0.09,10.03-0.01,14.34c-0.07,2.85-0.02,4.25,3.12,3.81c6.16-0.87,28.63-3.43,32.26-3.6" style="fill:none;stroke:#999;stroke-width:3" />
<path d="M1504.38,27.08c0.96,0.96,1.39,2.02,1.34,3.17c-0.13,2.84-0.29,10.01-0.62,15.99c-0.11,1.95-0.2,3.8-0.28,5.37" style="fill:none;stroke:#999;stroke-width:3" />
<path d="M1461.77,64.23c0.94,0.94,1.34,2.37,1.46,4.04c0.23,3.11,0.99,15.5,1.4,23.36c0.17,3.16,0.28,5.58,0.28,6.38" style="fill:none;stroke:#999;stroke-width:3" />
<path d="M1463.88,65.96c5.89-0.67,35.91-4.21,43.88-5.04c3.63-0.38,5.3,0.33,4.91,4.21c-0.62,6.14-3.09,20.95-4.2,25.6c-2.06,8.65-5.59,4.14-8.24,0.94" style="fill:none;stroke:#999;stroke-width:3" />
<path d="M1485.29,53.5c0.34,1.12,0.34,1.88-0.15,3.08c-3.48,8.52-6.42,14.27-10.34,21.76c-1.38,2.64-0.86,3.5,1.57,2.76c4.84-1.45,13.11-4.14,18.82-6.21" style="fill:none;stroke:#999;stroke-width:3" />
<path d="M1491.12,69c2.89,2.29,7.47,9.41,8.19,12.97" style="fill:none;stroke:black;stroke-width:3" />
<circle cx="1491.12" cy="69.0" r="5" stroke-width="0" fill="#FF2A00" opacity="0.7" />
</svg>