<svg width="1308px" height="109px" viewBox="0 0 1308px 109px" xmlns="http://www.w3.org/2000/svg" xmlns:xlink="http://www.w3.org/1999/xlink" xml:space="preserve" version="1.1"  baseProfile="full">
<line x1="1" y1="1" x2="1307" y2="1" style="stroke:#ddd;stroke-width:2" />
<line x1="1" y1="1" x2="1" y2="108" style="stroke:#ddd;stroke-width:2" />
<line x1="1" y1="108" x2="1307" y2="108" style="stroke:#ddd;stroke-width:2" />
<line x1="1307" y1="1" x2="1307" y2="108" style="stroke:#ddd;stroke-width:2" />
<line x1="109" y1="1" x2="109" y2="108" style="stroke:#ddd;stroke-width:2" />
<line x1="218" y1="1" x2="218" y2="108" style="stroke:#ddd;stroke-width:2" />
<line x1="327" y1="1" x2="327" y2="108" style="stroke:#ddd;stroke-width:2" />
<line x1="436" y1="1" x2="436" y2="108" style="stroke:#ddd;stroke-width:2" />
<line x1="545" y1="1" x2="545" y2="108" style="stroke:#ddd;stroke-width:2" />
<line x1="654" y1="1" x2="654" y2="108" style="stroke:#ddd;stroke-width:2" />
<line x1="763" y1="1" x2="763" y2="108" style="stroke:#ddd;stroke-width:2" />
<line x1="872" y1="1" x2="872" y2="108" style="stroke:#ddd;stroke-width:2" />
<line x1="981" y1="1" x2="981" y2="108" style="stroke:#ddd;stroke-width:2" />
<line x1="1090" y1="1" x2="1090" y2="108" style="stroke:#ddd;stroke-width:2" />
<line x1="1199" y1="1" x2="1199" y2="108" style="stroke:#ddd;stroke-width:2" />
<line x1="1" y1="54" x2="1307" y2="54" style="stroke:#ddd;stroke-width:2;stroke-dasharray:3 3" />
<line x1="55" y1="1" x2="55" y2="108" style="stroke:#ddd;stroke-width:2;stroke-dasharray:3 3" />
<line x1="164" y1="1" x2="164" y2="108" style="stroke:#ddd;stroke-width:2;stroke-dasharray:3 3" />
<line x1="273" y1="1" x2="273" y2="108" style="stroke:#ddd;stroke-width:2;stroke-dasharray:3 3" />
<line x1="382" y1="1" x2="382" y2="108" style="stroke:#ddd;stroke-width:2;stroke-dasharray:3 3" />
<line x1="491" y1="1" x2="491" y2="108" style="stroke:#ddd;stroke-width:2;stroke-dasharray:3 3" />
<line x1="600" y1="1" x2="600" y2="108" style="stroke:#ddd;stroke-width:2;stroke-dasharray:3 3" />
<line x1="709" y1="1" x2="709" y2="108" style="stroke:#ddd;stroke-width:2;stroke-dasharray:3 3" />
<line x1="818" y1="1" x2="818" y2="108" style="stroke:#ddd;stroke-width:2;stroke-dasharray:3 3" />
<line x1="927" y1="1" x2="927" y2="108" style="stroke:#ddd;stroke-width:2;stroke-dasharray:3 3" />
<line x1="1036" y1="1" x2="1036" y2="108" style="stroke:#ddd;stroke-width:2;stroke-dasharray:3 3" />
<line x1="1145" y1="1" x2="1145" y2="108" style="stroke:#ddd;stroke-width:2;stroke-dasharray:3 3" />
<line x1="1254" y1="1" x2="1254" y2="108" style="stroke:#ddd;stroke-width:2;stroke-dasharray:3 3" />
<path d="M52.75,9c0.11,0.85-0.1,2.27-0.72,3.41C48.0,19.75,33.25,35.5,12.0,44.75" style="fill:none;stroke:black;stroke-width:3" />
<circle cx="52.75" cy="9.0" r="5" stroke-width="0" fill="#FF2A00" opacity="0.7" />
<path d="M161.75,9c0.11,0.85-0.1,2.27-0.72,3.41C157.0,19.75,142.25,35.5,121.0,44.75" style="fill:none;stroke:#999;stroke-width:3" />
<path d="M162.38,13c5.38,4.88,21,15.75,30.04,22.24C195.70999999999998,37.61,199.12,39.88,203.0,41" style="fill:none;stroke:black;stroke-width:3" />
<circle cx="162.38" cy="13.0" r="5" stroke-width="0" fill="#FF2A00" opacity="0.7" />
<path d="M270.75,9c0.11,0.85-0.1,2.27-0.72,3.41C266.0,19.75,251.25,35.5,230.0,44.75" style="fill:none;stroke:#999;stroke-width:3" />
<path d="M271.38,13c5.38,4.88,21,15.75,30.04,22.24C304.71,37.61,308.12,39.88,312.0,41" style="fill:none;stroke:#999;stroke-width:3" />
<path d="M270.97,25c0.83,0.83,1.04,2.02,1.04,2.75c0,2.67-0.01,4.88-0.01,7.5" style="fill:none;stroke:black;stroke-width:3" />
<circle cx="270.97" cy="25.0" r="5" stroke-width="0" fill="#FF2A00" opacity="0.7" />
<path d="M379.75,9c0.11,0.85-0.1,2.27-0.72,3.41C375.0,19.75,360.25,35.5,339.0,44.75" style="fill:none;stroke:#999;stroke-width:3" />
<path d="M380.38,13c5.38,4.88,21,15.75,30.04,22.24C413.71,37.61,417.12,39.88,421.0,41" style="fill:none;stroke:#999;stroke-width:3" />
<path d="M379.97,25c0.83,0.83,1.04,2.02,1.04,2.75c0,2.67-0.01,4.88-0.01,7.5" style="fill:none;stroke:#999;stroke-width:3" />
<path d="M359.75,37.45c2.66,0.52,5.44,0.35,8.11,0.06C376.0,36.62,387.09000000000003,35.69,395.0,35.19c2.52-0.22,5.02-0.1,7.5,0.36" style="fill:none;stroke:black;stroke-width:3" />
<circle cx="359.75" cy="37.45" r="5" stroke-width="0" fill="#FF2A00" opacity="0.7" />
<path d="M488.75,9c0.11,0.85-0.1,2.27-0.72,3.41C484.0,19.75,469.25,35.5,448.0,44.75" style="fill:none;stroke:#999;stroke-width:3" />
<path d="M489.38,13c5.38,4.88,21,15.75,30.04,22.24C522.71,37.61,526.12,39.88,530.0,41" style="fill:none;stroke:#999;stroke-width:3" />
<path d="M488.97,25c0.83,0.83,1.04,2.02,1.04,2.75c0,2.67-0.01,4.88-0.01,7.5" style="fill:none;stroke:#999;stroke-width:3" />
<path d="M468.75,37.45c2.66,0.52,5.44,0.35,8.11,0.06C485.0,36.62,496.09000000000003,35.69,504.0,35.19c2.52-0.22,5.02-0.1,7.5,0.36" style="fill:none;stroke:#999;stroke-width:3" />
<path d="M498.8,38.93c-0.08,1.18-0.43,2.23-1.21,3.02C491.62,48,484.5,53,475.34000000000003,56.19" style="fill:none;stroke:black;stroke-width:3" />
<circle cx="498.8" cy="38.93" r="5" stroke-width="0" fill="#FF2A00" opacity="0.7" />
<path d="M597.75,9c0.11,0.85-0.1,2.27-0.72,3.41C593.0,19.75,578.25,35.5,557.0,44.75" style="fill:none;stroke:#999;stroke-width:3" />
<path d="M598.38,13c5.38,4.88,21,15.75,30.04,22.24C631.71,37.61,635.12,39.88,639.0,41" style="fill:none;stroke:#999;stroke-width:3" />
<path d="M597.97,25c0.83,0.83,1.04,2.02,1.04,2.75c0,2.67-0.01,4.88-0.01,7.5" style="fill:none;stroke:#999;stroke-width:3" />
<path d="M577.75,37.45c2.66,0.52,5.44,0.35,8.11,0.06C594.0,36.62,605.09,35.69,613.0,35.19c2.52-0.22,5.02-0.1,7.5,0.36" style="fill:none;stroke:#999;stroke-width:3" />
<path d="M607.8,38.93c-0.08,1.18-0.43,2.23-1.21,3.02C600.62,48,593.5,53,584.34,56.19" style="fill:none;stroke:#999;stroke-width:3" />
<path d="M587.39,43.09c8.11,1.61,19.77,6.61,24.01,10.45" style="fill:none;stroke:black;stroke-width:3" />
<circle cx="587.39" cy="43.09" r="5" stroke-width="0" fill="#FF2A00" opacity="0.7" />
<path d="M706.75,9c0.11,0.85-0.1,2.27-0.72,3.41C702.0,19.75,687.25,35.5,666.0,44.75" style="fill:none;stroke:#999;stroke-width:3" />
<path d="M707.38,13c5.38,4.88,21,15.75,30.04,22.24C740.71,37.61,744.12,39.88,748.0,41" style="fill:none;stroke:#999;stroke-width:3" />
<path d="M706.97,25c0.83,0.83,1.04,2.02,1.04,2.75c0,2.67-0.01,4.88-0.01,7.5" style="fill:none;stroke:#999;stroke-width:3" />
<path d="M686.75,37.45c2.66,0.52,5.44,0.35,8.11,0.06C703.0,36.62,714.09,35.69,722.0,35.19c2.52-0.22,5.02-0.1,7.5,0.36" style="fill:none;stroke:#999;stroke-width:3" />
<path d="M716.8,38.93c-0.08,1.18-0.43,2.23-1.21,3.02C709.62,48,702.5,53,693.34,56.19" style="fill:none;stroke:#999;stroke-width:3" />
<path d="M696.39,43.09c8.11,1.61,19.77,6.61,24.01,10.45" style="fill:none;stroke:#999;stroke-width:3" />
<path d="M686.32,43.22c0.85,0.85,0.74,1.74,0.62,2.86c-0.5,4.53-1,8.76-1.27,10.93c-0.28,2.34,0.71,3.99,3.22,3.77C702.12,59.62,715.0,58.49,729.0,58.25" style="fill:none;stroke:black;stroke-width:3" />
<circle cx="686.32" cy="43.22" r="5" stroke-width="0" fill="#FF2A00" opacity="0.7" />
<path d="M815.75,9c0.11,0.85-0.1,2.27-0.72,3.41C811.0,19.75,796.25,35.5,775.0,44.75" style="fill:none;stroke:#999;stroke-width:3" />
<path d="M816.38,13c5.38,4.88,21,15.75,30.04,22.24C849.71,37.61,853.12,39.88,857.0,41" style="fill:none;stroke:#999;stroke-width:3" />
<path d="M815.97,25c0.83,0.83,1.04,2.02,1.04,2.75c0,2.67-0.01,4.88-0.01,7.5" style="fill:none;stroke:#999;stroke-width:3" />
<path d="M795.75,37.45c2.66,0.52,5.44,0.35,8.11,0.06C812.0,36.62,823.09,35.69,831.0,35.19c2.52-0.22,5.02-0.1,7.5,0.36" style="fill:none;stroke:#999;stroke-width:3" />
<path d="M825.8,38.93c-0.08,1.18-0.43,2.23-1.21,3.02C818.62,48,811.5,53,802.34,56.19" style="fill:none;stroke:#999;stroke-width:3" />
<path d="M805.39,43.09c8.11,1.61,19.77,6.61,24.01,10.45" style="fill:none;stroke:#999;stroke-width:3" />
<path d="M795.32,43.22c0.85,0.85,0.74,1.74,0.62,2.86c-0.5,4.53-1,8.76-1.27,10.93c-0.28,2.34,0.71,3.99,3.22,3.77C811.12,59.62,824.0,58.49,838.0,58.25" style="fill:none;stroke:#999;stroke-width:3" />
<path d="M839.31,39.74c0.72,0.72,0.66,1.63,0.66,2.5c0,0.29-0.27,6.82-0.5,13.12c-0.07,1.92-0.14,3.82-0.2,5.52" style="fill:none;stroke:black;stroke-width:3" />
<circle cx="839.31" cy="39.74" r="5" stroke-width="0" fill="#FF2A00" opacity="0.7" />
<path d="M924.75,9c0.11,0.85-0.1,2.27-0.72,3.41C920.0,19.75,905.25,35.5,884.0,44.75" style="fill:none;stroke:#999;stroke-width:3" />
<path d="M925.38,13c5.38,4.88,21,15.75,30.04,22.24C958.71,37.61,962.12,39.88,966.0,41" style="fill:none;stroke:#999;stroke-width:3" />
<path d="M924.97,25c0.83,0.83,1.04,2.02,1.04,2.75c0,2.67-0.01,4.88-0.01,7.5" style="fill:none;stroke:#999;stroke-width:3" />
<path d="M904.75,37.45c2.66,0.52,5.44,0.35,8.11,0.06C921.0,36.62,932.09,35.69,940.0,35.19c2.52-0.22,5.02-0.1,7.5,0.36" style="fill:none;stroke:#999;stroke-width:3" />
<path d="M934.8,38.93c-0.08,1.18-0.43,2.23-1.21,3.02C927.62,48,920.5,53,911.34,56.19" style="fill:none;stroke:#999;stroke-width:3" />
<path d="M914.39,43.09c8.11,1.61,19.77,6.61,24.01,10.45" style="fill:none;stroke:#999;stroke-width:3" />
<path d="M904.32,43.22c0.85,0.85,0.74,1.74,0.62,2.86c-0.5,4.53-1,8.76-1.27,10.93c-0.28,2.34,0.71,3.99,3.22,3.77C920.12,59.62,933.0,58.49,947.0,58.25" style="fill:none;stroke:#999;stroke-width:3" />
<path d="M948.31,39.74c0.72,0.72,0.66,1.63,0.66,2.5c0,0.29-0.27,6.82-0.5,13.12c-0.07,1.92-0.14,3.82-0.2,5.52" style="fill:none;stroke:#999;stroke-width:3" />
<path d="M896.77,67.95c1.08,1.08,1.29,2.71,1.41,3.65c0.44,3.56,1.13,12.68,1.74,21.03c0.18,2.5,0.36,4.93,0.51,7.12" style="fill:none;stroke:black;stroke-width:3" />
<circle cx="896.77" cy="67.95" r="5" stroke-width="0" fill="#FF2A00" opacity="0.7" />
<path d="M1033.75,9c0.11,0.85-0.1,2.27-0.72,3.41C1029.0,19.75,1014.25,35.5,993.0,44.75" style="fill:none;stroke:#999;stroke-width:3" />
<path d="M1034.38,13c5.38,4.88,21,15.75,30.04,22.24C1067.71,37.61,1071.12,39.88,1075.0,41" style="fill:none;stroke:#999;stroke-width:3" />
<path d="M1033.97,25c0.83,0.83,1.04,2.02,1.04,2.75c0,2.67-0.01,4.88-0.01,7.5" style="fill:none;stroke:#999;stroke-width:3" />
<path d="M1013.75,37.45c2.66,0.52,5.44,0.35,8.11,0.06C1030.0,36.62,1041.0900000000001,35.69,1049.0,35.19c2.52-0.22,5.02-0.1,7.5,0.36" style="fill:none;stroke:#999;stroke-width:3" />
<path d="M1043.8,38.93c-0.08,1.18-0.43,2.23-1.21,3.02C1036.62,48,1029.5,53,1020.34,56.19" style="fill:none;stroke:#999;stroke-width:3" />
<path d="M1023.39,43.09c8.11,1.61,19.77,6.61,24.01,10.45" style="fill:none;stroke:#999;stroke-width:3" />
<path d="M1013.32,43.22c0.85,0.85,0.74,1.74,0.62,2.86c-0.5,4.53-1,8.76-1.27,10.93c-0.28,2.34,0.71,3.99,3.22,3.77C1029.12,59.62,1042.0,58.49,1056.0,58.25" style="fill:none;stroke:#999;stroke-width:3" />
<path d="M1057.31,39.74c0.72,0.72,0.66,1.63,0.66,2.5c0,0.29-0.27,6.82-0.5,13.12c-0.07,1.92-0.14,3.82-0.2,5.52" style="fill:none;stroke:#999;stroke-width:3" />
<path d="M1005.77,67.95c1.08,1.08,1.29,2.71,1.41,3.65c0.44,3.56,1.13,12.68,1.74,21.03c0.18,2.5,0.36,4.93,0.51,7.12" style="fill:none;stroke:#999;stroke-width:3" />
<path d="M1007.89,70.54c7.97-0.5,44.64-3.2,53-3.89c4.61-0.38,6.57,0.9,5.86,5.75c-0.9,6.2-3.37,17.35-5.4,23.01c-2.38,6.64-4.56,3.82-7.57-0.05" style="fill:none;stroke:black;stroke-width:3" />
<circle cx="1007.89" cy="70.54" r="5" stroke-width="0" fill="#FF2A00" opacity="0.7" />
<path d="M1142.75,9c0.11,0.85-0.1,2.27-0.72,3.41C1138.0,19.75,1123.25,35.5,1102.0,44.75" style="fill:none;stroke:#999;stroke-width:3" />
<path d="M1143.38,13c5.38,4.88,21,15.75,30.04,22.24C1176.71,37.61,1180.12,39.88,1184.0,41" style="fill:none;stroke:#999;stroke-width:3" />
<path d="M1142.97,25c0.83,0.83,1.04,2.02,1.04,2.75c0,2.67-0.01,4.88-0.01,7.5" style="fill:none;stroke:#999;stroke-width:3" />
<path d="M1122.75,37.45c2.66,0.52,5.44,0.35,8.11,0.06C1139.0,36.62,1150.0900000000001,35.69,1158.0,35.19c2.52-0.22,5.02-0.1,7.5,0.36" style="fill:none;stroke:#999;stroke-width:3" />
<path d="M1152.8,38.93c-0.08,1.18-0.43,2.23-1.21,3.02C1145.62,48,1138.5,53,1129.3400000000001,56.19" style="fill:none;stroke:#999;stroke-width:3" />
<path d="M1132.3899999999999,43.09c8.11,1.61,19.77,6.61,24.01,10.45" style="fill:none;stroke:#999;stroke-width:3" />
<path d="M1122.3200000000002,43.22c0.85,0.85,0.74,1.74,0.62,2.86c-0.5,4.53-1,8.76-1.27,10.93c-0.28,2.34,0.71,3.99,3.22,3.77C1138.12,59.62,1151.0,58.49,1165.0,58.25" style="fill:none;stroke:#999;stroke-width:3" />
<path d="M1166.31,39.74c0.72,0.72,0.66,1.63,0.66,2.5c0,0.29-0.27,6.82-0.5,13.12c-0.07,1.92-0.14,3.82-0.2,5.52" style="fill:none;stroke:#999;stroke-width:3" />
<path d="M1114.77,67.95c1.08,1.08,1.29,2.71,1.41,3.65c0.44,3.56,1.13,12.68,1.74,21.03c0.18,2.5,0.36,4.93,0.51,7.12" style="fill:none;stroke:#999;stroke-width:3" />
<path d="M1116.8899999999999,70.54c7.97-0.5,44.64-3.2,53-3.89c4.61-0.38,6.57,0.9,5.86,5.75c-0.9,6.2-3.37,17.35-5.4,23.01c-2.38,6.64-4.56,3.82-7.57-0.05" style="fill:none;stroke:#999;stroke-width:3" />
<path d="M1143.63,62c-0.13,1.38-0.57,2.21-1.13,3.2c-3.52,5.44-6.82,10.09-10.9,14.15c-2.92,2.9-3.08,4.44,1.69,3.49C1140.0,81.5,1146.0,80.38,1155.75,78.62" style="fill:none;stroke:black;stroke-width:3" />
<circle cx="1143.63" cy="62.0" r="5" stroke-width="0" fill="#FF2A00" opacity="0.7" />
<path d="M1251.75,9c0.11,0.85-0.1,2.27-0.72,3.41C1247.0,19.75,1232.25,35.5,1211.0,44.75" style="fill:none;stroke:#999;stroke-width:3" />
<path d="M1252.38,13c5.38,4.88,21,15.75,30.04,22.24C1285.71,37.61,1289.12,39.88,1293.0,41" style="fill:none;stroke:#999;stroke-width:3" />
<path d="M1251.97,25c0.83,0.83,1.04,2.02,1.04,2.75c0,2.67-0.01,4.88-0.01,7.5" style="fill:none;stroke:#999;stroke-width:3" />
<path d="M1231.75,37.45c2.66,0.52,5.44,0.35,8.11,0.06C1248.0,36.62,1259.0900000000001,35.69,1267.0,35.19c2.52-0.22,5.02-0.1,7.5,0.36" style="fill:none;stroke:#999;stroke-width:3" />
<path d="M1261.8,38.93c-0.08,1.18-0.43,2.23-1.21,3.02C1254.62,48,1247.5,53,1238.3400000000001,56.19" style="fill:none;stroke:#999;stroke-width:3" />
<path d="M1241.3899999999999,43.09c8.11,1.61,19.77,6.61,24.01,10.45" style="fill:none;stroke:#999;stroke-width:3" />
<path d="M1231.3200000000002,43.22c0.85,0.85,0.74,1.74,0.62,2.86c-0.5,4.53-1,8.76-1.27,10.93c-0.28,2.34,0.71,3.99,3.22,3.77C1247.12,59.62,1260.0,58.49,1274.0,58.25" style="fill:none;stroke:#999;stroke-width:3" />
<path d="M1275.31,39.74c0.72,0.72,0.66,1.63,0.66,2.5c0,0.29-0.27,6.82-0.5,13.12c-0.07,1.92-0.14,3.82-0.2,5.52" style="fill:none;stroke:#999;stroke-width:3" />
<path d="M1223.77,67.95c1.08,1.08,1.29,2.71,1.41,3.65c0.44,3.56,1.13,12.68,1.74,21.03c0.18,2.5,0.36,4.93,0.51,7.12" style="fill:none;stroke:#999;stroke-width:3" />
<path d="M1225.8899999999999,70.54c7.97-0.5,44.64-3.2,53-3.89c4.61-0.38,6.57,0.9,5.86,5.75c-0.9,6.2-3.37,17.35-5.4,23.01c-2.38,6.64-4.56,3.82-7.57-0.05" style="fill:none;stroke:#999;stroke-width:3" />
<path d="M1252.63,62c-0.13,1.38-0.57,2.21-1.13,3.2c-3.52,5.44-6.82,10.09-10.9,14.15c-2.92,2.9-3.08,4.44,1.69,3.49C1249.0,81.5,1255.0,80.38,1264.75,78.62" style="fill:none;stroke:#999;stroke-width:3" />
<path d="M1260.54,71.34c3.72,2.36,9.12,9.96,10.05,13.63" style="fill:none;stroke:black;stroke-width:3" />
<circle cx="1260.54" cy="71.34" r="5" stroke-width="0" fill="#FF2A00" opacity="0.7" />
</svg>