<svg width="2398px" height="109px" viewBox="0 0 2398px 109px" xmlns="http://www.w3.org/2000/svg" xmlns:xlink="http://www.w3.org/1999/xlink" xml:space="preserve" version="1.1"  baseProfile="full">
<line x1="1" y1="1" x2="2397" y2="1" style="stroke:#ddd;stroke-width:2" />
<line x1="1" y1="1" x2="1" y2="108" style="stroke:#ddd;stroke-width:2" />
<line x1="1" y1="108" x2="2397" y2="108" style="stroke:#ddd;stroke-width:2" />
<line x1="2397" y1="1" x2="2397" y2="108" style="stroke:#ddd;stroke-width:2" />
<line x1="109" y1="1" x2="109" y2="108" style="stroke:#ddd;stroke-width:2" />
<line x1="218" y1="1" x2="218" y2="108" style="stroke:#ddd;stroke-width:2" />
<line x1="327" y1="1" x2="327" y2="108" style="stroke:#ddd;stroke-width:2" />
<line x1="436" y1="1" x2="436" y2="108" style="stroke:#ddd;stroke-width:2" />
<line x1="545" y1="1" x2="545" y2="108" style="stroke:#ddd;stroke-width:2" />
<line x1="654" y1="1" x2="654" y2="108" style="stroke:#ddd;stroke-width:2" />
<line x1="763" y1="1" x2="763" y2="108" style="stroke:#ddd;stroke-width:2" />
<line x1="872" y1="1" x2="872" y2="108" style="stroke:#ddd;stroke-width:2" />
<line x1="981" y1="1" x2="981" y2="108" style="stroke:#ddd;stroke-width:2" />
<line x1="1090" y1="1" x2="1090" y2="108" style="stroke:#ddd;stroke-width:2" />
<line x1="1199" y1="1" x2="1199" y2="108" style="stroke:#ddd;stroke-width:2" />
<line x1="1308" y1="1" x2="1308" y2="108" style="stroke:#ddd;stroke-width:2" />
<line x1="1417" y1="1" x2="1417" y2="108" style="stroke:#ddd;stroke-width:2" />
<line x1="1526" y1="1" x2="1526" y2="108" style="stroke:#ddd;stroke-width:2" />
<line x1="1635" y1="1" x2="1635" y2="108" style="stroke:#ddd;stroke-width:2" />
<line x1="1744" y1="1" x2="1744" y2="108" style="stroke:#ddd;stroke-width:2" />
<line x1="1853" y1="1" x2="1853" y2="108" style="stroke:#ddd;stroke-width:2" />
<line x1="1962" y1="1" x2="1962" y2="108" style="stroke:#ddd;stroke-width:2" />
<line x1="2071" y1="1" x2="2071" y2="108" style="stroke:#ddd;stroke-width:2" />
<line x1="2180" y1="1" x2="2180" y2="108" style="stroke:#ddd;stroke-width:2" />
<line x1="2289" y1="1" x2="2289" y2="108" style="stroke:#ddd;stroke-width:2" />
<line x1="1" y1="54" x2="2397" y2="54" style="stroke:#ddd;stroke-width:2;stroke-dasharray:3 3" />
<line x1="55" y1="1" x2="55" y2="108" style="stroke:#ddd;stroke-width:2;stroke-dasharray:3 3" />
<line x1="164" y1="1" x2="164" y2="108" style="stroke:#ddd;stroke-width:2;stroke-dasharray:3 3" />
<line x1="273" y1="1" x2="273" y2="108" style="stroke:#ddd;stroke-width:2;stroke-dasharray:3 3" />
<line x1="382" y1="1" x2="382" y2="108" style="stroke:#ddd;stroke-width:2;stroke-dasharray:3 3" />
<line x1="491" y1="1" x2="491" y2="108" style="stroke:#ddd;stroke-width:2;stroke-dasharray:3 3" />
<line x1="600" y1="1" x2="600" y2="108" style="stroke:#ddd;stroke-width:2;stroke-dasharray:3 3" />
<line x1="709" y1="1" x2="709" y2="108" style="stroke:#ddd;stroke-width:2;stroke-dasharray:3 3" />
<line x1="818" y1="1" x2="818" y2="108" style="stroke:#ddd;stroke-width:2;stroke-dasharray:3 3" />
<line x1="927" y1="1" x2="927" y2="108" style="stroke:#ddd;stroke-width:2;stroke-dasharray:3 3" />
<line x1="1036" y1="1" x2="1036" y2="108" style="stroke:#ddd;stroke-width:2;stroke-dasharray:3 3" />
<line x1="1145" y1="1" x2="1145" y2="108" style="stroke:#ddd;stroke-width:2;stroke-dasharray:3 3" />
<line x1="1254" y1="1" x2="1254" y2="108" style="stroke:#ddd;stroke-width:2;stroke-dasharray:3 3" />
<line x1="1363" y1="1" x2="1363" y2="108" style="stroke:#ddd;stroke-width:2;stroke-dasharray:3 3" />
<line x1="1472" y1="1" x2="1472" y2="108" style="stroke:#ddd;stroke-width:2;stroke-dasharray:3 3" />
<line x1="1581" y1="1" x2="1581" y2="108" style="stroke:#ddd;stroke-width:2;stroke-dasharray:3 3" />
<line x1="1690" y1="1" x2="1690" y2="108" style="stroke:#ddd;stroke-width:2;stroke-dasharray:3 3" />
<line x1="1799" y1="1" x2="1799" y2="108" style="stroke:#ddd;stroke-width:2;stroke-dasharray:3 3" />
<line x1="1908" y1="1" x2="1908" y2="108" style="stroke:#ddd;stroke-width:2;stroke-dasharray:3 3" />
<line x1="2017" y1="1" x2="2017" y2="108" style="stroke:#ddd;stroke-width:2;stroke-dasharray:3 3" />
<line x1="2126" y1="1" x2="2126" y2="108" style="stroke:#ddd;stroke-width:2;stroke-dasharray:3 3" />
<line x1="2235" y1="1" x2="2235" y2="108" style="stroke:#ddd;stroke-width:2;stroke-dasharray:3 3" />
<line x1="2344" y1="1" x2="2344" y2="108" style="stroke:#ddd;stroke-width:2;stroke-dasharray:3 3" />
<path d="M51.98,8.75c0.99,0.34,2.4,1.98,2.38,2.95c-0.07,3.05-0.07,5.24-0.08,8.02" style="fill:none;stroke:black;stroke-width:3" />
<circle cx="51.98" cy="8.75" r="5" stroke-width="0" fill="#FF2A00" opacity="0.7" />
<path d="M160.98,8.75c0.99,0.34,2.4,1.98,2.38,2.95c-0.07,3.05-0.07,5.24-0.08,8.02" style="fill:none;stroke:#999;stroke-width:3" />
<path d="M128.27,21.01c0,3.23-2.42,12.09-3.52,14.24" style="fill:none;stroke:black;stroke-width:3" />
<circle cx="128.27" cy="21.01" r="5" stroke-width="0" fill="#FF2A00" opacity="0.7" />
<path d="M269.98,8.75c0.99,0.34,2.4,1.98,2.38,2.95c-0.07,3.05-0.07,5.24-0.08,8.02" style="fill:none;stroke:#999;stroke-width:3" />
<path d="M237.27,21.01c0,3.23-2.42,12.09-3.52,14.24" style="fill:none;stroke:#999;stroke-width:3" />
<path d="M237.37,23.24c12.8-1.99,58.5-4.99,67.84-4.88c12.09,0.14,2.56,6.41-0.45,8.3" style="fill:none;stroke:black;stroke-width:3" />
<circle cx="237.37" cy="23.24" r="5" stroke-width="0" fill="#FF2A00" opacity="0.7" />
<path d="M378.98,8.75c0.99,0.34,2.4,1.98,2.38,2.95c-0.07,3.05-0.07,5.24-0.08,8.02" style="fill:none;stroke:#999;stroke-width:3" />
<path d="M346.27,21.01c0,3.23-2.42,12.09-3.52,14.24" style="fill:none;stroke:#999;stroke-width:3" />
<path d="M346.37,23.24c12.8-1.99,58.5-4.99,67.84-4.88c12.09,0.14,2.56,6.41-0.45,8.3" style="fill:none;stroke:#999;stroke-width:3" />
<path d="M369.26,24.25c0.05,0.29,0.22,0.77-0.11,1.16c-3.05,3.56-9.45,7.67-19.4,11.09" style="fill:none;stroke:black;stroke-width:3" />
<circle cx="369.26" cy="24.25" r="5" stroke-width="0" fill="#FF2A00" opacity="0.7" />
<path d="M487.98,8.75c0.99,0.34,2.4,1.98,2.38,2.95c-0.07,3.05-0.07,5.24-0.08,8.02" style="fill:none;stroke:#999;stroke-width:3" />
<path d="M455.27,21.01c0,3.23-2.42,12.09-3.52,14.24" style="fill:none;stroke:#999;stroke-width:3" />
<path d="M455.37,23.24c12.8-1.99,58.5-4.99,67.84-4.88c12.09,0.14,2.56,6.41-0.45,8.3" style="fill:none;stroke:#999;stroke-width:3" />
<path d="M478.26,24.25c0.05,0.29,0.22,0.77-0.11,1.16c-3.05,3.56-9.45,7.67-19.4,11.09" style="fill:none;stroke:#999;stroke-width:3" />
<path d="M497.34000000000003,21.37C497.7,21.71,498.0,22.1,498.0,22.62c0,1.38-0.25,3.79-0.25,5.37c0,3.68,5.16,3.26,9.38,3.26c4.44,0,8.26-0.48,8.88-0.74" style="fill:none;stroke:black;stroke-width:3" />
<circle cx="497.34000000000003" cy="21.37" r="5" stroke-width="0" fill="#FF2A00" opacity="0.7" />
<path d="M596.98,8.75c0.99,0.34,2.4,1.98,2.38,2.95c-0.07,3.05-0.07,5.24-0.08,8.02" style="fill:none;stroke:#999;stroke-width:3" />
<path d="M564.27,21.01c0,3.23-2.42,12.09-3.52,14.24" style="fill:none;stroke:#999;stroke-width:3" />
<path d="M564.37,23.24c12.8-1.99,58.5-4.99,67.84-4.88c12.09,0.14,2.56,6.41-0.45,8.3" style="fill:none;stroke:#999;stroke-width:3" />
<path d="M587.26,24.25c0.05,0.29,0.22,0.77-0.11,1.16c-3.05,3.56-9.45,7.67-19.4,11.09" style="fill:none;stroke:#999;stroke-width:3" />
<path d="M606.34,21.37C606.7,21.71,607.0,22.1,607.0,22.62c0,1.38-0.25,3.79-0.25,5.37c0,3.68,5.16,3.26,9.38,3.26c4.44,0,8.26-0.48,8.88-0.74" style="fill:none;stroke:#999;stroke-width:3" />
<path d="M587.15,35.56c0.07,0.25,0.1,0.6-0.14,1c-1.91,3.26-13,7.6-24.51,8.94" style="fill:none;stroke:black;stroke-width:3" />
<circle cx="587.15" cy="35.56" r="5" stroke-width="0" fill="#FF2A00" opacity="0.7" />
<path d="M705.98,8.75c0.99,0.34,2.4,1.98,2.38,2.95c-0.07,3.05-0.07,5.24-0.08,8.02" style="fill:none;stroke:#999;stroke-width:3" />
<path d="M673.27,21.01c0,3.23-2.42,12.09-3.52,14.24" style="fill:none;stroke:#999;stroke-width:3" />
<path d="M673.37,23.24c12.8-1.99,58.5-4.99,67.84-4.88c12.09,0.14,2.56,6.41-0.45,8.3" style="fill:none;stroke:#999;stroke-width:3" />
<path d="M696.26,24.25c0.05,0.29,0.22,0.77-0.11,1.16c-3.05,3.56-9.45,7.67-19.4,11.09" style="fill:none;stroke:#999;stroke-width:3" />
<path d="M715.34,21.37C715.7,21.71,716.0,22.1,716.0,22.62c0,1.38-0.25,3.79-0.25,5.37c0,3.68,5.16,3.26,9.38,3.26c4.44,0,8.26-0.48,8.88-0.74" style="fill:none;stroke:#999;stroke-width:3" />
<path d="M696.15,35.56c0.07,0.25,0.1,0.6-0.14,1c-1.91,3.26-13,7.6-24.51,8.94" style="fill:none;stroke:#999;stroke-width:3" />
<path d="M672.25,50.75c2.08,1.9,5.23,7.29,5.75,10.25" style="fill:none;stroke:black;stroke-width:3" />
<circle cx="672.25" cy="50.75" r="5" stroke-width="0" fill="#FF2A00" opacity="0.7" />
<path d="M814.98,8.75c0.99,0.34,2.4,1.98,2.38,2.95c-0.07,3.05-0.07,5.24-0.08,8.02" style="fill:none;stroke:#999;stroke-width:3" />
<path d="M782.27,21.01c0,3.23-2.42,12.09-3.52,14.24" style="fill:none;stroke:#999;stroke-width:3" />
<path d="M782.37,23.24c12.8-1.99,58.5-4.99,67.84-4.88c12.09,0.14,2.56,6.41-0.45,8.3" style="fill:none;stroke:#999;stroke-width:3" />
<path d="M805.26,24.25c0.05,0.29,0.22,0.77-0.11,1.16c-3.05,3.56-9.45,7.67-19.4,11.09" style="fill:none;stroke:#999;stroke-width:3" />
<path d="M824.34,21.37C824.7,21.71,825.0,22.1,825.0,22.62c0,1.38-0.25,3.79-0.25,5.37c0,3.68,5.16,3.26,9.38,3.26c4.44,0,8.26-0.48,8.88-0.74" style="fill:none;stroke:#999;stroke-width:3" />
<path d="M805.15,35.56c0.07,0.25,0.1,0.6-0.14,1c-1.91,3.26-13,7.6-24.51,8.94" style="fill:none;stroke:#999;stroke-width:3" />
<path d="M781.25,50.75c2.08,1.9,5.23,7.29,5.75,10.25" style="fill:none;stroke:#999;stroke-width:3" />
<path d="M809.2,46.15c0.02,0.31,0.1,0.84-0.04,1.26c-1.13,3.4-2.94,7.41-6.66,12.08" style="fill:none;stroke:black;stroke-width:3" />
<circle cx="809.2" cy="46.15" r="5" stroke-width="0" fill="#FF2A00" opacity="0.7" />
<path d="M923.98,8.75c0.99,0.34,2.4,1.98,2.38,2.95c-0.07,3.05-0.07,5.24-0.08,8.02" style="fill:none;stroke:#999;stroke-width:3" />
<path d="M891.27,21.01c0,3.23-2.42,12.09-3.52,14.24" style="fill:none;stroke:#999;stroke-width:3" />
<path d="M891.37,23.24c12.8-1.99,58.5-4.99,67.84-4.88c12.09,0.14,2.56,6.41-0.45,8.3" style="fill:none;stroke:#999;stroke-width:3" />
<path d="M914.26,24.25c0.05,0.29,0.22,0.77-0.11,1.16c-3.05,3.56-9.45,7.67-19.4,11.09" style="fill:none;stroke:#999;stroke-width:3" />
<path d="M933.34,21.37C933.7,21.71,934.0,22.1,934.0,22.62c0,1.38-0.25,3.79-0.25,5.37c0,3.68,5.16,3.26,9.38,3.26c4.44,0,8.26-0.48,8.88-0.74" style="fill:none;stroke:#999;stroke-width:3" />
<path d="M914.15,35.56c0.07,0.25,0.1,0.6-0.14,1c-1.91,3.26-13,7.6-24.51,8.94" style="fill:none;stroke:#999;stroke-width:3" />
<path d="M890.25,50.75c2.08,1.9,5.23,7.29,5.75,10.25" style="fill:none;stroke:#999;stroke-width:3" />
<path d="M918.2,46.15c0.02,0.31,0.1,0.84-0.04,1.26c-1.13,3.4-2.94,7.41-6.66,12.08" style="fill:none;stroke:#999;stroke-width:3" />
<path d="M888.25,63.78c0.37,0.12,1.36,0.43,2.34,0.36c4.07-0.28,21.96-1.62,28.06-1.64c0.99,0,1.23-0.12,1.85,0" style="fill:none;stroke:black;stroke-width:3" />
<circle cx="888.25" cy="63.78" r="5" stroke-width="0" fill="#FF2A00" opacity="0.7" />
<path d="M1032.98,8.75c0.99,0.34,2.4,1.98,2.38,2.95c-0.07,3.05-0.07,5.24-0.08,8.02" style="fill:none;stroke:#999;stroke-width:3" />
<path d="M1000.27,21.01c0,3.23-2.42,12.09-3.52,14.24" style="fill:none;stroke:#999;stroke-width:3" />
<path d="M1000.37,23.24c12.8-1.99,58.5-4.99,67.84-4.88c12.09,0.14,2.56,6.41-0.45,8.3" style="fill:none;stroke:#999;stroke-width:3" />
<path d="M1023.26,24.25c0.05,0.29,0.22,0.77-0.11,1.16c-3.05,3.56-9.45,7.67-19.4,11.09" style="fill:none;stroke:#999;stroke-width:3" />
<path d="M1042.3400000000001,21.37C1042.7,21.71,1043.0,22.1,1043.0,22.62c0,1.38-0.25,3.79-0.25,5.37c0,3.68,5.16,3.26,9.38,3.26c4.44,0,8.26-0.48,8.88-0.74" style="fill:none;stroke:#999;stroke-width:3" />
<path d="M1023.15,35.56c0.07,0.25,0.1,0.6-0.14,1c-1.91,3.26-13,7.6-24.51,8.94" style="fill:none;stroke:#999;stroke-width:3" />
<path d="M999.25,50.75c2.08,1.9,5.23,7.29,5.75,10.25" style="fill:none;stroke:#999;stroke-width:3" />
<path d="M1027.2,46.15c0.02,0.31,0.1,0.84-0.04,1.26c-1.13,3.4-2.94,7.41-6.66,12.08" style="fill:none;stroke:#999;stroke-width:3" />
<path d="M997.25,63.78c0.37,0.12,1.36,0.43,2.34,0.36c4.07-0.28,21.96-1.62,28.06-1.64c0.99,0,1.23-0.12,1.85,0" style="fill:none;stroke:#999;stroke-width:3" />
<path d="M1012.91,44.68c0.7,0.36,1.12,1.63,1.25,2.36c0.14,0.73,0,46.18-0.14,50.71" style="fill:none;stroke:black;stroke-width:3" />
<circle cx="1012.91" cy="44.68" r="5" stroke-width="0" fill="#FF2A00" opacity="0.7" />
<path d="M1141.98,8.75c0.99,0.34,2.4,1.98,2.38,2.95c-0.07,3.05-0.07,5.24-0.08,8.02" style="fill:none;stroke:#999;stroke-width:3" />
<path d="M1109.27,21.01c0,3.23-2.42,12.09-3.52,14.24" style="fill:none;stroke:#999;stroke-width:3" />
<path d="M1109.37,23.24c12.8-1.99,58.5-4.99,67.84-4.88c12.09,0.14,2.56,6.41-0.45,8.3" style="fill:none;stroke:#999;stroke-width:3" />
<path d="M1132.26,24.25c0.05,0.29,0.22,0.77-0.11,1.16c-3.05,3.56-9.45,7.67-19.4,11.09" style="fill:none;stroke:#999;stroke-width:3" />
<path d="M1151.3400000000001,21.37C1151.7,21.71,1152.0,22.1,1152.0,22.62c0,1.38-0.25,3.79-0.25,5.37c0,3.68,5.16,3.26,9.38,3.26c4.44,0,8.26-0.48,8.88-0.74" style="fill:none;stroke:#999;stroke-width:3" />
<path d="M1132.15,35.56c0.07,0.25,0.1,0.6-0.14,1c-1.91,3.26-13,7.6-24.51,8.94" style="fill:none;stroke:#999;stroke-width:3" />
<path d="M1108.25,50.75c2.08,1.9,5.23,7.29,5.75,10.25" style="fill:none;stroke:#999;stroke-width:3" />
<path d="M1136.2,46.15c0.02,0.31,0.1,0.84-0.04,1.26c-1.13,3.4-2.94,7.41-6.66,12.08" style="fill:none;stroke:#999;stroke-width:3" />
<path d="M1106.25,63.78c0.37,0.12,1.36,0.43,2.34,0.36c4.07-0.28,21.96-1.62,28.06-1.64c0.99,0,1.23-0.12,1.85,0" style="fill:none;stroke:#999;stroke-width:3" />
<path d="M1121.9099999999999,44.68c0.7,0.36,1.12,1.63,1.25,2.36c0.14,0.73,0,46.18-0.14,50.71" style="fill:none;stroke:#999;stroke-width:3" />
<path d="M1123.16,63.51c-3.95,8.38-13.54,20.15-22.41,24.99" style="fill:none;stroke:black;stroke-width:3" />
<circle cx="1123.16" cy="63.51" r="5" stroke-width="0" fill="#FF2A00" opacity="0.7" />
<path d="M1250.98,8.75c0.99,0.34,2.4,1.98,2.38,2.95c-0.07,3.05-0.07,5.24-0.08,8.02" style="fill:none;stroke:#999;stroke-width:3" />
<path d="M1218.27,21.01c0,3.23-2.42,12.09-3.52,14.24" style="fill:none;stroke:#999;stroke-width:3" />
<path d="M1218.37,23.24c12.8-1.99,58.5-4.99,67.84-4.88c12.09,0.14,2.56,6.41-0.45,8.3" style="fill:none;stroke:#999;stroke-width:3" />
<path d="M1241.26,24.25c0.05,0.29,0.22,0.77-0.11,1.16c-3.05,3.56-9.45,7.67-19.4,11.09" style="fill:none;stroke:#999;stroke-width:3" />
<path d="M1260.3400000000001,21.37C1260.7,21.71,1261.0,22.1,1261.0,22.62c0,1.38-0.25,3.79-0.25,5.37c0,3.68,5.16,3.26,9.38,3.26c4.44,0,8.26-0.48,8.88-0.74" style="fill:none;stroke:#999;stroke-width:3" />
<path d="M1241.15,35.56c0.07,0.25,0.1,0.6-0.14,1c-1.91,3.26-13,7.6-24.51,8.94" style="fill:none;stroke:#999;stroke-width:3" />
<path d="M1217.25,50.75c2.08,1.9,5.23,7.29,5.75,10.25" style="fill:none;stroke:#999;stroke-width:3" />
<path d="M1245.2,46.15c0.02,0.31,0.1,0.84-0.04,1.26c-1.13,3.4-2.94,7.41-6.66,12.08" style="fill:none;stroke:#999;stroke-width:3" />
<path d="M1215.25,63.78c0.37,0.12,1.36,0.43,2.34,0.36c4.07-0.28,21.96-1.62,28.06-1.64c0.99,0,1.23-0.12,1.85,0" style="fill:none;stroke:#999;stroke-width:3" />
<path d="M1230.9099999999999,44.68c0.7,0.36,1.12,1.63,1.25,2.36c0.14,0.73,0,46.18-0.14,50.71" style="fill:none;stroke:#999;stroke-width:3" />
<path d="M1232.16,63.51c-3.95,8.38-13.54,20.15-22.41,24.99" style="fill:none;stroke:#999;stroke-width:3" />
<path d="M1233.25,67.5c3.03,1.4,9.75,8.7,10.92,11.68" style="fill:none;stroke:black;stroke-width:3" />
<circle cx="1233.25" cy="67.5" r="5" stroke-width="0" fill="#FF2A00" opacity="0.7" />
<path d="M1359.98,8.75c0.99,0.34,2.4,1.98,2.38,2.95c-0.07,3.05-0.07,5.24-0.08,8.02" style="fill:none;stroke:#999;stroke-width:3" />
<path d="M1327.27,21.01c0,3.23-2.42,12.09-3.52,14.24" style="fill:none;stroke:#999;stroke-width:3" />
<path d="M1327.37,23.24c12.8-1.99,58.5-4.99,67.84-4.88c12.09,0.14,2.56,6.41-0.45,8.3" style="fill:none;stroke:#999;stroke-width:3" />
<path d="M1350.26,24.25c0.05,0.29,0.22,0.77-0.11,1.16c-3.05,3.56-9.45,7.67-19.4,11.09" style="fill:none;stroke:#999;stroke-width:3" />
<path d="M1369.3400000000001,21.37C1369.7,21.71,1370.0,22.1,1370.0,22.62c0,1.38-0.25,3.79-0.25,5.37c0,3.68,5.16,3.26,9.38,3.26c4.44,0,8.26-0.48,8.88-0.74" style="fill:none;stroke:#999;stroke-width:3" />
<path d="M1350.15,35.56c0.07,0.25,0.1,0.6-0.14,1c-1.91,3.26-13,7.6-24.51,8.94" style="fill:none;stroke:#999;stroke-width:3" />
<path d="M1326.25,50.75c2.08,1.9,5.23,7.29,5.75,10.25" style="fill:none;stroke:#999;stroke-width:3" />
<path d="M1354.2,46.15c0.02,0.31,0.1,0.84-0.04,1.26c-1.13,3.4-2.94,7.41-6.66,12.08" style="fill:none;stroke:#999;stroke-width:3" />
<path d="M1324.25,63.78c0.37,0.12,1.36,0.43,2.34,0.36c4.07-0.28,21.96-1.62,28.06-1.64c0.99,0,1.23-0.12,1.85,0" style="fill:none;stroke:#999;stroke-width:3" />
<path d="M1339.9099999999999,44.68c0.7,0.36,1.12,1.63,1.25,2.36c0.14,0.73,0,46.18-0.14,50.71" style="fill:none;stroke:#999;stroke-width:3" />
<path d="M1341.16,63.51c-3.95,8.38-13.54,20.15-22.41,24.99" style="fill:none;stroke:#999;stroke-width:3" />
<path d="M1342.25,67.5c3.03,1.4,9.75,8.7,10.92,11.68" style="fill:none;stroke:#999;stroke-width:3" />
<path d="M1376.07,37.81c0.67,0.2,1.08,1.25,1.21,1.65c0.13,0.4,0.28,4.99,0.28,9.28" style="fill:none;stroke:black;stroke-width:3" />
<circle cx="1376.07" cy="37.81" r="5" stroke-width="0" fill="#FF2A00" opacity="0.7" />
<path d="M1468.98,8.75c0.99,0.34,2.4,1.98,2.38,2.95c-0.07,3.05-0.07,5.24-0.08,8.02" style="fill:none;stroke:#999;stroke-width:3" />
<path d="M1436.27,21.01c0,3.23-2.42,12.09-3.52,14.24" style="fill:none;stroke:#999;stroke-width:3" />
<path d="M1436.37,23.24c12.8-1.99,58.5-4.99,67.84-4.88c12.09,0.14,2.56,6.41-0.45,8.3" style="fill:none;stroke:#999;stroke-width:3" />
<path d="M1459.26,24.25c0.05,0.29,0.22,0.77-0.11,1.16c-3.05,3.56-9.45,7.67-19.4,11.09" style="fill:none;stroke:#999;stroke-width:3" />
<path d="M1478.3400000000001,21.37C1478.7,21.71,1479.0,22.1,1479.0,22.62c0,1.38-0.25,3.79-0.25,5.37c0,3.68,5.16,3.26,9.38,3.26c4.44,0,8.26-0.48,8.88-0.74" style="fill:none;stroke:#999;stroke-width:3" />
<path d="M1459.15,35.56c0.07,0.25,0.1,0.6-0.14,1c-1.91,3.26-13,7.6-24.51,8.94" style="fill:none;stroke:#999;stroke-width:3" />
<path d="M1435.25,50.75c2.08,1.9,5.23,7.29,5.75,10.25" style="fill:none;stroke:#999;stroke-width:3" />
<path d="M1463.2,46.15c0.02,0.31,0.1,0.84-0.04,1.26c-1.13,3.4-2.94,7.41-6.66,12.08" style="fill:none;stroke:#999;stroke-width:3" />
<path d="M1433.25,63.78c0.37,0.12,1.36,0.43,2.34,0.36c4.07-0.28,21.96-1.62,28.06-1.64c0.99,0,1.23-0.12,1.85,0" style="fill:none;stroke:#999;stroke-width:3" />
<path d="M1448.9099999999999,44.68c0.7,0.36,1.12,1.63,1.25,2.36c0.14,0.73,0,46.18-0.14,50.71" style="fill:none;stroke:#999;stroke-width:3" />
<path d="M1450.16,63.51c-3.95,8.38-13.54,20.15-22.41,24.99" style="fill:none;stroke:#999;stroke-width:3" />
<path d="M1451.25,67.5c3.03,1.4,9.75,8.7,10.92,11.68" style="fill:none;stroke:#999;stroke-width:3" />
<path d="M1485.07,37.81c0.67,0.2,1.08,1.25,1.21,1.65c0.13,0.4,0.28,4.99,0.28,9.28" style="fill:none;stroke:#999;stroke-width:3" />
<path d="M1486.9,41.95c4.4-0.19,6.67-0.77,10.99-0.96c1.07-0.05,1.35-0.06,2.02,0" style="fill:none;stroke:black;stroke-width:3" />
<circle cx="1486.9" cy="41.95" r="5" stroke-width="0" fill="#FF2A00" opacity="0.7" />
<path d="M1577.98,8.75c0.99,0.34,2.4,1.98,2.38,2.95c-0.07,3.05-0.07,5.24-0.08,8.02" style="fill:none;stroke:#999;stroke-width:3" />
<path d="M1545.27,21.01c0,3.23-2.42,12.09-3.52,14.24" style="fill:none;stroke:#999;stroke-width:3" />
<path d="M1545.37,23.24c12.8-1.99,58.5-4.99,67.84-4.88c12.09,0.14,2.56,6.41-0.45,8.3" style="fill:none;stroke:#999;stroke-width:3" />
<path d="M1568.26,24.25c0.05,0.29,0.22,0.77-0.11,1.16c-3.05,3.56-9.45,7.67-19.4,11.09" style="fill:none;stroke:#999;stroke-width:3" />
<path d="M1587.3400000000001,21.37C1587.7,21.71,1588.0,22.1,1588.0,22.62c0,1.38-0.25,3.79-0.25,5.37c0,3.68,5.16,3.26,9.38,3.26c4.44,0,8.26-0.48,8.88-0.74" style="fill:none;stroke:#999;stroke-width:3" />
<path d="M1568.15,35.56c0.07,0.25,0.1,0.6-0.14,1c-1.91,3.26-13,7.6-24.51,8.94" style="fill:none;stroke:#999;stroke-width:3" />
<path d="M1544.25,50.75c2.08,1.9,5.23,7.29,5.75,10.25" style="fill:none;stroke:#999;stroke-width:3" />
<path d="M1572.2,46.15c0.02,0.31,0.1,0.84-0.04,1.26c-1.13,3.4-2.94,7.41-6.66,12.08" style="fill:none;stroke:#999;stroke-width:3" />
<path d="M1542.25,63.78c0.37,0.12,1.36,0.43,2.34,0.36c4.07-0.28,21.96-1.62,28.06-1.64c0.99,0,1.23-0.12,1.85,0" style="fill:none;stroke:#999;stroke-width:3" />
<path d="M1557.9099999999999,44.68c0.7,0.36,1.12,1.63,1.25,2.36c0.14,0.73,0,46.18-0.14,50.71" style="fill:none;stroke:#999;stroke-width:3" />
<path d="M1559.16,63.51c-3.95,8.38-13.54,20.15-22.41,24.99" style="fill:none;stroke:#999;stroke-width:3" />
<path d="M1560.25,67.5c3.03,1.4,9.75,8.7,10.92,11.68" style="fill:none;stroke:#999;stroke-width:3" />
<path d="M1594.07,37.81c0.67,0.2,1.08,1.25,1.21,1.65c0.13,0.4,0.28,4.99,0.28,9.28" style="fill:none;stroke:#999;stroke-width:3" />
<path d="M1595.9,41.95c4.4-0.19,6.67-0.77,10.99-0.96c1.07-0.05,1.35-0.06,2.02,0" style="fill:none;stroke:#999;stroke-width:3" />
<path d="M1580.93,49.31c0.78,0.57,1.38,1.97,1.48,2.72c0.87,6.22,1.33,9.97,1.77,14.85" style="fill:none;stroke:black;stroke-width:3" />
<circle cx="1580.93" cy="49.31" r="5" stroke-width="0" fill="#FF2A00" opacity="0.7" />
<path d="M1686.98,8.75c0.99,0.34,2.4,1.98,2.38,2.95c-0.07,3.05-0.07,5.24-0.08,8.02" style="fill:none;stroke:#999;stroke-width:3" />
<path d="M1654.27,21.01c0,3.23-2.42,12.09-3.52,14.24" style="fill:none;stroke:#999;stroke-width:3" />
<path d="M1654.37,23.24c12.8-1.99,58.5-4.99,67.84-4.88c12.09,0.14,2.56,6.41-0.45,8.3" style="fill:none;stroke:#999;stroke-width:3" />
<path d="M1677.26,24.25c0.05,0.29,0.22,0.77-0.11,1.16c-3.05,3.56-9.45,7.67-19.4,11.09" style="fill:none;stroke:#999;stroke-width:3" />
<path d="M1696.3400000000001,21.37C1696.7,21.71,1697.0,22.1,1697.0,22.62c0,1.38-0.25,3.79-0.25,5.37c0,3.68,5.16,3.26,9.38,3.26c4.44,0,8.26-0.48,8.88-0.74" style="fill:none;stroke:#999;stroke-width:3" />
<path d="M1677.15,35.56c0.07,0.25,0.1,0.6-0.14,1c-1.91,3.26-13,7.6-24.51,8.94" style="fill:none;stroke:#999;stroke-width:3" />
<path d="M1653.25,50.75c2.08,1.9,5.23,7.29,5.75,10.25" style="fill:none;stroke:#999;stroke-width:3" />
<path d="M1681.2,46.15c0.02,0.31,0.1,0.84-0.04,1.26c-1.13,3.4-2.94,7.41-6.66,12.08" style="fill:none;stroke:#999;stroke-width:3" />
<path d="M1651.25,63.78c0.37,0.12,1.36,0.43,2.34,0.36c4.07-0.28,21.96-1.62,28.06-1.64c0.99,0,1.23-0.12,1.85,0" style="fill:none;stroke:#999;stroke-width:3" />
<path d="M1666.9099999999999,44.68c0.7,0.36,1.12,1.63,1.25,2.36c0.14,0.73,0,46.18-0.14,50.71" style="fill:none;stroke:#999;stroke-width:3" />
<path d="M1668.16,63.51c-3.95,8.38-13.54,20.15-22.41,24.99" style="fill:none;stroke:#999;stroke-width:3" />
<path d="M1669.25,67.5c3.03,1.4,9.75,8.7,10.92,11.68" style="fill:none;stroke:#999;stroke-width:3" />
<path d="M1703.07,37.81c0.67,0.2,1.08,1.25,1.21,1.65c0.13,0.4,0.28,4.99,0.28,9.28" style="fill:none;stroke:#999;stroke-width:3" />
<path d="M1704.9,41.95c4.4-0.19,6.67-0.77,10.99-0.96c1.07-0.05,1.35-0.06,2.02,0" style="fill:none;stroke:#999;stroke-width:3" />
<path d="M1689.93,49.31c0.78,0.57,1.38,1.97,1.48,2.72c0.87,6.22,1.33,9.97,1.77,14.85" style="fill:none;stroke:#999;stroke-width:3" />
<path d="M1691.95,50.49c11.87-1.09,18.32-1.71,26.91-2.13c3.35-0.16,3.19,1.72,3.17,4.14C1722.0,56,1720.99,62.5,1720.36,66.1" style="fill:none;stroke:black;stroke-width:3" />
<circle cx="1691.95" cy="50.49" r="5" stroke-width="0" fill="#FF2A00" opacity="0.7" />
<path d="M1795.98,8.75c0.99,0.34,2.4,1.98,2.38,2.95c-0.07,3.05-0.07,5.24-0.08,8.02" style="fill:none;stroke:#999;stroke-width:3" />
<path d="M1763.27,21.01c0,3.23-2.42,12.09-3.52,14.24" style="fill:none;stroke:#999;stroke-width:3" />
<path d="M1763.37,23.24c12.8-1.99,58.5-4.99,67.84-4.88c12.09,0.14,2.56,6.41-0.45,8.3" style="fill:none;stroke:#999;stroke-width:3" />
<path d="M1786.26,24.25c0.05,0.29,0.22,0.77-0.11,1.16c-3.05,3.56-9.45,7.67-19.4,11.09" style="fill:none;stroke:#999;stroke-width:3" />
<path d="M1805.3400000000001,21.37C1805.7,21.71,1806.0,22.1,1806.0,22.62c0,1.38-0.25,3.79-0.25,5.37c0,3.68,5.16,3.26,9.38,3.26c4.44,0,8.26-0.48,8.88-0.74" style="fill:none;stroke:#999;stroke-width:3" />
<path d="M1786.15,35.56c0.07,0.25,0.1,0.6-0.14,1c-1.91,3.26-13,7.6-24.51,8.94" style="fill:none;stroke:#999;stroke-width:3" />
<path d="M1762.25,50.75c2.08,1.9,5.23,7.29,5.75,10.25" style="fill:none;stroke:#999;stroke-width:3" />
<path d="M1790.2,46.15c0.02,0.31,0.1,0.84-0.04,1.26c-1.13,3.4-2.94,7.41-6.66,12.08" style="fill:none;stroke:#999;stroke-width:3" />
<path d="M1760.25,63.78c0.37,0.12,1.36,0.43,2.34,0.36c4.07-0.28,21.96-1.62,28.06-1.64c0.99,0,1.23-0.12,1.85,0" style="fill:none;stroke:#999;stroke-width:3" />
<path d="M1775.9099999999999,44.68c0.7,0.36,1.12,1.63,1.25,2.36c0.14,0.73,0,46.18-0.14,50.71" style="fill:none;stroke:#999;stroke-width:3" />
<path d="M1777.16,63.51c-3.95,8.38-13.54,20.15-22.41,24.99" style="fill:none;stroke:#999;stroke-width:3" />
<path d="M1778.25,67.5c3.03,1.4,9.75,8.7,10.92,11.68" style="fill:none;stroke:#999;stroke-width:3" />
<path d="M1812.07,37.81c0.67,0.2,1.08,1.25,1.21,1.65c0.13,0.4,0.28,4.99,0.28,9.28" style="fill:none;stroke:#999;stroke-width:3" />
<path d="M1813.9,41.95c4.4-0.19,6.67-0.77,10.99-0.96c1.07-0.05,1.35-0.06,2.02,0" style="fill:none;stroke:#999;stroke-width:3" />
<path d="M1798.93,49.31c0.78,0.57,1.38,1.97,1.48,2.72c0.87,6.22,1.33,9.97,1.77,14.85" style="fill:none;stroke:#999;stroke-width:3" />
<path d="M1800.95,50.49c11.87-1.09,18.32-1.71,26.91-2.13c3.35-0.16,3.19,1.72,3.17,4.14C1831.0,56,1829.99,62.5,1829.36,66.1" style="fill:none;stroke:#999;stroke-width:3" />
<path d="M1815.0,51.89c0.03,0.3,0.05,0.77-0.05,1.19c-0.6,2.51-4.02,8.01-8.72,11.38" style="fill:none;stroke:black;stroke-width:3" />
<circle cx="1815.0" cy="51.89" r="5" stroke-width="0" fill="#FF2A00" opacity="0.7" />
<path d="M1904.98,8.75c0.99,0.34,2.4,1.98,2.38,2.95c-0.07,3.05-0.07,5.24-0.08,8.02" style="fill:none;stroke:#999;stroke-width:3" />
<path d="M1872.27,21.01c0,3.23-2.42,12.09-3.52,14.24" style="fill:none;stroke:#999;stroke-width:3" />
<path d="M1872.37,23.24c12.8-1.99,58.5-4.99,67.84-4.88c12.09,0.14,2.56,6.41-0.45,8.3" style="fill:none;stroke:#999;stroke-width:3" />
<path d="M1895.26,24.25c0.05,0.29,0.22,0.77-0.11,1.16c-3.05,3.56-9.45,7.67-19.4,11.09" style="fill:none;stroke:#999;stroke-width:3" />
<path d="M1914.3400000000001,21.37C1914.7,21.71,1915.0,22.1,1915.0,22.62c0,1.38-0.25,3.79-0.25,5.37c0,3.68,5.16,3.26,9.38,3.26c4.44,0,8.26-0.48,8.88-0.74" style="fill:none;stroke:#999;stroke-width:3" />
<path d="M1895.15,35.56c0.07,0.25,0.1,0.6-0.14,1c-1.91,3.26-13,7.6-24.51,8.94" style="fill:none;stroke:#999;stroke-width:3" />
<path d="M1871.25,50.75c2.08,1.9,5.23,7.29,5.75,10.25" style="fill:none;stroke:#999;stroke-width:3" />
<path d="M1899.2,46.15c0.02,0.31,0.1,0.84-0.04,1.26c-1.13,3.4-2.94,7.41-6.66,12.08" style="fill:none;stroke:#999;stroke-width:3" />
<path d="M1869.25,63.78c0.37,0.12,1.36,0.43,2.34,0.36c4.07-0.28,21.96-1.62,28.06-1.64c0.99,0,1.23-0.12,1.85,0" style="fill:none;stroke:#999;stroke-width:3" />
<path d="M1884.9099999999999,44.68c0.7,0.36,1.12,1.63,1.25,2.36c0.14,0.73,0,46.18-0.14,50.71" style="fill:none;stroke:#999;stroke-width:3" />
<path d="M1886.16,63.51c-3.95,8.38-13.54,20.15-22.41,24.99" style="fill:none;stroke:#999;stroke-width:3" />
<path d="M1887.25,67.5c3.03,1.4,9.75,8.7,10.92,11.68" style="fill:none;stroke:#999;stroke-width:3" />
<path d="M1921.07,37.81c0.67,0.2,1.08,1.25,1.21,1.65c0.13,0.4,0.28,4.99,0.28,9.28" style="fill:none;stroke:#999;stroke-width:3" />
<path d="M1922.9,41.95c4.4-0.19,6.67-0.77,10.99-0.96c1.07-0.05,1.35-0.06,2.02,0" style="fill:none;stroke:#999;stroke-width:3" />
<path d="M1907.93,49.31c0.78,0.57,1.38,1.97,1.48,2.72c0.87,6.22,1.33,9.97,1.77,14.85" style="fill:none;stroke:#999;stroke-width:3" />
<path d="M1909.95,50.49c11.87-1.09,18.32-1.71,26.91-2.13c3.35-0.16,3.19,1.72,3.17,4.14C1940.0,56,1938.99,62.5,1938.36,66.1" style="fill:none;stroke:#999;stroke-width:3" />
<path d="M1924.0,51.89c0.03,0.3,0.05,0.77-0.05,1.19c-0.6,2.51-4.02,8.01-8.72,11.38" style="fill:none;stroke:#999;stroke-width:3" />
<path d="M1924.1,57.08c3.24,0.99,8.36,4.09,9.17,5.63" style="fill:none;stroke:black;stroke-width:3" />
<circle cx="1924.1" cy="57.08" r="5" stroke-width="0" fill="#FF2A00" opacity="0.7" />
<path d="M2013.98,8.75c0.99,0.34,2.4,1.98,2.38,2.95c-0.07,3.05-0.07,5.24-0.08,8.02" style="fill:none;stroke:#999;stroke-width:3" />
<path d="M1981.27,21.01c0,3.23-2.42,12.09-3.52,14.24" style="fill:none;stroke:#999;stroke-width:3" />
<path d="M1981.37,23.24c12.8-1.99,58.5-4.99,67.84-4.88c12.09,0.14,2.56,6.41-0.45,8.3" style="fill:none;stroke:#999;stroke-width:3" />
<path d="M2004.26,24.25c0.05,0.29,0.22,0.77-0.11,1.16c-3.05,3.56-9.45,7.67-19.4,11.09" style="fill:none;stroke:#999;stroke-width:3" />
<path d="M2023.3400000000001,21.37C2023.7,21.71,2024.0,22.1,2024.0,22.62c0,1.38-0.25,3.79-0.25,5.37c0,3.68,5.16,3.26,9.38,3.26c4.44,0,8.26-0.48,8.88-0.74" style="fill:none;stroke:#999;stroke-width:3" />
<path d="M2004.15,35.56c0.07,0.25,0.1,0.6-0.14,1c-1.91,3.26-13,7.6-24.51,8.94" style="fill:none;stroke:#999;stroke-width:3" />
<path d="M1980.25,50.75c2.08,1.9,5.23,7.29,5.75,10.25" style="fill:none;stroke:#999;stroke-width:3" />
<path d="M2008.2,46.15c0.02,0.31,0.1,0.84-0.04,1.26c-1.13,3.4-2.94,7.41-6.66,12.08" style="fill:none;stroke:#999;stroke-width:3" />
<path d="M1978.25,63.78c0.37,0.12,1.36,0.43,2.34,0.36c4.07-0.28,21.96-1.62,28.06-1.64c0.99,0,1.23-0.12,1.85,0" style="fill:none;stroke:#999;stroke-width:3" />
<path d="M1993.9099999999999,44.68c0.7,0.36,1.12,1.63,1.25,2.36c0.14,0.73,0,46.18-0.14,50.71" style="fill:none;stroke:#999;stroke-width:3" />
<path d="M1995.16,63.51c-3.95,8.38-13.54,20.15-22.41,24.99" style="fill:none;stroke:#999;stroke-width:3" />
<path d="M1996.25,67.5c3.03,1.4,9.75,8.7,10.92,11.68" style="fill:none;stroke:#999;stroke-width:3" />
<path d="M2030.07,37.81c0.67,0.2,1.08,1.25,1.21,1.65c0.13,0.4,0.28,4.99,0.28,9.28" style="fill:none;stroke:#999;stroke-width:3" />
<path d="M2031.9,41.95c4.4-0.19,6.67-0.77,10.99-0.96c1.07-0.05,1.35-0.06,2.02,0" style="fill:none;stroke:#999;stroke-width:3" />
<path d="M2016.93,49.31c0.78,0.57,1.38,1.97,1.48,2.72c0.87,6.22,1.33,9.97,1.77,14.85" style="fill:none;stroke:#999;stroke-width:3" />
<path d="M2018.95,50.49c11.87-1.09,18.32-1.71,26.91-2.13c3.35-0.16,3.19,1.72,3.17,4.14C2049.0,56,2047.99,62.5,2047.36,66.1" style="fill:none;stroke:#999;stroke-width:3" />
<path d="M2033.0,51.89c0.03,0.3,0.05,0.77-0.05,1.19c-0.6,2.51-4.02,8.01-8.72,11.38" style="fill:none;stroke:#999;stroke-width:3" />
<path d="M2033.1,57.08c3.24,0.99,8.36,4.09,9.17,5.63" style="fill:none;stroke:#999;stroke-width:3" />
<path d="M2012.71,70.85c0.62,1.09,1.54,2.48,1.64,3.27c0.48,3.87,1.13,16.82,1.93,24.14" style="fill:none;stroke:black;stroke-width:3" />
<circle cx="2012.71" cy="70.85" r="5" stroke-width="0" fill="#FF2A00" opacity="0.7" />
<path d="M2122.98,8.75c0.99,0.34,2.4,1.98,2.38,2.95c-0.07,3.05-0.07,5.24-0.08,8.02" style="fill:none;stroke:#999;stroke-width:3" />
<path d="M2090.27,21.01c0,3.23-2.42,12.09-3.52,14.24" style="fill:none;stroke:#999;stroke-width:3" />
<path d="M2090.37,23.24c12.8-1.99,58.5-4.99,67.84-4.88c12.09,0.14,2.56,6.41-0.45,8.3" style="fill:none;stroke:#999;stroke-width:3" />
<path d="M2113.26,24.25c0.05,0.29,0.22,0.77-0.11,1.16c-3.05,3.56-9.45,7.67-19.4,11.09" style="fill:none;stroke:#999;stroke-width:3" />
<path d="M2132.34,21.37C2132.7,21.71,2133.0,22.1,2133.0,22.62c0,1.38-0.25,3.79-0.25,5.37c0,3.68,5.16,3.26,9.38,3.26c4.44,0,8.26-0.48,8.88-0.74" style="fill:none;stroke:#999;stroke-width:3" />
<path d="M2113.15,35.56c0.07,0.25,0.1,0.6-0.14,1c-1.91,3.26-13,7.6-24.51,8.94" style="fill:none;stroke:#999;stroke-width:3" />
<path d="M2089.25,50.75c2.08,1.9,5.23,7.29,5.75,10.25" style="fill:none;stroke:#999;stroke-width:3" />
<path d="M2117.2,46.15c0.02,0.31,0.1,0.84-0.04,1.26c-1.13,3.4-2.94,7.41-6.66,12.08" style="fill:none;stroke:#999;stroke-width:3" />
<path d="M2087.25,63.78c0.37,0.12,1.36,0.43,2.34,0.36c4.07-0.28,21.96-1.62,28.06-1.64c0.99,0,1.23-0.12,1.85,0" style="fill:none;stroke:#999;stroke-width:3" />
<path d="M2102.91,44.68c0.7,0.36,1.12,1.63,1.25,2.36c0.14,0.73,0,46.18-0.14,50.71" style="fill:none;stroke:#999;stroke-width:3" />
<path d="M2104.16,63.51c-3.95,8.38-13.54,20.15-22.41,24.99" style="fill:none;stroke:#999;stroke-width:3" />
<path d="M2105.25,67.5c3.03,1.4,9.75,8.7,10.92,11.68" style="fill:none;stroke:#999;stroke-width:3" />
<path d="M2139.0699999999997,37.81c0.67,0.2,1.08,1.25,1.21,1.65c0.13,0.4,0.28,4.99,0.28,9.28" style="fill:none;stroke:#999;stroke-width:3" />
<path d="M2140.9,41.95c4.4-0.19,6.67-0.77,10.99-0.96c1.07-0.05,1.35-0.06,2.02,0" style="fill:none;stroke:#999;stroke-width:3" />
<path d="M2125.9300000000003,49.31c0.78,0.57,1.38,1.97,1.48,2.72c0.87,6.22,1.33,9.97,1.77,14.85" style="fill:none;stroke:#999;stroke-width:3" />
<path d="M2127.95,50.49c11.87-1.09,18.32-1.71,26.91-2.13c3.35-0.16,3.19,1.72,3.17,4.14C2158.0,56,2156.99,62.5,2156.3599999999997,66.1" style="fill:none;stroke:#999;stroke-width:3" />
<path d="M2142.0,51.89c0.03,0.3,0.05,0.77-0.05,1.19c-0.6,2.51-4.02,8.01-8.72,11.38" style="fill:none;stroke:#999;stroke-width:3" />
<path d="M2142.1,57.08c3.24,0.99,8.36,4.09,9.17,5.63" style="fill:none;stroke:#999;stroke-width:3" />
<path d="M2121.71,70.85c0.62,1.09,1.54,2.48,1.64,3.27c0.48,3.87,1.13,16.82,1.93,24.14" style="fill:none;stroke:#999;stroke-width:3" />
<path d="M2122.73,71.69c6.25-0.49,37.96-2.99,39.11-3.23c2.47-0.5,4.1,1.22,4.01,2.7c-0.21,3.56-2.39,18.85-4.34,23.37c-2.43,5.64-3.31,3.47-5.49-0.04" style="fill:none;stroke:black;stroke-width:3" />
<circle cx="2122.73" cy="71.69" r="5" stroke-width="0" fill="#FF2A00" opacity="0.7" />
<path d="M2231.98,8.75c0.99,0.34,2.4,1.98,2.38,2.95c-0.07,3.05-0.07,5.24-0.08,8.02" style="fill:none;stroke:#999;stroke-width:3" />
<path d="M2199.27,21.01c0,3.23-2.42,12.09-3.52,14.24" style="fill:none;stroke:#999;stroke-width:3" />
<path d="M2199.37,23.24c12.8-1.99,58.5-4.99,67.84-4.88c12.09,0.14,2.56,6.41-0.45,8.3" style="fill:none;stroke:#999;stroke-width:3" />
<path d="M2222.26,24.25c0.05,0.29,0.22,0.77-0.11,1.16c-3.05,3.56-9.45,7.67-19.4,11.09" style="fill:none;stroke:#999;stroke-width:3" />
<path d="M2241.34,21.37C2241.7,21.71,2242.0,22.1,2242.0,22.62c0,1.38-0.25,3.79-0.25,5.37c0,3.68,5.16,3.26,9.38,3.26c4.44,0,8.26-0.48,8.88-0.74" style="fill:none;stroke:#999;stroke-width:3" />
<path d="M2222.15,35.56c0.07,0.25,0.1,0.6-0.14,1c-1.91,3.26-13,7.6-24.51,8.94" style="fill:none;stroke:#999;stroke-width:3" />
<path d="M2198.25,50.75c2.08,1.9,5.23,7.29,5.75,10.25" style="fill:none;stroke:#999;stroke-width:3" />
<path d="M2226.2,46.15c0.02,0.31,0.1,0.84-0.04,1.26c-1.13,3.4-2.94,7.41-6.66,12.08" style="fill:none;stroke:#999;stroke-width:3" />
<path d="M2196.25,63.78c0.37,0.12,1.36,0.43,2.34,0.36c4.07-0.28,21.96-1.62,28.06-1.64c0.99,0,1.23-0.12,1.85,0" style="fill:none;stroke:#999;stroke-width:3" />
<path d="M2211.91,44.68c0.7,0.36,1.12,1.63,1.25,2.36c0.14,0.73,0,46.18-0.14,50.71" style="fill:none;stroke:#999;stroke-width:3" />
<path d="M2213.16,63.51c-3.95,8.38-13.54,20.15-22.41,24.99" style="fill:none;stroke:#999;stroke-width:3" />
<path d="M2214.25,67.5c3.03,1.4,9.75,8.7,10.92,11.68" style="fill:none;stroke:#999;stroke-width:3" />
<path d="M2248.0699999999997,37.81c0.67,0.2,1.08,1.25,1.21,1.65c0.13,0.4,0.28,4.99,0.28,9.28" style="fill:none;stroke:#999;stroke-width:3" />
<path d="M2249.9,41.95c4.4-0.19,6.67-0.77,10.99-0.96c1.07-0.05,1.35-0.06,2.02,0" style="fill:none;stroke:#999;stroke-width:3" />
<path d="M2234.9300000000003,49.31c0.78,0.57,1.38,1.97,1.48,2.72c0.87,6.22,1.33,9.97,1.77,14.85" style="fill:none;stroke:#999;stroke-width:3" />
<path d="M2236.95,50.49c11.87-1.09,18.32-1.71,26.91-2.13c3.35-0.16,3.19,1.72,3.17,4.14C2267.0,56,2265.99,62.5,2265.3599999999997,66.1" style="fill:none;stroke:#999;stroke-width:3" />
<path d="M2251.0,51.89c0.03,0.3,0.05,0.77-0.05,1.19c-0.6,2.51-4.02,8.01-8.72,11.38" style="fill:none;stroke:#999;stroke-width:3" />
<path d="M2251.1,57.08c3.24,0.99,8.36,4.09,9.17,5.63" style="fill:none;stroke:#999;stroke-width:3" />
<path d="M2230.71,70.85c0.62,1.09,1.54,2.48,1.64,3.27c0.48,3.87,1.13,16.82,1.93,24.14" style="fill:none;stroke:#999;stroke-width:3" />
<path d="M2231.73,71.69c6.25-0.49,37.96-2.99,39.11-3.23c2.47-0.5,4.1,1.22,4.01,2.7c-0.21,3.56-2.39,18.85-4.34,23.37c-2.43,5.64-3.31,3.47-5.49-0.04" style="fill:none;stroke:#999;stroke-width:3" />
<path d="M2250.75,64.25c0.25,0.45,0.39,2.92,0.25,3.5c-1.78,7.2-5.83,12.5-9.38,17.87c-1.06,1.61-1.06,1.96,0.49,1.61c3.25-0.75,10.64-3.85,17.09-5.37" style="fill:none;stroke:black;stroke-width:3" />
<circle cx="2250.75" cy="64.25" r="5" stroke-width="0" fill="#FF2A00" opacity="0.7" />
<path d="M2340.98,8.75c0.99,0.34,2.4,1.98,2.38,2.95c-0.07,3.05-0.07,5.24-0.08,8.02" style="fill:none;stroke:#999;stroke-width:3" />
<path d="M2308.27,21.01c0,3.23-2.42,12.09-3.52,14.24" style="fill:none;stroke:#999;stroke-width:3" />
<path d="M2308.37,23.24c12.8-1.99,58.5-4.99,67.84-4.88c12.09,0.14,2.56,6.41-0.45,8.3" style="fill:none;stroke:#999;stroke-width:3" />
<path d="M2331.26,24.25c0.05,0.29,0.22,0.77-0.11,1.16c-3.05,3.56-9.45,7.67-19.4,11.09" style="fill:none;stroke:#999;stroke-width:3" />
<path d="M2350.34,21.37C2350.7,21.71,2351.0,22.1,2351.0,22.62c0,1.38-0.25,3.79-0.25,5.37c0,3.68,5.16,3.26,9.38,3.26c4.44,0,8.26-0.48,8.88-0.74" style="fill:none;stroke:#999;stroke-width:3" />
<path d="M2331.15,35.56c0.07,0.25,0.1,0.6-0.14,1c-1.91,3.26-13,7.6-24.51,8.94" style="fill:none;stroke:#999;stroke-width:3" />
<path d="M2307.25,50.75c2.08,1.9,5.23,7.29,5.75,10.25" style="fill:none;stroke:#999;stroke-width:3" />
<path d="M2335.2,46.15c0.02,0.31,0.1,0.84-0.04,1.26c-1.13,3.4-2.94,7.41-6.66,12.08" style="fill:none;stroke:#999;stroke-width:3" />
<path d="M2305.25,63.78c0.37,0.12,1.36,0.43,2.34,0.36c4.07-0.28,21.96-1.62,28.06-1.64c0.99,0,1.23-0.12,1.85,0" style="fill:none;stroke:#999;stroke-width:3" />
<path d="M2320.91,44.68c0.7,0.36,1.12,1.63,1.25,2.36c0.14,0.73,0,46.18-0.14,50.71" style="fill:none;stroke:#999;stroke-width:3" />
<path d="M2322.16,63.51c-3.95,8.38-13.54,20.15-22.41,24.99" style="fill:none;stroke:#999;stroke-width:3" />
<path d="M2323.25,67.5c3.03,1.4,9.75,8.7,10.92,11.68" style="fill:none;stroke:#999;stroke-width:3" />
<path d="M2357.0699999999997,37.81c0.67,0.2,1.08,1.25,1.21,1.65c0.13,0.4,0.28,4.99,0.28,9.28" style="fill:none;stroke:#999;stroke-width:3" />
<path d="M2358.9,41.95c4.4-0.19,6.67-0.77,10.99-0.96c1.07-0.05,1.35-0.06,2.02,0" style="fill:none;stroke:#999;stroke-width:3" />
<path d="M2343.9300000000003,49.31c0.78,0.57,1.38,1.97,1.48,2.72c0.87,6.22,1.33,9.97,1.77,14.85" style="fill:none;stroke:#999;stroke-width:3" />
<path d="M2345.95,50.49c11.87-1.09,18.32-1.71,26.91-2.13c3.35-0.16,3.19,1.72,3.17,4.14C2376.0,56,2374.99,62.5,2374.3599999999997,66.1" style="fill:none;stroke:#999;stroke-width:3" />
<path d="M2360.0,51.89c0.03,0.3,0.05,0.77-0.05,1.19c-0.6,2.51-4.02,8.01-8.72,11.38" style="fill:none;stroke:#999;stroke-width:3" />
<path d="M2360.1,57.08c3.24,0.99,8.36,4.09,9.17,5.63" style="fill:none;stroke:#999;stroke-width:3" />
<path d="M2339.71,70.85c0.62,1.09,1.54,2.48,1.64,3.27c0.48,3.87,1.13,16.82,1.93,24.14" style="fill:none;stroke:#999;stroke-width:3" />
<path d="M2340.73,71.69c6.25-0.49,37.96-2.99,39.11-3.23c2.47-0.5,4.1,1.22,4.01,2.7c-0.21,3.56-2.39,18.85-4.34,23.37c-2.43,5.64-3.31,3.47-5.49-0.04" style="fill:none;stroke:#999;stroke-width:3" />
<path d="M2359.75,64.25c0.25,0.45,0.39,2.92,0.25,3.5c-1.78,7.2-5.83,12.5-9.38,17.87c-1.06,1.61-1.06,1.96,0.49,1.61c3.25-0.75,10.64-3.85,17.09-5.37" style="fill:none;stroke:#999;stroke-width:3" />
<path d="M2363.5,75.75c3.26,2.03,8.43,8.34,9.25,11.5" style="fill:none;stroke:black;stroke-width:3" />
<circle cx="2363.5" cy="75.75" r="5" stroke-width="0" fill="#FF2A00" opacity="0.7" />
</svg>