<svg width="2725px" height="109px" viewBox="0 0 2725px 109px" xmlns="http://www.w3.org/2000/svg" xmlns:xlink="http://www.w3.org/1999/xlink" xml:space="preserve" version="1.1"  baseProfile="full">
<line x1="1" y1="1" x2="2724" y2="1" style="stroke:#ddd;stroke-width:2" />
<line x1="1" y1="1" x2="1" y2="108" style="stroke:#ddd;stroke-width:2" />
<line x1="1" y1="108" x2="2724" y2="108" style="stroke:#ddd;stroke-width:2" />
<line x1="2724" y1="1" x2="2724" y2="108" style="stroke:#ddd;stroke-width:2" />
<line x1="109" y1="1" x2="109" y2="108" style="stroke:#ddd;stroke-width:2" />
<line x1="218" y1="1" x2="218" y2="108" style="stroke:#ddd;stroke-width:2" />
<line x1="327" y1="1" x2="327" y2="108" style="stroke:#ddd;stroke-width:2" />
<line x1="436" y1="1" x2="436" y2="108" style="stroke:#ddd;stroke-width:2" />
<line x1="545" y1="1" x2="545" y2="108" style="stroke:#ddd;stroke-width:2" />
<line x1="654" y1="1" x2="654" y2="108" style="stroke:#ddd;stroke-width:2" />
<line x1="763" y1="1" x2="763" y2="108" style="stroke:#ddd;stroke-width:2" />
<line x1="872" y1="1" x2="872" y2="108" style="stroke:#ddd;stroke-width:2" />
<line x1="981" y1="1" x2="981" y2="108" style="stroke:#ddd;stroke-width:2" />
<line x1="1090" y1="1" x2="1090" y2="108" style="stroke:#ddd;stroke-width:2" />
<line x1="1199" y1="1" x2="1199" y2="108" style="stroke:#ddd;stroke-width:2" />
<line x1="1308" y1="1" x2="1308" y2="108" style="stroke:#ddd;stroke-width:2" />
<line x1="1417" y1="1" x2="1417" y2="108" style="stroke:#ddd;stroke-width:2" />
<line x1="1526" y1="1" x2="1526" y2="108" style="stroke:#ddd;stroke-width:2" />
<line x1="1635" y1="1" x2="1635" y2="108" style="stroke:#ddd;stroke-width:2" />
<line x1="1744" y1="1" x2="1744" y2="108" style="stroke:#ddd;stroke-width:2" />
<line x1="1853" y1="1" x2="1853" y2="108" style="stroke:#ddd;stroke-width:2" />
<line x1="1962" y1="1" x2="1962" y2="108" style="stroke:#ddd;stroke-width:2" />
<line x1="2071" y1="1" x2="2071" y2="108" style="stroke:#ddd;stroke-width:2" />
<line x1="2180" y1="1" x2="2180" y2="108" style="stroke:#ddd;stroke-width:2" />
<line x1="2289" y1="1" x2="2289" y2="108" style="stroke:#ddd;stroke-width:2" />
<line x1="2398" y1="1" x2="2398" y2="108" style="stroke:#ddd;stroke-width:2" />
<line x1="2507" y1="1" x2="2507" y2="108" style="stroke:#ddd;stroke-width:2" />
<line x1="2616" y1="1" x2="2616" y2="108" style="stroke:#ddd;stroke-width:2" />
<line x1="1" y1="54" x2="2724" y2="54" style="stroke:#ddd;stroke-width:2;stroke-dasharray:3 3" />
<line x1="55" y1="1" x2="55" y2="108" style="stroke:#ddd;stroke-width:2;stroke-dasharray:3 3" />
<line x1="164" y1="1" x2="164" y2="108" style="stroke:#ddd;stroke-width:2;stroke-dasharray:3 3" />
<line x1="273" y1="1" x2="273" y2="108" style="stroke:#ddd;stroke-width:2;stroke-dasharray:3 3" />
<line x1="382" y1="1" x2="382" y2="108" style="stroke:#ddd;stroke-width:2;stroke-dasharray:3 3" />
<line x1="491" y1="1" x2="491" y2="108" style="stroke:#ddd;stroke-width:2;stroke-dasharray:3 3" />
<line x1="600" y1="1" x2="600" y2="108" style="stroke:#ddd;stroke-width:2;stroke-dasharray:3 3" />
<line x1="709" y1="1" x2="709" y2="108" style="stroke:#ddd;stroke-width:2;stroke-dasharray:3 3" />
<line x1="818" y1="1" x2="818" y2="108" style="stroke:#ddd;stroke-width:2;stroke-dasharray:3 3" />
<line x1="927" y1="1" x2="927" y2="108" style="stroke:#ddd;stroke-width:2;stroke-dasharray:3 3" />
<line x1="1036" y1="1" x2="1036" y2="108" style="stroke:#ddd;stroke-width:2;stroke-dasharray:3 3" />
<line x1="1145" y1="1" x2="1145" y2="108" style="stroke:#ddd;stroke-width:2;stroke-dasharray:3 3" />
<line x1="1254" y1="1" x2="1254" y2="108" style="stroke:#ddd;stroke-width:2;stroke-dasharray:3 3" />
<line x1="1363" y1="1" x2="1363" y2="108" style="stroke:#ddd;stroke-width:2;stroke-dasharray:3 3" />
<line x1="1472" y1="1" x2="1472" y2="108" style="stroke:#ddd;stroke-width:2;stroke-dasharray:3 3" />
<line x1="1581" y1="1" x2="1581" y2="108" style="stroke:#ddd;stroke-width:2;stroke-dasharray:3 3" />
<line x1="1690" y1="1" x2="1690" y2="108" style="stroke:#ddd;stroke-width:2;stroke-dasharray:3 3" />
<line x1="1799" y1="1" x2="1799" y2="108" style="stroke:#ddd;stroke-width:2;stroke-dasharray:3 3" />
<line x1="1908" y1="1" x2="1908" y2="108" style="stroke:#ddd;stroke-width:2;stroke-dasharray:3 3" />
<line x1="2017" y1="1" x2="2017" y2="108" style="stroke:#ddd;stroke-width:2;stroke-dasharray:3 3" />
<line x1="2126" y1="1" x2="2126" y2="108" style="stroke:#ddd;stroke-width:2;stroke-dasharray:3 3" />
<line x1="2235" y1="1" x2="2235" y2="108" style="stroke:#ddd;stroke-width:2;stroke-dasharray:3 3" />
<line x1="2344" y1="1" x2="2344" y2="108" style="stroke:#ddd;stroke-width:2;stroke-dasharray:3 3" />
<line x1="2453" y1="1" x2="2453" y2="108" style="stroke:#ddd;stroke-width:2;stroke-dasharray:3 3" />
<line x1="2562" y1="1" x2="2562" y2="108" style="stroke:#ddd;stroke-width:2;stroke-dasharray:3 3" />
<line x1="2671" y1="1" x2="2671" y2="108" style="stroke:#ddd;stroke-width:2;stroke-dasharray:3 3" />
<path d="M27.0,9.25c0.04,0.54,0.08,1.4-0.08,2.18C25.96,16.01,20.49,26.08,13.0,32.25" style="fill:none;stroke:black;stroke-width:3" />
<circle cx="27.0" cy="9.25" r="5" stroke-width="0" fill="#FF2A00" opacity="0.7" />
<path d="M136.0,9.25c0.04,0.54,0.08,1.4-0.08,2.18C134.96,16.01,129.49,26.08,122.0,32.25" style="fill:none;stroke:#999;stroke-width:3" />
<path d="M135.98,20.02c4.04,0,18.49-2.26,23.02-2.26" style="fill:none;stroke:black;stroke-width:3" />
<circle cx="135.98" cy="20.02" r="5" stroke-width="0" fill="#FF2A00" opacity="0.7" />
<path d="M245.0,9.25c0.04,0.54,0.08,1.4-0.08,2.18C243.96,16.01,238.49,26.08,231.0,32.25" style="fill:none;stroke:#999;stroke-width:3" />
<path d="M244.98,20.02c4.04,0,18.49-2.26,23.02-2.26" style="fill:none;stroke:#999;stroke-width:3" />
<path d="M251.27,21.33c2.29,1.53,5.91,6.29,6.48,8.67" style="fill:none;stroke:black;stroke-width:3" />
<circle cx="251.27" cy="21.33" r="5" stroke-width="0" fill="#FF2A00" opacity="0.7" />
<path d="M354.0,9.25c0.04,0.54,0.08,1.4-0.08,2.18C352.96000000000004,16.01,347.49,26.08,340.0,32.25" style="fill:none;stroke:#999;stroke-width:3" />
<path d="M353.98,20.02c4.04,0,18.49-2.26,23.02-2.26" style="fill:none;stroke:#999;stroke-width:3" />
<path d="M360.27,21.33c2.29,1.53,5.91,6.29,6.48,8.67" style="fill:none;stroke:#999;stroke-width:3" />
<path d="M387.49,9.5c0.03,0.45,0.13,1.18-0.06,1.82c-1.47,4.77-5.54,11.57-10.93,17.43" style="fill:none;stroke:black;stroke-width:3" />
<circle cx="387.49" cy="9.5" r="5" stroke-width="0" fill="#FF2A00" opacity="0.7" />
<path d="M463.0,9.25c0.04,0.54,0.08,1.4-0.08,2.18C461.96000000000004,16.01,456.49,26.08,449.0,32.25" style="fill:none;stroke:#999;stroke-width:3" />
<path d="M462.98,20.02c4.04,0,18.49-2.26,23.02-2.26" style="fill:none;stroke:#999;stroke-width:3" />
<path d="M469.27,21.33c2.29,1.53,5.91,6.29,6.48,8.67" style="fill:none;stroke:#999;stroke-width:3" />
<path d="M496.49,9.5c0.03,0.45,0.13,1.18-0.06,1.82c-1.47,4.77-5.54,11.57-10.93,17.43" style="fill:none;stroke:#999;stroke-width:3" />
<path d="M495.98,19.16c5.17,0,25.6-3.57,31.4-3.57" style="fill:none;stroke:black;stroke-width:3" />
<circle cx="495.98" cy="19.16" r="5" stroke-width="0" fill="#FF2A00" opacity="0.7" />
<path d="M572.0,9.25c0.04,0.54,0.08,1.4-0.08,2.18C570.96,16.01,565.49,26.08,558.0,32.25" style="fill:none;stroke:#999;stroke-width:3" />
<path d="M571.98,20.02c4.04,0,18.49-2.26,23.02-2.26" style="fill:none;stroke:#999;stroke-width:3" />
<path d="M578.27,21.33c2.29,1.53,5.91,6.29,6.48,8.67" style="fill:none;stroke:#999;stroke-width:3" />
<path d="M605.49,9.5c0.03,0.45,0.13,1.18-0.06,1.82c-1.47,4.77-5.54,11.57-10.93,17.43" style="fill:none;stroke:#999;stroke-width:3" />
<path d="M604.98,19.16c5.17,0,25.6-3.57,31.4-3.57" style="fill:none;stroke:#999;stroke-width:3" />
<path d="M616.75,18.75c0.03,0.28,0.06,0.71-0.06,1.11c-0.7,2.35-4.71,7.49-10.2,10.64" style="fill:none;stroke:black;stroke-width:3" />
<circle cx="616.75" cy="18.75" r="5" stroke-width="0" fill="#FF2A00" opacity="0.7" />
<path d="M681.0,9.25c0.04,0.54,0.08,1.4-0.08,2.18C679.96,16.01,674.49,26.08,667.0,32.25" style="fill:none;stroke:#999;stroke-width:3" />
<path d="M680.98,20.02c4.04,0,18.49-2.26,23.02-2.26" style="fill:none;stroke:#999;stroke-width:3" />
<path d="M687.27,21.33c2.29,1.53,5.91,6.29,6.48,8.67" style="fill:none;stroke:#999;stroke-width:3" />
<path d="M714.49,9.5c0.03,0.45,0.13,1.18-0.06,1.82c-1.47,4.77-5.54,11.57-10.93,17.43" style="fill:none;stroke:#999;stroke-width:3" />
<path d="M713.98,19.16c5.17,0,25.6-3.57,31.4-3.57" style="fill:none;stroke:#999;stroke-width:3" />
<path d="M725.75,18.75c0.03,0.28,0.06,0.71-0.06,1.11c-0.7,2.35-4.71,7.49-10.2,10.64" style="fill:none;stroke:#999;stroke-width:3" />
<path d="M685.82,29.5c0.41,0.22,1.09,1.06,1.09,1.49c0,1.6-0.13,3.37-0.05,4.72" style="fill:none;stroke:black;stroke-width:3" />
<circle cx="685.82" cy="29.5" r="5" stroke-width="0" fill="#FF2A00" opacity="0.7" />
<path d="M790.0,9.25c0.04,0.54,0.08,1.4-0.08,2.18C788.96,16.01,783.49,26.08,776.0,32.25" style="fill:none;stroke:#999;stroke-width:3" />
<path d="M789.98,20.02c4.04,0,18.49-2.26,23.02-2.26" style="fill:none;stroke:#999;stroke-width:3" />
<path d="M796.27,21.33c2.29,1.53,5.91,6.29,6.48,8.67" style="fill:none;stroke:#999;stroke-width:3" />
<path d="M823.49,9.5c0.03,0.45,0.13,1.18-0.06,1.82c-1.47,4.77-5.54,11.57-10.93,17.43" style="fill:none;stroke:#999;stroke-width:3" />
<path d="M822.98,19.16c5.17,0,25.6-3.57,31.4-3.57" style="fill:none;stroke:#999;stroke-width:3" />
<path d="M834.75,18.75c0.03,0.28,0.06,0.71-0.06,1.11c-0.7,2.35-4.71,7.49-10.2,10.64" style="fill:none;stroke:#999;stroke-width:3" />
<path d="M794.82,29.5c0.41,0.22,1.09,1.06,1.09,1.49c0,1.6-0.13,3.37-0.05,4.72" style="fill:none;stroke:#999;stroke-width:3" />
<path d="M775.98,39.36c0.98,0.16,1.84,0.35,2.96,0.22c6.68-0.73,25.23-3.21,33.01-3.59c1.14-0.06,1.73,0.01,2.58,0.28" style="fill:none;stroke:black;stroke-width:3" />
<circle cx="775.98" cy="39.36" r="5" stroke-width="0" fill="#FF2A00" opacity="0.7" />
<path d="M899.0,9.25c0.04,0.54,0.08,1.4-0.08,2.18C897.96,16.01,892.49,26.08,885.0,32.25" style="fill:none;stroke:#999;stroke-width:3" />
<path d="M898.98,20.02c4.04,0,18.49-2.26,23.02-2.26" style="fill:none;stroke:#999;stroke-width:3" />
<path d="M905.27,21.33c2.29,1.53,5.91,6.29,6.48,8.67" style="fill:none;stroke:#999;stroke-width:3" />
<path d="M932.49,9.5c0.03,0.45,0.13,1.18-0.06,1.82c-1.47,4.77-5.54,11.57-10.93,17.43" style="fill:none;stroke:#999;stroke-width:3" />
<path d="M931.98,19.16c5.17,0,25.6-3.57,31.4-3.57" style="fill:none;stroke:#999;stroke-width:3" />
<path d="M943.75,18.75c0.03,0.28,0.06,0.71-0.06,1.11c-0.7,2.35-4.71,7.49-10.2,10.64" style="fill:none;stroke:#999;stroke-width:3" />
<path d="M903.82,29.5c0.41,0.22,1.09,1.06,1.09,1.49c0,1.6-0.13,3.37-0.05,4.72" style="fill:none;stroke:#999;stroke-width:3" />
<path d="M884.98,39.36c0.98,0.16,1.84,0.35,2.96,0.22c6.68-0.73,25.23-3.21,33.01-3.59c1.14-0.06,1.73,0.01,2.58,0.28" style="fill:none;stroke:#999;stroke-width:3" />
<path d="M910.81,40.91c0.22,0.35,0.45,0.63,0.11,1.24c-3.01,5.53-7.5,10.16-13.99,13.06" style="fill:none;stroke:black;stroke-width:3" />
<circle cx="910.81" cy="40.91" r="5" stroke-width="0" fill="#FF2A00" opacity="0.7" />
<path d="M1008.0,9.25c0.04,0.54,0.08,1.4-0.08,2.18C1006.96,16.01,1001.49,26.08,994.0,32.25" style="fill:none;stroke:#999;stroke-width:3" />
<path d="M1007.98,20.02c4.04,0,18.49-2.26,23.02-2.26" style="fill:none;stroke:#999;stroke-width:3" />
<path d="M1014.27,21.33c2.29,1.53,5.91,6.29,6.48,8.67" style="fill:none;stroke:#999;stroke-width:3" />
<path d="M1041.49,9.5c0.03,0.45,0.13,1.18-0.06,1.82c-1.47,4.77-5.54,11.57-10.93,17.43" style="fill:none;stroke:#999;stroke-width:3" />
<path d="M1040.98,19.16c5.17,0,25.6-3.57,31.4-3.57" style="fill:none;stroke:#999;stroke-width:3" />
<path d="M1052.75,18.75c0.03,0.28,0.06,0.71-0.06,1.11c-0.7,2.35-4.71,7.49-10.2,10.64" style="fill:none;stroke:#999;stroke-width:3" />
<path d="M1012.82,29.5c0.41,0.22,1.09,1.06,1.09,1.49c0,1.6-0.13,3.37-0.05,4.72" style="fill:none;stroke:#999;stroke-width:3" />
<path d="M993.98,39.36c0.98,0.16,1.84,0.35,2.96,0.22c6.68-0.73,25.23-3.21,33.01-3.59c1.14-0.06,1.73,0.01,2.58,0.28" style="fill:none;stroke:#999;stroke-width:3" />
<path d="M1019.81,40.91c0.22,0.35,0.45,0.63,0.11,1.24c-3.01,5.53-7.5,10.16-13.99,13.06" style="fill:none;stroke:#999;stroke-width:3" />
<path d="M1007.36,44.36c4.86,1.34,11.85,5.7,14.39,8.89" style="fill:none;stroke:black;stroke-width:3" />
<circle cx="1007.36" cy="44.36" r="5" stroke-width="0" fill="#FF2A00" opacity="0.7" />
<path d="M1117.0,9.25c0.04,0.54,0.08,1.4-0.08,2.18C1115.96,16.01,1110.49,26.08,1103.0,32.25" style="fill:none;stroke:#999;stroke-width:3" />
<path d="M1116.98,20.02c4.04,0,18.49-2.26,23.02-2.26" style="fill:none;stroke:#999;stroke-width:3" />
<path d="M1123.27,21.33c2.29,1.53,5.91,6.29,6.48,8.67" style="fill:none;stroke:#999;stroke-width:3" />
<path d="M1150.49,9.5c0.03,0.45,0.13,1.18-0.06,1.82c-1.47,4.77-5.54,11.57-10.93,17.43" style="fill:none;stroke:#999;stroke-width:3" />
<path d="M1149.98,19.16c5.17,0,25.6-3.57,31.4-3.57" style="fill:none;stroke:#999;stroke-width:3" />
<path d="M1161.75,18.75c0.03,0.28,0.06,0.71-0.06,1.11c-0.7,2.35-4.71,7.49-10.2,10.64" style="fill:none;stroke:#999;stroke-width:3" />
<path d="M1121.8200000000002,29.5c0.41,0.22,1.09,1.06,1.09,1.49c0,1.6-0.13,3.37-0.05,4.72" style="fill:none;stroke:#999;stroke-width:3" />
<path d="M1102.98,39.36c0.98,0.16,1.84,0.35,2.96,0.22c6.68-0.73,25.23-3.21,33.01-3.59c1.14-0.06,1.73,0.01,2.58,0.28" style="fill:none;stroke:#999;stroke-width:3" />
<path d="M1128.81,40.91c0.22,0.35,0.45,0.63,0.11,1.24c-3.01,5.53-7.5,10.16-13.99,13.06" style="fill:none;stroke:#999;stroke-width:3" />
<path d="M1116.3600000000001,44.36c4.86,1.34,11.85,5.7,14.39,8.89" style="fill:none;stroke:#999;stroke-width:3" />
<path d="M1107.98,46.13c0.32,0.11,1.17,1.44,1.18,1.73c0.09,4.9-0.94,11.7-0.9,12.38c0.04,0.67,0.76,0.6,1.36,0.45c8.84-2.18,24.52-2.8,27.87-3.32" style="fill:none;stroke:black;stroke-width:3" />
<circle cx="1107.98" cy="46.13" r="5" stroke-width="0" fill="#FF2A00" opacity="0.7" />
<path d="M1226.0,9.25c0.04,0.54,0.08,1.4-0.08,2.18C1224.96,16.01,1219.49,26.08,1212.0,32.25" style="fill:none;stroke:#999;stroke-width:3" />
<path d="M1225.98,20.02c4.04,0,18.49-2.26,23.02-2.26" style="fill:none;stroke:#999;stroke-width:3" />
<path d="M1232.27,21.33c2.29,1.53,5.91,6.29,6.48,8.67" style="fill:none;stroke:#999;stroke-width:3" />
<path d="M1259.49,9.5c0.03,0.45,0.13,1.18-0.06,1.82c-1.47,4.77-5.54,11.57-10.93,17.43" style="fill:none;stroke:#999;stroke-width:3" />
<path d="M1258.98,19.16c5.17,0,25.6-3.57,31.4-3.57" style="fill:none;stroke:#999;stroke-width:3" />
<path d="M1270.75,18.75c0.03,0.28,0.06,0.71-0.06,1.11c-0.7,2.35-4.71,7.49-10.2,10.64" style="fill:none;stroke:#999;stroke-width:3" />
<path d="M1230.8200000000002,29.5c0.41,0.22,1.09,1.06,1.09,1.49c0,1.6-0.13,3.37-0.05,4.72" style="fill:none;stroke:#999;stroke-width:3" />
<path d="M1211.98,39.36c0.98,0.16,1.84,0.35,2.96,0.22c6.68-0.73,25.23-3.21,33.01-3.59c1.14-0.06,1.73,0.01,2.58,0.28" style="fill:none;stroke:#999;stroke-width:3" />
<path d="M1237.81,40.91c0.22,0.35,0.45,0.63,0.11,1.24c-3.01,5.53-7.5,10.16-13.99,13.06" style="fill:none;stroke:#999;stroke-width:3" />
<path d="M1225.3600000000001,44.36c4.86,1.34,11.85,5.7,14.39,8.89" style="fill:none;stroke:#999;stroke-width:3" />
<path d="M1216.98,46.13c0.32,0.11,1.17,1.44,1.18,1.73c0.09,4.9-0.94,11.7-0.9,12.38c0.04,0.67,0.76,0.6,1.36,0.45c8.84-2.18,24.52-2.8,27.87-3.32" style="fill:none;stroke:#999;stroke-width:3" />
<path d="M1246.97,42.67c0.34,0.16,1.05,1.23,1.12,1.56c0.07,0.33-1.26,9.03-1.56,15.48" style="fill:none;stroke:black;stroke-width:3" />
<circle cx="1246.97" cy="42.67" r="5" stroke-width="0" fill="#FF2A00" opacity="0.7" />
<path d="M1335.0,9.25c0.04,0.54,0.08,1.4-0.08,2.18C1333.96,16.01,1328.49,26.08,1321.0,32.25" style="fill:none;stroke:#999;stroke-width:3" />
<path d="M1334.98,20.02c4.04,0,18.49-2.26,23.02-2.26" style="fill:none;stroke:#999;stroke-width:3" />
<path d="M1341.27,21.33c2.29,1.53,5.91,6.29,6.48,8.67" style="fill:none;stroke:#999;stroke-width:3" />
<path d="M1368.49,9.5c0.03,0.45,0.13,1.18-0.06,1.82c-1.47,4.77-5.54,11.57-10.93,17.43" style="fill:none;stroke:#999;stroke-width:3" />
<path d="M1367.98,19.16c5.17,0,25.6-3.57,31.4-3.57" style="fill:none;stroke:#999;stroke-width:3" />
<path d="M1379.75,18.75c0.03,0.28,0.06,0.71-0.06,1.11c-0.7,2.35-4.71,7.49-10.2,10.64" style="fill:none;stroke:#999;stroke-width:3" />
<path d="M1339.8200000000002,29.5c0.41,0.22,1.09,1.06,1.09,1.49c0,1.6-0.13,3.37-0.05,4.72" style="fill:none;stroke:#999;stroke-width:3" />
<path d="M1320.98,39.36c0.98,0.16,1.84,0.35,2.96,0.22c6.68-0.73,25.23-3.21,33.01-3.59c1.14-0.06,1.73,0.01,2.58,0.28" style="fill:none;stroke:#999;stroke-width:3" />
<path d="M1346.81,40.91c0.22,0.35,0.45,0.63,0.11,1.24c-3.01,5.53-7.5,10.16-13.99,13.06" style="fill:none;stroke:#999;stroke-width:3" />
<path d="M1334.3600000000001,44.36c4.86,1.34,11.85,5.7,14.39,8.89" style="fill:none;stroke:#999;stroke-width:3" />
<path d="M1325.98,46.13c0.32,0.11,1.17,1.44,1.18,1.73c0.09,4.9-0.94,11.7-0.9,12.38c0.04,0.67,0.76,0.6,1.36,0.45c8.84-2.18,24.52-2.8,27.87-3.32" style="fill:none;stroke:#999;stroke-width:3" />
<path d="M1355.97,42.67c0.34,0.16,1.05,1.23,1.12,1.56c0.07,0.33-1.26,9.03-1.56,15.48" style="fill:none;stroke:#999;stroke-width:3" />
<path d="M1322.86,69.24c0.39,1.26,1.16,2.49,1.16,3.86C1324.0,77,1325.72,96.37,1325.7,98.74" style="fill:none;stroke:black;stroke-width:3" />
<circle cx="1322.86" cy="69.24" r="5" stroke-width="0" fill="#FF2A00" opacity="0.7" />
<path d="M1444.0,9.25c0.04,0.54,0.08,1.4-0.08,2.18C1442.96,16.01,1437.49,26.08,1430.0,32.25" style="fill:none;stroke:#999;stroke-width:3" />
<path d="M1443.98,20.02c4.04,0,18.49-2.26,23.02-2.26" style="fill:none;stroke:#999;stroke-width:3" />
<path d="M1450.27,21.33c2.29,1.53,5.91,6.29,6.48,8.67" style="fill:none;stroke:#999;stroke-width:3" />
<path d="M1477.49,9.5c0.03,0.45,0.13,1.18-0.06,1.82c-1.47,4.77-5.54,11.57-10.93,17.43" style="fill:none;stroke:#999;stroke-width:3" />
<path d="M1476.98,19.16c5.17,0,25.6-3.57,31.4-3.57" style="fill:none;stroke:#999;stroke-width:3" />
<path d="M1488.75,18.75c0.03,0.28,0.06,0.71-0.06,1.11c-0.7,2.35-4.71,7.49-10.2,10.64" style="fill:none;stroke:#999;stroke-width:3" />
<path d="M1448.8200000000002,29.5c0.41,0.22,1.09,1.06,1.09,1.49c0,1.6-0.13,3.37-0.05,4.72" style="fill:none;stroke:#999;stroke-width:3" />
<path d="M1429.98,39.36c0.98,0.16,1.84,0.35,2.96,0.22c6.68-0.73,25.23-3.21,33.01-3.59c1.14-0.06,1.73,0.01,2.58,0.28" style="fill:none;stroke:#999;stroke-width:3" />
<path d="M1455.81,40.91c0.22,0.35,0.45,0.63,0.11,1.24c-3.01,5.53-7.5,10.16-13.99,13.06" style="fill:none;stroke:#999;stroke-width:3" />
<path d="M1443.3600000000001,44.36c4.86,1.34,11.85,5.7,14.39,8.89" style="fill:none;stroke:#999;stroke-width:3" />
<path d="M1434.98,46.13c0.32,0.11,1.17,1.44,1.18,1.73c0.09,4.9-0.94,11.7-0.9,12.38c0.04,0.67,0.76,0.6,1.36,0.45c8.84-2.18,24.52-2.8,27.87-3.32" style="fill:none;stroke:#999;stroke-width:3" />
<path d="M1464.97,42.67c0.34,0.16,1.05,1.23,1.12,1.56c0.07,0.33-1.26,9.03-1.56,15.48" style="fill:none;stroke:#999;stroke-width:3" />
<path d="M1431.86,69.24c0.39,1.26,1.16,2.49,1.16,3.86C1433.0,77,1434.72,96.37,1434.7,98.74" style="fill:none;stroke:#999;stroke-width:3" />
<path d="M1432.51,71.37c4.74-0.68,33.54-4.89,34.49-4.89c1.37,0,2.25,0.5,2.25,2.03c0,3.21-2.23,19.97-3.13,24.76c-1.45,7.75-4.87,2.85-6.14,1.25" style="fill:none;stroke:black;stroke-width:3" />
<circle cx="1432.51" cy="71.37" r="5" stroke-width="0" fill="#FF2A00" opacity="0.7" />
<path d="M1553.0,9.25c0.04,0.54,0.08,1.4-0.08,2.18C1551.96,16.01,1546.49,26.08,1539.0,32.25" style="fill:none;stroke:#999;stroke-width:3" />
<path d="M1552.98,20.02c4.04,0,18.49-2.26,23.02-2.26" style="fill:none;stroke:#999;stroke-width:3" />
<path d="M1559.27,21.33c2.29,1.53,5.91,6.29,6.48,8.67" style="fill:none;stroke:#999;stroke-width:3" />
<path d="M1586.49,9.5c0.03,0.45,0.13,1.18-0.06,1.82c-1.47,4.77-5.54,11.57-10.93,17.43" style="fill:none;stroke:#999;stroke-width:3" />
<path d="M1585.98,19.16c5.17,0,25.6-3.57,31.4-3.57" style="fill:none;stroke:#999;stroke-width:3" />
<path d="M1597.75,18.75c0.03,0.28,0.06,0.71-0.06,1.11c-0.7,2.35-4.71,7.49-10.2,10.64" style="fill:none;stroke:#999;stroke-width:3" />
<path d="M1557.8200000000002,29.5c0.41,0.22,1.09,1.06,1.09,1.49c0,1.6-0.13,3.37-0.05,4.72" style="fill:none;stroke:#999;stroke-width:3" />
<path d="M1538.98,39.36c0.98,0.16,1.84,0.35,2.96,0.22c6.68-0.73,25.23-3.21,33.01-3.59c1.14-0.06,1.73,0.01,2.58,0.28" style="fill:none;stroke:#999;stroke-width:3" />
<path d="M1564.81,40.91c0.22,0.35,0.45,0.63,0.11,1.24c-3.01,5.53-7.5,10.16-13.99,13.06" style="fill:none;stroke:#999;stroke-width:3" />
<path d="M1552.3600000000001,44.36c4.86,1.34,11.85,5.7,14.39,8.89" style="fill:none;stroke:#999;stroke-width:3" />
<path d="M1543.98,46.13c0.32,0.11,1.17,1.44,1.18,1.73c0.09,4.9-0.94,11.7-0.9,12.38c0.04,0.67,0.76,0.6,1.36,0.45c8.84-2.18,24.52-2.8,27.87-3.32" style="fill:none;stroke:#999;stroke-width:3" />
<path d="M1573.97,42.67c0.34,0.16,1.05,1.23,1.12,1.56c0.07,0.33-1.26,9.03-1.56,15.48" style="fill:none;stroke:#999;stroke-width:3" />
<path d="M1540.86,69.24c0.39,1.26,1.16,2.49,1.16,3.86C1542.0,77,1543.72,96.37,1543.7,98.74" style="fill:none;stroke:#999;stroke-width:3" />
<path d="M1541.51,71.37c4.74-0.68,33.54-4.89,34.49-4.89c1.37,0,2.25,0.5,2.25,2.03c0,3.21-2.23,19.97-3.13,24.76c-1.45,7.75-4.87,2.85-6.14,1.25" style="fill:none;stroke:#999;stroke-width:3" />
<path d="M1558.68,61.7c0.74,0.74,0.84,2.05,0.84,2.84c0,5.46-0.02,8.21-0.02,16.21" style="fill:none;stroke:black;stroke-width:3" />
<circle cx="1558.68" cy="61.7" r="5" stroke-width="0" fill="#FF2A00" opacity="0.7" />
<path d="M1662.0,9.25c0.04,0.54,0.08,1.4-0.08,2.18C1660.96,16.01,1655.49,26.08,1648.0,32.25" style="fill:none;stroke:#999;stroke-width:3" />
<path d="M1661.98,20.02c4.04,0,18.49-2.26,23.02-2.26" style="fill:none;stroke:#999;stroke-width:3" />
<path d="M1668.27,21.33c2.29,1.53,5.91,6.29,6.48,8.67" style="fill:none;stroke:#999;stroke-width:3" />
<path d="M1695.49,9.5c0.03,0.45,0.13,1.18-0.06,1.82c-1.47,4.77-5.54,11.57-10.93,17.43" style="fill:none;stroke:#999;stroke-width:3" />
<path d="M1694.98,19.16c5.17,0,25.6-3.57,31.4-3.57" style="fill:none;stroke:#999;stroke-width:3" />
<path d="M1706.75,18.75c0.03,0.28,0.06,0.71-0.06,1.11c-0.7,2.35-4.71,7.49-10.2,10.64" style="fill:none;stroke:#999;stroke-width:3" />
<path d="M1666.8200000000002,29.5c0.41,0.22,1.09,1.06,1.09,1.49c0,1.6-0.13,3.37-0.05,4.72" style="fill:none;stroke:#999;stroke-width:3" />
<path d="M1647.98,39.36c0.98,0.16,1.84,0.35,2.96,0.22c6.68-0.73,25.23-3.21,33.01-3.59c1.14-0.06,1.73,0.01,2.58,0.28" style="fill:none;stroke:#999;stroke-width:3" />
<path d="M1673.81,40.91c0.22,0.35,0.45,0.63,0.11,1.24c-3.01,5.53-7.5,10.16-13.99,13.06" style="fill:none;stroke:#999;stroke-width:3" />
<path d="M1661.3600000000001,44.36c4.86,1.34,11.85,5.7,14.39,8.89" style="fill:none;stroke:#999;stroke-width:3" />
<path d="M1652.98,46.13c0.32,0.11,1.17,1.44,1.18,1.73c0.09,4.9-0.94,11.7-0.9,12.38c0.04,0.67,0.76,0.6,1.36,0.45c8.84-2.18,24.52-2.8,27.87-3.32" style="fill:none;stroke:#999;stroke-width:3" />
<path d="M1682.97,42.67c0.34,0.16,1.05,1.23,1.12,1.56c0.07,0.33-1.26,9.03-1.56,15.48" style="fill:none;stroke:#999;stroke-width:3" />
<path d="M1649.86,69.24c0.39,1.26,1.16,2.49,1.16,3.86C1651.0,77,1652.72,96.37,1652.7,98.74" style="fill:none;stroke:#999;stroke-width:3" />
<path d="M1650.51,71.37c4.74-0.68,33.54-4.89,34.49-4.89c1.37,0,2.25,0.5,2.25,2.03c0,3.21-2.23,19.97-3.13,24.76c-1.45,7.75-4.87,2.85-6.14,1.25" style="fill:none;stroke:#999;stroke-width:3" />
<path d="M1667.68,61.7c0.74,0.74,0.84,2.05,0.84,2.84c0,5.46-0.02,8.21-0.02,16.21" style="fill:none;stroke:#999;stroke-width:3" />
<path d="M1660.72,84.65c4.53-1.65,7.17-2.4,15.03-4.73" style="fill:none;stroke:black;stroke-width:3" />
<circle cx="1660.72" cy="84.65" r="5" stroke-width="0" fill="#FF2A00" opacity="0.7" />
<path d="M1771.0,9.25c0.04,0.54,0.08,1.4-0.08,2.18C1769.96,16.01,1764.49,26.08,1757.0,32.25" style="fill:none;stroke:#999;stroke-width:3" />
<path d="M1770.98,20.02c4.04,0,18.49-2.26,23.02-2.26" style="fill:none;stroke:#999;stroke-width:3" />
<path d="M1777.27,21.33c2.29,1.53,5.91,6.29,6.48,8.67" style="fill:none;stroke:#999;stroke-width:3" />
<path d="M1804.49,9.5c0.03,0.45,0.13,1.18-0.06,1.82c-1.47,4.77-5.54,11.57-10.93,17.43" style="fill:none;stroke:#999;stroke-width:3" />
<path d="M1803.98,19.16c5.17,0,25.6-3.57,31.4-3.57" style="fill:none;stroke:#999;stroke-width:3" />
<path d="M1815.75,18.75c0.03,0.28,0.06,0.71-0.06,1.11c-0.7,2.35-4.71,7.49-10.2,10.64" style="fill:none;stroke:#999;stroke-width:3" />
<path d="M1775.8200000000002,29.5c0.41,0.22,1.09,1.06,1.09,1.49c0,1.6-0.13,3.37-0.05,4.72" style="fill:none;stroke:#999;stroke-width:3" />
<path d="M1756.98,39.36c0.98,0.16,1.84,0.35,2.96,0.22c6.68-0.73,25.23-3.21,33.01-3.59c1.14-0.06,1.73,0.01,2.58,0.28" style="fill:none;stroke:#999;stroke-width:3" />
<path d="M1782.81,40.91c0.22,0.35,0.45,0.63,0.11,1.24c-3.01,5.53-7.5,10.16-13.99,13.06" style="fill:none;stroke:#999;stroke-width:3" />
<path d="M1770.3600000000001,44.36c4.86,1.34,11.85,5.7,14.39,8.89" style="fill:none;stroke:#999;stroke-width:3" />
<path d="M1761.98,46.13c0.32,0.11,1.17,1.44,1.18,1.73c0.09,4.9-0.94,11.7-0.9,12.38c0.04,0.67,0.76,0.6,1.36,0.45c8.84-2.18,24.52-2.8,27.87-3.32" style="fill:none;stroke:#999;stroke-width:3" />
<path d="M1791.97,42.67c0.34,0.16,1.05,1.23,1.12,1.56c0.07,0.33-1.26,9.03-1.56,15.48" style="fill:none;stroke:#999;stroke-width:3" />
<path d="M1758.86,69.24c0.39,1.26,1.16,2.49,1.16,3.86C1760.0,77,1761.72,96.37,1761.7,98.74" style="fill:none;stroke:#999;stroke-width:3" />
<path d="M1759.51,71.37c4.74-0.68,33.54-4.89,34.49-4.89c1.37,0,2.25,0.5,2.25,2.03c0,3.21-2.23,19.97-3.13,24.76c-1.45,7.75-4.87,2.85-6.14,1.25" style="fill:none;stroke:#999;stroke-width:3" />
<path d="M1776.68,61.7c0.74,0.74,0.84,2.05,0.84,2.84c0,5.46-0.02,8.21-0.02,16.21" style="fill:none;stroke:#999;stroke-width:3" />
<path d="M1769.72,84.65c4.53-1.65,7.17-2.4,15.03-4.73" style="fill:none;stroke:#999;stroke-width:3" />
<path d="M1781.51,73.85c2.02,2.01,5.23,8.27,5.74,11.4" style="fill:none;stroke:black;stroke-width:3" />
<circle cx="1781.51" cy="73.85" r="5" stroke-width="0" fill="#FF2A00" opacity="0.7" />
<path d="M1880.0,9.25c0.04,0.54,0.08,1.4-0.08,2.18C1878.96,16.01,1873.49,26.08,1866.0,32.25" style="fill:none;stroke:#999;stroke-width:3" />
<path d="M1879.98,20.02c4.04,0,18.49-2.26,23.02-2.26" style="fill:none;stroke:#999;stroke-width:3" />
<path d="M1886.27,21.33c2.29,1.53,5.91,6.29,6.48,8.67" style="fill:none;stroke:#999;stroke-width:3" />
<path d="M1913.49,9.5c0.03,0.45,0.13,1.18-0.06,1.82c-1.47,4.77-5.54,11.57-10.93,17.43" style="fill:none;stroke:#999;stroke-width:3" />
<path d="M1912.98,19.16c5.17,0,25.6-3.57,31.4-3.57" style="fill:none;stroke:#999;stroke-width:3" />
<path d="M1924.75,18.75c0.03,0.28,0.06,0.71-0.06,1.11c-0.7,2.35-4.71,7.49-10.2,10.64" style="fill:none;stroke:#999;stroke-width:3" />
<path d="M1884.8200000000002,29.5c0.41,0.22,1.09,1.06,1.09,1.49c0,1.6-0.13,3.37-0.05,4.72" style="fill:none;stroke:#999;stroke-width:3" />
<path d="M1865.98,39.36c0.98,0.16,1.84,0.35,2.96,0.22c6.68-0.73,25.23-3.21,33.01-3.59c1.14-0.06,1.73,0.01,2.58,0.28" style="fill:none;stroke:#999;stroke-width:3" />
<path d="M1891.81,40.91c0.22,0.35,0.45,0.63,0.11,1.24c-3.01,5.53-7.5,10.16-13.99,13.06" style="fill:none;stroke:#999;stroke-width:3" />
<path d="M1879.3600000000001,44.36c4.86,1.34,11.85,5.7,14.39,8.89" style="fill:none;stroke:#999;stroke-width:3" />
<path d="M1870.98,46.13c0.32,0.11,1.17,1.44,1.18,1.73c0.09,4.9-0.94,11.7-0.9,12.38c0.04,0.67,0.76,0.6,1.36,0.45c8.84-2.18,24.52-2.8,27.87-3.32" style="fill:none;stroke:#999;stroke-width:3" />
<path d="M1900.97,42.67c0.34,0.16,1.05,1.23,1.12,1.56c0.07,0.33-1.26,9.03-1.56,15.48" style="fill:none;stroke:#999;stroke-width:3" />
<path d="M1867.86,69.24c0.39,1.26,1.16,2.49,1.16,3.86C1869.0,77,1870.72,96.37,1870.7,98.74" style="fill:none;stroke:#999;stroke-width:3" />
<path d="M1868.51,71.37c4.74-0.68,33.54-4.89,34.49-4.89c1.37,0,2.25,0.5,2.25,2.03c0,3.21-2.23,19.97-3.13,24.76c-1.45,7.75-4.87,2.85-6.14,1.25" style="fill:none;stroke:#999;stroke-width:3" />
<path d="M1885.68,61.7c0.74,0.74,0.84,2.05,0.84,2.84c0,5.46-0.02,8.21-0.02,16.21" style="fill:none;stroke:#999;stroke-width:3" />
<path d="M1878.72,84.65c4.53-1.65,7.17-2.4,15.03-4.73" style="fill:none;stroke:#999;stroke-width:3" />
<path d="M1890.51,73.85c2.02,2.01,5.23,8.27,5.74,11.4" style="fill:none;stroke:#999;stroke-width:3" />
<path d="M1919.88,30.73c0.15,1.38-0.04,3.19-0.51,4.38c-2.99,7.55-6.77,13.95-13.62,23.14" style="fill:none;stroke:black;stroke-width:3" />
<circle cx="1919.88" cy="30.73" r="5" stroke-width="0" fill="#FF2A00" opacity="0.7" />
<path d="M1989.0,9.25c0.04,0.54,0.08,1.4-0.08,2.18C1987.96,16.01,1982.49,26.08,1975.0,32.25" style="fill:none;stroke:#999;stroke-width:3" />
<path d="M1988.98,20.02c4.04,0,18.49-2.26,23.02-2.26" style="fill:none;stroke:#999;stroke-width:3" />
<path d="M1995.27,21.33c2.29,1.53,5.91,6.29,6.48,8.67" style="fill:none;stroke:#999;stroke-width:3" />
<path d="M2022.49,9.5c0.03,0.45,0.13,1.18-0.06,1.82c-1.47,4.77-5.54,11.57-10.93,17.43" style="fill:none;stroke:#999;stroke-width:3" />
<path d="M2021.98,19.16c5.17,0,25.6-3.57,31.4-3.57" style="fill:none;stroke:#999;stroke-width:3" />
<path d="M2033.75,18.75c0.03,0.28,0.06,0.71-0.06,1.11c-0.7,2.35-4.71,7.49-10.2,10.64" style="fill:none;stroke:#999;stroke-width:3" />
<path d="M1993.8200000000002,29.5c0.41,0.22,1.09,1.06,1.09,1.49c0,1.6-0.13,3.37-0.05,4.72" style="fill:none;stroke:#999;stroke-width:3" />
<path d="M1974.98,39.36c0.98,0.16,1.84,0.35,2.96,0.22c6.68-0.73,25.23-3.21,33.01-3.59c1.14-0.06,1.73,0.01,2.58,0.28" style="fill:none;stroke:#999;stroke-width:3" />
<path d="M2000.81,40.91c0.22,0.35,0.45,0.63,0.11,1.24c-3.01,5.53-7.5,10.16-13.99,13.06" style="fill:none;stroke:#999;stroke-width:3" />
<path d="M1988.3600000000001,44.36c4.86,1.34,11.85,5.7,14.39,8.89" style="fill:none;stroke:#999;stroke-width:3" />
<path d="M1979.98,46.13c0.32,0.11,1.17,1.44,1.18,1.73c0.09,4.9-0.94,11.7-0.9,12.38c0.04,0.67,0.76,0.6,1.36,0.45c8.84-2.18,24.52-2.8,27.87-3.32" style="fill:none;stroke:#999;stroke-width:3" />
<path d="M2009.97,42.67c0.34,0.16,1.05,1.23,1.12,1.56c0.07,0.33-1.26,9.03-1.56,15.48" style="fill:none;stroke:#999;stroke-width:3" />
<path d="M1976.86,69.24c0.39,1.26,1.16,2.49,1.16,3.86C1978.0,77,1979.72,96.37,1979.7,98.74" style="fill:none;stroke:#999;stroke-width:3" />
<path d="M1977.51,71.37c4.74-0.68,33.54-4.89,34.49-4.89c1.37,0,2.25,0.5,2.25,2.03c0,3.21-2.23,19.97-3.13,24.76c-1.45,7.75-4.87,2.85-6.14,1.25" style="fill:none;stroke:#999;stroke-width:3" />
<path d="M1994.68,61.7c0.74,0.74,0.84,2.05,0.84,2.84c0,5.46-0.02,8.21-0.02,16.21" style="fill:none;stroke:#999;stroke-width:3" />
<path d="M1987.72,84.65c4.53-1.65,7.17-2.4,15.03-4.73" style="fill:none;stroke:#999;stroke-width:3" />
<path d="M1999.51,73.85c2.02,2.01,5.23,8.27,5.74,11.4" style="fill:none;stroke:#999;stroke-width:3" />
<path d="M2028.88,30.73c0.15,1.38-0.04,3.19-0.51,4.38c-2.99,7.55-6.77,13.95-13.62,23.14" style="fill:none;stroke:#999;stroke-width:3" />
<path d="M2023.88,47.9c0.18,0.74,0.31,2.36,0.33,3.5c0.1,10.2-0.14,42.29-0.06,47.6" style="fill:none;stroke:black;stroke-width:3" />
<circle cx="2023.88" cy="47.9" r="5" stroke-width="0" fill="#FF2A00" opacity="0.7" />
<path d="M2098.0,9.25c0.04,0.54,0.08,1.4-0.08,2.18C2096.96,16.01,2091.49,26.08,2084.0,32.25" style="fill:none;stroke:#999;stroke-width:3" />
<path d="M2097.98,20.02c4.04,0,18.49-2.26,23.02-2.26" style="fill:none;stroke:#999;stroke-width:3" />
<path d="M2104.27,21.33c2.29,1.53,5.91,6.29,6.48,8.67" style="fill:none;stroke:#999;stroke-width:3" />
<path d="M2131.49,9.5c0.03,0.45,0.13,1.18-0.06,1.82c-1.47,4.77-5.54,11.57-10.93,17.43" style="fill:none;stroke:#999;stroke-width:3" />
<path d="M2130.98,19.16c5.17,0,25.6-3.57,31.4-3.57" style="fill:none;stroke:#999;stroke-width:3" />
<path d="M2142.75,18.75c0.03,0.28,0.06,0.71-0.06,1.11c-0.7,2.35-4.71,7.49-10.2,10.64" style="fill:none;stroke:#999;stroke-width:3" />
<path d="M2102.82,29.5c0.41,0.22,1.09,1.06,1.09,1.49c0,1.6-0.13,3.37-0.05,4.72" style="fill:none;stroke:#999;stroke-width:3" />
<path d="M2083.98,39.36c0.98,0.16,1.84,0.35,2.96,0.22c6.68-0.73,25.23-3.21,33.01-3.59c1.14-0.06,1.73,0.01,2.58,0.28" style="fill:none;stroke:#999;stroke-width:3" />
<path d="M2109.81,40.91c0.22,0.35,0.45,0.63,0.11,1.24c-3.01,5.53-7.5,10.16-13.99,13.06" style="fill:none;stroke:#999;stroke-width:3" />
<path d="M2097.36,44.36c4.86,1.34,11.85,5.7,14.39,8.89" style="fill:none;stroke:#999;stroke-width:3" />
<path d="M2088.98,46.13c0.32,0.11,1.17,1.44,1.18,1.73c0.09,4.9-0.94,11.7-0.9,12.38c0.04,0.67,0.76,0.6,1.36,0.45c8.84-2.18,24.52-2.8,27.87-3.32" style="fill:none;stroke:#999;stroke-width:3" />
<path d="M2118.9700000000003,42.67c0.34,0.16,1.05,1.23,1.12,1.56c0.07,0.33-1.26,9.03-1.56,15.48" style="fill:none;stroke:#999;stroke-width:3" />
<path d="M2085.8599999999997,69.24c0.39,1.26,1.16,2.49,1.16,3.86C2087.0,77,2088.7200000000003,96.37,2088.7,98.74" style="fill:none;stroke:#999;stroke-width:3" />
<path d="M2086.51,71.37c4.74-0.68,33.54-4.89,34.49-4.89c1.37,0,2.25,0.5,2.25,2.03c0,3.21-2.23,19.97-3.13,24.76c-1.45,7.75-4.87,2.85-6.14,1.25" style="fill:none;stroke:#999;stroke-width:3" />
<path d="M2103.6800000000003,61.7c0.74,0.74,0.84,2.05,0.84,2.84c0,5.46-0.02,8.21-0.02,16.21" style="fill:none;stroke:#999;stroke-width:3" />
<path d="M2096.7200000000003,84.65c4.53-1.65,7.17-2.4,15.03-4.73" style="fill:none;stroke:#999;stroke-width:3" />
<path d="M2108.51,73.85c2.02,2.01,5.23,8.27,5.74,11.4" style="fill:none;stroke:#999;stroke-width:3" />
<path d="M2137.88,30.73c0.15,1.38-0.04,3.19-0.51,4.38c-2.99,7.55-6.77,13.95-13.62,23.14" style="fill:none;stroke:#999;stroke-width:3" />
<path d="M2132.88,47.9c0.18,0.74,0.31,2.36,0.33,3.5c0.1,10.2-0.14,42.29-0.06,47.6" style="fill:none;stroke:#999;stroke-width:3" />
<path d="M2154.2,30.16c0.06,0.7-0.02,1.62-0.21,2.22c-1.23,3.83-2.78,6.78-5.6,11.44" style="fill:none;stroke:black;stroke-width:3" />
<circle cx="2154.2" cy="30.16" r="5" stroke-width="0" fill="#FF2A00" opacity="0.7" />
<path d="M2207.0,9.25c0.04,0.54,0.08,1.4-0.08,2.18C2205.96,16.01,2200.49,26.08,2193.0,32.25" style="fill:none;stroke:#999;stroke-width:3" />
<path d="M2206.98,20.02c4.04,0,18.49-2.26,23.02-2.26" style="fill:none;stroke:#999;stroke-width:3" />
<path d="M2213.27,21.33c2.29,1.53,5.91,6.29,6.48,8.67" style="fill:none;stroke:#999;stroke-width:3" />
<path d="M2240.49,9.5c0.03,0.45,0.13,1.18-0.06,1.82c-1.47,4.77-5.54,11.57-10.93,17.43" style="fill:none;stroke:#999;stroke-width:3" />
<path d="M2239.98,19.16c5.17,0,25.6-3.57,31.4-3.57" style="fill:none;stroke:#999;stroke-width:3" />
<path d="M2251.75,18.75c0.03,0.28,0.06,0.71-0.06,1.11c-0.7,2.35-4.71,7.49-10.2,10.64" style="fill:none;stroke:#999;stroke-width:3" />
<path d="M2211.82,29.5c0.41,0.22,1.09,1.06,1.09,1.49c0,1.6-0.13,3.37-0.05,4.72" style="fill:none;stroke:#999;stroke-width:3" />
<path d="M2192.98,39.36c0.98,0.16,1.84,0.35,2.96,0.22c6.68-0.73,25.23-3.21,33.01-3.59c1.14-0.06,1.73,0.01,2.58,0.28" style="fill:none;stroke:#999;stroke-width:3" />
<path d="M2218.81,40.91c0.22,0.35,0.45,0.63,0.11,1.24c-3.01,5.53-7.5,10.16-13.99,13.06" style="fill:none;stroke:#999;stroke-width:3" />
<path d="M2206.36,44.36c4.86,1.34,11.85,5.7,14.39,8.89" style="fill:none;stroke:#999;stroke-width:3" />
<path d="M2197.98,46.13c0.32,0.11,1.17,1.44,1.18,1.73c0.09,4.9-0.94,11.7-0.9,12.38c0.04,0.67,0.76,0.6,1.36,0.45c8.84-2.18,24.52-2.8,27.87-3.32" style="fill:none;stroke:#999;stroke-width:3" />
<path d="M2227.9700000000003,42.67c0.34,0.16,1.05,1.23,1.12,1.56c0.07,0.33-1.26,9.03-1.56,15.48" style="fill:none;stroke:#999;stroke-width:3" />
<path d="M2194.8599999999997,69.24c0.39,1.26,1.16,2.49,1.16,3.86C2196.0,77,2197.7200000000003,96.37,2197.7,98.74" style="fill:none;stroke:#999;stroke-width:3" />
<path d="M2195.51,71.37c4.74-0.68,33.54-4.89,34.49-4.89c1.37,0,2.25,0.5,2.25,2.03c0,3.21-2.23,19.97-3.13,24.76c-1.45,7.75-4.87,2.85-6.14,1.25" style="fill:none;stroke:#999;stroke-width:3" />
<path d="M2212.6800000000003,61.7c0.74,0.74,0.84,2.05,0.84,2.84c0,5.46-0.02,8.21-0.02,16.21" style="fill:none;stroke:#999;stroke-width:3" />
<path d="M2205.7200000000003,84.65c4.53-1.65,7.17-2.4,15.03-4.73" style="fill:none;stroke:#999;stroke-width:3" />
<path d="M2217.51,73.85c2.02,2.01,5.23,8.27,5.74,11.4" style="fill:none;stroke:#999;stroke-width:3" />
<path d="M2246.88,30.73c0.15,1.38-0.04,3.19-0.51,4.38c-2.99,7.55-6.77,13.95-13.62,23.14" style="fill:none;stroke:#999;stroke-width:3" />
<path d="M2241.88,47.9c0.18,0.74,0.31,2.36,0.33,3.5c0.1,10.2-0.14,42.29-0.06,47.6" style="fill:none;stroke:#999;stroke-width:3" />
<path d="M2263.2,30.16c0.06,0.7-0.02,1.62-0.21,2.22c-1.23,3.83-2.78,6.78-5.6,11.44" style="fill:none;stroke:#999;stroke-width:3" />
<path d="M2240.71,46.69c9.26-0.89,31-2.84,34.28-3.22" style="fill:none;stroke:black;stroke-width:3" />
<circle cx="2240.71" cy="46.69" r="5" stroke-width="0" fill="#FF2A00" opacity="0.7" />
<path d="M2316.0,9.25c0.04,0.54,0.08,1.4-0.08,2.18C2314.96,16.01,2309.49,26.08,2302.0,32.25" style="fill:none;stroke:#999;stroke-width:3" />
<path d="M2315.98,20.02c4.04,0,18.49-2.26,23.02-2.26" style="fill:none;stroke:#999;stroke-width:3" />
<path d="M2322.27,21.33c2.29,1.53,5.91,6.29,6.48,8.67" style="fill:none;stroke:#999;stroke-width:3" />
<path d="M2349.49,9.5c0.03,0.45,0.13,1.18-0.06,1.82c-1.47,4.77-5.54,11.57-10.93,17.43" style="fill:none;stroke:#999;stroke-width:3" />
<path d="M2348.98,19.16c5.17,0,25.6-3.57,31.4-3.57" style="fill:none;stroke:#999;stroke-width:3" />
<path d="M2360.75,18.75c0.03,0.28,0.06,0.71-0.06,1.11c-0.7,2.35-4.71,7.49-10.2,10.64" style="fill:none;stroke:#999;stroke-width:3" />
<path d="M2320.82,29.5c0.41,0.22,1.09,1.06,1.09,1.49c0,1.6-0.13,3.37-0.05,4.72" style="fill:none;stroke:#999;stroke-width:3" />
<path d="M2301.98,39.36c0.98,0.16,1.84,0.35,2.96,0.22c6.68-0.73,25.23-3.21,33.01-3.59c1.14-0.06,1.73,0.01,2.58,0.28" style="fill:none;stroke:#999;stroke-width:3" />
<path d="M2327.81,40.91c0.22,0.35,0.45,0.63,0.11,1.24c-3.01,5.53-7.5,10.16-13.99,13.06" style="fill:none;stroke:#999;stroke-width:3" />
<path d="M2315.36,44.36c4.86,1.34,11.85,5.7,14.39,8.89" style="fill:none;stroke:#999;stroke-width:3" />
<path d="M2306.98,46.13c0.32,0.11,1.17,1.44,1.18,1.73c0.09,4.9-0.94,11.7-0.9,12.38c0.04,0.67,0.76,0.6,1.36,0.45c8.84-2.18,24.52-2.8,27.87-3.32" style="fill:none;stroke:#999;stroke-width:3" />
<path d="M2336.9700000000003,42.67c0.34,0.16,1.05,1.23,1.12,1.56c0.07,0.33-1.26,9.03-1.56,15.48" style="fill:none;stroke:#999;stroke-width:3" />
<path d="M2303.8599999999997,69.24c0.39,1.26,1.16,2.49,1.16,3.86C2305.0,77,2306.7200000000003,96.37,2306.7,98.74" style="fill:none;stroke:#999;stroke-width:3" />
<path d="M2304.51,71.37c4.74-0.68,33.54-4.89,34.49-4.89c1.37,0,2.25,0.5,2.25,2.03c0,3.21-2.23,19.97-3.13,24.76c-1.45,7.75-4.87,2.85-6.14,1.25" style="fill:none;stroke:#999;stroke-width:3" />
<path d="M2321.6800000000003,61.7c0.74,0.74,0.84,2.05,0.84,2.84c0,5.46-0.02,8.21-0.02,16.21" style="fill:none;stroke:#999;stroke-width:3" />
<path d="M2314.7200000000003,84.65c4.53-1.65,7.17-2.4,15.03-4.73" style="fill:none;stroke:#999;stroke-width:3" />
<path d="M2326.51,73.85c2.02,2.01,5.23,8.27,5.74,11.4" style="fill:none;stroke:#999;stroke-width:3" />
<path d="M2355.88,30.73c0.15,1.38-0.04,3.19-0.51,4.38c-2.99,7.55-6.77,13.95-13.62,23.14" style="fill:none;stroke:#999;stroke-width:3" />
<path d="M2350.88,47.9c0.18,0.74,0.31,2.36,0.33,3.5c0.1,10.2-0.14,42.29-0.06,47.6" style="fill:none;stroke:#999;stroke-width:3" />
<path d="M2372.2,30.16c0.06,0.7-0.02,1.62-0.21,2.22c-1.23,3.83-2.78,6.78-5.6,11.44" style="fill:none;stroke:#999;stroke-width:3" />
<path d="M2349.71,46.69c9.26-0.89,31-2.84,34.28-3.22" style="fill:none;stroke:#999;stroke-width:3" />
<path d="M2366.98,47.52c0.35,0.42,0.63,0.98,0.63,1.7c0,7.3,0.04,32.5-0.17,43.99" style="fill:none;stroke:black;stroke-width:3" />
<circle cx="2366.98" cy="47.52" r="5" stroke-width="0" fill="#FF2A00" opacity="0.7" />
<path d="M2425.0,9.25c0.04,0.54,0.08,1.4-0.08,2.18C2423.96,16.01,2418.49,26.08,2411.0,32.25" style="fill:none;stroke:#999;stroke-width:3" />
<path d="M2424.98,20.02c4.04,0,18.49-2.26,23.02-2.26" style="fill:none;stroke:#999;stroke-width:3" />
<path d="M2431.27,21.33c2.29,1.53,5.91,6.29,6.48,8.67" style="fill:none;stroke:#999;stroke-width:3" />
<path d="M2458.49,9.5c0.03,0.45,0.13,1.18-0.06,1.82c-1.47,4.77-5.54,11.57-10.93,17.43" style="fill:none;stroke:#999;stroke-width:3" />
<path d="M2457.98,19.16c5.17,0,25.6-3.57,31.4-3.57" style="fill:none;stroke:#999;stroke-width:3" />
<path d="M2469.75,18.75c0.03,0.28,0.06,0.71-0.06,1.11c-0.7,2.35-4.71,7.49-10.2,10.64" style="fill:none;stroke:#999;stroke-width:3" />
<path d="M2429.82,29.5c0.41,0.22,1.09,1.06,1.09,1.49c0,1.6-0.13,3.37-0.05,4.72" style="fill:none;stroke:#999;stroke-width:3" />
<path d="M2410.98,39.36c0.98,0.16,1.84,0.35,2.96,0.22c6.68-0.73,25.23-3.21,33.01-3.59c1.14-0.06,1.73,0.01,2.58,0.28" style="fill:none;stroke:#999;stroke-width:3" />
<path d="M2436.81,40.91c0.22,0.35,0.45,0.63,0.11,1.24c-3.01,5.53-7.5,10.16-13.99,13.06" style="fill:none;stroke:#999;stroke-width:3" />
<path d="M2424.36,44.36c4.86,1.34,11.85,5.7,14.39,8.89" style="fill:none;stroke:#999;stroke-width:3" />
<path d="M2415.98,46.13c0.32,0.11,1.17,1.44,1.18,1.73c0.09,4.9-0.94,11.7-0.9,12.38c0.04,0.67,0.76,0.6,1.36,0.45c8.84-2.18,24.52-2.8,27.87-3.32" style="fill:none;stroke:#999;stroke-width:3" />
<path d="M2445.9700000000003,42.67c0.34,0.16,1.05,1.23,1.12,1.56c0.07,0.33-1.26,9.03-1.56,15.48" style="fill:none;stroke:#999;stroke-width:3" />
<path d="M2412.8599999999997,69.24c0.39,1.26,1.16,2.49,1.16,3.86C2414.0,77,2415.7200000000003,96.37,2415.7,98.74" style="fill:none;stroke:#999;stroke-width:3" />
<path d="M2413.51,71.37c4.74-0.68,33.54-4.89,34.49-4.89c1.37,0,2.25,0.5,2.25,2.03c0,3.21-2.23,19.97-3.13,24.76c-1.45,7.75-4.87,2.85-6.14,1.25" style="fill:none;stroke:#999;stroke-width:3" />
<path d="M2430.6800000000003,61.7c0.74,0.74,0.84,2.05,0.84,2.84c0,5.46-0.02,8.21-0.02,16.21" style="fill:none;stroke:#999;stroke-width:3" />
<path d="M2423.7200000000003,84.65c4.53-1.65,7.17-2.4,15.03-4.73" style="fill:none;stroke:#999;stroke-width:3" />
<path d="M2435.51,73.85c2.02,2.01,5.23,8.27,5.74,11.4" style="fill:none;stroke:#999;stroke-width:3" />
<path d="M2464.88,30.73c0.15,1.38-0.04,3.19-0.51,4.38c-2.99,7.55-6.77,13.95-13.62,23.14" style="fill:none;stroke:#999;stroke-width:3" />
<path d="M2459.88,47.9c0.18,0.74,0.31,2.36,0.33,3.5c0.1,10.2-0.14,42.29-0.06,47.6" style="fill:none;stroke:#999;stroke-width:3" />
<path d="M2481.2,30.16c0.06,0.7-0.02,1.62-0.21,2.22c-1.23,3.83-2.78,6.78-5.6,11.44" style="fill:none;stroke:#999;stroke-width:3" />
<path d="M2458.71,46.69c9.26-0.89,31-2.84,34.28-3.22" style="fill:none;stroke:#999;stroke-width:3" />
<path d="M2475.98,47.52c0.35,0.42,0.63,0.98,0.63,1.7c0,7.3,0.04,32.5-0.17,43.99" style="fill:none;stroke:#999;stroke-width:3" />
<path d="M2461.18,62.94c6.53-0.71,25.58-2.27,28.38-2.63" style="fill:none;stroke:black;stroke-width:3" />
<circle cx="2461.18" cy="62.94" r="5" stroke-width="0" fill="#FF2A00" opacity="0.7" />
<path d="M2534.0,9.25c0.04,0.54,0.08,1.4-0.08,2.18C2532.96,16.01,2527.49,26.08,2520.0,32.25" style="fill:none;stroke:#999;stroke-width:3" />
<path d="M2533.98,20.02c4.04,0,18.49-2.26,23.02-2.26" style="fill:none;stroke:#999;stroke-width:3" />
<path d="M2540.27,21.33c2.29,1.53,5.91,6.29,6.48,8.67" style="fill:none;stroke:#999;stroke-width:3" />
<path d="M2567.49,9.5c0.03,0.45,0.13,1.18-0.06,1.82c-1.47,4.77-5.54,11.57-10.93,17.43" style="fill:none;stroke:#999;stroke-width:3" />
<path d="M2566.98,19.16c5.17,0,25.6-3.57,31.4-3.57" style="fill:none;stroke:#999;stroke-width:3" />
<path d="M2578.75,18.75c0.03,0.28,0.06,0.71-0.06,1.11c-0.7,2.35-4.71,7.49-10.2,10.64" style="fill:none;stroke:#999;stroke-width:3" />
<path d="M2538.82,29.5c0.41,0.22,1.09,1.06,1.09,1.49c0,1.6-0.13,3.37-0.05,4.72" style="fill:none;stroke:#999;stroke-width:3" />
<path d="M2519.98,39.36c0.98,0.16,1.84,0.35,2.96,0.22c6.68-0.73,25.23-3.21,33.01-3.59c1.14-0.06,1.73,0.01,2.58,0.28" style="fill:none;stroke:#999;stroke-width:3" />
<path d="M2545.81,40.91c0.22,0.35,0.45,0.63,0.11,1.24c-3.01,5.53-7.5,10.16-13.99,13.06" style="fill:none;stroke:#999;stroke-width:3" />
<path d="M2533.36,44.36c4.86,1.34,11.85,5.7,14.39,8.89" style="fill:none;stroke:#999;stroke-width:3" />
<path d="M2524.98,46.13c0.32,0.11,1.17,1.44,1.18,1.73c0.09,4.9-0.94,11.7-0.9,12.38c0.04,0.67,0.76,0.6,1.36,0.45c8.84-2.18,24.52-2.8,27.87-3.32" style="fill:none;stroke:#999;stroke-width:3" />
<path d="M2554.9700000000003,42.67c0.34,0.16,1.05,1.23,1.12,1.56c0.07,0.33-1.26,9.03-1.56,15.48" style="fill:none;stroke:#999;stroke-width:3" />
<path d="M2521.8599999999997,69.24c0.39,1.26,1.16,2.49,1.16,3.86C2523.0,77,2524.7200000000003,96.37,2524.7,98.74" style="fill:none;stroke:#999;stroke-width:3" />
<path d="M2522.51,71.37c4.74-0.68,33.54-4.89,34.49-4.89c1.37,0,2.25,0.5,2.25,2.03c0,3.21-2.23,19.97-3.13,24.76c-1.45,7.75-4.87,2.85-6.14,1.25" style="fill:none;stroke:#999;stroke-width:3" />
<path d="M2539.6800000000003,61.7c0.74,0.74,0.84,2.05,0.84,2.84c0,5.46-0.02,8.21-0.02,16.21" style="fill:none;stroke:#999;stroke-width:3" />
<path d="M2532.7200000000003,84.65c4.53-1.65,7.17-2.4,15.03-4.73" style="fill:none;stroke:#999;stroke-width:3" />
<path d="M2544.51,73.85c2.02,2.01,5.23,8.27,5.74,11.4" style="fill:none;stroke:#999;stroke-width:3" />
<path d="M2573.88,30.73c0.15,1.38-0.04,3.19-0.51,4.38c-2.99,7.55-6.77,13.95-13.62,23.14" style="fill:none;stroke:#999;stroke-width:3" />
<path d="M2568.88,47.9c0.18,0.74,0.31,2.36,0.33,3.5c0.1,10.2-0.14,42.29-0.06,47.6" style="fill:none;stroke:#999;stroke-width:3" />
<path d="M2590.2,30.16c0.06,0.7-0.02,1.62-0.21,2.22c-1.23,3.83-2.78,6.78-5.6,11.44" style="fill:none;stroke:#999;stroke-width:3" />
<path d="M2567.71,46.69c9.26-0.89,31-2.84,34.28-3.22" style="fill:none;stroke:#999;stroke-width:3" />
<path d="M2584.98,47.52c0.35,0.42,0.63,0.98,0.63,1.7c0,7.3,0.04,32.5-0.17,43.99" style="fill:none;stroke:#999;stroke-width:3" />
<path d="M2570.18,62.94c6.53-0.71,25.58-2.27,28.38-2.63" style="fill:none;stroke:#999;stroke-width:3" />
<path d="M2569.32,78.04c7.2-0.56,27.4-1.79,30.49-2.09" style="fill:none;stroke:black;stroke-width:3" />
<circle cx="2569.32" cy="78.04" r="5" stroke-width="0" fill="#FF2A00" opacity="0.7" />
<path d="M2643.0,9.25c0.04,0.54,0.08,1.4-0.08,2.18C2641.96,16.01,2636.49,26.08,2629.0,32.25" style="fill:none;stroke:#999;stroke-width:3" />
<path d="M2642.98,20.02c4.04,0,18.49-2.26,23.02-2.26" style="fill:none;stroke:#999;stroke-width:3" />
<path d="M2649.27,21.33c2.29,1.53,5.91,6.29,6.48,8.67" style="fill:none;stroke:#999;stroke-width:3" />
<path d="M2676.49,9.5c0.03,0.45,0.13,1.18-0.06,1.82c-1.47,4.77-5.54,11.57-10.93,17.43" style="fill:none;stroke:#999;stroke-width:3" />
<path d="M2675.98,19.16c5.17,0,25.6-3.57,31.4-3.57" style="fill:none;stroke:#999;stroke-width:3" />
<path d="M2687.75,18.75c0.03,0.28,0.06,0.71-0.06,1.11c-0.7,2.35-4.71,7.49-10.2,10.64" style="fill:none;stroke:#999;stroke-width:3" />
<path d="M2647.82,29.5c0.41,0.22,1.09,1.06,1.09,1.49c0,1.6-0.13,3.37-0.05,4.72" style="fill:none;stroke:#999;stroke-width:3" />
<path d="M2628.98,39.36c0.98,0.16,1.84,0.35,2.96,0.22c6.68-0.73,25.23-3.21,33.01-3.59c1.14-0.06,1.73,0.01,2.58,0.28" style="fill:none;stroke:#999;stroke-width:3" />
<path d="M2654.81,40.91c0.22,0.35,0.45,0.63,0.11,1.24c-3.01,5.53-7.5,10.16-13.99,13.06" style="fill:none;stroke:#999;stroke-width:3" />
<path d="M2642.36,44.36c4.86,1.34,11.85,5.7,14.39,8.89" style="fill:none;stroke:#999;stroke-width:3" />
<path d="M2633.98,46.13c0.32,0.11,1.17,1.44,1.18,1.73c0.09,4.9-0.94,11.7-0.9,12.38c0.04,0.67,0.76,0.6,1.36,0.45c8.84-2.18,24.52-2.8,27.87-3.32" style="fill:none;stroke:#999;stroke-width:3" />
<path d="M2663.9700000000003,42.67c0.34,0.16,1.05,1.23,1.12,1.56c0.07,0.33-1.26,9.03-1.56,15.48" style="fill:none;stroke:#999;stroke-width:3" />
<path d="M2630.8599999999997,69.24c0.39,1.26,1.16,2.49,1.16,3.86C2632.0,77,2633.7200000000003,96.37,2633.7,98.74" style="fill:none;stroke:#999;stroke-width:3" />
<path d="M2631.51,71.37c4.74-0.68,33.54-4.89,34.49-4.89c1.37,0,2.25,0.5,2.25,2.03c0,3.21-2.23,19.97-3.13,24.76c-1.45,7.75-4.87,2.85-6.14,1.25" style="fill:none;stroke:#999;stroke-width:3" />
<path d="M2648.6800000000003,61.7c0.74,0.74,0.84,2.05,0.84,2.84c0,5.46-0.02,8.21-0.02,16.21" style="fill:none;stroke:#999;stroke-width:3" />
<path d="M2641.7200000000003,84.65c4.53-1.65,7.17-2.4,15.03-4.73" style="fill:none;stroke:#999;stroke-width:3" />
<path d="M2653.51,73.85c2.02,2.01,5.23,8.27,5.74,11.4" style="fill:none;stroke:#999;stroke-width:3" />
<path d="M2682.88,30.73c0.15,1.38-0.04,3.19-0.51,4.38c-2.99,7.55-6.77,13.95-13.62,23.14" style="fill:none;stroke:#999;stroke-width:3" />
<path d="M2677.88,47.9c0.18,0.74,0.31,2.36,0.33,3.5c0.1,10.2-0.14,42.29-0.06,47.6" style="fill:none;stroke:#999;stroke-width:3" />
<path d="M2699.2,30.16c0.06,0.7-0.02,1.62-0.21,2.22c-1.23,3.83-2.78,6.78-5.6,11.44" style="fill:none;stroke:#999;stroke-width:3" />
<path d="M2676.71,46.69c9.26-0.89,31-2.84,34.28-3.22" style="fill:none;stroke:#999;stroke-width:3" />
<path d="M2693.98,47.52c0.35,0.42,0.63,0.98,0.63,1.7c0,7.3,0.04,32.5-0.17,43.99" style="fill:none;stroke:#999;stroke-width:3" />
<path d="M2679.18,62.94c6.53-0.71,25.58-2.27,28.38-2.63" style="fill:none;stroke:#999;stroke-width:3" />
<path d="M2678.32,78.04c7.2-0.56,27.4-1.79,30.49-2.09" style="fill:none;stroke:#999;stroke-width:3" />
<path d="M2678.77,95.63c6.91-0.84,30.3-1.7,33.27-2.18" style="fill:none;stroke:black;stroke-width:3" />
<circle cx="2678.77" cy="95.63" r="5" stroke-width="0" fill="#FF2A00" opacity="0.7" />
</svg>