<svg width="1744px" height="109px" viewBox="0 0 1744px 109px" xmlns="http://www.w3.org/2000/svg" xmlns:xlink="http://www.w3.org/1999/xlink" xml:space="preserve" version="1.1"  baseProfile="full">
<line x1="1" y1="1" x2="1743" y2="1" style="stroke:#ddd;stroke-width:2" />
<line x1="1" y1="1" x2="1" y2="108" style="stroke:#ddd;stroke-width:2" />
<line x1="1" y1="108" x2="1743" y2="108" style="stroke:#ddd;stroke-width:2" />
<line x1="1743" y1="1" x2="1743" y2="108" style="stroke:#ddd;stroke-width:2" />
<line x1="109" y1="1" x2="109" y2="108" style="stroke:#ddd;stroke-width:2" />
<line x1="218" y1="1" x2="218" y2="108" style="stroke:#ddd;stroke-width:2" />
<line x1="327" y1="1" x2="327" y2="108" style="stroke:#ddd;stroke-width:2" />
<line x1="436" y1="1" x2="436" y2="108" style="stroke:#ddd;stroke-width:2" />
<line x1="545" y1="1" x2="545" y2="108" style="stroke:#ddd;stroke-width:2" />
<line x1="654" y1="1" x2="654" y2="108" style="stroke:#ddd;stroke-width:2" />
<line x1="763" y1="1" x2="763" y2="108" style="stroke:#ddd;stroke-width:2" />
<line x1="872" y1="1" x2="872" y2="108" style="stroke:#ddd;stroke-width:2" />
<line x1="981" y1="1" x2="981" y2="108" style="stroke:#ddd;stroke-width:2" />
<line x1="1090" y1="1" x2="1090" y2="108" style="stroke:#ddd;stroke-width:2" />
<line x1="1199" y1="1" x2="1199" y2="108" style="stroke:#ddd;stroke-width:2" />
<line x1="1308" y1="1" x2="1308" y2="108" style="stroke:#ddd;stroke-width:2" />
<line x1="1417" y1="1" x2="1417" y2="108" style="stroke:#ddd;stroke-width:2" />
<line x1="1526" y1="1" x2="1526" y2="108" style="stroke:#ddd;stroke-width:2" />
<line x1="1635" y1="1" x2="1635" y2="108" style="stroke:#ddd;stroke-width:2" />
<line x1="1" y1="54" x2="1743" y2="54" style="stroke:#ddd;stroke-width:2;stroke-dasharray:3 3" />
<line x1="55" y1="1" x2="55" y2="108" style="stroke:#ddd;stroke-width:2;stroke-dasharray:3 3" />
<line x1="164" y1="1" x2="164" y2="108" style="stroke:#ddd;stroke-width:2;stroke-dasharray:3 3" />
<line x1="273" y1="1" x2="273" y2="108" style="stroke:#ddd;stroke-width:2;stroke-dasharray:3 3" />
<line x1="382" y1="1" x2="382" y2="108" style="stroke:#ddd;stroke-width:2;stroke-dasharray:3 3" />
<line x1="491" y1="1" x2="491" y2="108" style="stroke:#ddd;stroke-width:2;stroke-dasharray:3 3" />
<line x1="600" y1="1" x2="600" y2="108" style="stroke:#ddd;stroke-width:2;stroke-dasharray:3 3" />
<line x1="709" y1="1" x2="709" y2="108" style="stroke:#ddd;stroke-width:2;stroke-dasharray:3 3" />
<line x1="818" y1="1" x2="818" y2="108" style="stroke:#ddd;stroke-width:2;stroke-dasharray:3 3" />
<line x1="927" y1="1" x2="927" y2="108" style="stroke:#ddd;stroke-width:2;stroke-dasharray:3 3" />
<line x1="1036" y1="1" x2="1036" y2="108" style="stroke:#ddd;stroke-width:2;stroke-dasharray:3 3" />
<line x1="1145" y1="1" x2="1145" y2="108" style="stroke:#ddd;stroke-width:2;stroke-dasharray:3 3" />
<line x1="1254" y1="1" x2="1254" y2="108" style="stroke:#ddd;stroke-width:2;stroke-dasharray:3 3" />
<line x1="1363" y1="1" x2="1363" y2="108" style="stroke:#ddd;stroke-width:2;stroke-dasharray:3 3" />
<line x1="1472" y1="1" x2="1472" y2="108" style="stroke:#ddd;stroke-width:2;stroke-dasharray:3 3" />
<line x1="1581" y1="1" x2="1581" y2="108" style="stroke:#ddd;stroke-width:2;stroke-dasharray:3 3" />
<line x1="1690" y1="1" x2="1690" y2="108" style="stroke:#ddd;stroke-width:2;stroke-dasharray:3 3" />
<path d="M17.65,17.77c0.85,0.85,0.99,2.07,1,3.1c0.6,45.88-1.93,62.23-9.1,76.24" style="fill:none;stroke:black;stroke-width:3" />
<circle cx="17.65" cy="17.77" r="5" stroke-width="0" fill="#FF2A00" opacity="0.7" />
<path d="M126.65,17.77c0.85,0.85,0.99,2.07,1,3.1c0.6,45.88-1.93,62.23-9.1,76.24" style="fill:none;stroke:#999;stroke-width:3" />
<path d="M128.57999999999998,19.37c2.92-0.49,10.73-2.39,12.11-2.52c2.47-0.23,3.09,1.34,3.09,2.73c0,3.31,0.04,49.31,0.04,68.08c0,11.34-4.97,3.89-6.55,2.34" style="fill:none;stroke:black;stroke-width:3" />
<circle cx="128.57999999999998" cy="19.37" r="5" stroke-width="0" fill="#FF2A00" opacity="0.7" />
<path d="M235.65,17.77c0.85,0.85,0.99,2.07,1,3.1c0.6,45.88-1.93,62.23-9.1,76.24" style="fill:none;stroke:#999;stroke-width:3" />
<path d="M237.57999999999998,19.37c2.92-0.49,10.73-2.39,12.11-2.52c2.47-0.23,3.09,1.34,3.09,2.73c0,3.31,0.04,49.31,0.04,68.08c0,11.34-4.97,3.89-6.55,2.34" style="fill:none;stroke:#999;stroke-width:3" />
<path d="M237.57999999999998,39.21c4.07-0.36,10.67-1.21,15.08-1.62" style="fill:none;stroke:black;stroke-width:3" />
<circle cx="237.57999999999998" cy="39.21" r="5" stroke-width="0" fill="#FF2A00" opacity="0.7" />
<path d="M344.65,17.77c0.85,0.85,0.99,2.07,1,3.1c0.6,45.88-1.93,62.23-9.1,76.24" style="fill:none;stroke:#999;stroke-width:3" />
<path d="M346.58,19.37c2.92-0.49,10.73-2.39,12.11-2.52c2.47-0.23,3.09,1.34,3.09,2.73c0,3.31,0.04,49.31,0.04,68.08c0,11.34-4.97,3.89-6.55,2.34" style="fill:none;stroke:#999;stroke-width:3" />
<path d="M346.58,39.21c4.07-0.36,10.67-1.21,15.08-1.62" style="fill:none;stroke:#999;stroke-width:3" />
<path d="M346.54,57.59c4.34-0.34,10.28-1.06,14.82-1.49" style="fill:none;stroke:black;stroke-width:3" />
<circle cx="346.54" cy="57.59" r="5" stroke-width="0" fill="#FF2A00" opacity="0.7" />
<path d="M453.65,17.77c0.85,0.85,0.99,2.07,1,3.1c0.6,45.88-1.93,62.23-9.1,76.24" style="fill:none;stroke:#999;stroke-width:3" />
<path d="M455.58,19.37c2.92-0.49,10.73-2.39,12.11-2.52c2.47-0.23,3.09,1.34,3.09,2.73c0,3.31,0.04,49.31,0.04,68.08c0,11.34-4.97,3.89-6.55,2.34" style="fill:none;stroke:#999;stroke-width:3" />
<path d="M455.58,39.21c4.07-0.36,10.67-1.21,15.08-1.62" style="fill:none;stroke:#999;stroke-width:3" />
<path d="M455.54,57.59c4.34-0.34,10.28-1.06,14.82-1.49" style="fill:none;stroke:#999;stroke-width:3" />
<path d="M479.37,25.67c1.51,0.6,3.31,0.61,4.92,0.47c5.26-0.46,12.25-2.03,16.72-2.54c1.18-0.14,2.34-0.23,3.51,0.03" style="fill:none;stroke:black;stroke-width:3" />
<circle cx="479.37" cy="25.67" r="5" stroke-width="0" fill="#FF2A00" opacity="0.7" />
<path d="M562.65,17.77c0.85,0.85,0.99,2.07,1,3.1c0.6,45.88-1.93,62.23-9.1,76.24" style="fill:none;stroke:#999;stroke-width:3" />
<path d="M564.5799999999999,19.37c2.92-0.49,10.73-2.39,12.11-2.52c2.47-0.23,3.09,1.34,3.09,2.73c0,3.31,0.04,49.31,0.04,68.08c0,11.34-4.97,3.89-6.55,2.34" style="fill:none;stroke:#999;stroke-width:3" />
<path d="M564.5799999999999,39.21c4.07-0.36,10.67-1.21,15.08-1.62" style="fill:none;stroke:#999;stroke-width:3" />
<path d="M564.54,57.59c4.34-0.34,10.28-1.06,14.82-1.49" style="fill:none;stroke:#999;stroke-width:3" />
<path d="M588.37,25.67c1.51,0.6,3.31,0.61,4.92,0.47c5.26-0.46,12.25-2.03,16.72-2.54c1.18-0.14,2.34-0.23,3.51,0.03" style="fill:none;stroke:#999;stroke-width:3" />
<path d="M599.27,12.76c1.05,1.05,1.32,2.12,1.32,3.94c0,4.05-0.07,12.55-0.07,20.39" style="fill:none;stroke:black;stroke-width:3" />
<circle cx="599.27" cy="12.76" r="5" stroke-width="0" fill="#FF2A00" opacity="0.7" />
<path d="M671.65,17.77c0.85,0.85,0.99,2.07,1,3.1c0.6,45.88-1.93,62.23-9.1,76.24" style="fill:none;stroke:#999;stroke-width:3" />
<path d="M673.5799999999999,19.37c2.92-0.49,10.73-2.39,12.11-2.52c2.47-0.23,3.09,1.34,3.09,2.73c0,3.31,0.04,49.31,0.04,68.08c0,11.34-4.97,3.89-6.55,2.34" style="fill:none;stroke:#999;stroke-width:3" />
<path d="M673.5799999999999,39.21c4.07-0.36,10.67-1.21,15.08-1.62" style="fill:none;stroke:#999;stroke-width:3" />
<path d="M673.54,57.59c4.34-0.34,10.28-1.06,14.82-1.49" style="fill:none;stroke:#999;stroke-width:3" />
<path d="M697.37,25.67c1.51,0.6,3.31,0.61,4.92,0.47c5.26-0.46,12.25-2.03,16.72-2.54c1.18-0.14,2.34-0.23,3.51,0.03" style="fill:none;stroke:#999;stroke-width:3" />
<path d="M708.27,12.76c1.05,1.05,1.32,2.12,1.32,3.94c0,4.05-0.07,12.55-0.07,20.39" style="fill:none;stroke:#999;stroke-width:3" />
<path d="M695.44,38.28c1.29,0.46,3.09,0.55,4.44,0.4c4.97-0.56,12.64-2.01,19.25-3c1.43-0.21,2.65-0.45,4.07-0.17" style="fill:none;stroke:black;stroke-width:3" />
<circle cx="695.44" cy="38.28" r="5" stroke-width="0" fill="#FF2A00" opacity="0.7" />
<path d="M780.65,17.77c0.85,0.85,0.99,2.07,1,3.1c0.6,45.88-1.93,62.23-9.1,76.24" style="fill:none;stroke:#999;stroke-width:3" />
<path d="M782.5799999999999,19.37c2.92-0.49,10.73-2.39,12.11-2.52c2.47-0.23,3.09,1.34,3.09,2.73c0,3.31,0.04,49.31,0.04,68.08c0,11.34-4.97,3.89-6.55,2.34" style="fill:none;stroke:#999;stroke-width:3" />
<path d="M782.5799999999999,39.21c4.07-0.36,10.67-1.21,15.08-1.62" style="fill:none;stroke:#999;stroke-width:3" />
<path d="M782.54,57.59c4.34-0.34,10.28-1.06,14.82-1.49" style="fill:none;stroke:#999;stroke-width:3" />
<path d="M806.37,25.67c1.51,0.6,3.31,0.61,4.92,0.47c5.26-0.46,12.25-2.03,16.72-2.54c1.18-0.14,2.34-0.23,3.51,0.03" style="fill:none;stroke:#999;stroke-width:3" />
<path d="M817.27,12.76c1.05,1.05,1.32,2.12,1.32,3.94c0,4.05-0.07,12.55-0.07,20.39" style="fill:none;stroke:#999;stroke-width:3" />
<path d="M804.44,38.28c1.29,0.46,3.09,0.55,4.44,0.4c4.97-0.56,12.64-2.01,19.25-3c1.43-0.21,2.65-0.45,4.07-0.17" style="fill:none;stroke:#999;stroke-width:3" />
<path d="M806.96,49.22c0.66,0.66,0.92,1.53,1.2,2.52c0.56,1.96,1.36,4.49,1.76,7.24c0.2,1.41,0.64,2.79,0.79,3.98" style="fill:none;stroke:black;stroke-width:3" />
<circle cx="806.96" cy="49.22" r="5" stroke-width="0" fill="#FF2A00" opacity="0.7" />
<path d="M889.65,17.77c0.85,0.85,0.99,2.07,1,3.1c0.6,45.88-1.93,62.23-9.1,76.24" style="fill:none;stroke:#999;stroke-width:3" />
<path d="M891.5799999999999,19.37c2.92-0.49,10.73-2.39,12.11-2.52c2.47-0.23,3.09,1.34,3.09,2.73c0,3.31,0.04,49.31,0.04,68.08c0,11.34-4.97,3.89-6.55,2.34" style="fill:none;stroke:#999;stroke-width:3" />
<path d="M891.5799999999999,39.21c4.07-0.36,10.67-1.21,15.08-1.62" style="fill:none;stroke:#999;stroke-width:3" />
<path d="M891.54,57.59c4.34-0.34,10.28-1.06,14.82-1.49" style="fill:none;stroke:#999;stroke-width:3" />
<path d="M915.37,25.67c1.51,0.6,3.31,0.61,4.92,0.47c5.26-0.46,12.25-2.03,16.72-2.54c1.18-0.14,2.34-0.23,3.51,0.03" style="fill:none;stroke:#999;stroke-width:3" />
<path d="M926.27,12.76c1.05,1.05,1.32,2.12,1.32,3.94c0,4.05-0.07,12.55-0.07,20.39" style="fill:none;stroke:#999;stroke-width:3" />
<path d="M913.44,38.28c1.29,0.46,3.09,0.55,4.44,0.4c4.97-0.56,12.64-2.01,19.25-3c1.43-0.21,2.65-0.45,4.07-0.17" style="fill:none;stroke:#999;stroke-width:3" />
<path d="M915.96,49.22c0.66,0.66,0.92,1.53,1.2,2.52c0.56,1.96,1.36,4.49,1.76,7.24c0.2,1.41,0.64,2.79,0.79,3.98" style="fill:none;stroke:#999;stroke-width:3" />
<path d="M917.83,50.44c4.56-0.82,13.22-2.71,17.45-3.39c2.12-0.34,3.64,0.17,3.11,2.72c-0.52,2.56-0.96,4.19-2.13,7.96" style="fill:none;stroke:black;stroke-width:3" />
<circle cx="917.83" cy="50.44" r="5" stroke-width="0" fill="#FF2A00" opacity="0.7" />
<path d="M998.65,17.77c0.85,0.85,0.99,2.07,1,3.1c0.6,45.88-1.93,62.23-9.1,76.24" style="fill:none;stroke:#999;stroke-width:3" />
<path d="M1000.5799999999999,19.37c2.92-0.49,10.73-2.39,12.11-2.52c2.47-0.23,3.09,1.34,3.09,2.73c0,3.31,0.04,49.31,0.04,68.08c0,11.34-4.97,3.89-6.55,2.34" style="fill:none;stroke:#999;stroke-width:3" />
<path d="M1000.5799999999999,39.21c4.07-0.36,10.67-1.21,15.08-1.62" style="fill:none;stroke:#999;stroke-width:3" />
<path d="M1000.54,57.59c4.34-0.34,10.28-1.06,14.82-1.49" style="fill:none;stroke:#999;stroke-width:3" />
<path d="M1024.37,25.67c1.51,0.6,3.31,0.61,4.92,0.47c5.26-0.46,12.25-2.03,16.72-2.54c1.18-0.14,2.34-0.23,3.51,0.03" style="fill:none;stroke:#999;stroke-width:3" />
<path d="M1035.27,12.76c1.05,1.05,1.32,2.12,1.32,3.94c0,4.05-0.07,12.55-0.07,20.39" style="fill:none;stroke:#999;stroke-width:3" />
<path d="M1022.44,38.28c1.29,0.46,3.09,0.55,4.44,0.4c4.97-0.56,12.64-2.01,19.25-3c1.43-0.21,2.65-0.45,4.07-0.17" style="fill:none;stroke:#999;stroke-width:3" />
<path d="M1024.96,49.22c0.66,0.66,0.92,1.53,1.2,2.52c0.56,1.96,1.36,4.49,1.76,7.24c0.2,1.41,0.64,2.79,0.79,3.98" style="fill:none;stroke:#999;stroke-width:3" />
<path d="M1026.83,50.44c4.56-0.82,13.22-2.71,17.45-3.39c2.12-0.34,3.64,0.17,3.11,2.72c-0.52,2.56-0.96,4.19-2.13,7.96" style="fill:none;stroke:#999;stroke-width:3" />
<path d="M1029.67,60.94c2.48-0.28,8.44-1.02,13.34-1.65c1.55-0.2,2.93-0.36,3.93-0.45" style="fill:none;stroke:black;stroke-width:3" />
<circle cx="1029.67" cy="60.94" r="5" stroke-width="0" fill="#FF2A00" opacity="0.7" />
<path d="M1107.65,17.77c0.85,0.85,0.99,2.07,1,3.1c0.6,45.88-1.93,62.23-9.1,76.24" style="fill:none;stroke:#999;stroke-width:3" />
<path d="M1109.58,19.37c2.92-0.49,10.73-2.39,12.11-2.52c2.47-0.23,3.09,1.34,3.09,2.73c0,3.31,0.04,49.31,0.04,68.08c0,11.34-4.97,3.89-6.55,2.34" style="fill:none;stroke:#999;stroke-width:3" />
<path d="M1109.58,39.21c4.07-0.36,10.67-1.21,15.08-1.62" style="fill:none;stroke:#999;stroke-width:3" />
<path d="M1109.54,57.59c4.34-0.34,10.28-1.06,14.82-1.49" style="fill:none;stroke:#999;stroke-width:3" />
<path d="M1133.37,25.67c1.51,0.6,3.31,0.61,4.92,0.47c5.26-0.46,12.25-2.03,16.72-2.54c1.18-0.14,2.34-0.23,3.51,0.03" style="fill:none;stroke:#999;stroke-width:3" />
<path d="M1144.27,12.76c1.05,1.05,1.32,2.12,1.32,3.94c0,4.05-0.07,12.55-0.07,20.39" style="fill:none;stroke:#999;stroke-width:3" />
<path d="M1131.44,38.28c1.29,0.46,3.09,0.55,4.44,0.4c4.97-0.56,12.64-2.01,19.25-3c1.43-0.21,2.65-0.45,4.07-0.17" style="fill:none;stroke:#999;stroke-width:3" />
<path d="M1133.96,49.22c0.66,0.66,0.92,1.53,1.2,2.52c0.56,1.96,1.36,4.49,1.76,7.24c0.2,1.41,0.64,2.79,0.79,3.98" style="fill:none;stroke:#999;stroke-width:3" />
<path d="M1135.83,50.44c4.56-0.82,13.22-2.71,17.45-3.39c2.12-0.34,3.64,0.17,3.11,2.72c-0.52,2.56-0.96,4.19-2.13,7.96" style="fill:none;stroke:#999;stroke-width:3" />
<path d="M1138.67,60.94c2.48-0.28,8.44-1.02,13.34-1.65c1.55-0.2,2.93-0.36,3.93-0.45" style="fill:none;stroke:#999;stroke-width:3" />
<path d="M1134.75,70.12c1.99,1.7,5.14,7,5.63,9.64" style="fill:none;stroke:black;stroke-width:3" />
<circle cx="1134.75" cy="70.12" r="5" stroke-width="0" fill="#FF2A00" opacity="0.7" />
<path d="M1216.65,17.77c0.85,0.85,0.99,2.07,1,3.1c0.6,45.88-1.93,62.23-9.1,76.24" style="fill:none;stroke:#999;stroke-width:3" />
<path d="M1218.58,19.37c2.92-0.49,10.73-2.39,12.11-2.52c2.47-0.23,3.09,1.34,3.09,2.73c0,3.31,0.04,49.31,0.04,68.08c0,11.34-4.97,3.89-6.55,2.34" style="fill:none;stroke:#999;stroke-width:3" />
<path d="M1218.58,39.21c4.07-0.36,10.67-1.21,15.08-1.62" style="fill:none;stroke:#999;stroke-width:3" />
<path d="M1218.54,57.59c4.34-0.34,10.28-1.06,14.82-1.49" style="fill:none;stroke:#999;stroke-width:3" />
<path d="M1242.37,25.67c1.51,0.6,3.31,0.61,4.92,0.47c5.26-0.46,12.25-2.03,16.72-2.54c1.18-0.14,2.34-0.23,3.51,0.03" style="fill:none;stroke:#999;stroke-width:3" />
<path d="M1253.27,12.76c1.05,1.05,1.32,2.12,1.32,3.94c0,4.05-0.07,12.55-0.07,20.39" style="fill:none;stroke:#999;stroke-width:3" />
<path d="M1240.44,38.28c1.29,0.46,3.09,0.55,4.44,0.4c4.97-0.56,12.64-2.01,19.25-3c1.43-0.21,2.65-0.45,4.07-0.17" style="fill:none;stroke:#999;stroke-width:3" />
<path d="M1242.96,49.22c0.66,0.66,0.92,1.53,1.2,2.52c0.56,1.96,1.36,4.49,1.76,7.24c0.2,1.41,0.64,2.79,0.79,3.98" style="fill:none;stroke:#999;stroke-width:3" />
<path d="M1244.83,50.44c4.56-0.82,13.22-2.71,17.45-3.39c2.12-0.34,3.64,0.17,3.11,2.72c-0.52,2.56-0.96,4.19-2.13,7.96" style="fill:none;stroke:#999;stroke-width:3" />
<path d="M1247.67,60.94c2.48-0.28,8.44-1.02,13.34-1.65c1.55-0.2,2.93-0.36,3.93-0.45" style="fill:none;stroke:#999;stroke-width:3" />
<path d="M1243.75,70.12c1.99,1.7,5.14,7,5.63,9.64" style="fill:none;stroke:#999;stroke-width:3" />
<path d="M1264.52,66.89c0.12,0.92,0,1.81-0.34,2.66c-1.22,3.87-3.02,8.12-7.06,14.07" style="fill:none;stroke:black;stroke-width:3" />
<circle cx="1264.52" cy="66.89" r="5" stroke-width="0" fill="#FF2A00" opacity="0.7" />
<path d="M1325.65,17.77c0.85,0.85,0.99,2.07,1,3.1c0.6,45.88-1.93,62.23-9.1,76.24" style="fill:none;stroke:#999;stroke-width:3" />
<path d="M1327.58,19.37c2.92-0.49,10.73-2.39,12.11-2.52c2.47-0.23,3.09,1.34,3.09,2.73c0,3.31,0.04,49.31,0.04,68.08c0,11.34-4.97,3.89-6.55,2.34" style="fill:none;stroke:#999;stroke-width:3" />
<path d="M1327.58,39.21c4.07-0.36,10.67-1.21,15.08-1.62" style="fill:none;stroke:#999;stroke-width:3" />
<path d="M1327.54,57.59c4.34-0.34,10.28-1.06,14.82-1.49" style="fill:none;stroke:#999;stroke-width:3" />
<path d="M1351.37,25.67c1.51,0.6,3.31,0.61,4.92,0.47c5.26-0.46,12.25-2.03,16.72-2.54c1.18-0.14,2.34-0.23,3.51,0.03" style="fill:none;stroke:#999;stroke-width:3" />
<path d="M1362.27,12.76c1.05,1.05,1.32,2.12,1.32,3.94c0,4.05-0.07,12.55-0.07,20.39" style="fill:none;stroke:#999;stroke-width:3" />
<path d="M1349.44,38.28c1.29,0.46,3.09,0.55,4.44,0.4c4.97-0.56,12.64-2.01,19.25-3c1.43-0.21,2.65-0.45,4.07-0.17" style="fill:none;stroke:#999;stroke-width:3" />
<path d="M1351.96,49.22c0.66,0.66,0.92,1.53,1.2,2.52c0.56,1.96,1.36,4.49,1.76,7.24c0.2,1.41,0.64,2.79,0.79,3.98" style="fill:none;stroke:#999;stroke-width:3" />
<path d="M1353.83,50.44c4.56-0.82,13.22-2.71,17.45-3.39c2.12-0.34,3.64,0.17,3.11,2.72c-0.52,2.56-0.96,4.19-2.13,7.96" style="fill:none;stroke:#999;stroke-width:3" />
<path d="M1356.67,60.94c2.48-0.28,8.44-1.02,13.34-1.65c1.55-0.2,2.93-0.36,3.93-0.45" style="fill:none;stroke:#999;stroke-width:3" />
<path d="M1352.75,70.12c1.99,1.7,5.14,7,5.63,9.64" style="fill:none;stroke:#999;stroke-width:3" />
<path d="M1373.52,66.89c0.12,0.92,0,1.81-0.34,2.66c-1.22,3.87-3.02,8.12-7.06,14.07" style="fill:none;stroke:#999;stroke-width:3" />
<path d="M1351.18,89.15c0.51,1.15,1.73,1.58,3.43,0.98C1360.65,88,1367.62,85.12,1376.13,82" style="fill:none;stroke:black;stroke-width:3" />
<circle cx="1351.18" cy="89.15" r="5" stroke-width="0" fill="#FF2A00" opacity="0.7" />
<path d="M1434.65,17.77c0.85,0.85,0.99,2.07,1,3.1c0.6,45.88-1.93,62.23-9.1,76.24" style="fill:none;stroke:#999;stroke-width:3" />
<path d="M1436.58,19.37c2.92-0.49,10.73-2.39,12.11-2.52c2.47-0.23,3.09,1.34,3.09,2.73c0,3.31,0.04,49.31,0.04,68.08c0,11.34-4.97,3.89-6.55,2.34" style="fill:none;stroke:#999;stroke-width:3" />
<path d="M1436.58,39.21c4.07-0.36,10.67-1.21,15.08-1.62" style="fill:none;stroke:#999;stroke-width:3" />
<path d="M1436.54,57.59c4.34-0.34,10.28-1.06,14.82-1.49" style="fill:none;stroke:#999;stroke-width:3" />
<path d="M1460.37,25.67c1.51,0.6,3.31,0.61,4.92,0.47c5.26-0.46,12.25-2.03,16.72-2.54c1.18-0.14,2.34-0.23,3.51,0.03" style="fill:none;stroke:#999;stroke-width:3" />
<path d="M1471.27,12.76c1.05,1.05,1.32,2.12,1.32,3.94c0,4.05-0.07,12.55-0.07,20.39" style="fill:none;stroke:#999;stroke-width:3" />
<path d="M1458.44,38.28c1.29,0.46,3.09,0.55,4.44,0.4c4.97-0.56,12.64-2.01,19.25-3c1.43-0.21,2.65-0.45,4.07-0.17" style="fill:none;stroke:#999;stroke-width:3" />
<path d="M1460.96,49.22c0.66,0.66,0.92,1.53,1.2,2.52c0.56,1.96,1.36,4.49,1.76,7.24c0.2,1.41,0.64,2.79,0.79,3.98" style="fill:none;stroke:#999;stroke-width:3" />
<path d="M1462.83,50.44c4.56-0.82,13.22-2.71,17.45-3.39c2.12-0.34,3.64,0.17,3.11,2.72c-0.52,2.56-0.96,4.19-2.13,7.96" style="fill:none;stroke:#999;stroke-width:3" />
<path d="M1465.67,60.94c2.48-0.28,8.44-1.02,13.34-1.65c1.55-0.2,2.93-0.36,3.93-0.45" style="fill:none;stroke:#999;stroke-width:3" />
<path d="M1461.75,70.12c1.99,1.7,5.14,7,5.63,9.64" style="fill:none;stroke:#999;stroke-width:3" />
<path d="M1482.52,66.89c0.12,0.92,0,1.81-0.34,2.66c-1.22,3.87-3.02,8.12-7.06,14.07" style="fill:none;stroke:#999;stroke-width:3" />
<path d="M1460.18,89.15c0.51,1.15,1.73,1.58,3.43,0.98C1469.65,88,1476.62,85.12,1485.13,82" style="fill:none;stroke:#999;stroke-width:3" />
<path d="M1509.21,16.5c0.09,0.86,0.11,1.53-0.41,2.23C1506.0,22.5,1501.38,27.5,1492.83,32.92" style="fill:none;stroke:black;stroke-width:3" />
<circle cx="1509.21" cy="16.5" r="5" stroke-width="0" fill="#FF2A00" opacity="0.7" />
<path d="M1543.65,17.77c0.85,0.85,0.99,2.07,1,3.1c0.6,45.88-1.93,62.23-9.1,76.24" style="fill:none;stroke:#999;stroke-width:3" />
<path d="M1545.58,19.37c2.92-0.49,10.73-2.39,12.11-2.52c2.47-0.23,3.09,1.34,3.09,2.73c0,3.31,0.04,49.31,0.04,68.08c0,11.34-4.97,3.89-6.55,2.34" style="fill:none;stroke:#999;stroke-width:3" />
<path d="M1545.58,39.21c4.07-0.36,10.67-1.21,15.08-1.62" style="fill:none;stroke:#999;stroke-width:3" />
<path d="M1545.54,57.59c4.34-0.34,10.28-1.06,14.82-1.49" style="fill:none;stroke:#999;stroke-width:3" />
<path d="M1569.37,25.67c1.51,0.6,3.31,0.61,4.92,0.47c5.26-0.46,12.25-2.03,16.72-2.54c1.18-0.14,2.34-0.23,3.51,0.03" style="fill:none;stroke:#999;stroke-width:3" />
<path d="M1580.27,12.76c1.05,1.05,1.32,2.12,1.32,3.94c0,4.05-0.07,12.55-0.07,20.39" style="fill:none;stroke:#999;stroke-width:3" />
<path d="M1567.44,38.28c1.29,0.46,3.09,0.55,4.44,0.4c4.97-0.56,12.64-2.01,19.25-3c1.43-0.21,2.65-0.45,4.07-0.17" style="fill:none;stroke:#999;stroke-width:3" />
<path d="M1569.96,49.22c0.66,0.66,0.92,1.53,1.2,2.52c0.56,1.96,1.36,4.49,1.76,7.24c0.2,1.41,0.64,2.79,0.79,3.98" style="fill:none;stroke:#999;stroke-width:3" />
<path d="M1571.83,50.44c4.56-0.82,13.22-2.71,17.45-3.39c2.12-0.34,3.64,0.17,3.11,2.72c-0.52,2.56-0.96,4.19-2.13,7.96" style="fill:none;stroke:#999;stroke-width:3" />
<path d="M1574.67,60.94c2.48-0.28,8.44-1.02,13.34-1.65c1.55-0.2,2.93-0.36,3.93-0.45" style="fill:none;stroke:#999;stroke-width:3" />
<path d="M1570.75,70.12c1.99,1.7,5.14,7,5.63,9.64" style="fill:none;stroke:#999;stroke-width:3" />
<path d="M1591.52,66.89c0.12,0.92,0,1.81-0.34,2.66c-1.22,3.87-3.02,8.12-7.06,14.07" style="fill:none;stroke:#999;stroke-width:3" />
<path d="M1569.18,89.15c0.51,1.15,1.73,1.58,3.43,0.98C1578.65,88,1585.62,85.12,1594.13,82" style="fill:none;stroke:#999;stroke-width:3" />
<path d="M1618.21,16.5c0.09,0.86,0.11,1.53-0.41,2.23C1615.0,22.5,1610.38,27.5,1601.83,32.92" style="fill:none;stroke:#999;stroke-width:3" />
<path d="M1620.05,42.43c0.13,1,0.02,1.64-0.55,2.48c-2.8,4.11-10.98,11.48-20.52,15.99" style="fill:none;stroke:black;stroke-width:3" />
<circle cx="1620.05" cy="42.43" r="5" stroke-width="0" fill="#FF2A00" opacity="0.7" />
<path d="M1652.65,17.77c0.85,0.85,0.99,2.07,1,3.1c0.6,45.88-1.93,62.23-9.1,76.24" style="fill:none;stroke:#999;stroke-width:3" />
<path d="M1654.58,19.37c2.92-0.49,10.73-2.39,12.11-2.52c2.47-0.23,3.09,1.34,3.09,2.73c0,3.31,0.04,49.31,0.04,68.08c0,11.34-4.97,3.89-6.55,2.34" style="fill:none;stroke:#999;stroke-width:3" />
<path d="M1654.58,39.21c4.07-0.36,10.67-1.21,15.08-1.62" style="fill:none;stroke:#999;stroke-width:3" />
<path d="M1654.54,57.59c4.34-0.34,10.28-1.06,14.82-1.49" style="fill:none;stroke:#999;stroke-width:3" />
<path d="M1678.37,25.67c1.51,0.6,3.31,0.61,4.92,0.47c5.26-0.46,12.25-2.03,16.72-2.54c1.18-0.14,2.34-0.23,3.51,0.03" style="fill:none;stroke:#999;stroke-width:3" />
<path d="M1689.27,12.76c1.05,1.05,1.32,2.12,1.32,3.94c0,4.05-0.07,12.55-0.07,20.39" style="fill:none;stroke:#999;stroke-width:3" />
<path d="M1676.44,38.28c1.29,0.46,3.09,0.55,4.44,0.4c4.97-0.56,12.64-2.01,19.25-3c1.43-0.21,2.65-0.45,4.07-0.17" style="fill:none;stroke:#999;stroke-width:3" />
<path d="M1678.96,49.22c0.66,0.66,0.92,1.53,1.2,2.52c0.56,1.96,1.36,4.49,1.76,7.24c0.2,1.41,0.64,2.79,0.79,3.98" style="fill:none;stroke:#999;stroke-width:3" />
<path d="M1680.83,50.44c4.56-0.82,13.22-2.71,17.45-3.39c2.12-0.34,3.64,0.17,3.11,2.72c-0.52,2.56-0.96,4.19-2.13,7.96" style="fill:none;stroke:#999;stroke-width:3" />
<path d="M1683.67,60.94c2.48-0.28,8.44-1.02,13.34-1.65c1.55-0.2,2.93-0.36,3.93-0.45" style="fill:none;stroke:#999;stroke-width:3" />
<path d="M1679.75,70.12c1.99,1.7,5.14,7,5.63,9.64" style="fill:none;stroke:#999;stroke-width:3" />
<path d="M1700.52,66.89c0.12,0.92,0,1.81-0.34,2.66c-1.22,3.87-3.02,8.12-7.06,14.07" style="fill:none;stroke:#999;stroke-width:3" />
<path d="M1678.18,89.15c0.51,1.15,1.73,1.58,3.43,0.98C1687.65,88,1694.62,85.12,1703.13,82" style="fill:none;stroke:#999;stroke-width:3" />
<path d="M1727.21,16.5c0.09,0.86,0.11,1.53-0.41,2.23C1724.0,22.5,1719.38,27.5,1710.83,32.92" style="fill:none;stroke:#999;stroke-width:3" />
<path d="M1729.05,42.43c0.13,1,0.02,1.64-0.55,2.48c-2.8,4.11-10.98,11.48-20.52,15.99" style="fill:none;stroke:#999;stroke-width:3" />
<path d="M1732.29,68.59c0.1,0.67-0.06,2.19-0.62,3.07C1727.94,77.51,1716.88,88.5,1698.44,97" style="fill:none;stroke:black;stroke-width:3" />
<circle cx="1732.29" cy="68.59" r="5" stroke-width="0" fill="#FF2A00" opacity="0.7" />
</svg>