<svg width="1526px" height="109px" viewBox="0 0 1526px 109px" xmlns="http://www.w3.org/2000/svg" xmlns:xlink="http://www.w3.org/1999/xlink" xml:space="preserve" version="1.1"  baseProfile="full">
<line x1="1" y1="1" x2="1525" y2="1" style="stroke:#ddd;stroke-width:2" />
<line x1="1" y1="1" x2="1" y2="108" style="stroke:#ddd;stroke-width:2" />
<line x1="1" y1="108" x2="1525" y2="108" style="stroke:#ddd;stroke-width:2" />
<line x1="1525" y1="1" x2="1525" y2="108" style="stroke:#ddd;stroke-width:2" />
<line x1="109" y1="1" x2="109" y2="108" style="stroke:#ddd;stroke-width:2" />
<line x1="218" y1="1" x2="218" y2="108" style="stroke:#ddd;stroke-width:2" />
<line x1="327" y1="1" x2="327" y2="108" style="stroke:#ddd;stroke-width:2" />
<line x1="436" y1="1" x2="436" y2="108" style="stroke:#ddd;stroke-width:2" />
<line x1="545" y1="1" x2="545" y2="108" style="stroke:#ddd;stroke-width:2" />
<line x1="654" y1="1" x2="654" y2="108" style="stroke:#ddd;stroke-width:2" />
<line x1="763" y1="1" x2="763" y2="108" style="stroke:#ddd;stroke-width:2" />
<line x1="872" y1="1" x2="872" y2="108" style="stroke:#ddd;stroke-width:2" />
<line x1="981" y1="1" x2="981" y2="108" style="stroke:#ddd;stroke-width:2" />
<line x1="1090" y1="1" x2="1090" y2="108" style="stroke:#ddd;stroke-width:2" />
<line x1="1199" y1="1" x2="1199" y2="108" style="stroke:#ddd;stroke-width:2" />
<line x1="1308" y1="1" x2="1308" y2="108" style="stroke:#ddd;stroke-width:2" />
<line x1="1417" y1="1" x2="1417" y2="108" style="stroke:#ddd;stroke-width:2" />
<line x1="1" y1="54" x2="1525" y2="54" style="stroke:#ddd;stroke-width:2;stroke-dasharray:3 3" />
<line x1="55" y1="1" x2="55" y2="108" style="stroke:#ddd;stroke-width:2;stroke-dasharray:3 3" />
<line x1="164" y1="1" x2="164" y2="108" style="stroke:#ddd;stroke-width:2;stroke-dasharray:3 3" />
<line x1="273" y1="1" x2="273" y2="108" style="stroke:#ddd;stroke-width:2;stroke-dasharray:3 3" />
<line x1="382" y1="1" x2="382" y2="108" style="stroke:#ddd;stroke-width:2;stroke-dasharray:3 3" />
<line x1="491" y1="1" x2="491" y2="108" style="stroke:#ddd;stroke-width:2;stroke-dasharray:3 3" />
<line x1="600" y1="1" x2="600" y2="108" style="stroke:#ddd;stroke-width:2;stroke-dasharray:3 3" />
<line x1="709" y1="1" x2="709" y2="108" style="stroke:#ddd;stroke-width:2;stroke-dasharray:3 3" />
<line x1="818" y1="1" x2="818" y2="108" style="stroke:#ddd;stroke-width:2;stroke-dasharray:3 3" />
<line x1="927" y1="1" x2="927" y2="108" style="stroke:#ddd;stroke-width:2;stroke-dasharray:3 3" />
<line x1="1036" y1="1" x2="1036" y2="108" style="stroke:#ddd;stroke-width:2;stroke-dasharray:3 3" />
<line x1="1145" y1="1" x2="1145" y2="108" style="stroke:#ddd;stroke-width:2;stroke-dasharray:3 3" />
<line x1="1254" y1="1" x2="1254" y2="108" style="stroke:#ddd;stroke-width:2;stroke-dasharray:3 3" />
<line x1="1363" y1="1" x2="1363" y2="108" style="stroke:#ddd;stroke-width:2;stroke-dasharray:3 3" />
<line x1="1472" y1="1" x2="1472" y2="108" style="stroke:#ddd;stroke-width:2;stroke-dasharray:3 3" />
<path d="M19.5,20.27c1.67,0.53,3.61,0.63,5.29,0.53c15.36-0.96,41.16-3.46,58.86-3.53c2.79-0.01,4.46,0.25,5.85,0.51" style="fill:none;stroke:black;stroke-width:3" />
<circle cx="19.5" cy="20.27" r="5" stroke-width="0" fill="#FF2A00" opacity="0.7" />
<path d="M128.5,20.27c1.67,0.53,3.61,0.63,5.29,0.53c15.36-0.96,41.16-3.46,58.86-3.53c2.79-0.01,4.46,0.25,5.85,0.51" style="fill:none;stroke:#999;stroke-width:3" />
<path d="M147.23,11c1.43,1.17,1.88,1.52,2.04,2.24c1.42,6.72,2.33,12.82,2.74,15.26" style="fill:none;stroke:black;stroke-width:3" />
<circle cx="147.23" cy="11.0" r="5" stroke-width="0" fill="#FF2A00" opacity="0.7" />
<path d="M237.5,20.27c1.67,0.53,3.61,0.63,5.29,0.53c15.36-0.96,41.16-3.46,58.86-3.53c2.79-0.01,4.46,0.25,5.85,0.51" style="fill:none;stroke:#999;stroke-width:3" />
<path d="M256.23,11c1.43,1.17,1.88,1.52,2.04,2.24c1.42,6.72,2.33,12.82,2.74,15.26" style="fill:none;stroke:#999;stroke-width:3" />
<path d="M284.47,8.75c1.02,0.91,1.7,2.29,1.36,3.63c-1.02,4.09-2.61,10.9-4.09,16.12" style="fill:none;stroke:black;stroke-width:3" />
<circle cx="284.47" cy="8.75" r="5" stroke-width="0" fill="#FF2A00" opacity="0.7" />
<path d="M346.5,20.27c1.67,0.53,3.61,0.63,5.29,0.53c15.36-0.96,41.16-3.46,58.86-3.53c2.79-0.01,4.46,0.25,5.85,0.51" style="fill:none;stroke:#999;stroke-width:3" />
<path d="M365.23,11c1.43,1.17,1.88,1.52,2.04,2.24c1.42,6.72,2.33,12.82,2.74,15.26" style="fill:none;stroke:#999;stroke-width:3" />
<path d="M393.47,8.75c1.02,0.91,1.7,2.29,1.36,3.63c-1.02,4.09-2.61,10.9-4.09,16.12" style="fill:none;stroke:#999;stroke-width:3" />
<path d="M361.86,28.5c0.83,1.09,1.12,2.85,0.36,4.25C358.0,40.5,351.75,46.5,347.86,50.95" style="fill:none;stroke:black;stroke-width:3" />
<circle cx="361.86" cy="28.5" r="5" stroke-width="0" fill="#FF2A00" opacity="0.7" />
<path d="M455.5,20.27c1.67,0.53,3.61,0.63,5.29,0.53c15.36-0.96,41.16-3.46,58.86-3.53c2.79-0.01,4.46,0.25,5.85,0.51" style="fill:none;stroke:#999;stroke-width:3" />
<path d="M474.23,11c1.43,1.17,1.88,1.52,2.04,2.24c1.42,6.72,2.33,12.82,2.74,15.26" style="fill:none;stroke:#999;stroke-width:3" />
<path d="M502.47,8.75c1.02,0.91,1.7,2.29,1.36,3.63c-1.02,4.09-2.61,10.9-4.09,16.12" style="fill:none;stroke:#999;stroke-width:3" />
<path d="M470.86,28.5c0.83,1.09,1.12,2.85,0.36,4.25C467.0,40.5,460.75,46.5,456.86,50.95" style="fill:none;stroke:#999;stroke-width:3" />
<path d="M471.61,36.52c0.79-0.08,2.89-0.27,4.14-0.52c2.68-0.54,5.03-1.31,7.48-1.64c3.58-0.48,3.72,0.77,2.86,3.14c-3.58,9.92-16.1,25.64-34.57,35.08" style="fill:none;stroke:black;stroke-width:3" />
<circle cx="471.61" cy="36.52" r="5" stroke-width="0" fill="#FF2A00" opacity="0.7" />
<path d="M564.5,20.27c1.67,0.53,3.61,0.63,5.29,0.53c15.36-0.96,41.16-3.46,58.86-3.53c2.79-0.01,4.46,0.25,5.85,0.51" style="fill:none;stroke:#999;stroke-width:3" />
<path d="M583.23,11c1.43,1.17,1.88,1.52,2.04,2.24c1.42,6.72,2.33,12.82,2.74,15.26" style="fill:none;stroke:#999;stroke-width:3" />
<path d="M611.47,8.75c1.02,0.91,1.7,2.29,1.36,3.63c-1.02,4.09-2.61,10.9-4.09,16.12" style="fill:none;stroke:#999;stroke-width:3" />
<path d="M579.86,28.5c0.83,1.09,1.12,2.85,0.36,4.25C576.0,40.5,569.75,46.5,565.86,50.95" style="fill:none;stroke:#999;stroke-width:3" />
<path d="M580.61,36.52c0.79-0.08,2.89-0.27,4.14-0.52c2.68-0.54,5.03-1.31,7.48-1.64c3.58-0.48,3.72,0.77,2.86,3.14c-3.58,9.92-16.1,25.64-34.57,35.08" style="fill:none;stroke:#999;stroke-width:3" />
<path d="M578.97,42.76c0.76,0.54,3.82,3.76,5.35,6.98" style="fill:none;stroke:black;stroke-width:3" />
<circle cx="578.97" cy="42.76" r="5" stroke-width="0" fill="#FF2A00" opacity="0.7" />
<path d="M673.5,20.27c1.67,0.53,3.61,0.63,5.29,0.53c15.36-0.96,41.16-3.46,58.86-3.53c2.79-0.01,4.46,0.25,5.85,0.51" style="fill:none;stroke:#999;stroke-width:3" />
<path d="M692.23,11c1.43,1.17,1.88,1.52,2.04,2.24c1.42,6.72,2.33,12.82,2.74,15.26" style="fill:none;stroke:#999;stroke-width:3" />
<path d="M720.47,8.75c1.02,0.91,1.7,2.29,1.36,3.63c-1.02,4.09-2.61,10.9-4.09,16.12" style="fill:none;stroke:#999;stroke-width:3" />
<path d="M688.86,28.5c0.83,1.09,1.12,2.85,0.36,4.25C685.0,40.5,678.75,46.5,674.86,50.95" style="fill:none;stroke:#999;stroke-width:3" />
<path d="M689.61,36.52c0.79-0.08,2.89-0.27,4.14-0.52c2.68-0.54,5.03-1.31,7.48-1.64c3.58-0.48,3.72,0.77,2.86,3.14c-3.58,9.92-16.1,25.64-34.57,35.08" style="fill:none;stroke:#999;stroke-width:3" />
<path d="M687.97,42.76c0.76,0.54,3.82,3.76,5.35,6.98" style="fill:none;stroke:#999;stroke-width:3" />
<path d="M680.01,50.96c0.98,1.17,3.9,6.12,4.71,8.74" style="fill:none;stroke:black;stroke-width:3" />
<circle cx="680.01" cy="50.96" r="5" stroke-width="0" fill="#FF2A00" opacity="0.7" />
<path d="M782.5,20.27c1.67,0.53,3.61,0.63,5.29,0.53c15.36-0.96,41.16-3.46,58.86-3.53c2.79-0.01,4.46,0.25,5.85,0.51" style="fill:none;stroke:#999;stroke-width:3" />
<path d="M801.23,11c1.43,1.17,1.88,1.52,2.04,2.24c1.42,6.72,2.33,12.82,2.74,15.26" style="fill:none;stroke:#999;stroke-width:3" />
<path d="M829.47,8.75c1.02,0.91,1.7,2.29,1.36,3.63c-1.02,4.09-2.61,10.9-4.09,16.12" style="fill:none;stroke:#999;stroke-width:3" />
<path d="M797.86,28.5c0.83,1.09,1.12,2.85,0.36,4.25C794.0,40.5,787.75,46.5,783.86,50.95" style="fill:none;stroke:#999;stroke-width:3" />
<path d="M798.61,36.52c0.79-0.08,2.89-0.27,4.14-0.52c2.68-0.54,5.03-1.31,7.48-1.64c3.58-0.48,3.72,0.77,2.86,3.14c-3.58,9.92-16.1,25.64-34.57,35.08" style="fill:none;stroke:#999;stroke-width:3" />
<path d="M796.97,42.76c0.76,0.54,3.82,3.76,5.35,6.98" style="fill:none;stroke:#999;stroke-width:3" />
<path d="M789.01,50.96c0.98,1.17,3.9,6.12,4.71,8.74" style="fill:none;stroke:#999;stroke-width:3" />
<path d="M829.66,32.99c1.68,0.52,1.47,1.04,2.73,0.69c1.26-0.35,9.31-1.98,12.27-2.93c1.59-0.51,2.84,1.49,1.77,2.75c-2.17,2.57-6.68,7.74-11.53,11.79" style="fill:none;stroke:black;stroke-width:3" />
<circle cx="829.66" cy="32.99" r="5" stroke-width="0" fill="#FF2A00" opacity="0.7" />
<path d="M891.5,20.27c1.67,0.53,3.61,0.63,5.29,0.53c15.36-0.96,41.16-3.46,58.86-3.53c2.79-0.01,4.46,0.25,5.85,0.51" style="fill:none;stroke:#999;stroke-width:3" />
<path d="M910.23,11c1.43,1.17,1.88,1.52,2.04,2.24c1.42,6.72,2.33,12.82,2.74,15.26" style="fill:none;stroke:#999;stroke-width:3" />
<path d="M938.47,8.75c1.02,0.91,1.7,2.29,1.36,3.63c-1.02,4.09-2.61,10.9-4.09,16.12" style="fill:none;stroke:#999;stroke-width:3" />
<path d="M906.86,28.5c0.83,1.09,1.12,2.85,0.36,4.25C903.0,40.5,896.75,46.5,892.86,50.95" style="fill:none;stroke:#999;stroke-width:3" />
<path d="M907.61,36.52c0.79-0.08,2.89-0.27,4.14-0.52c2.68-0.54,5.03-1.31,7.48-1.64c3.58-0.48,3.72,0.77,2.86,3.14c-3.58,9.92-16.1,25.64-34.57,35.08" style="fill:none;stroke:#999;stroke-width:3" />
<path d="M905.97,42.76c0.76,0.54,3.82,3.76,5.35,6.98" style="fill:none;stroke:#999;stroke-width:3" />
<path d="M898.01,50.96c0.98,1.17,3.9,6.12,4.71,8.74" style="fill:none;stroke:#999;stroke-width:3" />
<path d="M938.66,32.99c1.68,0.52,1.47,1.04,2.73,0.69c1.26-0.35,9.31-1.98,12.27-2.93c1.59-0.51,2.84,1.49,1.77,2.75c-2.17,2.57-6.68,7.74-11.53,11.79" style="fill:none;stroke:#999;stroke-width:3" />
<path d="M926.99,31.1c3.4-0.36,18.76,20.15,25.43,26.7c2.12,2.08,6.08,5.44,9.97,7.54" style="fill:none;stroke:black;stroke-width:3" />
<circle cx="926.99" cy="31.1" r="5" stroke-width="0" fill="#FF2A00" opacity="0.7" />
<path d="M1000.5,20.27c1.67,0.53,3.61,0.63,5.29,0.53c15.36-0.96,41.16-3.46,58.86-3.53c2.79-0.01,4.46,0.25,5.85,0.51" style="fill:none;stroke:#999;stroke-width:3" />
<path d="M1019.23,11c1.43,1.17,1.88,1.52,2.04,2.24c1.42,6.72,2.33,12.82,2.74,15.26" style="fill:none;stroke:#999;stroke-width:3" />
<path d="M1047.47,8.75c1.02,0.91,1.7,2.29,1.36,3.63c-1.02,4.09-2.61,10.9-4.09,16.12" style="fill:none;stroke:#999;stroke-width:3" />
<path d="M1015.86,28.5c0.83,1.09,1.12,2.85,0.36,4.25C1012.0,40.5,1005.75,46.5,1001.86,50.95" style="fill:none;stroke:#999;stroke-width:3" />
<path d="M1016.61,36.52c0.79-0.08,2.89-0.27,4.14-0.52c2.68-0.54,5.03-1.31,7.48-1.64c3.58-0.48,3.72,0.77,2.86,3.14c-3.58,9.92-16.1,25.64-34.57,35.08" style="fill:none;stroke:#999;stroke-width:3" />
<path d="M1014.97,42.76c0.76,0.54,3.82,3.76,5.35,6.98" style="fill:none;stroke:#999;stroke-width:3" />
<path d="M1007.01,50.96c0.98,1.17,3.9,6.12,4.71,8.74" style="fill:none;stroke:#999;stroke-width:3" />
<path d="M1047.6599999999999,32.99c1.68,0.52,1.47,1.04,2.73,0.69c1.26-0.35,9.31-1.98,12.27-2.93c1.59-0.51,2.84,1.49,1.77,2.75c-2.17,2.57-6.68,7.74-11.53,11.79" style="fill:none;stroke:#999;stroke-width:3" />
<path d="M1035.99,31.1c3.4-0.36,18.76,20.15,25.43,26.7c2.12,2.08,6.08,5.44,9.97,7.54" style="fill:none;stroke:#999;stroke-width:3" />
<path d="M1023.19,59.5c0.87,0.29,2.47,0.37,3.33,0.29c5.55-0.51,15.38-2.34,20.75-2c1.45,0.09,2.32,0.14,3.05,0.29" style="fill:none;stroke:black;stroke-width:3" />
<circle cx="1023.19" cy="59.5" r="5" stroke-width="0" fill="#FF2A00" opacity="0.7" />
<path d="M1109.5,20.27c1.67,0.53,3.61,0.63,5.29,0.53c15.36-0.96,41.16-3.46,58.86-3.53c2.79-0.01,4.46,0.25,5.85,0.51" style="fill:none;stroke:#999;stroke-width:3" />
<path d="M1128.23,11c1.43,1.17,1.88,1.52,2.04,2.24c1.42,6.72,2.33,12.82,2.74,15.26" style="fill:none;stroke:#999;stroke-width:3" />
<path d="M1156.47,8.75c1.02,0.91,1.7,2.29,1.36,3.63c-1.02,4.09-2.61,10.9-4.09,16.12" style="fill:none;stroke:#999;stroke-width:3" />
<path d="M1124.8600000000001,28.5c0.83,1.09,1.12,2.85,0.36,4.25C1121.0,40.5,1114.75,46.5,1110.8600000000001,50.95" style="fill:none;stroke:#999;stroke-width:3" />
<path d="M1125.6100000000001,36.52c0.79-0.08,2.89-0.27,4.14-0.52c2.68-0.54,5.03-1.31,7.48-1.64c3.58-0.48,3.72,0.77,2.86,3.14c-3.58,9.92-16.1,25.64-34.57,35.08" style="fill:none;stroke:#999;stroke-width:3" />
<path d="M1123.97,42.76c0.76,0.54,3.82,3.76,5.35,6.98" style="fill:none;stroke:#999;stroke-width:3" />
<path d="M1116.01,50.96c0.98,1.17,3.9,6.12,4.71,8.74" style="fill:none;stroke:#999;stroke-width:3" />
<path d="M1156.6599999999999,32.99c1.68,0.52,1.47,1.04,2.73,0.69c1.26-0.35,9.31-1.98,12.27-2.93c1.59-0.51,2.84,1.49,1.77,2.75c-2.17,2.57-6.68,7.74-11.53,11.79" style="fill:none;stroke:#999;stroke-width:3" />
<path d="M1144.99,31.1c3.4-0.36,18.76,20.15,25.43,26.7c2.12,2.08,6.08,5.44,9.97,7.54" style="fill:none;stroke:#999;stroke-width:3" />
<path d="M1132.19,59.5c0.87,0.29,2.47,0.37,3.33,0.29c5.55-0.51,15.38-2.34,20.75-2c1.45,0.09,2.32,0.14,3.05,0.29" style="fill:none;stroke:#999;stroke-width:3" />
<path d="M1120.33,72.83c1.51,0.33,4.3,0.42,5.8,0.33c10.48-0.66,25-2.41,38.85-2.66c2.52-0.04,4.04,0.16,5.3,0.32" style="fill:none;stroke:black;stroke-width:3" />
<circle cx="1120.33" cy="72.83" r="5" stroke-width="0" fill="#FF2A00" opacity="0.7" />
<path d="M1218.5,20.27c1.67,0.53,3.61,0.63,5.29,0.53c15.36-0.96,41.16-3.46,58.86-3.53c2.79-0.01,4.46,0.25,5.85,0.51" style="fill:none;stroke:#999;stroke-width:3" />
<path d="M1237.23,11c1.43,1.17,1.88,1.52,2.04,2.24c1.42,6.72,2.33,12.82,2.74,15.26" style="fill:none;stroke:#999;stroke-width:3" />
<path d="M1265.47,8.75c1.02,0.91,1.7,2.29,1.36,3.63c-1.02,4.09-2.61,10.9-4.09,16.12" style="fill:none;stroke:#999;stroke-width:3" />
<path d="M1233.8600000000001,28.5c0.83,1.09,1.12,2.85,0.36,4.25C1230.0,40.5,1223.75,46.5,1219.8600000000001,50.95" style="fill:none;stroke:#999;stroke-width:3" />
<path d="M1234.6100000000001,36.52c0.79-0.08,2.89-0.27,4.14-0.52c2.68-0.54,5.03-1.31,7.48-1.64c3.58-0.48,3.72,0.77,2.86,3.14c-3.58,9.92-16.1,25.64-34.57,35.08" style="fill:none;stroke:#999;stroke-width:3" />
<path d="M1232.97,42.76c0.76,0.54,3.82,3.76,5.35,6.98" style="fill:none;stroke:#999;stroke-width:3" />
<path d="M1225.01,50.96c0.98,1.17,3.9,6.12,4.71,8.74" style="fill:none;stroke:#999;stroke-width:3" />
<path d="M1265.6599999999999,32.99c1.68,0.52,1.47,1.04,2.73,0.69c1.26-0.35,9.31-1.98,12.27-2.93c1.59-0.51,2.84,1.49,1.77,2.75c-2.17,2.57-6.68,7.74-11.53,11.79" style="fill:none;stroke:#999;stroke-width:3" />
<path d="M1253.99,31.1c3.4-0.36,18.76,20.15,25.43,26.7c2.12,2.08,6.08,5.44,9.97,7.54" style="fill:none;stroke:#999;stroke-width:3" />
<path d="M1241.19,59.5c0.87,0.29,2.47,0.37,3.33,0.29c5.55-0.51,15.38-2.34,20.75-2c1.45,0.09,2.32,0.14,3.05,0.29" style="fill:none;stroke:#999;stroke-width:3" />
<path d="M1229.33,72.83c1.51,0.33,4.3,0.42,5.8,0.33c10.48-0.66,25-2.41,38.85-2.66c2.52-0.04,4.04,0.16,5.3,0.32" style="fill:none;stroke:#999;stroke-width:3" />
<path d="M1253.99,73.91c0.08,0.38,1.2,1.96,1.2,4.34c0,3.7-0.24,11.82-0.24,15.72c0,8.63-6.98,1.1-8.29,0.2" style="fill:none;stroke:black;stroke-width:3" />
<circle cx="1253.99" cy="73.91" r="5" stroke-width="0" fill="#FF2A00" opacity="0.7" />
<path d="M1327.5,20.27c1.67,0.53,3.61,0.63,5.29,0.53c15.36-0.96,41.16-3.46,58.86-3.53c2.79-0.01,4.46,0.25,5.85,0.51" style="fill:none;stroke:#999;stroke-width:3" />
<path d="M1346.23,11c1.43,1.17,1.88,1.52,2.04,2.24c1.42,6.72,2.33,12.82,2.74,15.26" style="fill:none;stroke:#999;stroke-width:3" />
<path d="M1374.47,8.75c1.02,0.91,1.7,2.29,1.36,3.63c-1.02,4.09-2.61,10.9-4.09,16.12" style="fill:none;stroke:#999;stroke-width:3" />
<path d="M1342.8600000000001,28.5c0.83,1.09,1.12,2.85,0.36,4.25C1339.0,40.5,1332.75,46.5,1328.8600000000001,50.95" style="fill:none;stroke:#999;stroke-width:3" />
<path d="M1343.6100000000001,36.52c0.79-0.08,2.89-0.27,4.14-0.52c2.68-0.54,5.03-1.31,7.48-1.64c3.58-0.48,3.72,0.77,2.86,3.14c-3.58,9.92-16.1,25.64-34.57,35.08" style="fill:none;stroke:#999;stroke-width:3" />
<path d="M1341.97,42.76c0.76,0.54,3.82,3.76,5.35,6.98" style="fill:none;stroke:#999;stroke-width:3" />
<path d="M1334.01,50.96c0.98,1.17,3.9,6.12,4.71,8.74" style="fill:none;stroke:#999;stroke-width:3" />
<path d="M1374.6599999999999,32.99c1.68,0.52,1.47,1.04,2.73,0.69c1.26-0.35,9.31-1.98,12.27-2.93c1.59-0.51,2.84,1.49,1.77,2.75c-2.17,2.57-6.68,7.74-11.53,11.79" style="fill:none;stroke:#999;stroke-width:3" />
<path d="M1362.99,31.1c3.4-0.36,18.76,20.15,25.43,26.7c2.12,2.08,6.08,5.44,9.97,7.54" style="fill:none;stroke:#999;stroke-width:3" />
<path d="M1350.19,59.5c0.87,0.29,2.47,0.37,3.33,0.29c5.55-0.51,15.38-2.34,20.75-2c1.45,0.09,2.32,0.14,3.05,0.29" style="fill:none;stroke:#999;stroke-width:3" />
<path d="M1338.33,72.83c1.51,0.33,4.3,0.42,5.8,0.33c10.48-0.66,25-2.41,38.85-2.66c2.52-0.04,4.04,0.16,5.3,0.32" style="fill:none;stroke:#999;stroke-width:3" />
<path d="M1362.99,73.91c0.08,0.38,1.2,1.96,1.2,4.34c0,3.7-0.24,11.82-0.24,15.72c0,8.63-6.98,1.1-8.29,0.2" style="fill:none;stroke:#999;stroke-width:3" />
<path d="M1346.15,79.86c0.05,0.4,0.11,1.05-0.1,1.63c-1.2,3.42-9.93,10.12-19.39,14.72" style="fill:none;stroke:black;stroke-width:3" />
<circle cx="1346.15" cy="79.86" r="5" stroke-width="0" fill="#FF2A00" opacity="0.7" />
<path d="M1436.5,20.27c1.67,0.53,3.61,0.63,5.29,0.53c15.36-0.96,41.16-3.46,58.86-3.53c2.79-0.01,4.46,0.25,5.85,0.51" style="fill:none;stroke:#999;stroke-width:3" />
<path d="M1455.23,11c1.43,1.17,1.88,1.52,2.04,2.24c1.42,6.72,2.33,12.82,2.74,15.26" style="fill:none;stroke:#999;stroke-width:3" />
<path d="M1483.47,8.75c1.02,0.91,1.7,2.29,1.36,3.63c-1.02,4.09-2.61,10.9-4.09,16.12" style="fill:none;stroke:#999;stroke-width:3" />
<path d="M1451.8600000000001,28.5c0.83,1.09,1.12,2.85,0.36,4.25C1448.0,40.5,1441.75,46.5,1437.8600000000001,50.95" style="fill:none;stroke:#999;stroke-width:3" />
<path d="M1452.6100000000001,36.52c0.79-0.08,2.89-0.27,4.14-0.52c2.68-0.54,5.03-1.31,7.48-1.64c3.58-0.48,3.72,0.77,2.86,3.14c-3.58,9.92-16.1,25.64-34.57,35.08" style="fill:none;stroke:#999;stroke-width:3" />
<path d="M1450.97,42.76c0.76,0.54,3.82,3.76,5.35,6.98" style="fill:none;stroke:#999;stroke-width:3" />
<path d="M1443.01,50.96c0.98,1.17,3.9,6.12,4.71,8.74" style="fill:none;stroke:#999;stroke-width:3" />
<path d="M1483.6599999999999,32.99c1.68,0.52,1.47,1.04,2.73,0.69c1.26-0.35,9.31-1.98,12.27-2.93c1.59-0.51,2.84,1.49,1.77,2.75c-2.17,2.57-6.68,7.74-11.53,11.79" style="fill:none;stroke:#999;stroke-width:3" />
<path d="M1471.99,31.1c3.4-0.36,18.76,20.15,25.43,26.7c2.12,2.08,6.08,5.44,9.97,7.54" style="fill:none;stroke:#999;stroke-width:3" />
<path d="M1459.19,59.5c0.87,0.29,2.47,0.37,3.33,0.29c5.55-0.51,15.38-2.34,20.75-2c1.45,0.09,2.32,0.14,3.05,0.29" style="fill:none;stroke:#999;stroke-width:3" />
<path d="M1447.33,72.83c1.51,0.33,4.3,0.42,5.8,0.33c10.48-0.66,25-2.41,38.85-2.66c2.52-0.04,4.04,0.16,5.3,0.32" style="fill:none;stroke:#999;stroke-width:3" />
<path d="M1471.99,73.91c0.08,0.38,1.2,1.96,1.2,4.34c0,3.7-0.24,11.82-0.24,15.72c0,8.63-6.98,1.1-8.29,0.2" style="fill:none;stroke:#999;stroke-width:3" />
<path d="M1455.15,79.86c0.05,0.4,0.11,1.05-0.1,1.63c-1.2,3.42-9.93,10.12-19.39,14.72" style="fill:none;stroke:#999;stroke-width:3" />
<path d="M1486.43,77.9c6.26,3.3,16.48,13.2,18.04,18.33" style="fill:none;stroke:black;stroke-width:3" />
<circle cx="1486.43" cy="77.9" r="5" stroke-width="0" fill="#FF2A00" opacity="0.7" />
</svg>