<svg width="1417px" height="109px" viewBox="0 0 1417px 109px" xmlns="http://www.w3.org/2000/svg" xmlns:xlink="http://www.w3.org/1999/xlink" xml:space="preserve" version="1.1"  baseProfile="full">
<line x1="1" y1="1" x2="1416" y2="1" style="stroke:#ddd;stroke-width:2" />
<line x1="1" y1="1" x2="1" y2="108" style="stroke:#ddd;stroke-width:2" />
<line x1="1" y1="108" x2="1416" y2="108" style="stroke:#ddd;stroke-width:2" />
<line x1="1416" y1="1" x2="1416" y2="108" style="stroke:#ddd;stroke-width:2" />
<line x1="109" y1="1" x2="109" y2="108" style="stroke:#ddd;stroke-width:2" />
<line x1="218" y1="1" x2="218" y2="108" style="stroke:#ddd;stroke-width:2" />
<line x1="327" y1="1" x2="327" y2="108" style="stroke:#ddd;stroke-width:2" />
<line x1="436" y1="1" x2="436" y2="108" style="stroke:#ddd;stroke-width:2" />
<line x1="545" y1="1" x2="545" y2="108" style="stroke:#ddd;stroke-width:2" />
<line x1="654" y1="1" x2="654" y2="108" style="stroke:#ddd;stroke-width:2" />
<line x1="763" y1="1" x2="763" y2="108" style="stroke:#ddd;stroke-width:2" />
<line x1="872" y1="1" x2="872" y2="108" style="stroke:#ddd;stroke-width:2" />
<line x1="981" y1="1" x2="981" y2="108" style="stroke:#ddd;stroke-width:2" />
<line x1="1090" y1="1" x2="1090" y2="108" style="stroke:#ddd;stroke-width:2" />
<line x1="1199" y1="1" x2="1199" y2="108" style="stroke:#ddd;stroke-width:2" />
<line x1="1308" y1="1" x2="1308" y2="108" style="stroke:#ddd;stroke-width:2" />
<line x1="1" y1="54" x2="1416" y2="54" style="stroke:#ddd;stroke-width:2;stroke-dasharray:3 3" />
<line x1="55" y1="1" x2="55" y2="108" style="stroke:#ddd;stroke-width:2;stroke-dasharray:3 3" />
<line x1="164" y1="1" x2="164" y2="108" style="stroke:#ddd;stroke-width:2;stroke-dasharray:3 3" />
<line x1="273" y1="1" x2="273" y2="108" style="stroke:#ddd;stroke-width:2;stroke-dasharray:3 3" />
<line x1="382" y1="1" x2="382" y2="108" style="stroke:#ddd;stroke-width:2;stroke-dasharray:3 3" />
<line x1="491" y1="1" x2="491" y2="108" style="stroke:#ddd;stroke-width:2;stroke-dasharray:3 3" />
<line x1="600" y1="1" x2="600" y2="108" style="stroke:#ddd;stroke-width:2;stroke-dasharray:3 3" />
<line x1="709" y1="1" x2="709" y2="108" style="stroke:#ddd;stroke-width:2;stroke-dasharray:3 3" />
<line x1="818" y1="1" x2="818" y2="108" style="stroke:#ddd;stroke-width:2;stroke-dasharray:3 3" />
<line x1="927" y1="1" x2="927" y2="108" style="stroke:#ddd;stroke-width:2;stroke-dasharray:3 3" />
<line x1="1036" y1="1" x2="1036" y2="108" style="stroke:#ddd;stroke-width:2;stroke-dasharray:3 3" />
<line x1="1145" y1="1" x2="1145" y2="108" style="stroke:#ddd;stroke-width:2;stroke-dasharray:3 3" />
<line x1="1254" y1="1" x2="1254" y2="108" style="stroke:#ddd;stroke-width:2;stroke-dasharray:3 3" />
<line x1="1363" y1="1" x2="1363" y2="108" style="stroke:#ddd;stroke-width:2;stroke-dasharray:3 3" />
<path d="M 29.48,13.46 c 1.17,0.47 1.87,1.92 1.84,3.04 -0.12,4.27 -0.22,8.68 -0.09,12.3" style="fill:none;stroke:black;stroke-width:3" />
<circle cx="29.48" cy="13.46" r="5" stroke-width="0" fill="#FF2A00" opacity="0.7" />
<path d="M 29.48,13.46 c 1.17,0.47 1.87,1.92 1.84,3.04 -0.12,4.27 -0.22,8.68 -0.09,12.3" style="fill:none;stroke:#999;stroke-width:3" />
<path d="M 12.14,30.67 c 0.89,0.1 2.92,0.12 3.8,0.04 7.56,-0.7 17.29,-2.13 27.57,-2.67 1.48,-0.08 2.35,-0.18 3.09,-0.16" style="fill:none;stroke:black;stroke-width:3" />
<circle cx="121.14" cy="30.67" r="5" stroke-width="0" fill="#FF2A00" opacity="0.7" />
<path d="M 29.48,13.46 c 1.17,0.47 1.87,1.92 1.84,3.04 -0.12,4.27 -0.22,8.68 -0.09,12.3" style="fill:none;stroke:#999;stroke-width:3" />
<path d="M 12.14,30.67 c 0.89,0.1 2.92,0.12 3.8,0.04 7.56,-0.7 17.29,-2.13 27.57,-2.67 1.48,-0.08 2.35,-0.18 3.09,-0.16" style="fill:none;stroke:#999;stroke-width:3" />
<path d="M 18.86,33.89 c 2.35,2.49 4.55,9.76 5.09,12.56" style="fill:none;stroke:black;stroke-width:3" />
<circle cx="236.86" cy="33.89" r="5" stroke-width="0" fill="#FF2A00" opacity="0.7" />
<path d="M 29.48,13.46 c 1.17,0.47 1.87,1.92 1.84,3.04 -0.12,4.27 -0.22,8.68 -0.09,12.3" style="fill:none;stroke:#999;stroke-width:3" />
<path d="M 12.14,30.67 c 0.89,0.1 2.92,0.12 3.8,0.04 7.56,-0.7 17.29,-2.13 27.57,-2.67 1.48,-0.08 2.35,-0.18 3.09,-0.16" style="fill:none;stroke:#999;stroke-width:3" />
<path d="M 18.86,33.89 c 2.35,2.49 4.55,9.76 5.09,12.56" style="fill:none;stroke:#999;stroke-width:3" />
<path d="M 40.69,30.86 c 0.31,0.89 0.72,2.14 0.61,2.52 -1.07,3.84 -2.73,8.54 -4.44,11.59" style="fill:none;stroke:black;stroke-width:3" />
<circle cx="367.69" cy="30.86" r="5" stroke-width="0" fill="#FF2A00" opacity="0.7" />
<path d="M 29.48,13.46 c 1.17,0.47 1.87,1.92 1.84,3.04 -0.12,4.27 -0.22,8.68 -0.09,12.3" style="fill:none;stroke:#999;stroke-width:3" />
<path d="M 12.14,30.67 c 0.89,0.1 2.92,0.12 3.8,0.04 7.56,-0.7 17.29,-2.13 27.57,-2.67 1.48,-0.08 2.35,-0.18 3.09,-0.16" style="fill:none;stroke:#999;stroke-width:3" />
<path d="M 18.86,33.89 c 2.35,2.49 4.55,9.76 5.09,12.56" style="fill:none;stroke:#999;stroke-width:3" />
<path d="M 40.69,30.86 c 0.31,0.89 0.72,2.14 0.61,2.52 -1.07,3.84 -2.73,8.54 -4.44,11.59" style="fill:none;stroke:#999;stroke-width:3" />
<path d="M 9.88,50.75 c 1.12,0.25 2.51,0.41 3.63,0.39 6.65,-0.13 20.28,-2.63 31.17,-3.15 1.45,-0.1 3.07,0 3.95,0.49" style="fill:none;stroke:black;stroke-width:3" />
<circle cx="445.88" cy="50.75" r="5" stroke-width="0" fill="#FF2A00" opacity="0.7" />
<path d="M 29.48,13.46 c 1.17,0.47 1.87,1.92 1.84,3.04 -0.12,4.27 -0.22,8.68 -0.09,12.3" style="fill:none;stroke:#999;stroke-width:3" />
<path d="M 12.14,30.67 c 0.89,0.1 2.92,0.12 3.8,0.04 7.56,-0.7 17.29,-2.13 27.57,-2.67 1.48,-0.08 2.35,-0.18 3.09,-0.16" style="fill:none;stroke:#999;stroke-width:3" />
<path d="M 18.86,33.89 c 2.35,2.49 4.55,9.76 5.09,12.56" style="fill:none;stroke:#999;stroke-width:3" />
<path d="M 40.69,30.86 c 0.31,0.89 0.72,2.14 0.61,2.52 -1.07,3.84 -2.73,8.54 -4.44,11.59" style="fill:none;stroke:#999;stroke-width:3" />
<path d="M 9.88,50.75 c 1.12,0.25 2.51,0.41 3.63,0.39 6.65,-0.13 20.28,-2.63 31.17,-3.15 1.45,-0.1 3.07,0 3.95,0.49" style="fill:none;stroke:#999;stroke-width:3" />
<path d="M 16.2,61.35 c 0.45,0.78 0.82,1.38 1.01,2.43 0.82,4.63 2.73,29.68 2.73,30.76" style="fill:none;stroke:black;stroke-width:3" />
<circle cx="561.2" cy="61.35" r="5" stroke-width="0" fill="#FF2A00" opacity="0.7" />
<path d="M 29.48,13.46 c 1.17,0.47 1.87,1.92 1.84,3.04 -0.12,4.27 -0.22,8.68 -0.09,12.3" style="fill:none;stroke:#999;stroke-width:3" />
<path d="M 12.14,30.67 c 0.89,0.1 2.92,0.12 3.8,0.04 7.56,-0.7 17.29,-2.13 27.57,-2.67 1.48,-0.08 2.35,-0.18 3.09,-0.16" style="fill:none;stroke:#999;stroke-width:3" />
<path d="M 18.86,33.89 c 2.35,2.49 4.55,9.76 5.09,12.56" style="fill:none;stroke:#999;stroke-width:3" />
<path d="M 40.69,30.86 c 0.31,0.89 0.72,2.14 0.61,2.52 -1.07,3.84 -2.73,8.54 -4.44,11.59" style="fill:none;stroke:#999;stroke-width:3" />
<path d="M 9.88,50.75 c 1.12,0.25 2.51,0.41 3.63,0.39 6.65,-0.13 20.28,-2.63 31.17,-3.15 1.45,-0.1 3.07,0 3.95,0.49" style="fill:none;stroke:#999;stroke-width:3" />
<path d="M 16.2,61.35 c 0.45,0.78 0.82,1.38 1.01,2.43 0.82,4.63 2.73,29.68 2.73,30.76" style="fill:none;stroke:#999;stroke-width:3" />
<path d="M 18.52,62.76 c 2.57,-0.27 19.23,-2.01 23.38,-2.43 2.35,-0.24 3.33,0.93 3.33,2.76 0,3.06 -2.79,28.4 -3.18,29.72" style="fill:none;stroke:black;stroke-width:3" />
<circle cx="672.52" cy="62.76" r="5" stroke-width="0" fill="#FF2A00" opacity="0.7" />
<path d="M 29.48,13.46 c 1.17,0.47 1.87,1.92 1.84,3.04 -0.12,4.27 -0.22,8.68 -0.09,12.3" style="fill:none;stroke:#999;stroke-width:3" />
<path d="M 12.14,30.67 c 0.89,0.1 2.92,0.12 3.8,0.04 7.56,-0.7 17.29,-2.13 27.57,-2.67 1.48,-0.08 2.35,-0.18 3.09,-0.16" style="fill:none;stroke:#999;stroke-width:3" />
<path d="M 18.86,33.89 c 2.35,2.49 4.55,9.76 5.09,12.56" style="fill:none;stroke:#999;stroke-width:3" />
<path d="M 40.69,30.86 c 0.31,0.89 0.72,2.14 0.61,2.52 -1.07,3.84 -2.73,8.54 -4.44,11.59" style="fill:none;stroke:#999;stroke-width:3" />
<path d="M 9.88,50.75 c 1.12,0.25 2.51,0.41 3.63,0.39 6.65,-0.13 20.28,-2.63 31.17,-3.15 1.45,-0.1 3.07,0 3.95,0.49" style="fill:none;stroke:#999;stroke-width:3" />
<path d="M 16.2,61.35 c 0.45,0.78 0.82,1.38 1.01,2.43 0.82,4.63 2.73,29.68 2.73,30.76" style="fill:none;stroke:#999;stroke-width:3" />
<path d="M 18.52,62.76 c 2.57,-0.27 19.23,-2.01 23.38,-2.43 2.35,-0.24 3.33,0.93 3.33,2.76 0,3.06 -2.79,28.4 -3.18,29.72" style="fill:none;stroke:#999;stroke-width:3" />
<path d="M 19.03,76.63 C 26.25,76 39.44,74.95 43.37,74.73" style="fill:none;stroke:black;stroke-width:3" />
<circle cx="782.03" cy="76.63" r="5" stroke-width="0" fill="#FF2A00" opacity="0.7" />
<path d="M 29.48,13.46 c 1.17,0.47 1.87,1.92 1.84,3.04 -0.12,4.27 -0.22,8.68 -0.09,12.3" style="fill:none;stroke:#999;stroke-width:3" />
<path d="M 12.14,30.67 c 0.89,0.1 2.92,0.12 3.8,0.04 7.56,-0.7 17.29,-2.13 27.57,-2.67 1.48,-0.08 2.35,-0.18 3.09,-0.16" style="fill:none;stroke:#999;stroke-width:3" />
<path d="M 18.86,33.89 c 2.35,2.49 4.55,9.76 5.09,12.56" style="fill:none;stroke:#999;stroke-width:3" />
<path d="M 40.69,30.86 c 0.31,0.89 0.72,2.14 0.61,2.52 -1.07,3.84 -2.73,8.54 -4.44,11.59" style="fill:none;stroke:#999;stroke-width:3" />
<path d="M 9.88,50.75 c 1.12,0.25 2.51,0.41 3.63,0.39 6.65,-0.13 20.28,-2.63 31.17,-3.15 1.45,-0.1 3.07,0 3.95,0.49" style="fill:none;stroke:#999;stroke-width:3" />
<path d="M 16.2,61.35 c 0.45,0.78 0.82,1.38 1.01,2.43 0.82,4.63 2.73,29.68 2.73,30.76" style="fill:none;stroke:#999;stroke-width:3" />
<path d="M 18.52,62.76 c 2.57,-0.27 19.23,-2.01 23.38,-2.43 2.35,-0.24 3.33,0.93 3.33,2.76 0,3.06 -2.79,28.4 -3.18,29.72" style="fill:none;stroke:#999;stroke-width:3" />
<path d="M 19.03,76.63 C 26.25,76 39.44,74.95 43.37,74.73" style="fill:none;stroke:#999;stroke-width:3" />
<path d="M 20.81,93.15 c 5.14,-0.28 14.01,-1.11 20.66,-1.48" style="fill:none;stroke:black;stroke-width:3" />
<circle cx="892.81" cy="93.15" r="5" stroke-width="0" fill="#FF2A00" opacity="0.7" />
<path d="M 29.48,13.46 c 1.17,0.47 1.87,1.92 1.84,3.04 -0.12,4.27 -0.22,8.68 -0.09,12.3" style="fill:none;stroke:#999;stroke-width:3" />
<path d="M 12.14,30.67 c 0.89,0.1 2.92,0.12 3.8,0.04 7.56,-0.7 17.29,-2.13 27.57,-2.67 1.48,-0.08 2.35,-0.18 3.09,-0.16" style="fill:none;stroke:#999;stroke-width:3" />
<path d="M 18.86,33.89 c 2.35,2.49 4.55,9.76 5.09,12.56" style="fill:none;stroke:#999;stroke-width:3" />
<path d="M 40.69,30.86 c 0.31,0.89 0.72,2.14 0.61,2.52 -1.07,3.84 -2.73,8.54 -4.44,11.59" style="fill:none;stroke:#999;stroke-width:3" />
<path d="M 9.88,50.75 c 1.12,0.25 2.51,0.41 3.63,0.39 6.65,-0.13 20.28,-2.63 31.17,-3.15 1.45,-0.1 3.07,0 3.95,0.49" style="fill:none;stroke:#999;stroke-width:3" />
<path d="M 16.2,61.35 c 0.45,0.78 0.82,1.38 1.01,2.43 0.82,4.63 2.73,29.68 2.73,30.76" style="fill:none;stroke:#999;stroke-width:3" />
<path d="M 18.52,62.76 c 2.57,-0.27 19.23,-2.01 23.38,-2.43 2.35,-0.24 3.33,0.93 3.33,2.76 0,3.06 -2.79,28.4 -3.18,29.72" style="fill:none;stroke:#999;stroke-width:3" />
<path d="M 19.03,76.63 C 26.25,76 39.44,74.95 43.37,74.73" style="fill:none;stroke:#999;stroke-width:3" />
<path d="M 20.81,93.15 c 5.14,-0.28 14.01,-1.11 20.66,-1.48" style="fill:none;stroke:#999;stroke-width:3" />
<path d="M 65.8,14.75 c 0.04,0.79 0.07,2.04 -0.07,3.18 -0.86,6.71 -5.76,21.43 -12.48,30.45" style="fill:none;stroke:black;stroke-width:3" />
<circle cx="1046.8" cy="14.75" r="5" stroke-width="0" fill="#FF2A00" opacity="0.7" />
<path d="M 29.48,13.46 c 1.17,0.47 1.87,1.92 1.84,3.04 -0.12,4.27 -0.22,8.68 -0.09,12.3" style="fill:none;stroke:#999;stroke-width:3" />
<path d="M 12.14,30.67 c 0.89,0.1 2.92,0.12 3.8,0.04 7.56,-0.7 17.29,-2.13 27.57,-2.67 1.48,-0.08 2.35,-0.18 3.09,-0.16" style="fill:none;stroke:#999;stroke-width:3" />
<path d="M 18.86,33.89 c 2.35,2.49 4.55,9.76 5.09,12.56" style="fill:none;stroke:#999;stroke-width:3" />
<path d="M 40.69,30.86 c 0.31,0.89 0.72,2.14 0.61,2.52 -1.07,3.84 -2.73,8.54 -4.44,11.59" style="fill:none;stroke:#999;stroke-width:3" />
<path d="M 9.88,50.75 c 1.12,0.25 2.51,0.41 3.63,0.39 6.65,-0.13 20.28,-2.63 31.17,-3.15 1.45,-0.1 3.07,0 3.95,0.49" style="fill:none;stroke:#999;stroke-width:3" />
<path d="M 16.2,61.35 c 0.45,0.78 0.82,1.38 1.01,2.43 0.82,4.63 2.73,29.68 2.73,30.76" style="fill:none;stroke:#999;stroke-width:3" />
<path d="M 18.52,62.76 c 2.57,-0.27 19.23,-2.01 23.38,-2.43 2.35,-0.24 3.33,0.93 3.33,2.76 0,3.06 -2.79,28.4 -3.18,29.72" style="fill:none;stroke:#999;stroke-width:3" />
<path d="M 19.03,76.63 C 26.25,76 39.44,74.95 43.37,74.73" style="fill:none;stroke:#999;stroke-width:3" />
<path d="M 20.81,93.15 c 5.14,-0.28 14.01,-1.11 20.66,-1.48" style="fill:none;stroke:#999;stroke-width:3" />
<path d="M 65.8,14.75 c 0.04,0.79 0.07,2.04 -0.07,3.18 -0.86,6.71 -5.76,21.43 -12.48,30.45" style="fill:none;stroke:#999;stroke-width:3" />
<path d="M 64.54,29.92 c 1.46,0.33 3.1,0.17 4.6,-0.04 C 75.5,29 86,27.25 90.28,26.25 c 3.51,-0.82 5.12,0.3 4.78,5.19 -0.79,11.29 -2.75,44.6 -8.24,58.98 -2.32,6.08 -5.57,4.33 -8.76,-0.16" style="fill:none;stroke:black;stroke-width:3" />
<circle cx="1154.54" cy="29.92" r="5" stroke-width="0" fill="#FF2A00" opacity="0.7" />
<path d="M 29.48,13.46 c 1.17,0.47 1.87,1.92 1.84,3.04 -0.12,4.27 -0.22,8.68 -0.09,12.3" style="fill:none;stroke:#999;stroke-width:3" />
<path d="M 12.14,30.67 c 0.89,0.1 2.92,0.12 3.8,0.04 7.56,-0.7 17.29,-2.13 27.57,-2.67 1.48,-0.08 2.35,-0.18 3.09,-0.16" style="fill:none;stroke:#999;stroke-width:3" />
<path d="M 18.86,33.89 c 2.35,2.49 4.55,9.76 5.09,12.56" style="fill:none;stroke:#999;stroke-width:3" />
<path d="M 40.69,30.86 c 0.31,0.89 0.72,2.14 0.61,2.52 -1.07,3.84 -2.73,8.54 -4.44,11.59" style="fill:none;stroke:#999;stroke-width:3" />
<path d="M 9.88,50.75 c 1.12,0.25 2.51,0.41 3.63,0.39 6.65,-0.13 20.28,-2.63 31.17,-3.15 1.45,-0.1 3.07,0 3.95,0.49" style="fill:none;stroke:#999;stroke-width:3" />
<path d="M 16.2,61.35 c 0.45,0.78 0.82,1.38 1.01,2.43 0.82,4.63 2.73,29.68 2.73,30.76" style="fill:none;stroke:#999;stroke-width:3" />
<path d="M 18.52,62.76 c 2.57,-0.27 19.23,-2.01 23.38,-2.43 2.35,-0.24 3.33,0.93 3.33,2.76 0,3.06 -2.79,28.4 -3.18,29.72" style="fill:none;stroke:#999;stroke-width:3" />
<path d="M 19.03,76.63 C 26.25,76 39.44,74.95 43.37,74.73" style="fill:none;stroke:#999;stroke-width:3" />
<path d="M 20.81,93.15 c 5.14,-0.28 14.01,-1.11 20.66,-1.48" style="fill:none;stroke:#999;stroke-width:3" />
<path d="M 65.8,14.75 c 0.04,0.79 0.07,2.04 -0.07,3.18 -0.86,6.71 -5.76,21.43 -12.48,30.45" style="fill:none;stroke:#999;stroke-width:3" />
<path d="M 64.54,29.92 c 1.46,0.33 3.1,0.17 4.6,-0.04 C 75.5,29 86,27.25 90.28,26.25 c 3.51,-0.82 5.12,0.3 4.78,5.19 -0.79,11.29 -2.75,44.6 -8.24,58.98 -2.32,6.08 -5.57,4.33 -8.76,-0.16" style="fill:none;stroke:#999;stroke-width:3" />
<path d="M 59.09,51.08 c 0.49,0.24 2.13,0.36 2.63,0.32 4.56,-0.37 11.03,-1.91 15.41,-2.5 0.61,-0.08 1.97,-0.1 2.9,0.11" style="fill:none;stroke:black;stroke-width:3" />
<circle cx="1258.09" cy="51.08" r="5" stroke-width="0" fill="#FF2A00" opacity="0.7" />
<path d="M 29.48,13.46 c 1.17,0.47 1.87,1.92 1.84,3.04 -0.12,4.27 -0.22,8.68 -0.09,12.3" style="fill:none;stroke:#999;stroke-width:3" />
<path d="M 12.14,30.67 c 0.89,0.1 2.92,0.12 3.8,0.04 7.56,-0.7 17.29,-2.13 27.57,-2.67 1.48,-0.08 2.35,-0.18 3.09,-0.16" style="fill:none;stroke:#999;stroke-width:3" />
<path d="M 18.86,33.89 c 2.35,2.49 4.55,9.76 5.09,12.56" style="fill:none;stroke:#999;stroke-width:3" />
<path d="M 40.69,30.86 c 0.31,0.89 0.72,2.14 0.61,2.52 -1.07,3.84 -2.73,8.54 -4.44,11.59" style="fill:none;stroke:#999;stroke-width:3" />
<path d="M 9.88,50.75 c 1.12,0.25 2.51,0.41 3.63,0.39 6.65,-0.13 20.28,-2.63 31.17,-3.15 1.45,-0.1 3.07,0 3.95,0.49" style="fill:none;stroke:#999;stroke-width:3" />
<path d="M 16.2,61.35 c 0.45,0.78 0.82,1.38 1.01,2.43 0.82,4.63 2.73,29.68 2.73,30.76" style="fill:none;stroke:#999;stroke-width:3" />
<path d="M 18.52,62.76 c 2.57,-0.27 19.23,-2.01 23.38,-2.43 2.35,-0.24 3.33,0.93 3.33,2.76 0,3.06 -2.79,28.4 -3.18,29.72" style="fill:none;stroke:#999;stroke-width:3" />
<path d="M 19.03,76.63 C 26.25,76 39.44,74.95 43.37,74.73" style="fill:none;stroke:#999;stroke-width:3" />
<path d="M 20.81,93.15 c 5.14,-0.28 14.01,-1.11 20.66,-1.48" style="fill:none;stroke:#999;stroke-width:3" />
<path d="M 65.8,14.75 c 0.04,0.79 0.07,2.04 -0.07,3.18 -0.86,6.71 -5.76,21.43 -12.48,30.45" style="fill:none;stroke:#999;stroke-width:3" />
<path d="M 64.54,29.92 c 1.46,0.33 3.1,0.17 4.6,-0.04 C 75.5,29 86,27.25 90.28,26.25 c 3.51,-0.82 5.12,0.3 4.78,5.19 -0.79,11.29 -2.75,44.6 -8.24,58.98 -2.32,6.08 -5.57,4.33 -8.76,-0.16" style="fill:none;stroke:#999;stroke-width:3" />
<path d="M 59.09,51.08 c 0.49,0.24 2.13,0.36 2.63,0.32 4.56,-0.37 11.03,-1.91 15.41,-2.5 0.61,-0.08 1.97,-0.1 2.9,0.11" style="fill:none;stroke:#999;stroke-width:3" />
<path d="M 58.337267,72.911276 c 0.708054,0.522572 2.350289,0.413627 3.893151,-0.574141 4.257275,-2.725583 9.500253,-5.560258 18.958176,-10.561457" style="fill:none;stroke:black;stroke-width:3" />
<circle cx="1366.3372669999999" cy="72.911276" r="5" stroke-width="0" fill="#FF2A00" opacity="0.7" />
</svg>