<svg width="1526px" height="109px" viewBox="0 0 1526px 109px" xmlns="http://www.w3.org/2000/svg" xmlns:xlink="http://www.w3.org/1999/xlink" xml:space="preserve" version="1.1"  baseProfile="full">
<line x1="1" y1="1" x2="1525" y2="1" style="stroke:#ddd;stroke-width:2" />
<line x1="1" y1="1" x2="1" y2="108" style="stroke:#ddd;stroke-width:2" />
<line x1="1" y1="108" x2="1525" y2="108" style="stroke:#ddd;stroke-width:2" />
<line x1="1525" y1="1" x2="1525" y2="108" style="stroke:#ddd;stroke-width:2" />
<line x1="109" y1="1" x2="109" y2="108" style="stroke:#ddd;stroke-width:2" />
<line x1="218" y1="1" x2="218" y2="108" style="stroke:#ddd;stroke-width:2" />
<line x1="327" y1="1" x2="327" y2="108" style="stroke:#ddd;stroke-width:2" />
<line x1="436" y1="1" x2="436" y2="108" style="stroke:#ddd;stroke-width:2" />
<line x1="545" y1="1" x2="545" y2="108" style="stroke:#ddd;stroke-width:2" />
<line x1="654" y1="1" x2="654" y2="108" style="stroke:#ddd;stroke-width:2" />
<line x1="763" y1="1" x2="763" y2="108" style="stroke:#ddd;stroke-width:2" />
<line x1="872" y1="1" x2="872" y2="108" style="stroke:#ddd;stroke-width:2" />
<line x1="981" y1="1" x2="981" y2="108" style="stroke:#ddd;stroke-width:2" />
<line x1="1090" y1="1" x2="1090" y2="108" style="stroke:#ddd;stroke-width:2" />
<line x1="1199" y1="1" x2="1199" y2="108" style="stroke:#ddd;stroke-width:2" />
<line x1="1308" y1="1" x2="1308" y2="108" style="stroke:#ddd;stroke-width:2" />
<line x1="1417" y1="1" x2="1417" y2="108" style="stroke:#ddd;stroke-width:2" />
<line x1="1" y1="54" x2="1525" y2="54" style="stroke:#ddd;stroke-width:2;stroke-dasharray:3 3" />
<line x1="55" y1="1" x2="55" y2="108" style="stroke:#ddd;stroke-width:2;stroke-dasharray:3 3" />
<line x1="164" y1="1" x2="164" y2="108" style="stroke:#ddd;stroke-width:2;stroke-dasharray:3 3" />
<line x1="273" y1="1" x2="273" y2="108" style="stroke:#ddd;stroke-width:2;stroke-dasharray:3 3" />
<line x1="382" y1="1" x2="382" y2="108" style="stroke:#ddd;stroke-width:2;stroke-dasharray:3 3" />
<line x1="491" y1="1" x2="491" y2="108" style="stroke:#ddd;stroke-width:2;stroke-dasharray:3 3" />
<line x1="600" y1="1" x2="600" y2="108" style="stroke:#ddd;stroke-width:2;stroke-dasharray:3 3" />
<line x1="709" y1="1" x2="709" y2="108" style="stroke:#ddd;stroke-width:2;stroke-dasharray:3 3" />
<line x1="818" y1="1" x2="818" y2="108" style="stroke:#ddd;stroke-width:2;stroke-dasharray:3 3" />
<line x1="927" y1="1" x2="927" y2="108" style="stroke:#ddd;stroke-width:2;stroke-dasharray:3 3" />
<line x1="1036" y1="1" x2="1036" y2="108" style="stroke:#ddd;stroke-width:2;stroke-dasharray:3 3" />
<line x1="1145" y1="1" x2="1145" y2="108" style="stroke:#ddd;stroke-width:2;stroke-dasharray:3 3" />
<line x1="1254" y1="1" x2="1254" y2="108" style="stroke:#ddd;stroke-width:2;stroke-dasharray:3 3" />
<line x1="1363" y1="1" x2="1363" y2="108" style="stroke:#ddd;stroke-width:2;stroke-dasharray:3 3" />
<line x1="1472" y1="1" x2="1472" y2="108" style="stroke:#ddd;stroke-width:2;stroke-dasharray:3 3" />
<path d="M 33.825625,13.64 c 0.06,0.64 0.27,1.71 -0.11,2.57 -2.44,5.65 -9.46,16.71 -19.41,25.04" style="fill:none;stroke:black;stroke-width:3" />
<circle cx="33.825625" cy="13.64" r="5" stroke-width="0" fill="#FF2A00" opacity="0.7" />
<path d="M 33.825625,13.64 c 0.06,0.64 0.27,1.71 -0.11,2.57 -2.44,5.65 -9.46,16.71 -19.41,25.04" style="fill:none;stroke:#999;stroke-width:3" />
<path d="M 36.06,19.5 c 4.52,1.8 12.36125,7.523542 14.399583,10.22" style="fill:none;stroke:black;stroke-width:3" />
<circle cx="145.06" cy="19.5" r="5" stroke-width="0" fill="#FF2A00" opacity="0.7" />
<path d="M 33.825625,13.64 c 0.06,0.64 0.27,1.71 -0.11,2.57 -2.44,5.65 -9.46,16.71 -19.41,25.04" style="fill:none;stroke:#999;stroke-width:3" />
<path d="M 36.06,19.5 c 4.52,1.8 12.36125,7.523542 14.399583,10.22" style="fill:none;stroke:#999;stroke-width:3" />
<path d="M 28.044792,33.66 c 0.36,0.15 1.02,0.19 1.39,0.15 2.3,-0.25 9.959583,-2.17 12.189583,-2 0.6,0.05 0.96,0.07 1.27,0.14" style="fill:none;stroke:black;stroke-width:3" />
<circle cx="246.044792" cy="33.66" r="5" stroke-width="0" fill="#FF2A00" opacity="0.7" />
<path d="M 33.825625,13.64 c 0.06,0.64 0.27,1.71 -0.11,2.57 -2.44,5.65 -9.46,16.71 -19.41,25.04" style="fill:none;stroke:#999;stroke-width:3" />
<path d="M 36.06,19.5 c 4.52,1.8 12.36125,7.523542 14.399583,10.22" style="fill:none;stroke:#999;stroke-width:3" />
<path d="M 28.044792,33.66 c 0.36,0.15 1.02,0.19 1.39,0.15 2.3,-0.25 9.959583,-2.17 12.189583,-2 0.6,0.05 0.96,0.07 1.27,0.14" style="fill:none;stroke:#999;stroke-width:3" />
<path d="M 20.814792,41.44 c 0.39,0.78 0.78,1.66 0.78,2.7 0,1.04 -0.13,54.33 0,55.37" style="fill:none;stroke:black;stroke-width:3" />
<circle cx="347.814792" cy="41.44" r="5" stroke-width="0" fill="#FF2A00" opacity="0.7" />
<path d="M 33.825625,13.64 c 0.06,0.64 0.27,1.71 -0.11,2.57 -2.44,5.65 -9.46,16.71 -19.41,25.04" style="fill:none;stroke:#999;stroke-width:3" />
<path d="M 36.06,19.5 c 4.52,1.8 12.36125,7.523542 14.399583,10.22" style="fill:none;stroke:#999;stroke-width:3" />
<path d="M 28.044792,33.66 c 0.36,0.15 1.02,0.19 1.39,0.15 2.3,-0.25 9.959583,-2.17 12.189583,-2 0.6,0.05 0.96,0.07 1.27,0.14" style="fill:none;stroke:#999;stroke-width:3" />
<path d="M 20.814792,41.44 c 0.39,0.78 0.78,1.66 0.78,2.7 0,1.04 -0.13,54.33 0,55.37" style="fill:none;stroke:#999;stroke-width:3" />
<path d="M 21.734792,43.05 c 2.2,-0.13 19.479583,-2.15 21.479583,-2.31 1.67,-0.13 2.75,1.44 2.62,2.2 -0.26,1.56 -1.92,17.89 -2.47,21.33" style="fill:none;stroke:black;stroke-width:3" />
<circle cx="457.73479199999997" cy="43.05" r="5" stroke-width="0" fill="#FF2A00" opacity="0.7" />
<path d="M 33.825625,13.64 c 0.06,0.64 0.27,1.71 -0.11,2.57 -2.44,5.65 -9.46,16.71 -19.41,25.04" style="fill:none;stroke:#999;stroke-width:3" />
<path d="M 36.06,19.5 c 4.52,1.8 12.36125,7.523542 14.399583,10.22" style="fill:none;stroke:#999;stroke-width:3" />
<path d="M 28.044792,33.66 c 0.36,0.15 1.02,0.19 1.39,0.15 2.3,-0.25 9.959583,-2.17 12.189583,-2 0.6,0.05 0.96,0.07 1.27,0.14" style="fill:none;stroke:#999;stroke-width:3" />
<path d="M 20.814792,41.44 c 0.39,0.78 0.78,1.66 0.78,2.7 0,1.04 -0.13,54.33 0,55.37" style="fill:none;stroke:#999;stroke-width:3" />
<path d="M 21.734792,43.05 c 2.2,-0.13 19.479583,-2.15 21.479583,-2.31 1.67,-0.13 2.75,1.44 2.62,2.2 -0.26,1.56 -1.92,17.89 -2.47,21.33" style="fill:none;stroke:#999;stroke-width:3" />
<path d="M 22.124792,53.12 c 2.98,0 18.919583,-1.79 22.289583,-1.79" style="fill:none;stroke:black;stroke-width:3" />
<circle cx="567.124792" cy="53.12" r="5" stroke-width="0" fill="#FF2A00" opacity="0.7" />
<path d="M 33.825625,13.64 c 0.06,0.64 0.27,1.71 -0.11,2.57 -2.44,5.65 -9.46,16.71 -19.41,25.04" style="fill:none;stroke:#999;stroke-width:3" />
<path d="M 36.06,19.5 c 4.52,1.8 12.36125,7.523542 14.399583,10.22" style="fill:none;stroke:#999;stroke-width:3" />
<path d="M 28.044792,33.66 c 0.36,0.15 1.02,0.19 1.39,0.15 2.3,-0.25 9.959583,-2.17 12.189583,-2 0.6,0.05 0.96,0.07 1.27,0.14" style="fill:none;stroke:#999;stroke-width:3" />
<path d="M 20.814792,41.44 c 0.39,0.78 0.78,1.66 0.78,2.7 0,1.04 -0.13,54.33 0,55.37" style="fill:none;stroke:#999;stroke-width:3" />
<path d="M 21.734792,43.05 c 2.2,-0.13 19.479583,-2.15 21.479583,-2.31 1.67,-0.13 2.75,1.44 2.62,2.2 -0.26,1.56 -1.92,17.89 -2.47,21.33" style="fill:none;stroke:#999;stroke-width:3" />
<path d="M 22.124792,53.12 c 2.98,0 18.919583,-1.79 22.289583,-1.79" style="fill:none;stroke:#999;stroke-width:3" />
<path d="M 21.994792,64.36 c 6.07,-0.56 13.919583,-1.54 21.469583,-2.02" style="fill:none;stroke:black;stroke-width:3" />
<circle cx="675.994792" cy="64.36" r="5" stroke-width="0" fill="#FF2A00" opacity="0.7" />
<path d="M 33.825625,13.64 c 0.06,0.64 0.27,1.71 -0.11,2.57 -2.44,5.65 -9.46,16.71 -19.41,25.04" style="fill:none;stroke:#999;stroke-width:3" />
<path d="M 36.06,19.5 c 4.52,1.8 12.36125,7.523542 14.399583,10.22" style="fill:none;stroke:#999;stroke-width:3" />
<path d="M 28.044792,33.66 c 0.36,0.15 1.02,0.19 1.39,0.15 2.3,-0.25 9.959583,-2.17 12.189583,-2 0.6,0.05 0.96,0.07 1.27,0.14" style="fill:none;stroke:#999;stroke-width:3" />
<path d="M 20.814792,41.44 c 0.39,0.78 0.78,1.66 0.78,2.7 0,1.04 -0.13,54.33 0,55.37" style="fill:none;stroke:#999;stroke-width:3" />
<path d="M 21.734792,43.05 c 2.2,-0.13 19.479583,-2.15 21.479583,-2.31 1.67,-0.13 2.75,1.44 2.62,2.2 -0.26,1.56 -1.92,17.89 -2.47,21.33" style="fill:none;stroke:#999;stroke-width:3" />
<path d="M 22.124792,53.12 c 2.98,0 18.919583,-1.79 22.289583,-1.79" style="fill:none;stroke:#999;stroke-width:3" />
<path d="M 21.994792,64.36 c 6.07,-0.56 13.919583,-1.54 21.469583,-2.02" style="fill:none;stroke:#999;stroke-width:3" />
<path d="M 21.934792,76.75 c 3.73,-0.25 17.569583,-2.64 21.189583,-2.47 0.97,0.04 1.56,0.07 2.05,0.14" style="fill:none;stroke:black;stroke-width:3" />
<circle cx="784.934792" cy="76.75" r="5" stroke-width="0" fill="#FF2A00" opacity="0.7" />
<path d="M 33.825625,13.64 c 0.06,0.64 0.27,1.71 -0.11,2.57 -2.44,5.65 -9.46,16.71 -19.41,25.04" style="fill:none;stroke:#999;stroke-width:3" />
<path d="M 36.06,19.5 c 4.52,1.8 12.36125,7.523542 14.399583,10.22" style="fill:none;stroke:#999;stroke-width:3" />
<path d="M 28.044792,33.66 c 0.36,0.15 1.02,0.19 1.39,0.15 2.3,-0.25 9.959583,-2.17 12.189583,-2 0.6,0.05 0.96,0.07 1.27,0.14" style="fill:none;stroke:#999;stroke-width:3" />
<path d="M 20.814792,41.44 c 0.39,0.78 0.78,1.66 0.78,2.7 0,1.04 -0.13,54.33 0,55.37" style="fill:none;stroke:#999;stroke-width:3" />
<path d="M 21.734792,43.05 c 2.2,-0.13 19.479583,-2.15 21.479583,-2.31 1.67,-0.13 2.75,1.44 2.62,2.2 -0.26,1.56 -1.92,17.89 -2.47,21.33" style="fill:none;stroke:#999;stroke-width:3" />
<path d="M 22.124792,53.12 c 2.98,0 18.919583,-1.79 22.289583,-1.79" style="fill:none;stroke:#999;stroke-width:3" />
<path d="M 21.994792,64.36 c 6.07,-0.56 13.919583,-1.54 21.469583,-2.02" style="fill:none;stroke:#999;stroke-width:3" />
<path d="M 21.934792,76.75 c 3.73,-0.25 17.569583,-2.64 21.189583,-2.47 0.97,0.04 1.56,0.07 2.05,0.14" style="fill:none;stroke:#999;stroke-width:3" />
<path d="M 22.434792,89.88 c 3.73,-0.25 18.069583,-2.15 21.689583,-1.98 0.97,0.04 1.56,0.07 2.05,0.14" style="fill:none;stroke:black;stroke-width:3" />
<circle cx="894.434792" cy="89.88" r="5" stroke-width="0" fill="#FF2A00" opacity="0.7" />
<path d="M 33.825625,13.64 c 0.06,0.64 0.27,1.71 -0.11,2.57 -2.44,5.65 -9.46,16.71 -19.41,25.04" style="fill:none;stroke:#999;stroke-width:3" />
<path d="M 36.06,19.5 c 4.52,1.8 12.36125,7.523542 14.399583,10.22" style="fill:none;stroke:#999;stroke-width:3" />
<path d="M 28.044792,33.66 c 0.36,0.15 1.02,0.19 1.39,0.15 2.3,-0.25 9.959583,-2.17 12.189583,-2 0.6,0.05 0.96,0.07 1.27,0.14" style="fill:none;stroke:#999;stroke-width:3" />
<path d="M 20.814792,41.44 c 0.39,0.78 0.78,1.66 0.78,2.7 0,1.04 -0.13,54.33 0,55.37" style="fill:none;stroke:#999;stroke-width:3" />
<path d="M 21.734792,43.05 c 2.2,-0.13 19.479583,-2.15 21.479583,-2.31 1.67,-0.13 2.75,1.44 2.62,2.2 -0.26,1.56 -1.92,17.89 -2.47,21.33" style="fill:none;stroke:#999;stroke-width:3" />
<path d="M 22.124792,53.12 c 2.98,0 18.919583,-1.79 22.289583,-1.79" style="fill:none;stroke:#999;stroke-width:3" />
<path d="M 21.994792,64.36 c 6.07,-0.56 13.919583,-1.54 21.469583,-2.02" style="fill:none;stroke:#999;stroke-width:3" />
<path d="M 21.934792,76.75 c 3.73,-0.25 17.569583,-2.64 21.189583,-2.47 0.97,0.04 1.56,0.07 2.05,0.14" style="fill:none;stroke:#999;stroke-width:3" />
<path d="M 22.434792,89.88 c 3.73,-0.25 18.069583,-2.15 21.689583,-1.98 0.97,0.04 1.56,0.07 2.05,0.14" style="fill:none;stroke:#999;stroke-width:3" />
<path d="M1054.38,14.41c0.24,1.5-0.13,2.51-1,4.29c-6.5,13.29-10,20.42-15.89,30.86c-2.04,3.62-1.63,4.69,2.39,3.71c10.09-2.46,19.63-4.4,33.48-7.78" style="fill:none;stroke:black;stroke-width:3" />
<circle cx="1054.38" cy="14.41" r="5" stroke-width="0" fill="#FF2A00" opacity="0.7" />
<path d="M 33.825625,13.64 c 0.06,0.64 0.27,1.71 -0.11,2.57 -2.44,5.65 -9.46,16.71 -19.41,25.04" style="fill:none;stroke:#999;stroke-width:3" />
<path d="M 36.06,19.5 c 4.52,1.8 12.36125,7.523542 14.399583,10.22" style="fill:none;stroke:#999;stroke-width:3" />
<path d="M 28.044792,33.66 c 0.36,0.15 1.02,0.19 1.39,0.15 2.3,-0.25 9.959583,-2.17 12.189583,-2 0.6,0.05 0.96,0.07 1.27,0.14" style="fill:none;stroke:#999;stroke-width:3" />
<path d="M 20.814792,41.44 c 0.39,0.78 0.78,1.66 0.78,2.7 0,1.04 -0.13,54.33 0,55.37" style="fill:none;stroke:#999;stroke-width:3" />
<path d="M 21.734792,43.05 c 2.2,-0.13 19.479583,-2.15 21.479583,-2.31 1.67,-0.13 2.75,1.44 2.62,2.2 -0.26,1.56 -1.92,17.89 -2.47,21.33" style="fill:none;stroke:#999;stroke-width:3" />
<path d="M 22.124792,53.12 c 2.98,0 18.919583,-1.79 22.289583,-1.79" style="fill:none;stroke:#999;stroke-width:3" />
<path d="M 21.994792,64.36 c 6.07,-0.56 13.919583,-1.54 21.469583,-2.02" style="fill:none;stroke:#999;stroke-width:3" />
<path d="M 21.934792,76.75 c 3.73,-0.25 17.569583,-2.64 21.189583,-2.47 0.97,0.04 1.56,0.07 2.05,0.14" style="fill:none;stroke:#999;stroke-width:3" />
<path d="M 22.434792,89.88 c 3.73,-0.25 18.069583,-2.15 21.689583,-1.98 0.97,0.04 1.56,0.07 2.05,0.14" style="fill:none;stroke:#999;stroke-width:3" />
<path d="M1163.38,14.41c0.24,1.5-0.13,2.51-1,4.29c-6.5,13.29-10,20.42-15.89,30.86c-2.04,3.62-1.63,4.69,2.39,3.71c10.09-2.46,19.63-4.4,33.48-7.78" style="fill:none;stroke:#999;stroke-width:3" />
<path d="M1173.49,31c4.68,3.93,12.09,16.14,13.26,22.25" style="fill:none;stroke:black;stroke-width:3" />
<circle cx="1173.49" cy="31.0" r="5" stroke-width="0" fill="#FF2A00" opacity="0.7" />
<path d="M 33.825625,13.64 c 0.06,0.64 0.27,1.71 -0.11,2.57 -2.44,5.65 -9.46,16.71 -19.41,25.04" style="fill:none;stroke:#999;stroke-width:3" />
<path d="M 36.06,19.5 c 4.52,1.8 12.36125,7.523542 14.399583,10.22" style="fill:none;stroke:#999;stroke-width:3" />
<path d="M 28.044792,33.66 c 0.36,0.15 1.02,0.19 1.39,0.15 2.3,-0.25 9.959583,-2.17 12.189583,-2 0.6,0.05 0.96,0.07 1.27,0.14" style="fill:none;stroke:#999;stroke-width:3" />
<path d="M 20.814792,41.44 c 0.39,0.78 0.78,1.66 0.78,2.7 0,1.04 -0.13,54.33 0,55.37" style="fill:none;stroke:#999;stroke-width:3" />
<path d="M 21.734792,43.05 c 2.2,-0.13 19.479583,-2.15 21.479583,-2.31 1.67,-0.13 2.75,1.44 2.62,2.2 -0.26,1.56 -1.92,17.89 -2.47,21.33" style="fill:none;stroke:#999;stroke-width:3" />
<path d="M 22.124792,53.12 c 2.98,0 18.919583,-1.79 22.289583,-1.79" style="fill:none;stroke:#999;stroke-width:3" />
<path d="M 21.994792,64.36 c 6.07,-0.56 13.919583,-1.54 21.469583,-2.02" style="fill:none;stroke:#999;stroke-width:3" />
<path d="M 21.934792,76.75 c 3.73,-0.25 17.569583,-2.64 21.189583,-2.47 0.97,0.04 1.56,0.07 2.05,0.14" style="fill:none;stroke:#999;stroke-width:3" />
<path d="M 22.434792,89.88 c 3.73,-0.25 18.069583,-2.15 21.689583,-1.98 0.97,0.04 1.56,0.07 2.05,0.14" style="fill:none;stroke:#999;stroke-width:3" />
<path d="M1272.38,14.41c0.24,1.5-0.13,2.51-1,4.29c-6.5,13.29-10,20.42-15.89,30.86c-2.04,3.62-1.63,4.69,2.39,3.71c10.09-2.46,19.63-4.4,33.48-7.78" style="fill:none;stroke:#999;stroke-width:3" />
<path d="M1282.49,31c4.68,3.93,12.09,16.14,13.26,22.25" style="fill:none;stroke:#999;stroke-width:3" />
<path d="M1256.34,67.01c1.1,1.1,1.24,2.53,1.54,3.96c1.05,5.01,2.3,13.59,3.29,20.69c0.23,1.62,0.42,3.17,0.57,4.59" style="fill:none;stroke:black;stroke-width:3" />
<circle cx="1256.34" cy="67.01" r="5" stroke-width="0" fill="#FF2A00" opacity="0.7" />
<path d="M 33.825625,13.64 c 0.06,0.64 0.27,1.71 -0.11,2.57 -2.44,5.65 -9.46,16.71 -19.41,25.04" style="fill:none;stroke:#999;stroke-width:3" />
<path d="M 36.06,19.5 c 4.52,1.8 12.36125,7.523542 14.399583,10.22" style="fill:none;stroke:#999;stroke-width:3" />
<path d="M 28.044792,33.66 c 0.36,0.15 1.02,0.19 1.39,0.15 2.3,-0.25 9.959583,-2.17 12.189583,-2 0.6,0.05 0.96,0.07 1.27,0.14" style="fill:none;stroke:#999;stroke-width:3" />
<path d="M 20.814792,41.44 c 0.39,0.78 0.78,1.66 0.78,2.7 0,1.04 -0.13,54.33 0,55.37" style="fill:none;stroke:#999;stroke-width:3" />
<path d="M 21.734792,43.05 c 2.2,-0.13 19.479583,-2.15 21.479583,-2.31 1.67,-0.13 2.75,1.44 2.62,2.2 -0.26,1.56 -1.92,17.89 -2.47,21.33" style="fill:none;stroke:#999;stroke-width:3" />
<path d="M 22.124792,53.12 c 2.98,0 18.919583,-1.79 22.289583,-1.79" style="fill:none;stroke:#999;stroke-width:3" />
<path d="M 21.994792,64.36 c 6.07,-0.56 13.919583,-1.54 21.469583,-2.02" style="fill:none;stroke:#999;stroke-width:3" />
<path d="M 21.934792,76.75 c 3.73,-0.25 17.569583,-2.64 21.189583,-2.47 0.97,0.04 1.56,0.07 2.05,0.14" style="fill:none;stroke:#999;stroke-width:3" />
<path d="M 22.434792,89.88 c 3.73,-0.25 18.069583,-2.15 21.689583,-1.98 0.97,0.04 1.56,0.07 2.05,0.14" style="fill:none;stroke:#999;stroke-width:3" />
<path d="M1381.38,14.41c0.24,1.5-0.13,2.51-1,4.29c-6.5,13.29-10,20.42-15.89,30.86c-2.04,3.62-1.63,4.69,2.39,3.71c10.09-2.46,19.63-4.4,33.48-7.78" style="fill:none;stroke:#999;stroke-width:3" />
<path d="M1391.49,31c4.68,3.93,12.09,16.14,13.26,22.25" style="fill:none;stroke:#999;stroke-width:3" />
<path d="M1365.34,67.01c1.1,1.1,1.24,2.53,1.54,3.96c1.05,5.01,2.3,13.59,3.29,20.69c0.23,1.62,0.42,3.17,0.57,4.59" style="fill:none;stroke:#999;stroke-width:3" />
<path d="M1367.44,68.58c9.24-1.33,22.06-3.1,29.19-4.15c3.83-0.56,5.56,1.17,4.7,4.97c-1.49,6.59-2.49,12.11-3.9,20.17" style="fill:none;stroke:black;stroke-width:3" />
<circle cx="1367.44" cy="68.58" r="5" stroke-width="0" fill="#FF2A00" opacity="0.7" />
<path d="M 33.825625,13.64 c 0.06,0.64 0.27,1.71 -0.11,2.57 -2.44,5.65 -9.46,16.71 -19.41,25.04" style="fill:none;stroke:#999;stroke-width:3" />
<path d="M 36.06,19.5 c 4.52,1.8 12.36125,7.523542 14.399583,10.22" style="fill:none;stroke:#999;stroke-width:3" />
<path d="M 28.044792,33.66 c 0.36,0.15 1.02,0.19 1.39,0.15 2.3,-0.25 9.959583,-2.17 12.189583,-2 0.6,0.05 0.96,0.07 1.27,0.14" style="fill:none;stroke:#999;stroke-width:3" />
<path d="M 20.814792,41.44 c 0.39,0.78 0.78,1.66 0.78,2.7 0,1.04 -0.13,54.33 0,55.37" style="fill:none;stroke:#999;stroke-width:3" />
<path d="M 21.734792,43.05 c 2.2,-0.13 19.479583,-2.15 21.479583,-2.31 1.67,-0.13 2.75,1.44 2.62,2.2 -0.26,1.56 -1.92,17.89 -2.47,21.33" style="fill:none;stroke:#999;stroke-width:3" />
<path d="M 22.124792,53.12 c 2.98,0 18.919583,-1.79 22.289583,-1.79" style="fill:none;stroke:#999;stroke-width:3" />
<path d="M 21.994792,64.36 c 6.07,-0.56 13.919583,-1.54 21.469583,-2.02" style="fill:none;stroke:#999;stroke-width:3" />
<path d="M 21.934792,76.75 c 3.73,-0.25 17.569583,-2.64 21.189583,-2.47 0.97,0.04 1.56,0.07 2.05,0.14" style="fill:none;stroke:#999;stroke-width:3" />
<path d="M 22.434792,89.88 c 3.73,-0.25 18.069583,-2.15 21.689583,-1.98 0.97,0.04 1.56,0.07 2.05,0.14" style="fill:none;stroke:#999;stroke-width:3" />
<path d="M1490.38,14.41c0.24,1.5-0.13,2.51-1,4.29c-6.5,13.29-10,20.42-15.89,30.86c-2.04,3.62-1.63,4.69,2.39,3.71c10.09-2.46,19.63-4.4,33.48-7.78" style="fill:none;stroke:#999;stroke-width:3" />
<path d="M1500.49,31c4.68,3.93,12.09,16.14,13.26,22.25" style="fill:none;stroke:#999;stroke-width:3" />
<path d="M1474.34,67.01c1.1,1.1,1.24,2.53,1.54,3.96c1.05,5.01,2.3,13.59,3.29,20.69c0.23,1.62,0.42,3.17,0.57,4.59" style="fill:none;stroke:#999;stroke-width:3" />
<path d="M1476.44,68.58c9.24-1.33,22.06-3.1,29.19-4.15c3.83-0.56,5.56,1.17,4.7,4.97c-1.49,6.59-2.49,12.11-3.9,20.17" style="fill:none;stroke:#999;stroke-width:3" />
<path d="M1481.05,93.49c7.31-0.57,13.28-1.24,22.47-2.26c1.7-0.19,3.51-0.39,5.47-0.6" style="fill:none;stroke:black;stroke-width:3" />
<circle cx="1481.05" cy="93.49" r="5" stroke-width="0" fill="#FF2A00" opacity="0.7" />
</svg>