<svg width="2180px" height="109px" viewBox="0 0 2180px 109px" xmlns="http://www.w3.org/2000/svg" xmlns:xlink="http://www.w3.org/1999/xlink" xml:space="preserve" version="1.1"  baseProfile="full">
<line x1="1" y1="1" x2="2179" y2="1" style="stroke:#ddd;stroke-width:2" />
<line x1="1" y1="1" x2="1" y2="108" style="stroke:#ddd;stroke-width:2" />
<line x1="1" y1="108" x2="2179" y2="108" style="stroke:#ddd;stroke-width:2" />
<line x1="2179" y1="1" x2="2179" y2="108" style="stroke:#ddd;stroke-width:2" />
<line x1="109" y1="1" x2="109" y2="108" style="stroke:#ddd;stroke-width:2" />
<line x1="218" y1="1" x2="218" y2="108" style="stroke:#ddd;stroke-width:2" />
<line x1="327" y1="1" x2="327" y2="108" style="stroke:#ddd;stroke-width:2" />
<line x1="436" y1="1" x2="436" y2="108" style="stroke:#ddd;stroke-width:2" />
<line x1="545" y1="1" x2="545" y2="108" style="stroke:#ddd;stroke-width:2" />
<line x1="654" y1="1" x2="654" y2="108" style="stroke:#ddd;stroke-width:2" />
<line x1="763" y1="1" x2="763" y2="108" style="stroke:#ddd;stroke-width:2" />
<line x1="872" y1="1" x2="872" y2="108" style="stroke:#ddd;stroke-width:2" />
<line x1="981" y1="1" x2="981" y2="108" style="stroke:#ddd;stroke-width:2" />
<line x1="1090" y1="1" x2="1090" y2="108" style="stroke:#ddd;stroke-width:2" />
<line x1="1199" y1="1" x2="1199" y2="108" style="stroke:#ddd;stroke-width:2" />
<line x1="1308" y1="1" x2="1308" y2="108" style="stroke:#ddd;stroke-width:2" />
<line x1="1417" y1="1" x2="1417" y2="108" style="stroke:#ddd;stroke-width:2" />
<line x1="1526" y1="1" x2="1526" y2="108" style="stroke:#ddd;stroke-width:2" />
<line x1="1635" y1="1" x2="1635" y2="108" style="stroke:#ddd;stroke-width:2" />
<line x1="1744" y1="1" x2="1744" y2="108" style="stroke:#ddd;stroke-width:2" />
<line x1="1853" y1="1" x2="1853" y2="108" style="stroke:#ddd;stroke-width:2" />
<line x1="1962" y1="1" x2="1962" y2="108" style="stroke:#ddd;stroke-width:2" />
<line x1="2071" y1="1" x2="2071" y2="108" style="stroke:#ddd;stroke-width:2" />
<line x1="1" y1="54" x2="2179" y2="54" style="stroke:#ddd;stroke-width:2;stroke-dasharray:3 3" />
<line x1="55" y1="1" x2="55" y2="108" style="stroke:#ddd;stroke-width:2;stroke-dasharray:3 3" />
<line x1="164" y1="1" x2="164" y2="108" style="stroke:#ddd;stroke-width:2;stroke-dasharray:3 3" />
<line x1="273" y1="1" x2="273" y2="108" style="stroke:#ddd;stroke-width:2;stroke-dasharray:3 3" />
<line x1="382" y1="1" x2="382" y2="108" style="stroke:#ddd;stroke-width:2;stroke-dasharray:3 3" />
<line x1="491" y1="1" x2="491" y2="108" style="stroke:#ddd;stroke-width:2;stroke-dasharray:3 3" />
<line x1="600" y1="1" x2="600" y2="108" style="stroke:#ddd;stroke-width:2;stroke-dasharray:3 3" />
<line x1="709" y1="1" x2="709" y2="108" style="stroke:#ddd;stroke-width:2;stroke-dasharray:3 3" />
<line x1="818" y1="1" x2="818" y2="108" style="stroke:#ddd;stroke-width:2;stroke-dasharray:3 3" />
<line x1="927" y1="1" x2="927" y2="108" style="stroke:#ddd;stroke-width:2;stroke-dasharray:3 3" />
<line x1="1036" y1="1" x2="1036" y2="108" style="stroke:#ddd;stroke-width:2;stroke-dasharray:3 3" />
<line x1="1145" y1="1" x2="1145" y2="108" style="stroke:#ddd;stroke-width:2;stroke-dasharray:3 3" />
<line x1="1254" y1="1" x2="1254" y2="108" style="stroke:#ddd;stroke-width:2;stroke-dasharray:3 3" />
<line x1="1363" y1="1" x2="1363" y2="108" style="stroke:#ddd;stroke-width:2;stroke-dasharray:3 3" />
<line x1="1472" y1="1" x2="1472" y2="108" style="stroke:#ddd;stroke-width:2;stroke-dasharray:3 3" />
<line x1="1581" y1="1" x2="1581" y2="108" style="stroke:#ddd;stroke-width:2;stroke-dasharray:3 3" />
<line x1="1690" y1="1" x2="1690" y2="108" style="stroke:#ddd;stroke-width:2;stroke-dasharray:3 3" />
<line x1="1799" y1="1" x2="1799" y2="108" style="stroke:#ddd;stroke-width:2;stroke-dasharray:3 3" />
<line x1="1908" y1="1" x2="1908" y2="108" style="stroke:#ddd;stroke-width:2;stroke-dasharray:3 3" />
<line x1="2017" y1="1" x2="2017" y2="108" style="stroke:#ddd;stroke-width:2;stroke-dasharray:3 3" />
<line x1="2126" y1="1" x2="2126" y2="108" style="stroke:#ddd;stroke-width:2;stroke-dasharray:3 3" />
<path d="M31.11,12c0.03,0.34,0.1,0.97-0.05,1.35c-1.88,4.74-4.66,9.08-9.56,12.9" style="fill:none;stroke:black;stroke-width:3" />
<circle cx="31.11" cy="12.0" r="5" stroke-width="0" fill="#FF2A00" opacity="0.7" />
<path d="M140.11,12c0.03,0.34,0.1,0.97-0.05,1.35c-1.88,4.74-4.66,9.08-9.56,12.9" style="fill:none;stroke:#999;stroke-width:3" />
<path d="M123.33,28.12c0.23,0.54,0.24,0.91,0.37,1.57c1.04,5.5,2.33,15.74,2.95,25.88" style="fill:none;stroke:black;stroke-width:3" />
<circle cx="123.33" cy="28.12" r="5" stroke-width="0" fill="#FF2A00" opacity="0.7" />
<path d="M249.11,12c0.03,0.34,0.1,0.97-0.05,1.35c-1.88,4.74-4.66,9.08-9.56,12.9" style="fill:none;stroke:#999;stroke-width:3" />
<path d="M232.32999999999998,28.12c0.23,0.54,0.24,0.91,0.37,1.57c1.04,5.5,2.33,15.74,2.95,25.88" style="fill:none;stroke:#999;stroke-width:3" />
<path d="M233.43,29.45c8.3-0.56,22.57-3.49,28.77-4.03c2.28-0.2,3.21,1.58,2.96,3.87C264.59000000000003,34.67,263.5,46,262.14,53.63" style="fill:none;stroke:black;stroke-width:3" />
<circle cx="233.43" cy="29.45" r="5" stroke-width="0" fill="#FF2A00" opacity="0.7" />
<path d="M358.11,12c0.03,0.34,0.1,0.97-0.05,1.35c-1.88,4.74-4.66,9.08-9.56,12.9" style="fill:none;stroke:#999;stroke-width:3" />
<path d="M341.33,28.12c0.23,0.54,0.24,0.91,0.37,1.57c1.04,5.5,2.33,15.74,2.95,25.88" style="fill:none;stroke:#999;stroke-width:3" />
<path d="M342.43,29.45c8.3-0.56,22.57-3.49,28.77-4.03c2.28-0.2,3.21,1.58,2.96,3.87C373.59000000000003,34.67,372.5,46,371.14,53.63" style="fill:none;stroke:#999;stroke-width:3" />
<path d="M356.2,28.9c0.69,0.69,1.25,1.64,1.26,2.75c0.03,5.51,0.12,16.88,0.12,20" style="fill:none;stroke:black;stroke-width:3" />
<circle cx="356.2" cy="28.9" r="5" stroke-width="0" fill="#FF2A00" opacity="0.7" />
<path d="M467.11,12c0.03,0.34,0.1,0.97-0.05,1.35c-1.88,4.74-4.66,9.08-9.56,12.9" style="fill:none;stroke:#999;stroke-width:3" />
<path d="M450.33,28.12c0.23,0.54,0.24,0.91,0.37,1.57c1.04,5.5,2.33,15.74,2.95,25.88" style="fill:none;stroke:#999;stroke-width:3" />
<path d="M451.43,29.45c8.3-0.56,22.57-3.49,28.77-4.03c2.28-0.2,3.21,1.58,2.96,3.87C482.59000000000003,34.67,481.5,46,480.14,53.63" style="fill:none;stroke:#999;stroke-width:3" />
<path d="M465.2,28.9c0.69,0.69,1.25,1.64,1.26,2.75c0.03,5.51,0.12,16.88,0.12,20" style="fill:none;stroke:#999;stroke-width:3" />
<path d="M452.91,41.07c2.7-0.27,19.34-2.57,28.73-3.37" style="fill:none;stroke:black;stroke-width:3" />
<circle cx="452.91" cy="41.07" r="5" stroke-width="0" fill="#FF2A00" opacity="0.7" />
<path d="M576.11,12c0.03,0.34,0.1,0.97-0.05,1.35c-1.88,4.74-4.66,9.08-9.56,12.9" style="fill:none;stroke:#999;stroke-width:3" />
<path d="M559.3299999999999,28.12c0.23,0.54,0.24,0.91,0.37,1.57c1.04,5.5,2.33,15.74,2.95,25.88" style="fill:none;stroke:#999;stroke-width:3" />
<path d="M560.4300000000001,29.45c8.3-0.56,22.57-3.49,28.77-4.03c2.28-0.2,3.21,1.58,2.96,3.87C591.59,34.67,590.5,46,589.14,53.63" style="fill:none;stroke:#999;stroke-width:3" />
<path d="M574.2,28.9c0.69,0.69,1.25,1.64,1.26,2.75c0.03,5.51,0.12,16.88,0.12,20" style="fill:none;stroke:#999;stroke-width:3" />
<path d="M561.9100000000001,41.07c2.7-0.27,19.34-2.57,28.73-3.37" style="fill:none;stroke:#999;stroke-width:3" />
<path d="M563.07,54.14c10.18-1.39,15.93-1.89,25.64-2.88" style="fill:none;stroke:black;stroke-width:3" />
<circle cx="563.07" cy="54.14" r="5" stroke-width="0" fill="#FF2A00" opacity="0.7" />
<path d="M685.11,12c0.03,0.34,0.1,0.97-0.05,1.35c-1.88,4.74-4.66,9.08-9.56,12.9" style="fill:none;stroke:#999;stroke-width:3" />
<path d="M668.3299999999999,28.12c0.23,0.54,0.24,0.91,0.37,1.57c1.04,5.5,2.33,15.74,2.95,25.88" style="fill:none;stroke:#999;stroke-width:3" />
<path d="M669.4300000000001,29.45c8.3-0.56,22.57-3.49,28.77-4.03c2.28-0.2,3.21,1.58,2.96,3.87C700.59,34.67,699.5,46,698.14,53.63" style="fill:none;stroke:#999;stroke-width:3" />
<path d="M683.2,28.9c0.69,0.69,1.25,1.64,1.26,2.75c0.03,5.51,0.12,16.88,0.12,20" style="fill:none;stroke:#999;stroke-width:3" />
<path d="M670.9100000000001,41.07c2.7-0.27,19.34-2.57,28.73-3.37" style="fill:none;stroke:#999;stroke-width:3" />
<path d="M672.07,54.14c10.18-1.39,15.93-1.89,25.64-2.88" style="fill:none;stroke:#999;stroke-width:3" />
<path d="M677.62,58.75c0.17,0.67,0.47,1.96,0.25,3.05C676.0,71,673.0,83.25,665.0,92.5" style="fill:none;stroke:black;stroke-width:3" />
<circle cx="677.62" cy="58.75" r="5" stroke-width="0" fill="#FF2A00" opacity="0.7" />
<path d="M794.11,12c0.03,0.34,0.1,0.97-0.05,1.35c-1.88,4.74-4.66,9.08-9.56,12.9" style="fill:none;stroke:#999;stroke-width:3" />
<path d="M777.3299999999999,28.12c0.23,0.54,0.24,0.91,0.37,1.57c1.04,5.5,2.33,15.74,2.95,25.88" style="fill:none;stroke:#999;stroke-width:3" />
<path d="M778.4300000000001,29.45c8.3-0.56,22.57-3.49,28.77-4.03c2.28-0.2,3.21,1.58,2.96,3.87C809.59,34.67,808.5,46,807.14,53.63" style="fill:none;stroke:#999;stroke-width:3" />
<path d="M792.2,28.9c0.69,0.69,1.25,1.64,1.26,2.75c0.03,5.51,0.12,16.88,0.12,20" style="fill:none;stroke:#999;stroke-width:3" />
<path d="M779.9100000000001,41.07c2.7-0.27,19.34-2.57,28.73-3.37" style="fill:none;stroke:#999;stroke-width:3" />
<path d="M781.07,54.14c10.18-1.39,15.93-1.89,25.64-2.88" style="fill:none;stroke:#999;stroke-width:3" />
<path d="M786.62,58.75c0.17,0.67,0.47,1.96,0.25,3.05C785.0,71,782.0,83.25,774.0,92.5" style="fill:none;stroke:#999;stroke-width:3" />
<path d="M796.49,54.87c0.74,1.19,1.33,2.59,1.38,4.43c0.2,8.19-0.42,18.64-0.42,24.2c0,11,1.56,13.03,31.97,13.03c27.34,0,28.84-1.53,28.84-10.62" style="fill:none;stroke:black;stroke-width:3" />
<circle cx="796.49" cy="54.87" r="5" stroke-width="0" fill="#FF2A00" opacity="0.7" />
<path d="M903.11,12c0.03,0.34,0.1,0.97-0.05,1.35c-1.88,4.74-4.66,9.08-9.56,12.9" style="fill:none;stroke:#999;stroke-width:3" />
<path d="M886.3299999999999,28.12c0.23,0.54,0.24,0.91,0.37,1.57c1.04,5.5,2.33,15.74,2.95,25.88" style="fill:none;stroke:#999;stroke-width:3" />
<path d="M887.4300000000001,29.45c8.3-0.56,22.57-3.49,28.77-4.03c2.28-0.2,3.21,1.58,2.96,3.87C918.59,34.67,917.5,46,916.14,53.63" style="fill:none;stroke:#999;stroke-width:3" />
<path d="M901.2,28.9c0.69,0.69,1.25,1.64,1.26,2.75c0.03,5.51,0.12,16.88,0.12,20" style="fill:none;stroke:#999;stroke-width:3" />
<path d="M888.9100000000001,41.07c2.7-0.27,19.34-2.57,28.73-3.37" style="fill:none;stroke:#999;stroke-width:3" />
<path d="M890.07,54.14c10.18-1.39,15.93-1.89,25.64-2.88" style="fill:none;stroke:#999;stroke-width:3" />
<path d="M895.62,58.75c0.17,0.67,0.47,1.96,0.25,3.05C894.0,71,891.0,83.25,883.0,92.5" style="fill:none;stroke:#999;stroke-width:3" />
<path d="M905.49,54.87c0.74,1.19,1.33,2.59,1.38,4.43c0.2,8.19-0.42,18.64-0.42,24.2c0,11,1.56,13.03,31.97,13.03c27.34,0,28.84-1.53,28.84-10.62" style="fill:none;stroke:#999;stroke-width:3" />
<path d="M917.44,60.72c0.21,0.35,0.06,1.93-0.07,2.38c-1.55,5.71-3.12,10.39-6.06,16.54c-0.67,1.41-0.87,1.7,0.42,1.27c4.53-1.51,6.66-2.82,11.05-4.41" style="fill:none;stroke:black;stroke-width:3" />
<circle cx="917.44" cy="60.72" r="5" stroke-width="0" fill="#FF2A00" opacity="0.7" />
<path d="M1012.11,12c0.03,0.34,0.1,0.97-0.05,1.35c-1.88,4.74-4.66,9.08-9.56,12.9" style="fill:none;stroke:#999;stroke-width:3" />
<path d="M995.3299999999999,28.12c0.23,0.54,0.24,0.91,0.37,1.57c1.04,5.5,2.33,15.74,2.95,25.88" style="fill:none;stroke:#999;stroke-width:3" />
<path d="M996.4300000000001,29.45c8.3-0.56,22.57-3.49,28.77-4.03c2.28-0.2,3.21,1.58,2.96,3.87C1027.5900000000001,34.67,1026.5,46,1025.1399999999999,53.63" style="fill:none;stroke:#999;stroke-width:3" />
<path d="M1010.2,28.9c0.69,0.69,1.25,1.64,1.26,2.75c0.03,5.51,0.12,16.88,0.12,20" style="fill:none;stroke:#999;stroke-width:3" />
<path d="M997.9100000000001,41.07c2.7-0.27,19.34-2.57,28.73-3.37" style="fill:none;stroke:#999;stroke-width:3" />
<path d="M999.07,54.14c10.18-1.39,15.93-1.89,25.64-2.88" style="fill:none;stroke:#999;stroke-width:3" />
<path d="M1004.62,58.75c0.17,0.67,0.47,1.96,0.25,3.05C1003.0,71,1000.0,83.25,992.0,92.5" style="fill:none;stroke:#999;stroke-width:3" />
<path d="M1014.49,54.87c0.74,1.19,1.33,2.59,1.38,4.43c0.2,8.19-0.42,18.64-0.42,24.2c0,11,1.56,13.03,31.97,13.03c27.34,0,28.84-1.53,28.84-10.62" style="fill:none;stroke:#999;stroke-width:3" />
<path d="M1026.44,60.72c0.21,0.35,0.06,1.93-0.07,2.38c-1.55,5.71-3.12,10.39-6.06,16.54c-0.67,1.41-0.87,1.7,0.42,1.27c4.53-1.51,6.66-2.82,11.05-4.41" style="fill:none;stroke:#999;stroke-width:3" />
<path d="M1029.85,71.54c1.01,1.37,3.24,6.8,3.49,8.93" style="fill:none;stroke:black;stroke-width:3" />
<circle cx="1029.85" cy="71.54" r="5" stroke-width="0" fill="#FF2A00" opacity="0.7" />
<path d="M1121.1100000000001,12c0.03,0.34,0.1,0.97-0.05,1.35c-1.88,4.74-4.66,9.08-9.56,12.9" style="fill:none;stroke:#999;stroke-width:3" />
<path d="M1104.33,28.12c0.23,0.54,0.24,0.91,0.37,1.57c1.04,5.5,2.33,15.74,2.95,25.88" style="fill:none;stroke:#999;stroke-width:3" />
<path d="M1105.43,29.45c8.3-0.56,22.57-3.49,28.77-4.03c2.28-0.2,3.21,1.58,2.96,3.87C1136.5900000000001,34.67,1135.5,46,1134.1399999999999,53.63" style="fill:none;stroke:#999;stroke-width:3" />
<path d="M1119.2,28.9c0.69,0.69,1.25,1.64,1.26,2.75c0.03,5.51,0.12,16.88,0.12,20" style="fill:none;stroke:#999;stroke-width:3" />
<path d="M1106.91,41.07c2.7-0.27,19.34-2.57,28.73-3.37" style="fill:none;stroke:#999;stroke-width:3" />
<path d="M1108.0700000000002,54.14c10.18-1.39,15.93-1.89,25.64-2.88" style="fill:none;stroke:#999;stroke-width:3" />
<path d="M1113.62,58.75c0.17,0.67,0.47,1.96,0.25,3.05C1112.0,71,1109.0,83.25,1101.0,92.5" style="fill:none;stroke:#999;stroke-width:3" />
<path d="M1123.49,54.87c0.74,1.19,1.33,2.59,1.38,4.43c0.2,8.19-0.42,18.64-0.42,24.2c0,11,1.56,13.03,31.97,13.03c27.34,0,28.84-1.53,28.84-10.62" style="fill:none;stroke:#999;stroke-width:3" />
<path d="M1135.44,60.72c0.21,0.35,0.06,1.93-0.07,2.38c-1.55,5.71-3.12,10.39-6.06,16.54c-0.67,1.41-0.87,1.7,0.42,1.27c4.53-1.51,6.66-2.82,11.05-4.41" style="fill:none;stroke:#999;stroke-width:3" />
<path d="M1138.85,71.54c1.01,1.37,3.24,6.8,3.49,8.93" style="fill:none;stroke:#999;stroke-width:3" />
<path d="M1161.56,11.5c0.56,0.27,1.48,1.33,1.48,1.87c0,2-0.18,6.23-0.07,7.92" style="fill:none;stroke:black;stroke-width:3" />
<circle cx="1161.56" cy="11.5" r="5" stroke-width="0" fill="#FF2A00" opacity="0.7" />
<path d="M1230.1100000000001,12c0.03,0.34,0.1,0.97-0.05,1.35c-1.88,4.74-4.66,9.08-9.56,12.9" style="fill:none;stroke:#999;stroke-width:3" />
<path d="M1213.33,28.12c0.23,0.54,0.24,0.91,0.37,1.57c1.04,5.5,2.33,15.74,2.95,25.88" style="fill:none;stroke:#999;stroke-width:3" />
<path d="M1214.43,29.45c8.3-0.56,22.57-3.49,28.77-4.03c2.28-0.2,3.21,1.58,2.96,3.87C1245.5900000000001,34.67,1244.5,46,1243.1399999999999,53.63" style="fill:none;stroke:#999;stroke-width:3" />
<path d="M1228.2,28.9c0.69,0.69,1.25,1.64,1.26,2.75c0.03,5.51,0.12,16.88,0.12,20" style="fill:none;stroke:#999;stroke-width:3" />
<path d="M1215.91,41.07c2.7-0.27,19.34-2.57,28.73-3.37" style="fill:none;stroke:#999;stroke-width:3" />
<path d="M1217.0700000000002,54.14c10.18-1.39,15.93-1.89,25.64-2.88" style="fill:none;stroke:#999;stroke-width:3" />
<path d="M1222.62,58.75c0.17,0.67,0.47,1.96,0.25,3.05C1221.0,71,1218.0,83.25,1210.0,92.5" style="fill:none;stroke:#999;stroke-width:3" />
<path d="M1232.49,54.87c0.74,1.19,1.33,2.59,1.38,4.43c0.2,8.19-0.42,18.64-0.42,24.2c0,11,1.56,13.03,31.97,13.03c27.34,0,28.84-1.53,28.84-10.62" style="fill:none;stroke:#999;stroke-width:3" />
<path d="M1244.44,60.72c0.21,0.35,0.06,1.93-0.07,2.38c-1.55,5.71-3.12,10.39-6.06,16.54c-0.67,1.41-0.87,1.7,0.42,1.27c4.53-1.51,6.66-2.82,11.05-4.41" style="fill:none;stroke:#999;stroke-width:3" />
<path d="M1247.85,71.54c1.01,1.37,3.24,6.8,3.49,8.93" style="fill:none;stroke:#999;stroke-width:3" />
<path d="M1270.56,11.5c0.56,0.27,1.48,1.33,1.48,1.87c0,2-0.18,6.23-0.07,7.92" style="fill:none;stroke:#999;stroke-width:3" />
<path d="M1254.17,23.21c1.22,0.22,2.31,0.46,3.71,0.3c8.38-0.91,21.78-2.99,31.55-3.43c1.44-0.06,2.17,0.03,3.24,0.39" style="fill:none;stroke:black;stroke-width:3" />
<circle cx="1254.17" cy="23.21" r="5" stroke-width="0" fill="#FF2A00" opacity="0.7" />
<path d="M1339.1100000000001,12c0.03,0.34,0.1,0.97-0.05,1.35c-1.88,4.74-4.66,9.08-9.56,12.9" style="fill:none;stroke:#999;stroke-width:3" />
<path d="M1322.33,28.12c0.23,0.54,0.24,0.91,0.37,1.57c1.04,5.5,2.33,15.74,2.95,25.88" style="fill:none;stroke:#999;stroke-width:3" />
<path d="M1323.43,29.45c8.3-0.56,22.57-3.49,28.77-4.03c2.28-0.2,3.21,1.58,2.96,3.87C1354.5900000000001,34.67,1353.5,46,1352.1399999999999,53.63" style="fill:none;stroke:#999;stroke-width:3" />
<path d="M1337.2,28.9c0.69,0.69,1.25,1.64,1.26,2.75c0.03,5.51,0.12,16.88,0.12,20" style="fill:none;stroke:#999;stroke-width:3" />
<path d="M1324.91,41.07c2.7-0.27,19.34-2.57,28.73-3.37" style="fill:none;stroke:#999;stroke-width:3" />
<path d="M1326.0700000000002,54.14c10.18-1.39,15.93-1.89,25.64-2.88" style="fill:none;stroke:#999;stroke-width:3" />
<path d="M1331.62,58.75c0.17,0.67,0.47,1.96,0.25,3.05C1330.0,71,1327.0,83.25,1319.0,92.5" style="fill:none;stroke:#999;stroke-width:3" />
<path d="M1341.49,54.87c0.74,1.19,1.33,2.59,1.38,4.43c0.2,8.19-0.42,18.64-0.42,24.2c0,11,1.56,13.03,31.97,13.03c27.34,0,28.84-1.53,28.84-10.62" style="fill:none;stroke:#999;stroke-width:3" />
<path d="M1353.44,60.72c0.21,0.35,0.06,1.93-0.07,2.38c-1.55,5.71-3.12,10.39-6.06,16.54c-0.67,1.41-0.87,1.7,0.42,1.27c4.53-1.51,6.66-2.82,11.05-4.41" style="fill:none;stroke:#999;stroke-width:3" />
<path d="M1356.85,71.54c1.01,1.37,3.24,6.8,3.49,8.93" style="fill:none;stroke:#999;stroke-width:3" />
<path d="M1379.56,11.5c0.56,0.27,1.48,1.33,1.48,1.87c0,2-0.18,6.23-0.07,7.92" style="fill:none;stroke:#999;stroke-width:3" />
<path d="M1363.17,23.21c1.22,0.22,2.31,0.46,3.71,0.3c8.38-0.91,21.78-2.99,31.55-3.43c1.44-0.06,2.17,0.03,3.24,0.39" style="fill:none;stroke:#999;stroke-width:3" />
<path d="M1387.27,25.86c0.24,0.36,0.49,0.65,0.12,1.29c-3.27,5.72-8.13,10.5-15.16,13.5" style="fill:none;stroke:black;stroke-width:3" />
<circle cx="1387.27" cy="25.86" r="5" stroke-width="0" fill="#FF2A00" opacity="0.7" />
<path d="M1448.1100000000001,12c0.03,0.34,0.1,0.97-0.05,1.35c-1.88,4.74-4.66,9.08-9.56,12.9" style="fill:none;stroke:#999;stroke-width:3" />
<path d="M1431.33,28.12c0.23,0.54,0.24,0.91,0.37,1.57c1.04,5.5,2.33,15.74,2.95,25.88" style="fill:none;stroke:#999;stroke-width:3" />
<path d="M1432.43,29.45c8.3-0.56,22.57-3.49,28.77-4.03c2.28-0.2,3.21,1.58,2.96,3.87C1463.5900000000001,34.67,1462.5,46,1461.1399999999999,53.63" style="fill:none;stroke:#999;stroke-width:3" />
<path d="M1446.2,28.9c0.69,0.69,1.25,1.64,1.26,2.75c0.03,5.51,0.12,16.88,0.12,20" style="fill:none;stroke:#999;stroke-width:3" />
<path d="M1433.91,41.07c2.7-0.27,19.34-2.57,28.73-3.37" style="fill:none;stroke:#999;stroke-width:3" />
<path d="M1435.0700000000002,54.14c10.18-1.39,15.93-1.89,25.64-2.88" style="fill:none;stroke:#999;stroke-width:3" />
<path d="M1440.62,58.75c0.17,0.67,0.47,1.96,0.25,3.05C1439.0,71,1436.0,83.25,1428.0,92.5" style="fill:none;stroke:#999;stroke-width:3" />
<path d="M1450.49,54.87c0.74,1.19,1.33,2.59,1.38,4.43c0.2,8.19-0.42,18.64-0.42,24.2c0,11,1.56,13.03,31.97,13.03c27.34,0,28.84-1.53,28.84-10.62" style="fill:none;stroke:#999;stroke-width:3" />
<path d="M1462.44,60.72c0.21,0.35,0.06,1.93-0.07,2.38c-1.55,5.71-3.12,10.39-6.06,16.54c-0.67,1.41-0.87,1.7,0.42,1.27c4.53-1.51,6.66-2.82,11.05-4.41" style="fill:none;stroke:#999;stroke-width:3" />
<path d="M1465.85,71.54c1.01,1.37,3.24,6.8,3.49,8.93" style="fill:none;stroke:#999;stroke-width:3" />
<path d="M1488.56,11.5c0.56,0.27,1.48,1.33,1.48,1.87c0,2-0.18,6.23-0.07,7.92" style="fill:none;stroke:#999;stroke-width:3" />
<path d="M1472.17,23.21c1.22,0.22,2.31,0.46,3.71,0.3c8.38-0.91,21.78-2.99,31.55-3.43c1.44-0.06,2.17,0.03,3.24,0.39" style="fill:none;stroke:#999;stroke-width:3" />
<path d="M1496.27,25.86c0.24,0.36,0.49,0.65,0.12,1.29c-3.27,5.72-8.13,10.5-15.16,13.5" style="fill:none;stroke:#999;stroke-width:3" />
<path d="M1482.53,27.3c5.12,1.88,12.5,7.99,15.17,12.47" style="fill:none;stroke:black;stroke-width:3" />
<circle cx="1482.53" cy="27.3" r="5" stroke-width="0" fill="#FF2A00" opacity="0.7" />
<path d="M1557.1100000000001,12c0.03,0.34,0.1,0.97-0.05,1.35c-1.88,4.74-4.66,9.08-9.56,12.9" style="fill:none;stroke:#999;stroke-width:3" />
<path d="M1540.33,28.12c0.23,0.54,0.24,0.91,0.37,1.57c1.04,5.5,2.33,15.74,2.95,25.88" style="fill:none;stroke:#999;stroke-width:3" />
<path d="M1541.43,29.45c8.3-0.56,22.57-3.49,28.77-4.03c2.28-0.2,3.21,1.58,2.96,3.87C1572.5900000000001,34.67,1571.5,46,1570.1399999999999,53.63" style="fill:none;stroke:#999;stroke-width:3" />
<path d="M1555.2,28.9c0.69,0.69,1.25,1.64,1.26,2.75c0.03,5.51,0.12,16.88,0.12,20" style="fill:none;stroke:#999;stroke-width:3" />
<path d="M1542.91,41.07c2.7-0.27,19.34-2.57,28.73-3.37" style="fill:none;stroke:#999;stroke-width:3" />
<path d="M1544.0700000000002,54.14c10.18-1.39,15.93-1.89,25.64-2.88" style="fill:none;stroke:#999;stroke-width:3" />
<path d="M1549.62,58.75c0.17,0.67,0.47,1.96,0.25,3.05C1548.0,71,1545.0,83.25,1537.0,92.5" style="fill:none;stroke:#999;stroke-width:3" />
<path d="M1559.49,54.87c0.74,1.19,1.33,2.59,1.38,4.43c0.2,8.19-0.42,18.64-0.42,24.2c0,11,1.56,13.03,31.97,13.03c27.34,0,28.84-1.53,28.84-10.62" style="fill:none;stroke:#999;stroke-width:3" />
<path d="M1571.44,60.72c0.21,0.35,0.06,1.93-0.07,2.38c-1.55,5.71-3.12,10.39-6.06,16.54c-0.67,1.41-0.87,1.7,0.42,1.27c4.53-1.51,6.66-2.82,11.05-4.41" style="fill:none;stroke:#999;stroke-width:3" />
<path d="M1574.85,71.54c1.01,1.37,3.24,6.8,3.49,8.93" style="fill:none;stroke:#999;stroke-width:3" />
<path d="M1597.56,11.5c0.56,0.27,1.48,1.33,1.48,1.87c0,2-0.18,6.23-0.07,7.92" style="fill:none;stroke:#999;stroke-width:3" />
<path d="M1581.17,23.21c1.22,0.22,2.31,0.46,3.71,0.3c8.38-0.91,21.78-2.99,31.55-3.43c1.44-0.06,2.17,0.03,3.24,0.39" style="fill:none;stroke:#999;stroke-width:3" />
<path d="M1605.27,25.86c0.24,0.36,0.49,0.65,0.12,1.29c-3.27,5.72-8.13,10.5-15.16,13.5" style="fill:none;stroke:#999;stroke-width:3" />
<path d="M1591.53,27.3c5.12,1.88,12.5,7.99,15.17,12.47" style="fill:none;stroke:#999;stroke-width:3" />
<path d="M1584.65,28.83c0.32,0.17,0.98,1.24,1.05,1.57c0.46,2.41-0.41,14.38-0.44,15.16c-0.03,0.78,0.69,1.21,1.31,1.12c9.27-1.4,23.28-2.66,26.56-2.83" style="fill:none;stroke:black;stroke-width:3" />
<circle cx="1584.65" cy="28.83" r="5" stroke-width="0" fill="#FF2A00" opacity="0.7" />
<path d="M1666.1100000000001,12c0.03,0.34,0.1,0.97-0.05,1.35c-1.88,4.74-4.66,9.08-9.56,12.9" style="fill:none;stroke:#999;stroke-width:3" />
<path d="M1649.33,28.12c0.23,0.54,0.24,0.91,0.37,1.57c1.04,5.5,2.33,15.74,2.95,25.88" style="fill:none;stroke:#999;stroke-width:3" />
<path d="M1650.43,29.45c8.3-0.56,22.57-3.49,28.77-4.03c2.28-0.2,3.21,1.58,2.96,3.87C1681.5900000000001,34.67,1680.5,46,1679.1399999999999,53.63" style="fill:none;stroke:#999;stroke-width:3" />
<path d="M1664.2,28.9c0.69,0.69,1.25,1.64,1.26,2.75c0.03,5.51,0.12,16.88,0.12,20" style="fill:none;stroke:#999;stroke-width:3" />
<path d="M1651.91,41.07c2.7-0.27,19.34-2.57,28.73-3.37" style="fill:none;stroke:#999;stroke-width:3" />
<path d="M1653.0700000000002,54.14c10.18-1.39,15.93-1.89,25.64-2.88" style="fill:none;stroke:#999;stroke-width:3" />
<path d="M1658.62,58.75c0.17,0.67,0.47,1.96,0.25,3.05C1657.0,71,1654.0,83.25,1646.0,92.5" style="fill:none;stroke:#999;stroke-width:3" />
<path d="M1668.49,54.87c0.74,1.19,1.33,2.59,1.38,4.43c0.2,8.19-0.42,18.64-0.42,24.2c0,11,1.56,13.03,31.97,13.03c27.34,0,28.84-1.53,28.84-10.62" style="fill:none;stroke:#999;stroke-width:3" />
<path d="M1680.44,60.72c0.21,0.35,0.06,1.93-0.07,2.38c-1.55,5.71-3.12,10.39-6.06,16.54c-0.67,1.41-0.87,1.7,0.42,1.27c4.53-1.51,6.66-2.82,11.05-4.41" style="fill:none;stroke:#999;stroke-width:3" />
<path d="M1683.85,71.54c1.01,1.37,3.24,6.8,3.49,8.93" style="fill:none;stroke:#999;stroke-width:3" />
<path d="M1706.56,11.5c0.56,0.27,1.48,1.33,1.48,1.87c0,2-0.18,6.23-0.07,7.92" style="fill:none;stroke:#999;stroke-width:3" />
<path d="M1690.17,23.21c1.22,0.22,2.31,0.46,3.71,0.3c8.38-0.91,21.78-2.99,31.55-3.43c1.44-0.06,2.17,0.03,3.24,0.39" style="fill:none;stroke:#999;stroke-width:3" />
<path d="M1714.27,25.86c0.24,0.36,0.49,0.65,0.12,1.29c-3.27,5.72-8.13,10.5-15.16,13.5" style="fill:none;stroke:#999;stroke-width:3" />
<path d="M1700.53,27.3c5.12,1.88,12.5,7.99,15.17,12.47" style="fill:none;stroke:#999;stroke-width:3" />
<path d="M1693.65,28.83c0.32,0.17,0.98,1.24,1.05,1.57c0.46,2.41-0.41,14.38-0.44,15.16c-0.03,0.78,0.69,1.21,1.31,1.12c9.27-1.4,23.28-2.66,26.56-2.83" style="fill:none;stroke:#999;stroke-width:3" />
<path d="M1722.91,25.63c0.32,0.17,0.98,1.24,1.05,1.57c0.06,0.33-0.62,12.02-0.9,18.52" style="fill:none;stroke:black;stroke-width:3" />
<circle cx="1722.91" cy="25.63" r="5" stroke-width="0" fill="#FF2A00" opacity="0.7" />
<path d="M1775.1100000000001,12c0.03,0.34,0.1,0.97-0.05,1.35c-1.88,4.74-4.66,9.08-9.56,12.9" style="fill:none;stroke:#999;stroke-width:3" />
<path d="M1758.33,28.12c0.23,0.54,0.24,0.91,0.37,1.57c1.04,5.5,2.33,15.74,2.95,25.88" style="fill:none;stroke:#999;stroke-width:3" />
<path d="M1759.43,29.45c8.3-0.56,22.57-3.49,28.77-4.03c2.28-0.2,3.21,1.58,2.96,3.87C1790.5900000000001,34.67,1789.5,46,1788.1399999999999,53.63" style="fill:none;stroke:#999;stroke-width:3" />
<path d="M1773.2,28.9c0.69,0.69,1.25,1.64,1.26,2.75c0.03,5.51,0.12,16.88,0.12,20" style="fill:none;stroke:#999;stroke-width:3" />
<path d="M1760.91,41.07c2.7-0.27,19.34-2.57,28.73-3.37" style="fill:none;stroke:#999;stroke-width:3" />
<path d="M1762.0700000000002,54.14c10.18-1.39,15.93-1.89,25.64-2.88" style="fill:none;stroke:#999;stroke-width:3" />
<path d="M1767.62,58.75c0.17,0.67,0.47,1.96,0.25,3.05C1766.0,71,1763.0,83.25,1755.0,92.5" style="fill:none;stroke:#999;stroke-width:3" />
<path d="M1777.49,54.87c0.74,1.19,1.33,2.59,1.38,4.43c0.2,8.19-0.42,18.64-0.42,24.2c0,11,1.56,13.03,31.97,13.03c27.34,0,28.84-1.53,28.84-10.62" style="fill:none;stroke:#999;stroke-width:3" />
<path d="M1789.44,60.72c0.21,0.35,0.06,1.93-0.07,2.38c-1.55,5.71-3.12,10.39-6.06,16.54c-0.67,1.41-0.87,1.7,0.42,1.27c4.53-1.51,6.66-2.82,11.05-4.41" style="fill:none;stroke:#999;stroke-width:3" />
<path d="M1792.85,71.54c1.01,1.37,3.24,6.8,3.49,8.93" style="fill:none;stroke:#999;stroke-width:3" />
<path d="M1815.56,11.5c0.56,0.27,1.48,1.33,1.48,1.87c0,2-0.18,6.23-0.07,7.92" style="fill:none;stroke:#999;stroke-width:3" />
<path d="M1799.17,23.21c1.22,0.22,2.31,0.46,3.71,0.3c8.38-0.91,21.78-2.99,31.55-3.43c1.44-0.06,2.17,0.03,3.24,0.39" style="fill:none;stroke:#999;stroke-width:3" />
<path d="M1823.27,25.86c0.24,0.36,0.49,0.65,0.12,1.29c-3.27,5.72-8.13,10.5-15.16,13.5" style="fill:none;stroke:#999;stroke-width:3" />
<path d="M1809.53,27.3c5.12,1.88,12.5,7.99,15.17,12.47" style="fill:none;stroke:#999;stroke-width:3" />
<path d="M1802.65,28.83c0.32,0.17,0.98,1.24,1.05,1.57c0.46,2.41-0.41,14.38-0.44,15.16c-0.03,0.78,0.69,1.21,1.31,1.12c9.27-1.4,23.28-2.66,26.56-2.83" style="fill:none;stroke:#999;stroke-width:3" />
<path d="M1831.91,25.63c0.32,0.17,0.98,1.24,1.05,1.57c0.06,0.33-0.62,12.02-0.9,18.52" style="fill:none;stroke:#999;stroke-width:3" />
<path d="M1800.15,54.52c0.57,0.76,0.76,1.96,0.76,3.35c0,7.88-0.17,26.35-0.17,28.63" style="fill:none;stroke:black;stroke-width:3" />
<circle cx="1800.15" cy="54.52" r="5" stroke-width="0" fill="#FF2A00" opacity="0.7" />
<path d="M1884.1100000000001,12c0.03,0.34,0.1,0.97-0.05,1.35c-1.88,4.74-4.66,9.08-9.56,12.9" style="fill:none;stroke:#999;stroke-width:3" />
<path d="M1867.33,28.12c0.23,0.54,0.24,0.91,0.37,1.57c1.04,5.5,2.33,15.74,2.95,25.88" style="fill:none;stroke:#999;stroke-width:3" />
<path d="M1868.43,29.45c8.3-0.56,22.57-3.49,28.77-4.03c2.28-0.2,3.21,1.58,2.96,3.87C1899.5900000000001,34.67,1898.5,46,1897.1399999999999,53.63" style="fill:none;stroke:#999;stroke-width:3" />
<path d="M1882.2,28.9c0.69,0.69,1.25,1.64,1.26,2.75c0.03,5.51,0.12,16.88,0.12,20" style="fill:none;stroke:#999;stroke-width:3" />
<path d="M1869.91,41.07c2.7-0.27,19.34-2.57,28.73-3.37" style="fill:none;stroke:#999;stroke-width:3" />
<path d="M1871.0700000000002,54.14c10.18-1.39,15.93-1.89,25.64-2.88" style="fill:none;stroke:#999;stroke-width:3" />
<path d="M1876.62,58.75c0.17,0.67,0.47,1.96,0.25,3.05C1875.0,71,1872.0,83.25,1864.0,92.5" style="fill:none;stroke:#999;stroke-width:3" />
<path d="M1886.49,54.87c0.74,1.19,1.33,2.59,1.38,4.43c0.2,8.19-0.42,18.64-0.42,24.2c0,11,1.56,13.03,31.97,13.03c27.34,0,28.84-1.53,28.84-10.62" style="fill:none;stroke:#999;stroke-width:3" />
<path d="M1898.44,60.72c0.21,0.35,0.06,1.93-0.07,2.38c-1.55,5.71-3.12,10.39-6.06,16.54c-0.67,1.41-0.87,1.7,0.42,1.27c4.53-1.51,6.66-2.82,11.05-4.41" style="fill:none;stroke:#999;stroke-width:3" />
<path d="M1901.85,71.54c1.01,1.37,3.24,6.8,3.49,8.93" style="fill:none;stroke:#999;stroke-width:3" />
<path d="M1924.56,11.5c0.56,0.27,1.48,1.33,1.48,1.87c0,2-0.18,6.23-0.07,7.92" style="fill:none;stroke:#999;stroke-width:3" />
<path d="M1908.17,23.21c1.22,0.22,2.31,0.46,3.71,0.3c8.38-0.91,21.78-2.99,31.55-3.43c1.44-0.06,2.17,0.03,3.24,0.39" style="fill:none;stroke:#999;stroke-width:3" />
<path d="M1932.27,25.86c0.24,0.36,0.49,0.65,0.12,1.29c-3.27,5.72-8.13,10.5-15.16,13.5" style="fill:none;stroke:#999;stroke-width:3" />
<path d="M1918.53,27.3c5.12,1.88,12.5,7.99,15.17,12.47" style="fill:none;stroke:#999;stroke-width:3" />
<path d="M1911.65,28.83c0.32,0.17,0.98,1.24,1.05,1.57c0.46,2.41-0.41,14.38-0.44,15.16c-0.03,0.78,0.69,1.21,1.31,1.12c9.27-1.4,23.28-2.66,26.56-2.83" style="fill:none;stroke:#999;stroke-width:3" />
<path d="M1940.91,25.63c0.32,0.17,0.98,1.24,1.05,1.57c0.06,0.33-0.62,12.02-0.9,18.52" style="fill:none;stroke:#999;stroke-width:3" />
<path d="M1909.15,54.52c0.57,0.76,0.76,1.96,0.76,3.35c0,7.88-0.17,26.35-0.17,28.63" style="fill:none;stroke:#999;stroke-width:3" />
<path d="M1910.08,56.98c5.07-0.64,29.81-4.09,30.83-4.09c1.47,0,2.4,0.48,2.4,1.91c0,3.02,0.19,19.96,0.2,25.31c0.01,7.44-4.64,3.14-6,1.63" style="fill:none;stroke:black;stroke-width:3" />
<circle cx="1910.08" cy="56.98" r="5" stroke-width="0" fill="#FF2A00" opacity="0.7" />
<path d="M1993.1100000000001,12c0.03,0.34,0.1,0.97-0.05,1.35c-1.88,4.74-4.66,9.08-9.56,12.9" style="fill:none;stroke:#999;stroke-width:3" />
<path d="M1976.33,28.12c0.23,0.54,0.24,0.91,0.37,1.57c1.04,5.5,2.33,15.74,2.95,25.88" style="fill:none;stroke:#999;stroke-width:3" />
<path d="M1977.43,29.45c8.3-0.56,22.57-3.49,28.77-4.03c2.28-0.2,3.21,1.58,2.96,3.87C2008.5900000000001,34.67,2007.5,46,2006.1399999999999,53.63" style="fill:none;stroke:#999;stroke-width:3" />
<path d="M1991.2,28.9c0.69,0.69,1.25,1.64,1.26,2.75c0.03,5.51,0.12,16.88,0.12,20" style="fill:none;stroke:#999;stroke-width:3" />
<path d="M1978.91,41.07c2.7-0.27,19.34-2.57,28.73-3.37" style="fill:none;stroke:#999;stroke-width:3" />
<path d="M1980.0700000000002,54.14c10.18-1.39,15.93-1.89,25.64-2.88" style="fill:none;stroke:#999;stroke-width:3" />
<path d="M1985.62,58.75c0.17,0.67,0.47,1.96,0.25,3.05C1984.0,71,1981.0,83.25,1973.0,92.5" style="fill:none;stroke:#999;stroke-width:3" />
<path d="M1995.49,54.87c0.74,1.19,1.33,2.59,1.38,4.43c0.2,8.19-0.42,18.64-0.42,24.2c0,11,1.56,13.03,31.97,13.03c27.34,0,28.84-1.53,28.84-10.62" style="fill:none;stroke:#999;stroke-width:3" />
<path d="M2007.44,60.72c0.21,0.35,0.06,1.93-0.07,2.38c-1.55,5.71-3.12,10.39-6.06,16.54c-0.67,1.41-0.87,1.7,0.42,1.27c4.53-1.51,6.66-2.82,11.05-4.41" style="fill:none;stroke:#999;stroke-width:3" />
<path d="M2010.85,71.54c1.01,1.37,3.24,6.8,3.49,8.93" style="fill:none;stroke:#999;stroke-width:3" />
<path d="M2033.56,11.5c0.56,0.27,1.48,1.33,1.48,1.87c0,2-0.18,6.23-0.07,7.92" style="fill:none;stroke:#999;stroke-width:3" />
<path d="M2017.17,23.21c1.22,0.22,2.31,0.46,3.71,0.3c8.38-0.91,21.78-2.99,31.55-3.43c1.44-0.06,2.17,0.03,3.24,0.39" style="fill:none;stroke:#999;stroke-width:3" />
<path d="M2041.27,25.86c0.24,0.36,0.49,0.65,0.12,1.29c-3.27,5.72-8.13,10.5-15.16,13.5" style="fill:none;stroke:#999;stroke-width:3" />
<path d="M2027.53,27.3c5.12,1.88,12.5,7.99,15.17,12.47" style="fill:none;stroke:#999;stroke-width:3" />
<path d="M2020.65,28.83c0.32,0.17,0.98,1.24,1.05,1.57c0.46,2.41-0.41,14.38-0.44,15.16c-0.03,0.78,0.69,1.21,1.31,1.12c9.27-1.4,23.28-2.66,26.56-2.83" style="fill:none;stroke:#999;stroke-width:3" />
<path d="M2049.91,25.63c0.32,0.17,0.98,1.24,1.05,1.57c0.06,0.33-0.62,12.02-0.9,18.52" style="fill:none;stroke:#999;stroke-width:3" />
<path d="M2018.15,54.52c0.57,0.76,0.76,1.96,0.76,3.35c0,7.88-0.17,26.35-0.17,28.63" style="fill:none;stroke:#999;stroke-width:3" />
<path d="M2019.08,56.98c5.07-0.64,29.81-4.09,30.83-4.09c1.47,0,2.4,0.48,2.4,1.91c0,3.02,0.19,19.96,0.2,25.31c0.01,7.44-4.64,3.14-6,1.63" style="fill:none;stroke:#999;stroke-width:3" />
<path d="M2034.72,47.79c0.22,0.42,0.28,2.07,0.07,2.59c-2.95,7.5-4.53,13.09-7.56,17.9c-0.96,1.52-0.95,1.98,0.44,1.52c3.39-1.12,9.84-2.13,14.56-4.01" style="fill:none;stroke:black;stroke-width:3" />
<circle cx="2034.72" cy="47.79" r="5" stroke-width="0" fill="#FF2A00" opacity="0.7" />
<path d="M2102.11,12c0.03,0.34,0.1,0.97-0.05,1.35c-1.88,4.74-4.66,9.08-9.56,12.9" style="fill:none;stroke:#999;stroke-width:3" />
<path d="M2085.33,28.12c0.23,0.54,0.24,0.91,0.37,1.57c1.04,5.5,2.33,15.74,2.95,25.88" style="fill:none;stroke:#999;stroke-width:3" />
<path d="M2086.4300000000003,29.45c8.3-0.56,22.57-3.49,28.77-4.03c2.28-0.2,3.21,1.58,2.96,3.87C2117.59,34.67,2116.5,46,2115.14,53.63" style="fill:none;stroke:#999;stroke-width:3" />
<path d="M2100.2,28.9c0.69,0.69,1.25,1.64,1.26,2.75c0.03,5.51,0.12,16.88,0.12,20" style="fill:none;stroke:#999;stroke-width:3" />
<path d="M2087.91,41.07c2.7-0.27,19.34-2.57,28.73-3.37" style="fill:none;stroke:#999;stroke-width:3" />
<path d="M2089.07,54.14c10.18-1.39,15.93-1.89,25.64-2.88" style="fill:none;stroke:#999;stroke-width:3" />
<path d="M2094.62,58.75c0.17,0.67,0.47,1.96,0.25,3.05C2093.0,71,2090.0,83.25,2082.0,92.5" style="fill:none;stroke:#999;stroke-width:3" />
<path d="M2104.49,54.87c0.74,1.19,1.33,2.59,1.38,4.43c0.2,8.19-0.42,18.64-0.42,24.2c0,11,1.56,13.03,31.97,13.03c27.34,0,28.84-1.53,28.84-10.62" style="fill:none;stroke:#999;stroke-width:3" />
<path d="M2116.44,60.72c0.21,0.35,0.06,1.93-0.07,2.38c-1.55,5.71-3.12,10.39-6.06,16.54c-0.67,1.41-0.87,1.7,0.42,1.27c4.53-1.51,6.66-2.82,11.05-4.41" style="fill:none;stroke:#999;stroke-width:3" />
<path d="M2119.85,71.54c1.01,1.37,3.24,6.8,3.49,8.93" style="fill:none;stroke:#999;stroke-width:3" />
<path d="M2142.56,11.5c0.56,0.27,1.48,1.33,1.48,1.87c0,2-0.18,6.23-0.07,7.92" style="fill:none;stroke:#999;stroke-width:3" />
<path d="M2126.17,23.21c1.22,0.22,2.31,0.46,3.71,0.3c8.38-0.91,21.78-2.99,31.55-3.43c1.44-0.06,2.17,0.03,3.24,0.39" style="fill:none;stroke:#999;stroke-width:3" />
<path d="M2150.27,25.86c0.24,0.36,0.49,0.65,0.12,1.29c-3.27,5.72-8.13,10.5-15.16,13.5" style="fill:none;stroke:#999;stroke-width:3" />
<path d="M2136.5299999999997,27.3c5.12,1.88,12.5,7.99,15.17,12.47" style="fill:none;stroke:#999;stroke-width:3" />
<path d="M2129.65,28.83c0.32,0.17,0.98,1.24,1.05,1.57c0.46,2.41-0.41,14.38-0.44,15.16c-0.03,0.78,0.69,1.21,1.31,1.12c9.27-1.4,23.28-2.66,26.56-2.83" style="fill:none;stroke:#999;stroke-width:3" />
<path d="M2158.91,25.63c0.32,0.17,0.98,1.24,1.05,1.57c0.06,0.33-0.62,12.02-0.9,18.52" style="fill:none;stroke:#999;stroke-width:3" />
<path d="M2127.15,54.52c0.57,0.76,0.76,1.96,0.76,3.35c0,7.88-0.17,26.35-0.17,28.63" style="fill:none;stroke:#999;stroke-width:3" />
<path d="M2128.08,56.98c5.07-0.64,29.81-4.09,30.83-4.09c1.47,0,2.4,0.48,2.4,1.91c0,3.02,0.19,19.96,0.2,25.31c0.01,7.44-4.64,3.14-6,1.63" style="fill:none;stroke:#999;stroke-width:3" />
<path d="M2143.7200000000003,47.79c0.22,0.42,0.28,2.07,0.07,2.59c-2.95,7.5-4.53,13.09-7.56,17.9c-0.96,1.52-0.95,1.98,0.44,1.52c3.39-1.12,9.84-2.13,14.56-4.01" style="fill:none;stroke:#999;stroke-width:3" />
<path d="M2148.0,59.08c2.14,2.11,5.53,8.66,6.06,11.94" style="fill:none;stroke:black;stroke-width:3" />
<circle cx="2148.0" cy="59.08" r="5" stroke-width="0" fill="#FF2A00" opacity="0.7" />
</svg>