<svg width="1635px" height="109px" viewBox="0 0 1635px 109px" xmlns="http://www.w3.org/2000/svg" xmlns:xlink="http://www.w3.org/1999/xlink" xml:space="preserve" version="1.1"  baseProfile="full">
<line x1="1" y1="1" x2="1634" y2="1" style="stroke:#ddd;stroke-width:2" />
<line x1="1" y1="1" x2="1" y2="108" style="stroke:#ddd;stroke-width:2" />
<line x1="1" y1="108" x2="1634" y2="108" style="stroke:#ddd;stroke-width:2" />
<line x1="1634" y1="1" x2="1634" y2="108" style="stroke:#ddd;stroke-width:2" />
<line x1="109" y1="1" x2="109" y2="108" style="stroke:#ddd;stroke-width:2" />
<line x1="218" y1="1" x2="218" y2="108" style="stroke:#ddd;stroke-width:2" />
<line x1="327" y1="1" x2="327" y2="108" style="stroke:#ddd;stroke-width:2" />
<line x1="436" y1="1" x2="436" y2="108" style="stroke:#ddd;stroke-width:2" />
<line x1="545" y1="1" x2="545" y2="108" style="stroke:#ddd;stroke-width:2" />
<line x1="654" y1="1" x2="654" y2="108" style="stroke:#ddd;stroke-width:2" />
<line x1="763" y1="1" x2="763" y2="108" style="stroke:#ddd;stroke-width:2" />
<line x1="872" y1="1" x2="872" y2="108" style="stroke:#ddd;stroke-width:2" />
<line x1="981" y1="1" x2="981" y2="108" style="stroke:#ddd;stroke-width:2" />
<line x1="1090" y1="1" x2="1090" y2="108" style="stroke:#ddd;stroke-width:2" />
<line x1="1199" y1="1" x2="1199" y2="108" style="stroke:#ddd;stroke-width:2" />
<line x1="1308" y1="1" x2="1308" y2="108" style="stroke:#ddd;stroke-width:2" />
<line x1="1417" y1="1" x2="1417" y2="108" style="stroke:#ddd;stroke-width:2" />
<line x1="1526" y1="1" x2="1526" y2="108" style="stroke:#ddd;stroke-width:2" />
<line x1="1" y1="54" x2="1634" y2="54" style="stroke:#ddd;stroke-width:2;stroke-dasharray:3 3" />
<line x1="55" y1="1" x2="55" y2="108" style="stroke:#ddd;stroke-width:2;stroke-dasharray:3 3" />
<line x1="164" y1="1" x2="164" y2="108" style="stroke:#ddd;stroke-width:2;stroke-dasharray:3 3" />
<line x1="273" y1="1" x2="273" y2="108" style="stroke:#ddd;stroke-width:2;stroke-dasharray:3 3" />
<line x1="382" y1="1" x2="382" y2="108" style="stroke:#ddd;stroke-width:2;stroke-dasharray:3 3" />
<line x1="491" y1="1" x2="491" y2="108" style="stroke:#ddd;stroke-width:2;stroke-dasharray:3 3" />
<line x1="600" y1="1" x2="600" y2="108" style="stroke:#ddd;stroke-width:2;stroke-dasharray:3 3" />
<line x1="709" y1="1" x2="709" y2="108" style="stroke:#ddd;stroke-width:2;stroke-dasharray:3 3" />
<line x1="818" y1="1" x2="818" y2="108" style="stroke:#ddd;stroke-width:2;stroke-dasharray:3 3" />
<line x1="927" y1="1" x2="927" y2="108" style="stroke:#ddd;stroke-width:2;stroke-dasharray:3 3" />
<line x1="1036" y1="1" x2="1036" y2="108" style="stroke:#ddd;stroke-width:2;stroke-dasharray:3 3" />
<line x1="1145" y1="1" x2="1145" y2="108" style="stroke:#ddd;stroke-width:2;stroke-dasharray:3 3" />
<line x1="1254" y1="1" x2="1254" y2="108" style="stroke:#ddd;stroke-width:2;stroke-dasharray:3 3" />
<line x1="1363" y1="1" x2="1363" y2="108" style="stroke:#ddd;stroke-width:2;stroke-dasharray:3 3" />
<line x1="1472" y1="1" x2="1472" y2="108" style="stroke:#ddd;stroke-width:2;stroke-dasharray:3 3" />
<line x1="1581" y1="1" x2="1581" y2="108" style="stroke:#ddd;stroke-width:2;stroke-dasharray:3 3" />
<path d="M14.46,25.24c1.31,0.4,2.8,0.43,4.31,0.4c7.98-0.14,17.32-1.93,28.94-2.7c1.5-0.1,2.44,0.07,3.94,0.35" style="fill:none;stroke:black;stroke-width:3" />
<circle cx="14.46" cy="25.24" r="5" stroke-width="0" fill="#FF2A00" opacity="0.7" />
<path d="M123.46000000000001,25.24c1.31,0.4,2.8,0.43,4.31,0.4c7.98-0.14,17.32-1.93,28.94-2.7c1.5-0.1,2.44,0.07,3.94,0.35" style="fill:none;stroke:#999;stroke-width:3" />
<path d="M131.13,29.52c0,0.45,0.05,0.83-0.08,1.36c-1.19,4.92-4.73,11.04-9.93,16.47" style="fill:none;stroke:black;stroke-width:3" />
<circle cx="131.13" cy="29.52" r="5" stroke-width="0" fill="#FF2A00" opacity="0.7" />
<path d="M232.46,25.24c1.31,0.4,2.8,0.43,4.31,0.4c7.98-0.14,17.32-1.93,28.94-2.7c1.5-0.1,2.44,0.07,3.94,0.35" style="fill:none;stroke:#999;stroke-width:3" />
<path d="M240.13,29.52c0,0.45,0.05,0.83-0.08,1.36c-1.19,4.92-4.73,11.04-9.93,16.47" style="fill:none;stroke:#999;stroke-width:3" />
<path d="M239.6,38.51c1.78,1.02,4.06,3.74,4.93,6.31" style="fill:none;stroke:black;stroke-width:3" />
<circle cx="239.6" cy="38.51" r="5" stroke-width="0" fill="#FF2A00" opacity="0.7" />
<path d="M341.46000000000004,25.24c1.31,0.4,2.8,0.43,4.31,0.4c7.98-0.14,17.32-1.93,28.94-2.7c1.5-0.1,2.44,0.07,3.94,0.35" style="fill:none;stroke:#999;stroke-width:3" />
<path d="M349.13,29.52c0,0.45,0.05,0.83-0.08,1.36c-1.19,4.92-4.73,11.04-9.93,16.47" style="fill:none;stroke:#999;stroke-width:3" />
<path d="M348.6,38.51c1.78,1.02,4.06,3.74,4.93,6.31" style="fill:none;stroke:#999;stroke-width:3" />
<path d="M373.29,29.11c0,0.38,0.06,0.7-0.06,1.13c-1.03,3.69-3.99,10.27-7.5,14" style="fill:none;stroke:black;stroke-width:3" />
<circle cx="373.29" cy="29.11" r="5" stroke-width="0" fill="#FF2A00" opacity="0.7" />
<path d="M450.46000000000004,25.24c1.31,0.4,2.8,0.43,4.31,0.4c7.98-0.14,17.32-1.93,28.94-2.7c1.5-0.1,2.44,0.07,3.94,0.35" style="fill:none;stroke:#999;stroke-width:3" />
<path d="M458.13,29.52c0,0.45,0.05,0.83-0.08,1.36c-1.19,4.92-4.73,11.04-9.93,16.47" style="fill:none;stroke:#999;stroke-width:3" />
<path d="M457.6,38.51c1.78,1.02,4.06,3.74,4.93,6.31" style="fill:none;stroke:#999;stroke-width:3" />
<path d="M482.29,29.11c0,0.38,0.06,0.7-0.06,1.13c-1.03,3.69-3.99,10.27-7.5,14" style="fill:none;stroke:#999;stroke-width:3" />
<path d="M481.81,36.85c2.67,2.19,4.72,4.94,6.32,8.27" style="fill:none;stroke:black;stroke-width:3" />
<circle cx="481.81" cy="36.85" r="5" stroke-width="0" fill="#FF2A00" opacity="0.7" />
<path d="M559.46,25.24c1.31,0.4,2.8,0.43,4.31,0.4c7.98-0.14,17.32-1.93,28.94-2.7c1.5-0.1,2.44,0.07,3.94,0.35" style="fill:none;stroke:#999;stroke-width:3" />
<path d="M567.13,29.52c0,0.45,0.05,0.83-0.08,1.36c-1.19,4.92-4.73,11.04-9.93,16.47" style="fill:none;stroke:#999;stroke-width:3" />
<path d="M566.6,38.51c1.78,1.02,4.06,3.74,4.93,6.31" style="fill:none;stroke:#999;stroke-width:3" />
<path d="M591.29,29.11c0,0.38,0.06,0.7-0.06,1.13c-1.03,3.69-3.99,10.27-7.5,14" style="fill:none;stroke:#999;stroke-width:3" />
<path d="M590.81,36.85c2.67,2.19,4.72,4.94,6.32,8.27" style="fill:none;stroke:#999;stroke-width:3" />
<path d="M576.94,12.25c1.1,0.44,1.99,1.96,1.99,2.87c0,9.27-0.22,29.38-0.22,37.88" style="fill:none;stroke:black;stroke-width:3" />
<circle cx="576.94" cy="12.25" r="5" stroke-width="0" fill="#FF2A00" opacity="0.7" />
<path d="M668.46,25.24c1.31,0.4,2.8,0.43,4.31,0.4c7.98-0.14,17.32-1.93,28.94-2.7c1.5-0.1,2.44,0.07,3.94,0.35" style="fill:none;stroke:#999;stroke-width:3" />
<path d="M676.13,29.52c0,0.45,0.05,0.83-0.08,1.36c-1.19,4.92-4.73,11.04-9.93,16.47" style="fill:none;stroke:#999;stroke-width:3" />
<path d="M675.6,38.51c1.78,1.02,4.06,3.74,4.93,6.31" style="fill:none;stroke:#999;stroke-width:3" />
<path d="M700.29,29.11c0,0.38,0.06,0.7-0.06,1.13c-1.03,3.69-3.99,10.27-7.5,14" style="fill:none;stroke:#999;stroke-width:3" />
<path d="M699.81,36.85c2.67,2.19,4.72,4.94,6.32,8.27" style="fill:none;stroke:#999;stroke-width:3" />
<path d="M685.94,12.25c1.1,0.44,1.99,1.96,1.99,2.87c0,9.27-0.22,29.38-0.22,37.88" style="fill:none;stroke:#999;stroke-width:3" />
<path d="M685.43,48.7c-0.18,1.05-0.23,1.44-0.67,2.2C680.41,58.5,671.03,65.59,664.0,69.56" style="fill:none;stroke:black;stroke-width:3" />
<circle cx="685.43" cy="48.7" r="5" stroke-width="0" fill="#FF2A00" opacity="0.7" />
<path d="M777.46,25.24c1.31,0.4,2.8,0.43,4.31,0.4c7.98-0.14,17.32-1.93,28.94-2.7c1.5-0.1,2.44,0.07,3.94,0.35" style="fill:none;stroke:#999;stroke-width:3" />
<path d="M785.13,29.52c0,0.45,0.05,0.83-0.08,1.36c-1.19,4.92-4.73,11.04-9.93,16.47" style="fill:none;stroke:#999;stroke-width:3" />
<path d="M784.6,38.51c1.78,1.02,4.06,3.74,4.93,6.31" style="fill:none;stroke:#999;stroke-width:3" />
<path d="M809.29,29.11c0,0.38,0.06,0.7-0.06,1.13c-1.03,3.69-3.99,10.27-7.5,14" style="fill:none;stroke:#999;stroke-width:3" />
<path d="M808.81,36.85c2.67,2.19,4.72,4.94,6.32,8.27" style="fill:none;stroke:#999;stroke-width:3" />
<path d="M794.94,12.25c1.1,0.44,1.99,1.96,1.99,2.87c0,9.27-0.22,29.38-0.22,37.88" style="fill:none;stroke:#999;stroke-width:3" />
<path d="M794.43,48.7c-0.18,1.05-0.23,1.44-0.67,2.2C789.41,58.5,780.03,65.59,773.0,69.56" style="fill:none;stroke:#999;stroke-width:3" />
<path d="M796.57,52.91c5.68,1.99,13.93,7.93,18.34,12.23" style="fill:none;stroke:black;stroke-width:3" />
<circle cx="796.57" cy="52.91" r="5" stroke-width="0" fill="#FF2A00" opacity="0.7" />
<path d="M886.46,25.24c1.31,0.4,2.8,0.43,4.31,0.4c7.98-0.14,17.32-1.93,28.94-2.7c1.5-0.1,2.44,0.07,3.94,0.35" style="fill:none;stroke:#999;stroke-width:3" />
<path d="M894.13,29.52c0,0.45,0.05,0.83-0.08,1.36c-1.19,4.92-4.73,11.04-9.93,16.47" style="fill:none;stroke:#999;stroke-width:3" />
<path d="M893.6,38.51c1.78,1.02,4.06,3.74,4.93,6.31" style="fill:none;stroke:#999;stroke-width:3" />
<path d="M918.29,29.11c0,0.38,0.06,0.7-0.06,1.13c-1.03,3.69-3.99,10.27-7.5,14" style="fill:none;stroke:#999;stroke-width:3" />
<path d="M917.81,36.85c2.67,2.19,4.72,4.94,6.32,8.27" style="fill:none;stroke:#999;stroke-width:3" />
<path d="M903.94,12.25c1.1,0.44,1.99,1.96,1.99,2.87c0,9.27-0.22,29.38-0.22,37.88" style="fill:none;stroke:#999;stroke-width:3" />
<path d="M903.43,48.7c-0.18,1.05-0.23,1.44-0.67,2.2C898.41,58.5,889.03,65.59,882.0,69.56" style="fill:none;stroke:#999;stroke-width:3" />
<path d="M905.57,52.91c5.68,1.99,13.93,7.93,18.34,12.23" style="fill:none;stroke:#999;stroke-width:3" />
<path d="M901.88,61c0.05,0.53,0.1,1.37-0.09,2.13c-1.15,4.5-7.25,14.88-16.28,20.92" style="fill:none;stroke:black;stroke-width:3" />
<circle cx="901.88" cy="61.0" r="5" stroke-width="0" fill="#FF2A00" opacity="0.7" />
<path d="M995.46,25.24c1.31,0.4,2.8,0.43,4.31,0.4c7.98-0.14,17.32-1.93,28.94-2.7c1.5-0.1,2.44,0.07,3.94,0.35" style="fill:none;stroke:#999;stroke-width:3" />
<path d="M1003.13,29.52c0,0.45,0.05,0.83-0.08,1.36c-1.19,4.92-4.73,11.04-9.93,16.47" style="fill:none;stroke:#999;stroke-width:3" />
<path d="M1002.6,38.51c1.78,1.02,4.06,3.74,4.93,6.31" style="fill:none;stroke:#999;stroke-width:3" />
<path d="M1027.29,29.11c0,0.38,0.06,0.7-0.06,1.13c-1.03,3.69-3.99,10.27-7.5,14" style="fill:none;stroke:#999;stroke-width:3" />
<path d="M1026.81,36.85c2.67,2.19,4.72,4.94,6.32,8.27" style="fill:none;stroke:#999;stroke-width:3" />
<path d="M1012.94,12.25c1.1,0.44,1.99,1.96,1.99,2.87c0,9.27-0.22,29.38-0.22,37.88" style="fill:none;stroke:#999;stroke-width:3" />
<path d="M1012.43,48.7c-0.18,1.05-0.23,1.44-0.67,2.2C1007.41,58.5,998.03,65.59,991.0,69.56" style="fill:none;stroke:#999;stroke-width:3" />
<path d="M1014.57,52.91c5.68,1.99,13.93,7.93,18.34,12.23" style="fill:none;stroke:#999;stroke-width:3" />
<path d="M1010.88,61c0.05,0.53,0.1,1.37-0.09,2.13c-1.15,4.5-7.25,14.88-16.28,20.92" style="fill:none;stroke:#999;stroke-width:3" />
<path d="M1010.57,67.27c0.26,0.03,1.68,0.32,2.42,0.2c3.01-0.47,6.22-0.71,9.72-1.62c2.4-0.63,3.22,0.77,2.47,2.44C1020.5,78.75,1010.5,90.75,995.36,98" style="fill:none;stroke:black;stroke-width:3" />
<circle cx="1010.57" cy="67.27" r="5" stroke-width="0" fill="#FF2A00" opacity="0.7" />
<path d="M1104.46,25.24c1.31,0.4,2.8,0.43,4.31,0.4c7.98-0.14,17.32-1.93,28.94-2.7c1.5-0.1,2.44,0.07,3.94,0.35" style="fill:none;stroke:#999;stroke-width:3" />
<path d="M1112.13,29.52c0,0.45,0.05,0.83-0.08,1.36c-1.19,4.92-4.73,11.04-9.93,16.47" style="fill:none;stroke:#999;stroke-width:3" />
<path d="M1111.6,38.51c1.78,1.02,4.06,3.74,4.93,6.31" style="fill:none;stroke:#999;stroke-width:3" />
<path d="M1136.29,29.11c0,0.38,0.06,0.7-0.06,1.13c-1.03,3.69-3.99,10.27-7.5,14" style="fill:none;stroke:#999;stroke-width:3" />
<path d="M1135.81,36.85c2.67,2.19,4.72,4.94,6.32,8.27" style="fill:none;stroke:#999;stroke-width:3" />
<path d="M1121.94,12.25c1.1,0.44,1.99,1.96,1.99,2.87c0,9.27-0.22,29.38-0.22,37.88" style="fill:none;stroke:#999;stroke-width:3" />
<path d="M1121.4299999999998,48.7c-0.18,1.05-0.23,1.44-0.67,2.2C1116.4099999999999,58.5,1107.03,65.59,1100.0,69.56" style="fill:none;stroke:#999;stroke-width:3" />
<path d="M1123.5700000000002,52.91c5.68,1.99,13.93,7.93,18.34,12.23" style="fill:none;stroke:#999;stroke-width:3" />
<path d="M1119.88,61c0.05,0.53,0.1,1.37-0.09,2.13c-1.15,4.5-7.25,14.88-16.28,20.92" style="fill:none;stroke:#999;stroke-width:3" />
<path d="M1119.5700000000002,67.27c0.26,0.03,1.68,0.32,2.42,0.2c3.01-0.47,6.22-0.71,9.72-1.62c2.4-0.63,3.22,0.77,2.47,2.44C1129.5,78.75,1119.5,90.75,1104.3600000000001,98" style="fill:none;stroke:#999;stroke-width:3" />
<path d="M1114.39,73.78C1122.64,77.82,1156.5,93,1170.16,96.39c3.39,0.84,6,1.64,9.23,1.97" style="fill:none;stroke:black;stroke-width:3" />
<circle cx="1114.39" cy="73.78" r="5" stroke-width="0" fill="#FF2A00" opacity="0.7" />
<path d="M1213.46,25.24c1.31,0.4,2.8,0.43,4.31,0.4c7.98-0.14,17.32-1.93,28.94-2.7c1.5-0.1,2.44,0.07,3.94,0.35" style="fill:none;stroke:#999;stroke-width:3" />
<path d="M1221.13,29.52c0,0.45,0.05,0.83-0.08,1.36c-1.19,4.92-4.73,11.04-9.93,16.47" style="fill:none;stroke:#999;stroke-width:3" />
<path d="M1220.6,38.51c1.78,1.02,4.06,3.74,4.93,6.31" style="fill:none;stroke:#999;stroke-width:3" />
<path d="M1245.29,29.11c0,0.38,0.06,0.7-0.06,1.13c-1.03,3.69-3.99,10.27-7.5,14" style="fill:none;stroke:#999;stroke-width:3" />
<path d="M1244.81,36.85c2.67,2.19,4.72,4.94,6.32,8.27" style="fill:none;stroke:#999;stroke-width:3" />
<path d="M1230.94,12.25c1.1,0.44,1.99,1.96,1.99,2.87c0,9.27-0.22,29.38-0.22,37.88" style="fill:none;stroke:#999;stroke-width:3" />
<path d="M1230.4299999999998,48.7c-0.18,1.05-0.23,1.44-0.67,2.2C1225.4099999999999,58.5,1216.03,65.59,1209.0,69.56" style="fill:none;stroke:#999;stroke-width:3" />
<path d="M1232.5700000000002,52.91c5.68,1.99,13.93,7.93,18.34,12.23" style="fill:none;stroke:#999;stroke-width:3" />
<path d="M1228.88,61c0.05,0.53,0.1,1.37-0.09,2.13c-1.15,4.5-7.25,14.88-16.28,20.92" style="fill:none;stroke:#999;stroke-width:3" />
<path d="M1228.5700000000002,67.27c0.26,0.03,1.68,0.32,2.42,0.2c3.01-0.47,6.22-0.71,9.72-1.62c2.4-0.63,3.22,0.77,2.47,2.44C1238.5,78.75,1228.5,90.75,1213.3600000000001,98" style="fill:none;stroke:#999;stroke-width:3" />
<path d="M1223.39,73.78C1231.64,77.82,1265.5,93,1279.16,96.39c3.39,0.84,6,1.64,9.23,1.97" style="fill:none;stroke:#999;stroke-width:3" />
<path d="M1258.06,31.96c0.87,0.16,2.45,0.18,3.32,0.16c4.7-0.14,16.02-2.7,24.63-3.51c1.43-0.13,2.31,0.08,3.04,0.15" style="fill:none;stroke:black;stroke-width:3" />
<circle cx="1258.06" cy="31.96" r="5" stroke-width="0" fill="#FF2A00" opacity="0.7" />
<path d="M1322.46,25.24c1.31,0.4,2.8,0.43,4.31,0.4c7.98-0.14,17.32-1.93,28.94-2.7c1.5-0.1,2.44,0.07,3.94,0.35" style="fill:none;stroke:#999;stroke-width:3" />
<path d="M1330.13,29.52c0,0.45,0.05,0.83-0.08,1.36c-1.19,4.92-4.73,11.04-9.93,16.47" style="fill:none;stroke:#999;stroke-width:3" />
<path d="M1329.6,38.51c1.78,1.02,4.06,3.74,4.93,6.31" style="fill:none;stroke:#999;stroke-width:3" />
<path d="M1354.29,29.11c0,0.38,0.06,0.7-0.06,1.13c-1.03,3.69-3.99,10.27-7.5,14" style="fill:none;stroke:#999;stroke-width:3" />
<path d="M1353.81,36.85c2.67,2.19,4.72,4.94,6.32,8.27" style="fill:none;stroke:#999;stroke-width:3" />
<path d="M1339.94,12.25c1.1,0.44,1.99,1.96,1.99,2.87c0,9.27-0.22,29.38-0.22,37.88" style="fill:none;stroke:#999;stroke-width:3" />
<path d="M1339.4299999999998,48.7c-0.18,1.05-0.23,1.44-0.67,2.2C1334.4099999999999,58.5,1325.03,65.59,1318.0,69.56" style="fill:none;stroke:#999;stroke-width:3" />
<path d="M1341.5700000000002,52.91c5.68,1.99,13.93,7.93,18.34,12.23" style="fill:none;stroke:#999;stroke-width:3" />
<path d="M1337.88,61c0.05,0.53,0.1,1.37-0.09,2.13c-1.15,4.5-7.25,14.88-16.28,20.92" style="fill:none;stroke:#999;stroke-width:3" />
<path d="M1337.5700000000002,67.27c0.26,0.03,1.68,0.32,2.42,0.2c3.01-0.47,6.22-0.71,9.72-1.62c2.4-0.63,3.22,0.77,2.47,2.44C1347.5,78.75,1337.5,90.75,1322.3600000000001,98" style="fill:none;stroke:#999;stroke-width:3" />
<path d="M1332.39,73.78C1340.64,77.82,1374.5,93,1388.16,96.39c3.39,0.84,6,1.64,9.23,1.97" style="fill:none;stroke:#999;stroke-width:3" />
<path d="M1367.06,31.96c0.87,0.16,2.45,0.18,3.32,0.16c4.7-0.14,16.02-2.7,24.63-3.51c1.43-0.13,2.31,0.08,3.04,0.15" style="fill:none;stroke:#999;stroke-width:3" />
<path d="M1362.39,51.51c0.99,0.18,2.81,0.24,3.8,0.18c6.5-0.35,23.14-3.8,33.85-4.18c1.65-0.06,2.64,0.09,3.47,0.18" style="fill:none;stroke:black;stroke-width:3" />
<circle cx="1362.39" cy="51.51" r="5" stroke-width="0" fill="#FF2A00" opacity="0.7" />
<path d="M1431.46,25.24c1.31,0.4,2.8,0.43,4.31,0.4c7.98-0.14,17.32-1.93,28.94-2.7c1.5-0.1,2.44,0.07,3.94,0.35" style="fill:none;stroke:#999;stroke-width:3" />
<path d="M1439.13,29.52c0,0.45,0.05,0.83-0.08,1.36c-1.19,4.92-4.73,11.04-9.93,16.47" style="fill:none;stroke:#999;stroke-width:3" />
<path d="M1438.6,38.51c1.78,1.02,4.06,3.74,4.93,6.31" style="fill:none;stroke:#999;stroke-width:3" />
<path d="M1463.29,29.11c0,0.38,0.06,0.7-0.06,1.13c-1.03,3.69-3.99,10.27-7.5,14" style="fill:none;stroke:#999;stroke-width:3" />
<path d="M1462.81,36.85c2.67,2.19,4.72,4.94,6.32,8.27" style="fill:none;stroke:#999;stroke-width:3" />
<path d="M1448.94,12.25c1.1,0.44,1.99,1.96,1.99,2.87c0,9.27-0.22,29.38-0.22,37.88" style="fill:none;stroke:#999;stroke-width:3" />
<path d="M1448.4299999999998,48.7c-0.18,1.05-0.23,1.44-0.67,2.2C1443.4099999999999,58.5,1434.03,65.59,1427.0,69.56" style="fill:none;stroke:#999;stroke-width:3" />
<path d="M1450.5700000000002,52.91c5.68,1.99,13.93,7.93,18.34,12.23" style="fill:none;stroke:#999;stroke-width:3" />
<path d="M1446.88,61c0.05,0.53,0.1,1.37-0.09,2.13c-1.15,4.5-7.25,14.88-16.28,20.92" style="fill:none;stroke:#999;stroke-width:3" />
<path d="M1446.5700000000002,67.27c0.26,0.03,1.68,0.32,2.42,0.2c3.01-0.47,6.22-0.71,9.72-1.62c2.4-0.63,3.22,0.77,2.47,2.44C1456.5,78.75,1446.5,90.75,1431.3600000000001,98" style="fill:none;stroke:#999;stroke-width:3" />
<path d="M1441.39,73.78C1449.64,77.82,1483.5,93,1497.16,96.39c3.39,0.84,6,1.64,9.23,1.97" style="fill:none;stroke:#999;stroke-width:3" />
<path d="M1476.06,31.96c0.87,0.16,2.45,0.18,3.32,0.16c4.7-0.14,16.02-2.7,24.63-3.51c1.43-0.13,2.31,0.08,3.04,0.15" style="fill:none;stroke:#999;stroke-width:3" />
<path d="M1471.39,51.51c0.99,0.18,2.81,0.24,3.8,0.18c6.5-0.35,23.14-3.8,33.85-4.18c1.65-0.06,2.64,0.09,3.47,0.18" style="fill:none;stroke:#999;stroke-width:3" />
<path d="M1492.1,12c0.31,1.08,0.43,2.09,0.44,4.18C1492.66,54.84,1486.75,72,1473.79,82.25" style="fill:none;stroke:black;stroke-width:3" />
<circle cx="1492.1" cy="12.0" r="5" stroke-width="0" fill="#FF2A00" opacity="0.7" />
<path d="M1540.46,25.24c1.31,0.4,2.8,0.43,4.31,0.4c7.98-0.14,17.32-1.93,28.94-2.7c1.5-0.1,2.44,0.07,3.94,0.35" style="fill:none;stroke:#999;stroke-width:3" />
<path d="M1548.13,29.52c0,0.45,0.05,0.83-0.08,1.36c-1.19,4.92-4.73,11.04-9.93,16.47" style="fill:none;stroke:#999;stroke-width:3" />
<path d="M1547.6,38.51c1.78,1.02,4.06,3.74,4.93,6.31" style="fill:none;stroke:#999;stroke-width:3" />
<path d="M1572.29,29.11c0,0.38,0.06,0.7-0.06,1.13c-1.03,3.69-3.99,10.27-7.5,14" style="fill:none;stroke:#999;stroke-width:3" />
<path d="M1571.81,36.85c2.67,2.19,4.72,4.94,6.32,8.27" style="fill:none;stroke:#999;stroke-width:3" />
<path d="M1557.94,12.25c1.1,0.44,1.99,1.96,1.99,2.87c0,9.27-0.22,29.38-0.22,37.88" style="fill:none;stroke:#999;stroke-width:3" />
<path d="M1557.4299999999998,48.7c-0.18,1.05-0.23,1.44-0.67,2.2C1552.4099999999999,58.5,1543.03,65.59,1536.0,69.56" style="fill:none;stroke:#999;stroke-width:3" />
<path d="M1559.5700000000002,52.91c5.68,1.99,13.93,7.93,18.34,12.23" style="fill:none;stroke:#999;stroke-width:3" />
<path d="M1555.88,61c0.05,0.53,0.1,1.37-0.09,2.13c-1.15,4.5-7.25,14.88-16.28,20.92" style="fill:none;stroke:#999;stroke-width:3" />
<path d="M1555.5700000000002,67.27c0.26,0.03,1.68,0.32,2.42,0.2c3.01-0.47,6.22-0.71,9.72-1.62c2.4-0.63,3.22,0.77,2.47,2.44C1565.5,78.75,1555.5,90.75,1540.3600000000001,98" style="fill:none;stroke:#999;stroke-width:3" />
<path d="M1550.39,73.78C1558.64,77.82,1592.5,93,1606.16,96.39c3.39,0.84,6,1.64,9.23,1.97" style="fill:none;stroke:#999;stroke-width:3" />
<path d="M1585.06,31.96c0.87,0.16,2.45,0.18,3.32,0.16c4.7-0.14,16.02-2.7,24.63-3.51c1.43-0.13,2.31,0.08,3.04,0.15" style="fill:none;stroke:#999;stroke-width:3" />
<path d="M1580.39,51.51c0.99,0.18,2.81,0.24,3.8,0.18c6.5-0.35,23.14-3.8,33.85-4.18c1.65-0.06,2.64,0.09,3.47,0.18" style="fill:none;stroke:#999;stroke-width:3" />
<path d="M1601.1,12c0.31,1.08,0.43,2.09,0.44,4.18C1601.66,54.84,1595.75,72,1582.79,82.25" style="fill:none;stroke:#999;stroke-width:3" />
<path d="M1600.97,59.29c8.55,6.46,16.58,16.68,20.53,25.49" style="fill:none;stroke:black;stroke-width:3" />
<circle cx="1600.97" cy="59.29" r="5" stroke-width="0" fill="#FF2A00" opacity="0.7" />
</svg>