<svg width="2398px" height="109px" viewBox="0 0 2398px 109px" xmlns="http://www.w3.org/2000/svg" xmlns:xlink="http://www.w3.org/1999/xlink" xml:space="preserve" version="1.1"  baseProfile="full">
<line x1="1" y1="1" x2="2397" y2="1" style="stroke:#ddd;stroke-width:2" />
<line x1="1" y1="1" x2="1" y2="108" style="stroke:#ddd;stroke-width:2" />
<line x1="1" y1="108" x2="2397" y2="108" style="stroke:#ddd;stroke-width:2" />
<line x1="2397" y1="1" x2="2397" y2="108" style="stroke:#ddd;stroke-width:2" />
<line x1="109" y1="1" x2="109" y2="108" style="stroke:#ddd;stroke-width:2" />
<line x1="218" y1="1" x2="218" y2="108" style="stroke:#ddd;stroke-width:2" />
<line x1="327" y1="1" x2="327" y2="108" style="stroke:#ddd;stroke-width:2" />
<line x1="436" y1="1" x2="436" y2="108" style="stroke:#ddd;stroke-width:2" />
<line x1="545" y1="1" x2="545" y2="108" style="stroke:#ddd;stroke-width:2" />
<line x1="654" y1="1" x2="654" y2="108" style="stroke:#ddd;stroke-width:2" />
<line x1="763" y1="1" x2="763" y2="108" style="stroke:#ddd;stroke-width:2" />
<line x1="872" y1="1" x2="872" y2="108" style="stroke:#ddd;stroke-width:2" />
<line x1="981" y1="1" x2="981" y2="108" style="stroke:#ddd;stroke-width:2" />
<line x1="1090" y1="1" x2="1090" y2="108" style="stroke:#ddd;stroke-width:2" />
<line x1="1199" y1="1" x2="1199" y2="108" style="stroke:#ddd;stroke-width:2" />
<line x1="1308" y1="1" x2="1308" y2="108" style="stroke:#ddd;stroke-width:2" />
<line x1="1417" y1="1" x2="1417" y2="108" style="stroke:#ddd;stroke-width:2" />
<line x1="1526" y1="1" x2="1526" y2="108" style="stroke:#ddd;stroke-width:2" />
<line x1="1635" y1="1" x2="1635" y2="108" style="stroke:#ddd;stroke-width:2" />
<line x1="1744" y1="1" x2="1744" y2="108" style="stroke:#ddd;stroke-width:2" />
<line x1="1853" y1="1" x2="1853" y2="108" style="stroke:#ddd;stroke-width:2" />
<line x1="1962" y1="1" x2="1962" y2="108" style="stroke:#ddd;stroke-width:2" />
<line x1="2071" y1="1" x2="2071" y2="108" style="stroke:#ddd;stroke-width:2" />
<line x1="2180" y1="1" x2="2180" y2="108" style="stroke:#ddd;stroke-width:2" />
<line x1="2289" y1="1" x2="2289" y2="108" style="stroke:#ddd;stroke-width:2" />
<line x1="1" y1="54" x2="2397" y2="54" style="stroke:#ddd;stroke-width:2;stroke-dasharray:3 3" />
<line x1="55" y1="1" x2="55" y2="108" style="stroke:#ddd;stroke-width:2;stroke-dasharray:3 3" />
<line x1="164" y1="1" x2="164" y2="108" style="stroke:#ddd;stroke-width:2;stroke-dasharray:3 3" />
<line x1="273" y1="1" x2="273" y2="108" style="stroke:#ddd;stroke-width:2;stroke-dasharray:3 3" />
<line x1="382" y1="1" x2="382" y2="108" style="stroke:#ddd;stroke-width:2;stroke-dasharray:3 3" />
<line x1="491" y1="1" x2="491" y2="108" style="stroke:#ddd;stroke-width:2;stroke-dasharray:3 3" />
<line x1="600" y1="1" x2="600" y2="108" style="stroke:#ddd;stroke-width:2;stroke-dasharray:3 3" />
<line x1="709" y1="1" x2="709" y2="108" style="stroke:#ddd;stroke-width:2;stroke-dasharray:3 3" />
<line x1="818" y1="1" x2="818" y2="108" style="stroke:#ddd;stroke-width:2;stroke-dasharray:3 3" />
<line x1="927" y1="1" x2="927" y2="108" style="stroke:#ddd;stroke-width:2;stroke-dasharray:3 3" />
<line x1="1036" y1="1" x2="1036" y2="108" style="stroke:#ddd;stroke-width:2;stroke-dasharray:3 3" />
<line x1="1145" y1="1" x2="1145" y2="108" style="stroke:#ddd;stroke-width:2;stroke-dasharray:3 3" />
<line x1="1254" y1="1" x2="1254" y2="108" style="stroke:#ddd;stroke-width:2;stroke-dasharray:3 3" />
<line x1="1363" y1="1" x2="1363" y2="108" style="stroke:#ddd;stroke-width:2;stroke-dasharray:3 3" />
<line x1="1472" y1="1" x2="1472" y2="108" style="stroke:#ddd;stroke-width:2;stroke-dasharray:3 3" />
<line x1="1581" y1="1" x2="1581" y2="108" style="stroke:#ddd;stroke-width:2;stroke-dasharray:3 3" />
<line x1="1690" y1="1" x2="1690" y2="108" style="stroke:#ddd;stroke-width:2;stroke-dasharray:3 3" />
<line x1="1799" y1="1" x2="1799" y2="108" style="stroke:#ddd;stroke-width:2;stroke-dasharray:3 3" />
<line x1="1908" y1="1" x2="1908" y2="108" style="stroke:#ddd;stroke-width:2;stroke-dasharray:3 3" />
<line x1="2017" y1="1" x2="2017" y2="108" style="stroke:#ddd;stroke-width:2;stroke-dasharray:3 3" />
<line x1="2126" y1="1" x2="2126" y2="108" style="stroke:#ddd;stroke-width:2;stroke-dasharray:3 3" />
<line x1="2235" y1="1" x2="2235" y2="108" style="stroke:#ddd;stroke-width:2;stroke-dasharray:3 3" />
<line x1="2344" y1="1" x2="2344" y2="108" style="stroke:#ddd;stroke-width:2;stroke-dasharray:3 3" />
<path d="M41.03,13.5c0.07,0.23,0.14,0.58-0.13,0.9c-1.58,1.91-10.64,6.09-23.03,8.65" style="fill:none;stroke:black;stroke-width:3" />
<circle cx="41.03" cy="13.5" r="5" stroke-width="0" fill="#FF2A00" opacity="0.7" />
<path d="M150.03,13.5c0.07,0.23,0.14,0.58-0.13,0.9c-1.58,1.91-10.64,6.09-23.03,8.65" style="fill:none;stroke:#999;stroke-width:3" />
<path d="M124.1,30.9c0.42,0.18,2.1,0.54,3.22,0.55c5.43,0.05,17.72-2.16,26.26-2.66c1.12-0.07,2.52,0.22,3.22,0.4" style="fill:none;stroke:black;stroke-width:3" />
<circle cx="124.1" cy="30.9" r="5" stroke-width="0" fill="#FF2A00" opacity="0.7" />
<path d="M259.03,13.5c0.07,0.23,0.14,0.58-0.13,0.9c-1.58,1.91-10.64,6.09-23.03,8.65" style="fill:none;stroke:#999;stroke-width:3" />
<path d="M233.1,30.9c0.42,0.18,2.1,0.54,3.22,0.55c5.43,0.05,17.72-2.16,26.26-2.66c1.12-0.07,2.52,0.22,3.22,0.4" style="fill:none;stroke:#999;stroke-width:3" />
<path d="M250.66,21.62c0.52,0.51,0.84,2.28,0.94,3.29c0.11,1.01,0,15.45-0.11,21.78" style="fill:none;stroke:black;stroke-width:3" />
<circle cx="250.66" cy="21.62" r="5" stroke-width="0" fill="#FF2A00" opacity="0.7" />
<path d="M368.03,13.5c0.07,0.23,0.14,0.58-0.13,0.9c-1.58,1.91-10.64,6.09-23.03,8.65" style="fill:none;stroke:#999;stroke-width:3" />
<path d="M342.1,30.9c0.42,0.18,2.1,0.54,3.22,0.55c5.43,0.05,17.72-2.16,26.26-2.66c1.12-0.07,2.52,0.22,3.22,0.4" style="fill:none;stroke:#999;stroke-width:3" />
<path d="M359.65999999999997,21.62c0.52,0.51,0.84,2.28,0.94,3.29c0.11,1.01,0,15.45-0.11,21.78" style="fill:none;stroke:#999;stroke-width:3" />
<path d="M358.95,31.43c-3.67,5.02-10.05,12.37-18.1,15.33" style="fill:none;stroke:black;stroke-width:3" />
<circle cx="358.95" cy="31.43" r="5" stroke-width="0" fill="#FF2A00" opacity="0.7" />
<path d="M477.03,13.5c0.07,0.23,0.14,0.58-0.13,0.9c-1.58,1.91-10.64,6.09-23.03,8.65" style="fill:none;stroke:#999;stroke-width:3" />
<path d="M451.1,30.9c0.42,0.18,2.1,0.54,3.22,0.55c5.43,0.05,17.72-2.16,26.26-2.66c1.12-0.07,2.52,0.22,3.22,0.4" style="fill:none;stroke:#999;stroke-width:3" />
<path d="M468.65999999999997,21.62c0.52,0.51,0.84,2.28,0.94,3.29c0.11,1.01,0,15.45-0.11,21.78" style="fill:none;stroke:#999;stroke-width:3" />
<path d="M467.95,31.43c-3.67,5.02-10.05,12.37-18.1,15.33" style="fill:none;stroke:#999;stroke-width:3" />
<path d="M471.12,34.8c4.08,1.27,11.48,8.42,13.39,11.16" style="fill:none;stroke:black;stroke-width:3" />
<circle cx="471.12" cy="34.8" r="5" stroke-width="0" fill="#FF2A00" opacity="0.7" />
<path d="M586.03,13.5c0.07,0.23,0.14,0.58-0.13,0.9c-1.58,1.91-10.64,6.09-23.03,8.65" style="fill:none;stroke:#999;stroke-width:3" />
<path d="M560.1,30.9c0.42,0.18,2.1,0.54,3.22,0.55c5.43,0.05,17.72-2.16,26.26-2.66c1.12-0.07,2.52,0.22,3.22,0.4" style="fill:none;stroke:#999;stroke-width:3" />
<path d="M577.66,21.62c0.52,0.51,0.84,2.28,0.94,3.29c0.11,1.01,0,15.45-0.11,21.78" style="fill:none;stroke:#999;stroke-width:3" />
<path d="M576.95,31.43c-3.67,5.02-10.05,12.37-18.1,15.33" style="fill:none;stroke:#999;stroke-width:3" />
<path d="M580.12,34.8c4.08,1.27,11.48,8.42,13.39,11.16" style="fill:none;stroke:#999;stroke-width:3" />
<path d="M576.07,49.2c0.05,0.43-0.03,1.21-0.34,1.72C573.23,55,567.75,61.5,557.25,67.86" style="fill:none;stroke:black;stroke-width:3" />
<circle cx="576.07" cy="49.2" r="5" stroke-width="0" fill="#FF2A00" opacity="0.7" />
<path d="M695.03,13.5c0.07,0.23,0.14,0.58-0.13,0.9c-1.58,1.91-10.64,6.09-23.03,8.65" style="fill:none;stroke:#999;stroke-width:3" />
<path d="M669.1,30.9c0.42,0.18,2.1,0.54,3.22,0.55c5.43,0.05,17.72-2.16,26.26-2.66c1.12-0.07,2.52,0.22,3.22,0.4" style="fill:none;stroke:#999;stroke-width:3" />
<path d="M686.66,21.62c0.52,0.51,0.84,2.28,0.94,3.29c0.11,1.01,0,15.45-0.11,21.78" style="fill:none;stroke:#999;stroke-width:3" />
<path d="M685.95,31.43c-3.67,5.02-10.05,12.37-18.1,15.33" style="fill:none;stroke:#999;stroke-width:3" />
<path d="M689.12,34.8c4.08,1.27,11.48,8.42,13.39,11.16" style="fill:none;stroke:#999;stroke-width:3" />
<path d="M685.07,49.2c0.05,0.43-0.03,1.21-0.34,1.72C682.23,55,676.75,61.5,666.25,67.86" style="fill:none;stroke:#999;stroke-width:3" />
<path d="M687.53,51.58c3.47,1.22,11.32,6.16,13.31,8.92" style="fill:none;stroke:black;stroke-width:3" />
<circle cx="687.53" cy="51.58" r="5" stroke-width="0" fill="#FF2A00" opacity="0.7" />
<path d="M804.03,13.5c0.07,0.23,0.14,0.58-0.13,0.9c-1.58,1.91-10.64,6.09-23.03,8.65" style="fill:none;stroke:#999;stroke-width:3" />
<path d="M778.1,30.9c0.42,0.18,2.1,0.54,3.22,0.55c5.43,0.05,17.72-2.16,26.26-2.66c1.12-0.07,2.52,0.22,3.22,0.4" style="fill:none;stroke:#999;stroke-width:3" />
<path d="M795.66,21.62c0.52,0.51,0.84,2.28,0.94,3.29c0.11,1.01,0,15.45-0.11,21.78" style="fill:none;stroke:#999;stroke-width:3" />
<path d="M794.95,31.43c-3.67,5.02-10.05,12.37-18.1,15.33" style="fill:none;stroke:#999;stroke-width:3" />
<path d="M798.12,34.8c4.08,1.27,11.48,8.42,13.39,11.16" style="fill:none;stroke:#999;stroke-width:3" />
<path d="M794.07,49.2c0.05,0.43-0.03,1.21-0.34,1.72C791.23,55,785.75,61.5,775.25,67.86" style="fill:none;stroke:#999;stroke-width:3" />
<path d="M796.53,51.58c3.47,1.22,11.32,6.16,13.31,8.92" style="fill:none;stroke:#999;stroke-width:3" />
<path d="M795.49,60.64c0.06,0.4,0.9,2.09,0.9,4.64c0,15.27-0.19,22.06-0.19,26.23c0,8.86-5.18,1.26-6.25,0.21" style="fill:none;stroke:black;stroke-width:3" />
<circle cx="795.49" cy="60.64" r="5" stroke-width="0" fill="#FF2A00" opacity="0.7" />
<path d="M913.03,13.5c0.07,0.23,0.14,0.58-0.13,0.9c-1.58,1.91-10.64,6.09-23.03,8.65" style="fill:none;stroke:#999;stroke-width:3" />
<path d="M887.1,30.9c0.42,0.18,2.1,0.54,3.22,0.55c5.43,0.05,17.72-2.16,26.26-2.66c1.12-0.07,2.52,0.22,3.22,0.4" style="fill:none;stroke:#999;stroke-width:3" />
<path d="M904.66,21.62c0.52,0.51,0.84,2.28,0.94,3.29c0.11,1.01,0,15.45-0.11,21.78" style="fill:none;stroke:#999;stroke-width:3" />
<path d="M903.95,31.43c-3.67,5.02-10.05,12.37-18.1,15.33" style="fill:none;stroke:#999;stroke-width:3" />
<path d="M907.12,34.8c4.08,1.27,11.48,8.42,13.39,11.16" style="fill:none;stroke:#999;stroke-width:3" />
<path d="M903.07,49.2c0.05,0.43-0.03,1.21-0.34,1.72C900.23,55,894.75,61.5,884.25,67.86" style="fill:none;stroke:#999;stroke-width:3" />
<path d="M905.53,51.58c3.47,1.22,11.32,6.16,13.31,8.92" style="fill:none;stroke:#999;stroke-width:3" />
<path d="M904.49,60.64c0.06,0.4,0.9,2.09,0.9,4.64c0,15.27-0.19,22.06-0.19,26.23c0,8.86-5.18,1.26-6.25,0.21" style="fill:none;stroke:#999;stroke-width:3" />
<path d="M890.53,70.5c2.42,1.05,6.26,4.32,6.86,5.96" style="fill:none;stroke:black;stroke-width:3" />
<circle cx="890.53" cy="70.5" r="5" stroke-width="0" fill="#FF2A00" opacity="0.7" />
<path d="M1022.03,13.5c0.07,0.23,0.14,0.58-0.13,0.9c-1.58,1.91-10.64,6.09-23.03,8.65" style="fill:none;stroke:#999;stroke-width:3" />
<path d="M996.1,30.9c0.42,0.18,2.1,0.54,3.22,0.55c5.43,0.05,17.72-2.16,26.26-2.66c1.12-0.07,2.52,0.22,3.22,0.4" style="fill:none;stroke:#999;stroke-width:3" />
<path d="M1013.66,21.62c0.52,0.51,0.84,2.28,0.94,3.29c0.11,1.01,0,15.45-0.11,21.78" style="fill:none;stroke:#999;stroke-width:3" />
<path d="M1012.95,31.43c-3.67,5.02-10.05,12.37-18.1,15.33" style="fill:none;stroke:#999;stroke-width:3" />
<path d="M1016.12,34.8c4.08,1.27,11.48,8.42,13.39,11.16" style="fill:none;stroke:#999;stroke-width:3" />
<path d="M1012.07,49.2c0.05,0.43-0.03,1.21-0.34,1.72C1009.23,55,1003.75,61.5,993.25,67.86" style="fill:none;stroke:#999;stroke-width:3" />
<path d="M1014.53,51.58c3.47,1.22,11.32,6.16,13.31,8.92" style="fill:none;stroke:#999;stroke-width:3" />
<path d="M1013.49,60.64c0.06,0.4,0.9,2.09,0.9,4.64c0,15.27-0.19,22.06-0.19,26.23c0,8.86-5.18,1.26-6.25,0.21" style="fill:none;stroke:#999;stroke-width:3" />
<path d="M999.53,70.5c2.42,1.05,6.26,4.32,6.86,5.96" style="fill:none;stroke:#999;stroke-width:3" />
<path d="M994.17,87.83c1.35,1.07,2.48,1.53,3.83,0.61c0.8-0.54,7.22-5.34,10.6-7.93" style="fill:none;stroke:black;stroke-width:3" />
<circle cx="994.17" cy="87.83" r="5" stroke-width="0" fill="#FF2A00" opacity="0.7" />
<path d="M1131.03,13.5c0.07,0.23,0.14,0.58-0.13,0.9c-1.58,1.91-10.64,6.09-23.03,8.65" style="fill:none;stroke:#999;stroke-width:3" />
<path d="M1105.1,30.9c0.42,0.18,2.1,0.54,3.22,0.55c5.43,0.05,17.72-2.16,26.26-2.66c1.12-0.07,2.52,0.22,3.22,0.4" style="fill:none;stroke:#999;stroke-width:3" />
<path d="M1122.6599999999999,21.62c0.52,0.51,0.84,2.28,0.94,3.29c0.11,1.01,0,15.45-0.11,21.78" style="fill:none;stroke:#999;stroke-width:3" />
<path d="M1121.95,31.43c-3.67,5.02-10.05,12.37-18.1,15.33" style="fill:none;stroke:#999;stroke-width:3" />
<path d="M1125.12,34.8c4.08,1.27,11.48,8.42,13.39,11.16" style="fill:none;stroke:#999;stroke-width:3" />
<path d="M1121.0700000000002,49.2c0.05,0.43-0.03,1.21-0.34,1.72C1118.23,55,1112.75,61.5,1102.25,67.86" style="fill:none;stroke:#999;stroke-width:3" />
<path d="M1123.53,51.58c3.47,1.22,11.32,6.16,13.31,8.92" style="fill:none;stroke:#999;stroke-width:3" />
<path d="M1122.49,60.64c0.06,0.4,0.9,2.09,0.9,4.64c0,15.27-0.19,22.06-0.19,26.23c0,8.86-5.18,1.26-6.25,0.21" style="fill:none;stroke:#999;stroke-width:3" />
<path d="M1108.53,70.5c2.42,1.05,6.26,4.32,6.86,5.96" style="fill:none;stroke:#999;stroke-width:3" />
<path d="M1103.17,87.83c1.35,1.07,2.48,1.53,3.83,0.61c0.8-0.54,7.22-5.34,10.6-7.93" style="fill:none;stroke:#999;stroke-width:3" />
<path d="M1135.65,65.21c0.03,0.23,0.05,0.59-0.05,0.92c-0.6,1.95-4.04,6.22-8.74,8.83" style="fill:none;stroke:black;stroke-width:3" />
<circle cx="1135.65" cy="65.21" r="5" stroke-width="0" fill="#FF2A00" opacity="0.7" />
<path d="M1240.03,13.5c0.07,0.23,0.14,0.58-0.13,0.9c-1.58,1.91-10.64,6.09-23.03,8.65" style="fill:none;stroke:#999;stroke-width:3" />
<path d="M1214.1,30.9c0.42,0.18,2.1,0.54,3.22,0.55c5.43,0.05,17.72-2.16,26.26-2.66c1.12-0.07,2.52,0.22,3.22,0.4" style="fill:none;stroke:#999;stroke-width:3" />
<path d="M1231.6599999999999,21.62c0.52,0.51,0.84,2.28,0.94,3.29c0.11,1.01,0,15.45-0.11,21.78" style="fill:none;stroke:#999;stroke-width:3" />
<path d="M1230.95,31.43c-3.67,5.02-10.05,12.37-18.1,15.33" style="fill:none;stroke:#999;stroke-width:3" />
<path d="M1234.12,34.8c4.08,1.27,11.48,8.42,13.39,11.16" style="fill:none;stroke:#999;stroke-width:3" />
<path d="M1230.0700000000002,49.2c0.05,0.43-0.03,1.21-0.34,1.72C1227.23,55,1221.75,61.5,1211.25,67.86" style="fill:none;stroke:#999;stroke-width:3" />
<path d="M1232.53,51.58c3.47,1.22,11.32,6.16,13.31,8.92" style="fill:none;stroke:#999;stroke-width:3" />
<path d="M1231.49,60.64c0.06,0.4,0.9,2.09,0.9,4.64c0,15.27-0.19,22.06-0.19,26.23c0,8.86-5.18,1.26-6.25,0.21" style="fill:none;stroke:#999;stroke-width:3" />
<path d="M1217.53,70.5c2.42,1.05,6.26,4.32,6.86,5.96" style="fill:none;stroke:#999;stroke-width:3" />
<path d="M1212.17,87.83c1.35,1.07,2.48,1.53,3.83,0.61c0.8-0.54,7.22-5.34,10.6-7.93" style="fill:none;stroke:#999;stroke-width:3" />
<path d="M1244.65,65.21c0.03,0.23,0.05,0.59-0.05,0.92c-0.6,1.95-4.04,6.22-8.74,8.83" style="fill:none;stroke:#999;stroke-width:3" />
<path d="M1235.51,79.09c2.54,1.2,9.49,6.98,11.71,11.47" style="fill:none;stroke:black;stroke-width:3" />
<circle cx="1235.51" cy="79.09" r="5" stroke-width="0" fill="#FF2A00" opacity="0.7" />
<path d="M1349.03,13.5c0.07,0.23,0.14,0.58-0.13,0.9c-1.58,1.91-10.64,6.09-23.03,8.65" style="fill:none;stroke:#999;stroke-width:3" />
<path d="M1323.1,30.9c0.42,0.18,2.1,0.54,3.22,0.55c5.43,0.05,17.72-2.16,26.26-2.66c1.12-0.07,2.52,0.22,3.22,0.4" style="fill:none;stroke:#999;stroke-width:3" />
<path d="M1340.6599999999999,21.62c0.52,0.51,0.84,2.28,0.94,3.29c0.11,1.01,0,15.45-0.11,21.78" style="fill:none;stroke:#999;stroke-width:3" />
<path d="M1339.95,31.43c-3.67,5.02-10.05,12.37-18.1,15.33" style="fill:none;stroke:#999;stroke-width:3" />
<path d="M1343.12,34.8c4.08,1.27,11.48,8.42,13.39,11.16" style="fill:none;stroke:#999;stroke-width:3" />
<path d="M1339.0700000000002,49.2c0.05,0.43-0.03,1.21-0.34,1.72C1336.23,55,1330.75,61.5,1320.25,67.86" style="fill:none;stroke:#999;stroke-width:3" />
<path d="M1341.53,51.58c3.47,1.22,11.32,6.16,13.31,8.92" style="fill:none;stroke:#999;stroke-width:3" />
<path d="M1340.49,60.64c0.06,0.4,0.9,2.09,0.9,4.64c0,15.27-0.19,22.06-0.19,26.23c0,8.86-5.18,1.26-6.25,0.21" style="fill:none;stroke:#999;stroke-width:3" />
<path d="M1326.53,70.5c2.42,1.05,6.26,4.32,6.86,5.96" style="fill:none;stroke:#999;stroke-width:3" />
<path d="M1321.17,87.83c1.35,1.07,2.48,1.53,3.83,0.61c0.8-0.54,7.22-5.34,10.6-7.93" style="fill:none;stroke:#999;stroke-width:3" />
<path d="M1353.65,65.21c0.03,0.23,0.05,0.59-0.05,0.92c-0.6,1.95-4.04,6.22-8.74,8.83" style="fill:none;stroke:#999;stroke-width:3" />
<path d="M1344.51,79.09c2.54,1.2,9.49,6.98,11.71,11.47" style="fill:none;stroke:#999;stroke-width:3" />
<path d="M1380.0,12.47c0.64,0.29,1.7,1.4,1.7,1.97c0,2.11-0.2,7.1-0.08,8.88" style="fill:none;stroke:black;stroke-width:3" />
<circle cx="1380.0" cy="12.47" r="5" stroke-width="0" fill="#FF2A00" opacity="0.7" />
<path d="M1458.03,13.5c0.07,0.23,0.14,0.58-0.13,0.9c-1.58,1.91-10.64,6.09-23.03,8.65" style="fill:none;stroke:#999;stroke-width:3" />
<path d="M1432.1,30.9c0.42,0.18,2.1,0.54,3.22,0.55c5.43,0.05,17.72-2.16,26.26-2.66c1.12-0.07,2.52,0.22,3.22,0.4" style="fill:none;stroke:#999;stroke-width:3" />
<path d="M1449.6599999999999,21.62c0.52,0.51,0.84,2.28,0.94,3.29c0.11,1.01,0,15.45-0.11,21.78" style="fill:none;stroke:#999;stroke-width:3" />
<path d="M1448.95,31.43c-3.67,5.02-10.05,12.37-18.1,15.33" style="fill:none;stroke:#999;stroke-width:3" />
<path d="M1452.12,34.8c4.08,1.27,11.48,8.42,13.39,11.16" style="fill:none;stroke:#999;stroke-width:3" />
<path d="M1448.0700000000002,49.2c0.05,0.43-0.03,1.21-0.34,1.72C1445.23,55,1439.75,61.5,1429.25,67.86" style="fill:none;stroke:#999;stroke-width:3" />
<path d="M1450.53,51.58c3.47,1.22,11.32,6.16,13.31,8.92" style="fill:none;stroke:#999;stroke-width:3" />
<path d="M1449.49,60.64c0.06,0.4,0.9,2.09,0.9,4.64c0,15.27-0.19,22.06-0.19,26.23c0,8.86-5.18,1.26-6.25,0.21" style="fill:none;stroke:#999;stroke-width:3" />
<path d="M1435.53,70.5c2.42,1.05,6.26,4.32,6.86,5.96" style="fill:none;stroke:#999;stroke-width:3" />
<path d="M1430.17,87.83c1.35,1.07,2.48,1.53,3.83,0.61c0.8-0.54,7.22-5.34,10.6-7.93" style="fill:none;stroke:#999;stroke-width:3" />
<path d="M1462.65,65.21c0.03,0.23,0.05,0.59-0.05,0.92c-0.6,1.95-4.04,6.22-8.74,8.83" style="fill:none;stroke:#999;stroke-width:3" />
<path d="M1453.51,79.09c2.54,1.2,9.49,6.98,11.71,11.47" style="fill:none;stroke:#999;stroke-width:3" />
<path d="M1489.0,12.47c0.64,0.29,1.7,1.4,1.7,1.97c0,2.11-0.2,7.1-0.08,8.88" style="fill:none;stroke:#999;stroke-width:3" />
<path d="M1469.92,24.85c1.55,0.25,2.91,0.53,4.69,0.35c10.6-1.06,22.34-2.72,34.7-3.23c1.82-0.07,2.74,0.03,4.1,0.45" style="fill:none;stroke:black;stroke-width:3" />
<circle cx="1469.92" cy="24.85" r="5" stroke-width="0" fill="#FF2A00" opacity="0.7" />
<path d="M1567.03,13.5c0.07,0.23,0.14,0.58-0.13,0.9c-1.58,1.91-10.64,6.09-23.03,8.65" style="fill:none;stroke:#999;stroke-width:3" />
<path d="M1541.1,30.9c0.42,0.18,2.1,0.54,3.22,0.55c5.43,0.05,17.72-2.16,26.26-2.66c1.12-0.07,2.52,0.22,3.22,0.4" style="fill:none;stroke:#999;stroke-width:3" />
<path d="M1558.6599999999999,21.62c0.52,0.51,0.84,2.28,0.94,3.29c0.11,1.01,0,15.45-0.11,21.78" style="fill:none;stroke:#999;stroke-width:3" />
<path d="M1557.95,31.43c-3.67,5.02-10.05,12.37-18.1,15.33" style="fill:none;stroke:#999;stroke-width:3" />
<path d="M1561.12,34.8c4.08,1.27,11.48,8.42,13.39,11.16" style="fill:none;stroke:#999;stroke-width:3" />
<path d="M1557.0700000000002,49.2c0.05,0.43-0.03,1.21-0.34,1.72C1554.23,55,1548.75,61.5,1538.25,67.86" style="fill:none;stroke:#999;stroke-width:3" />
<path d="M1559.53,51.58c3.47,1.22,11.32,6.16,13.31,8.92" style="fill:none;stroke:#999;stroke-width:3" />
<path d="M1558.49,60.64c0.06,0.4,0.9,2.09,0.9,4.64c0,15.27-0.19,22.06-0.19,26.23c0,8.86-5.18,1.26-6.25,0.21" style="fill:none;stroke:#999;stroke-width:3" />
<path d="M1544.53,70.5c2.42,1.05,6.26,4.32,6.86,5.96" style="fill:none;stroke:#999;stroke-width:3" />
<path d="M1539.17,87.83c1.35,1.07,2.48,1.53,3.83,0.61c0.8-0.54,7.22-5.34,10.6-7.93" style="fill:none;stroke:#999;stroke-width:3" />
<path d="M1571.65,65.21c0.03,0.23,0.05,0.59-0.05,0.92c-0.6,1.95-4.04,6.22-8.74,8.83" style="fill:none;stroke:#999;stroke-width:3" />
<path d="M1562.51,79.09c2.54,1.2,9.49,6.98,11.71,11.47" style="fill:none;stroke:#999;stroke-width:3" />
<path d="M1598.0,12.47c0.64,0.29,1.7,1.4,1.7,1.97c0,2.11-0.2,7.1-0.08,8.88" style="fill:none;stroke:#999;stroke-width:3" />
<path d="M1578.92,24.85c1.55,0.25,2.91,0.53,4.69,0.35c10.6-1.06,22.34-2.72,34.7-3.23c1.82-0.07,2.74,0.03,4.1,0.45" style="fill:none;stroke:#999;stroke-width:3" />
<path d="M1606.88,27.65c0.28,0.35,0.56,0.62,0.14,1.24c-3.75,5.5-9.34,10.1-17.42,12.98" style="fill:none;stroke:black;stroke-width:3" />
<circle cx="1606.88" cy="27.65" r="5" stroke-width="0" fill="#FF2A00" opacity="0.7" />
<path d="M1676.03,13.5c0.07,0.23,0.14,0.58-0.13,0.9c-1.58,1.91-10.64,6.09-23.03,8.65" style="fill:none;stroke:#999;stroke-width:3" />
<path d="M1650.1,30.9c0.42,0.18,2.1,0.54,3.22,0.55c5.43,0.05,17.72-2.16,26.26-2.66c1.12-0.07,2.52,0.22,3.22,0.4" style="fill:none;stroke:#999;stroke-width:3" />
<path d="M1667.6599999999999,21.62c0.52,0.51,0.84,2.28,0.94,3.29c0.11,1.01,0,15.45-0.11,21.78" style="fill:none;stroke:#999;stroke-width:3" />
<path d="M1666.95,31.43c-3.67,5.02-10.05,12.37-18.1,15.33" style="fill:none;stroke:#999;stroke-width:3" />
<path d="M1670.12,34.8c4.08,1.27,11.48,8.42,13.39,11.16" style="fill:none;stroke:#999;stroke-width:3" />
<path d="M1666.0700000000002,49.2c0.05,0.43-0.03,1.21-0.34,1.72C1663.23,55,1657.75,61.5,1647.25,67.86" style="fill:none;stroke:#999;stroke-width:3" />
<path d="M1668.53,51.58c3.47,1.22,11.32,6.16,13.31,8.92" style="fill:none;stroke:#999;stroke-width:3" />
<path d="M1667.49,60.64c0.06,0.4,0.9,2.09,0.9,4.64c0,15.27-0.19,22.06-0.19,26.23c0,8.86-5.18,1.26-6.25,0.21" style="fill:none;stroke:#999;stroke-width:3" />
<path d="M1653.53,70.5c2.42,1.05,6.26,4.32,6.86,5.96" style="fill:none;stroke:#999;stroke-width:3" />
<path d="M1648.17,87.83c1.35,1.07,2.48,1.53,3.83,0.61c0.8-0.54,7.22-5.34,10.6-7.93" style="fill:none;stroke:#999;stroke-width:3" />
<path d="M1680.65,65.21c0.03,0.23,0.05,0.59-0.05,0.92c-0.6,1.95-4.04,6.22-8.74,8.83" style="fill:none;stroke:#999;stroke-width:3" />
<path d="M1671.51,79.09c2.54,1.2,9.49,6.98,11.71,11.47" style="fill:none;stroke:#999;stroke-width:3" />
<path d="M1707.0,12.47c0.64,0.29,1.7,1.4,1.7,1.97c0,2.11-0.2,7.1-0.08,8.88" style="fill:none;stroke:#999;stroke-width:3" />
<path d="M1687.92,24.85c1.55,0.25,2.91,0.53,4.69,0.35c10.6-1.06,22.34-2.72,34.7-3.23c1.82-0.07,2.74,0.03,4.1,0.45" style="fill:none;stroke:#999;stroke-width:3" />
<path d="M1715.88,27.65c0.28,0.35,0.56,0.62,0.14,1.24c-3.75,5.5-9.34,10.1-17.42,12.98" style="fill:none;stroke:#999;stroke-width:3" />
<path d="M1700.62,30.3c5.37,1.67,13.1,7.08,15.9,11.04" style="fill:none;stroke:black;stroke-width:3" />
<circle cx="1700.62" cy="30.3" r="5" stroke-width="0" fill="#FF2A00" opacity="0.7" />
<path d="M1785.03,13.5c0.07,0.23,0.14,0.58-0.13,0.9c-1.58,1.91-10.64,6.09-23.03,8.65" style="fill:none;stroke:#999;stroke-width:3" />
<path d="M1759.1,30.9c0.42,0.18,2.1,0.54,3.22,0.55c5.43,0.05,17.72-2.16,26.26-2.66c1.12-0.07,2.52,0.22,3.22,0.4" style="fill:none;stroke:#999;stroke-width:3" />
<path d="M1776.6599999999999,21.62c0.52,0.51,0.84,2.28,0.94,3.29c0.11,1.01,0,15.45-0.11,21.78" style="fill:none;stroke:#999;stroke-width:3" />
<path d="M1775.95,31.43c-3.67,5.02-10.05,12.37-18.1,15.33" style="fill:none;stroke:#999;stroke-width:3" />
<path d="M1779.12,34.8c4.08,1.27,11.48,8.42,13.39,11.16" style="fill:none;stroke:#999;stroke-width:3" />
<path d="M1775.0700000000002,49.2c0.05,0.43-0.03,1.21-0.34,1.72C1772.23,55,1766.75,61.5,1756.25,67.86" style="fill:none;stroke:#999;stroke-width:3" />
<path d="M1777.53,51.58c3.47,1.22,11.32,6.16,13.31,8.92" style="fill:none;stroke:#999;stroke-width:3" />
<path d="M1776.49,60.64c0.06,0.4,0.9,2.09,0.9,4.64c0,15.27-0.19,22.06-0.19,26.23c0,8.86-5.18,1.26-6.25,0.21" style="fill:none;stroke:#999;stroke-width:3" />
<path d="M1762.53,70.5c2.42,1.05,6.26,4.32,6.86,5.96" style="fill:none;stroke:#999;stroke-width:3" />
<path d="M1757.17,87.83c1.35,1.07,2.48,1.53,3.83,0.61c0.8-0.54,7.22-5.34,10.6-7.93" style="fill:none;stroke:#999;stroke-width:3" />
<path d="M1789.65,65.21c0.03,0.23,0.05,0.59-0.05,0.92c-0.6,1.95-4.04,6.22-8.74,8.83" style="fill:none;stroke:#999;stroke-width:3" />
<path d="M1780.51,79.09c2.54,1.2,9.49,6.98,11.71,11.47" style="fill:none;stroke:#999;stroke-width:3" />
<path d="M1816.0,12.47c0.64,0.29,1.7,1.4,1.7,1.97c0,2.11-0.2,7.1-0.08,8.88" style="fill:none;stroke:#999;stroke-width:3" />
<path d="M1796.92,24.85c1.55,0.25,2.91,0.53,4.69,0.35c10.6-1.06,22.34-2.72,34.7-3.23c1.82-0.07,2.74,0.03,4.1,0.45" style="fill:none;stroke:#999;stroke-width:3" />
<path d="M1824.88,27.65c0.28,0.35,0.56,0.62,0.14,1.24c-3.75,5.5-9.34,10.1-17.42,12.98" style="fill:none;stroke:#999;stroke-width:3" />
<path d="M1809.62,30.3c5.37,1.67,13.1,7.08,15.9,11.04" style="fill:none;stroke:#999;stroke-width:3" />
<path d="M1800.47,31.81c0.36,0.17,1.12,1.31,1.19,1.65c0.53,2.55-0.47,13.17-0.5,13.99c-0.04,0.82,0.79,1.28,1.5,1.18c10.59-1.48,27.09-2.87,30.83-3.04" style="fill:none;stroke:black;stroke-width:3" />
<circle cx="1800.47" cy="31.81" r="5" stroke-width="0" fill="#FF2A00" opacity="0.7" />
<path d="M1894.03,13.5c0.07,0.23,0.14,0.58-0.13,0.9c-1.58,1.91-10.64,6.09-23.03,8.65" style="fill:none;stroke:#999;stroke-width:3" />
<path d="M1868.1,30.9c0.42,0.18,2.1,0.54,3.22,0.55c5.43,0.05,17.72-2.16,26.26-2.66c1.12-0.07,2.52,0.22,3.22,0.4" style="fill:none;stroke:#999;stroke-width:3" />
<path d="M1885.6599999999999,21.62c0.52,0.51,0.84,2.28,0.94,3.29c0.11,1.01,0,15.45-0.11,21.78" style="fill:none;stroke:#999;stroke-width:3" />
<path d="M1884.95,31.43c-3.67,5.02-10.05,12.37-18.1,15.33" style="fill:none;stroke:#999;stroke-width:3" />
<path d="M1888.12,34.8c4.08,1.27,11.48,8.42,13.39,11.16" style="fill:none;stroke:#999;stroke-width:3" />
<path d="M1884.0700000000002,49.2c0.05,0.43-0.03,1.21-0.34,1.72C1881.23,55,1875.75,61.5,1865.25,67.86" style="fill:none;stroke:#999;stroke-width:3" />
<path d="M1886.53,51.58c3.47,1.22,11.32,6.16,13.31,8.92" style="fill:none;stroke:#999;stroke-width:3" />
<path d="M1885.49,60.64c0.06,0.4,0.9,2.09,0.9,4.64c0,15.27-0.19,22.06-0.19,26.23c0,8.86-5.18,1.26-6.25,0.21" style="fill:none;stroke:#999;stroke-width:3" />
<path d="M1871.53,70.5c2.42,1.05,6.26,4.32,6.86,5.96" style="fill:none;stroke:#999;stroke-width:3" />
<path d="M1866.17,87.83c1.35,1.07,2.48,1.53,3.83,0.61c0.8-0.54,7.22-5.34,10.6-7.93" style="fill:none;stroke:#999;stroke-width:3" />
<path d="M1898.65,65.21c0.03,0.23,0.05,0.59-0.05,0.92c-0.6,1.95-4.04,6.22-8.74,8.83" style="fill:none;stroke:#999;stroke-width:3" />
<path d="M1889.51,79.09c2.54,1.2,9.49,6.98,11.71,11.47" style="fill:none;stroke:#999;stroke-width:3" />
<path d="M1925.0,12.47c0.64,0.29,1.7,1.4,1.7,1.97c0,2.11-0.2,7.1-0.08,8.88" style="fill:none;stroke:#999;stroke-width:3" />
<path d="M1905.92,24.85c1.55,0.25,2.91,0.53,4.69,0.35c10.6-1.06,22.34-2.72,34.7-3.23c1.82-0.07,2.74,0.03,4.1,0.45" style="fill:none;stroke:#999;stroke-width:3" />
<path d="M1933.88,27.65c0.28,0.35,0.56,0.62,0.14,1.24c-3.75,5.5-9.34,10.1-17.42,12.98" style="fill:none;stroke:#999;stroke-width:3" />
<path d="M1918.62,30.3c5.37,1.67,13.1,7.08,15.9,11.04" style="fill:none;stroke:#999;stroke-width:3" />
<path d="M1909.47,31.81c0.36,0.17,1.12,1.31,1.19,1.65c0.53,2.55-0.47,13.17-0.5,13.99c-0.04,0.82,0.79,1.28,1.5,1.18c10.59-1.48,27.09-2.87,30.83-3.04" style="fill:none;stroke:#999;stroke-width:3" />
<path d="M1942.25,27.95c0.36,0.17,1.12,1.3,1.19,1.65c0.07,0.35-0.71,12.15-1.03,19" style="fill:none;stroke:black;stroke-width:3" />
<circle cx="1942.25" cy="27.95" r="5" stroke-width="0" fill="#FF2A00" opacity="0.7" />
<path d="M2003.03,13.5c0.07,0.23,0.14,0.58-0.13,0.9c-1.58,1.91-10.64,6.09-23.03,8.65" style="fill:none;stroke:#999;stroke-width:3" />
<path d="M1977.1,30.9c0.42,0.18,2.1,0.54,3.22,0.55c5.43,0.05,17.72-2.16,26.26-2.66c1.12-0.07,2.52,0.22,3.22,0.4" style="fill:none;stroke:#999;stroke-width:3" />
<path d="M1994.6599999999999,21.62c0.52,0.51,0.84,2.28,0.94,3.29c0.11,1.01,0,15.45-0.11,21.78" style="fill:none;stroke:#999;stroke-width:3" />
<path d="M1993.95,31.43c-3.67,5.02-10.05,12.37-18.1,15.33" style="fill:none;stroke:#999;stroke-width:3" />
<path d="M1997.12,34.8c4.08,1.27,11.48,8.42,13.39,11.16" style="fill:none;stroke:#999;stroke-width:3" />
<path d="M1993.0700000000002,49.2c0.05,0.43-0.03,1.21-0.34,1.72C1990.23,55,1984.75,61.5,1974.25,67.86" style="fill:none;stroke:#999;stroke-width:3" />
<path d="M1995.53,51.58c3.47,1.22,11.32,6.16,13.31,8.92" style="fill:none;stroke:#999;stroke-width:3" />
<path d="M1994.49,60.64c0.06,0.4,0.9,2.09,0.9,4.64c0,15.27-0.19,22.06-0.19,26.23c0,8.86-5.18,1.26-6.25,0.21" style="fill:none;stroke:#999;stroke-width:3" />
<path d="M1980.53,70.5c2.42,1.05,6.26,4.32,6.86,5.96" style="fill:none;stroke:#999;stroke-width:3" />
<path d="M1975.17,87.83c1.35,1.07,2.48,1.53,3.83,0.61c0.8-0.54,7.22-5.34,10.6-7.93" style="fill:none;stroke:#999;stroke-width:3" />
<path d="M2007.65,65.21c0.03,0.23,0.05,0.59-0.05,0.92c-0.6,1.95-4.04,6.22-8.74,8.83" style="fill:none;stroke:#999;stroke-width:3" />
<path d="M1998.51,79.09c2.54,1.2,9.49,6.98,11.71,11.47" style="fill:none;stroke:#999;stroke-width:3" />
<path d="M2034.0,12.47c0.64,0.29,1.7,1.4,1.7,1.97c0,2.11-0.2,7.1-0.08,8.88" style="fill:none;stroke:#999;stroke-width:3" />
<path d="M2014.92,24.85c1.55,0.25,2.91,0.53,4.69,0.35c10.6-1.06,22.34-2.72,34.7-3.23c1.82-0.07,2.74,0.03,4.1,0.45" style="fill:none;stroke:#999;stroke-width:3" />
<path d="M2042.88,27.65c0.28,0.35,0.56,0.62,0.14,1.24c-3.75,5.5-9.34,10.1-17.42,12.98" style="fill:none;stroke:#999;stroke-width:3" />
<path d="M2027.62,30.3c5.37,1.67,13.1,7.08,15.9,11.04" style="fill:none;stroke:#999;stroke-width:3" />
<path d="M2018.47,31.81c0.36,0.17,1.12,1.31,1.19,1.65c0.53,2.55-0.47,13.17-0.5,13.99c-0.04,0.82,0.79,1.28,1.5,1.18c10.59-1.48,27.09-2.87,30.83-3.04" style="fill:none;stroke:#999;stroke-width:3" />
<path d="M2051.25,27.95c0.36,0.17,1.12,1.3,1.19,1.65c0.07,0.35-0.71,12.15-1.03,19" style="fill:none;stroke:#999;stroke-width:3" />
<path d="M2015.2,60.02c0.49,1.02,1.07,2.63,1.15,4.49c0.22,4.84,0.64,29.97,0.64,33.03" style="fill:none;stroke:black;stroke-width:3" />
<circle cx="2015.2" cy="60.02" r="5" stroke-width="0" fill="#FF2A00" opacity="0.7" />
<path d="M2112.0299999999997,13.5c0.07,0.23,0.14,0.58-0.13,0.9c-1.58,1.91-10.64,6.09-23.03,8.65" style="fill:none;stroke:#999;stroke-width:3" />
<path d="M2086.1,30.9c0.42,0.18,2.1,0.54,3.22,0.55c5.43,0.05,17.72-2.16,26.26-2.66c1.12-0.07,2.52,0.22,3.22,0.4" style="fill:none;stroke:#999;stroke-width:3" />
<path d="M2103.66,21.62c0.52,0.51,0.84,2.28,0.94,3.29c0.11,1.01,0,15.45-0.11,21.78" style="fill:none;stroke:#999;stroke-width:3" />
<path d="M2102.95,31.43c-3.67,5.02-10.05,12.37-18.1,15.33" style="fill:none;stroke:#999;stroke-width:3" />
<path d="M2106.12,34.8c4.08,1.27,11.48,8.42,13.39,11.16" style="fill:none;stroke:#999;stroke-width:3" />
<path d="M2102.07,49.2c0.05,0.43-0.03,1.21-0.34,1.72C2099.23,55,2093.75,61.5,2083.25,67.86" style="fill:none;stroke:#999;stroke-width:3" />
<path d="M2104.5299999999997,51.58c3.47,1.22,11.32,6.16,13.31,8.92" style="fill:none;stroke:#999;stroke-width:3" />
<path d="M2103.49,60.64c0.06,0.4,0.9,2.09,0.9,4.64c0,15.27-0.19,22.06-0.19,26.23c0,8.86-5.18,1.26-6.25,0.21" style="fill:none;stroke:#999;stroke-width:3" />
<path d="M2089.5299999999997,70.5c2.42,1.05,6.26,4.32,6.86,5.96" style="fill:none;stroke:#999;stroke-width:3" />
<path d="M2084.17,87.83c1.35,1.07,2.48,1.53,3.83,0.61c0.8-0.54,7.22-5.34,10.6-7.93" style="fill:none;stroke:#999;stroke-width:3" />
<path d="M2116.65,65.21c0.03,0.23,0.05,0.59-0.05,0.92c-0.6,1.95-4.04,6.22-8.74,8.83" style="fill:none;stroke:#999;stroke-width:3" />
<path d="M2107.51,79.09c2.54,1.2,9.49,6.98,11.71,11.47" style="fill:none;stroke:#999;stroke-width:3" />
<path d="M2143.0,12.47c0.64,0.29,1.7,1.4,1.7,1.97c0,2.11-0.2,7.1-0.08,8.88" style="fill:none;stroke:#999;stroke-width:3" />
<path d="M2123.92,24.85c1.55,0.25,2.91,0.53,4.69,0.35c10.6-1.06,22.34-2.72,34.7-3.23c1.82-0.07,2.74,0.03,4.1,0.45" style="fill:none;stroke:#999;stroke-width:3" />
<path d="M2151.88,27.65c0.28,0.35,0.56,0.62,0.14,1.24c-3.75,5.5-9.34,10.1-17.42,12.98" style="fill:none;stroke:#999;stroke-width:3" />
<path d="M2136.62,30.3c5.37,1.67,13.1,7.08,15.9,11.04" style="fill:none;stroke:#999;stroke-width:3" />
<path d="M2127.4700000000003,31.81c0.36,0.17,1.12,1.31,1.19,1.65c0.53,2.55-0.47,13.17-0.5,13.99c-0.04,0.82,0.79,1.28,1.5,1.18c10.59-1.48,27.09-2.87,30.83-3.04" style="fill:none;stroke:#999;stroke-width:3" />
<path d="M2160.25,27.95c0.36,0.17,1.12,1.3,1.19,1.65c0.07,0.35-0.71,12.15-1.03,19" style="fill:none;stroke:#999;stroke-width:3" />
<path d="M2124.2,60.02c0.49,1.02,1.07,2.63,1.15,4.49c0.22,4.84,0.64,29.97,0.64,33.03" style="fill:none;stroke:#999;stroke-width:3" />
<path d="M2125.47,62.06c5.79-0.67,36.19-4.35,37.36-4.35c1.67,0,2.74,0.5,2.74,2.01c0,3.18-0.27,25.03-0.27,31.59c0,9.69-4.72,3.32-6.28,1.72" style="fill:none;stroke:black;stroke-width:3" />
<circle cx="2125.47" cy="62.06" r="5" stroke-width="0" fill="#FF2A00" opacity="0.7" />
<path d="M2221.0299999999997,13.5c0.07,0.23,0.14,0.58-0.13,0.9c-1.58,1.91-10.64,6.09-23.03,8.65" style="fill:none;stroke:#999;stroke-width:3" />
<path d="M2195.1,30.9c0.42,0.18,2.1,0.54,3.22,0.55c5.43,0.05,17.72-2.16,26.26-2.66c1.12-0.07,2.52,0.22,3.22,0.4" style="fill:none;stroke:#999;stroke-width:3" />
<path d="M2212.66,21.62c0.52,0.51,0.84,2.28,0.94,3.29c0.11,1.01,0,15.45-0.11,21.78" style="fill:none;stroke:#999;stroke-width:3" />
<path d="M2211.95,31.43c-3.67,5.02-10.05,12.37-18.1,15.33" style="fill:none;stroke:#999;stroke-width:3" />
<path d="M2215.12,34.8c4.08,1.27,11.48,8.42,13.39,11.16" style="fill:none;stroke:#999;stroke-width:3" />
<path d="M2211.07,49.2c0.05,0.43-0.03,1.21-0.34,1.72C2208.23,55,2202.75,61.5,2192.25,67.86" style="fill:none;stroke:#999;stroke-width:3" />
<path d="M2213.5299999999997,51.58c3.47,1.22,11.32,6.16,13.31,8.92" style="fill:none;stroke:#999;stroke-width:3" />
<path d="M2212.49,60.64c0.06,0.4,0.9,2.09,0.9,4.64c0,15.27-0.19,22.06-0.19,26.23c0,8.86-5.18,1.26-6.25,0.21" style="fill:none;stroke:#999;stroke-width:3" />
<path d="M2198.5299999999997,70.5c2.42,1.05,6.26,4.32,6.86,5.96" style="fill:none;stroke:#999;stroke-width:3" />
<path d="M2193.17,87.83c1.35,1.07,2.48,1.53,3.83,0.61c0.8-0.54,7.22-5.34,10.6-7.93" style="fill:none;stroke:#999;stroke-width:3" />
<path d="M2225.65,65.21c0.03,0.23,0.05,0.59-0.05,0.92c-0.6,1.95-4.04,6.22-8.74,8.83" style="fill:none;stroke:#999;stroke-width:3" />
<path d="M2216.51,79.09c2.54,1.2,9.49,6.98,11.71,11.47" style="fill:none;stroke:#999;stroke-width:3" />
<path d="M2252.0,12.47c0.64,0.29,1.7,1.4,1.7,1.97c0,2.11-0.2,7.1-0.08,8.88" style="fill:none;stroke:#999;stroke-width:3" />
<path d="M2232.92,24.85c1.55,0.25,2.91,0.53,4.69,0.35c10.6-1.06,22.34-2.72,34.7-3.23c1.82-0.07,2.74,0.03,4.1,0.45" style="fill:none;stroke:#999;stroke-width:3" />
<path d="M2260.88,27.65c0.28,0.35,0.56,0.62,0.14,1.24c-3.75,5.5-9.34,10.1-17.42,12.98" style="fill:none;stroke:#999;stroke-width:3" />
<path d="M2245.62,30.3c5.37,1.67,13.1,7.08,15.9,11.04" style="fill:none;stroke:#999;stroke-width:3" />
<path d="M2236.4700000000003,31.81c0.36,0.17,1.12,1.31,1.19,1.65c0.53,2.55-0.47,13.17-0.5,13.99c-0.04,0.82,0.79,1.28,1.5,1.18c10.59-1.48,27.09-2.87,30.83-3.04" style="fill:none;stroke:#999;stroke-width:3" />
<path d="M2269.25,27.95c0.36,0.17,1.12,1.3,1.19,1.65c0.07,0.35-0.71,12.15-1.03,19" style="fill:none;stroke:#999;stroke-width:3" />
<path d="M2233.2,60.02c0.49,1.02,1.07,2.63,1.15,4.49c0.22,4.84,0.64,29.97,0.64,33.03" style="fill:none;stroke:#999;stroke-width:3" />
<path d="M2234.47,62.06c5.79-0.67,36.19-4.35,37.36-4.35c1.67,0,2.74,0.5,2.74,2.01c0,3.18-0.27,25.03-0.27,31.59c0,9.69-4.72,3.32-6.28,1.72" style="fill:none;stroke:#999;stroke-width:3" />
<path d="M2253.97,49.78c0.25,0.51,0.32,2.49,0.08,3.11c-3.37,9.02-6.32,17.55-9.78,23.33c-1.09,1.83-0.09,2.88,1.51,2.33c3.87-1.35,10.89-3.36,16.27-5.63" style="fill:none;stroke:black;stroke-width:3" />
<circle cx="2253.97" cy="49.78" r="5" stroke-width="0" fill="#FF2A00" opacity="0.7" />
<path d="M2330.0299999999997,13.5c0.07,0.23,0.14,0.58-0.13,0.9c-1.58,1.91-10.64,6.09-23.03,8.65" style="fill:none;stroke:#999;stroke-width:3" />
<path d="M2304.1,30.9c0.42,0.18,2.1,0.54,3.22,0.55c5.43,0.05,17.72-2.16,26.26-2.66c1.12-0.07,2.52,0.22,3.22,0.4" style="fill:none;stroke:#999;stroke-width:3" />
<path d="M2321.66,21.62c0.52,0.51,0.84,2.28,0.94,3.29c0.11,1.01,0,15.45-0.11,21.78" style="fill:none;stroke:#999;stroke-width:3" />
<path d="M2320.95,31.43c-3.67,5.02-10.05,12.37-18.1,15.33" style="fill:none;stroke:#999;stroke-width:3" />
<path d="M2324.12,34.8c4.08,1.27,11.48,8.42,13.39,11.16" style="fill:none;stroke:#999;stroke-width:3" />
<path d="M2320.07,49.2c0.05,0.43-0.03,1.21-0.34,1.72C2317.23,55,2311.75,61.5,2301.25,67.86" style="fill:none;stroke:#999;stroke-width:3" />
<path d="M2322.5299999999997,51.58c3.47,1.22,11.32,6.16,13.31,8.92" style="fill:none;stroke:#999;stroke-width:3" />
<path d="M2321.49,60.64c0.06,0.4,0.9,2.09,0.9,4.64c0,15.27-0.19,22.06-0.19,26.23c0,8.86-5.18,1.26-6.25,0.21" style="fill:none;stroke:#999;stroke-width:3" />
<path d="M2307.5299999999997,70.5c2.42,1.05,6.26,4.32,6.86,5.96" style="fill:none;stroke:#999;stroke-width:3" />
<path d="M2302.17,87.83c1.35,1.07,2.48,1.53,3.83,0.61c0.8-0.54,7.22-5.34,10.6-7.93" style="fill:none;stroke:#999;stroke-width:3" />
<path d="M2334.65,65.21c0.03,0.23,0.05,0.59-0.05,0.92c-0.6,1.95-4.04,6.22-8.74,8.83" style="fill:none;stroke:#999;stroke-width:3" />
<path d="M2325.51,79.09c2.54,1.2,9.49,6.98,11.71,11.47" style="fill:none;stroke:#999;stroke-width:3" />
<path d="M2361.0,12.47c0.64,0.29,1.7,1.4,1.7,1.97c0,2.11-0.2,7.1-0.08,8.88" style="fill:none;stroke:#999;stroke-width:3" />
<path d="M2341.92,24.85c1.55,0.25,2.91,0.53,4.69,0.35c10.6-1.06,22.34-2.72,34.7-3.23c1.82-0.07,2.74,0.03,4.1,0.45" style="fill:none;stroke:#999;stroke-width:3" />
<path d="M2369.88,27.65c0.28,0.35,0.56,0.62,0.14,1.24c-3.75,5.5-9.34,10.1-17.42,12.98" style="fill:none;stroke:#999;stroke-width:3" />
<path d="M2354.62,30.3c5.37,1.67,13.1,7.08,15.9,11.04" style="fill:none;stroke:#999;stroke-width:3" />
<path d="M2345.4700000000003,31.81c0.36,0.17,1.12,1.31,1.19,1.65c0.53,2.55-0.47,13.17-0.5,13.99c-0.04,0.82,0.79,1.28,1.5,1.18c10.59-1.48,27.09-2.87,30.83-3.04" style="fill:none;stroke:#999;stroke-width:3" />
<path d="M2378.25,27.95c0.36,0.17,1.12,1.3,1.19,1.65c0.07,0.35-0.71,12.15-1.03,19" style="fill:none;stroke:#999;stroke-width:3" />
<path d="M2342.2,60.02c0.49,1.02,1.07,2.63,1.15,4.49c0.22,4.84,0.64,29.97,0.64,33.03" style="fill:none;stroke:#999;stroke-width:3" />
<path d="M2343.47,62.06c5.79-0.67,36.19-4.35,37.36-4.35c1.67,0,2.74,0.5,2.74,2.01c0,3.18-0.27,25.03-0.27,31.59c0,9.69-4.72,3.32-6.28,1.72" style="fill:none;stroke:#999;stroke-width:3" />
<path d="M2362.97,49.78c0.25,0.51,0.32,2.49,0.08,3.11c-3.37,9.02-6.32,17.55-9.78,23.33c-1.09,1.83-0.09,2.88,1.51,2.33c3.87-1.35,10.89-3.36,16.27-5.63" style="fill:none;stroke:#999;stroke-width:3" />
<path d="M2367.43,66.55c2.44,2.43,6.31,9.98,6.92,13.76" style="fill:none;stroke:black;stroke-width:3" />
<circle cx="2367.43" cy="66.55" r="5" stroke-width="0" fill="#FF2A00" opacity="0.7" />
</svg>