<svg width="2289px" height="109px" viewBox="0 0 2289px 109px" xmlns="http://www.w3.org/2000/svg" xmlns:xlink="http://www.w3.org/1999/xlink" xml:space="preserve" version="1.1"  baseProfile="full">
<line x1="1" y1="1" x2="2288" y2="1" style="stroke:#ddd;stroke-width:2" />
<line x1="1" y1="1" x2="1" y2="108" style="stroke:#ddd;stroke-width:2" />
<line x1="1" y1="108" x2="2288" y2="108" style="stroke:#ddd;stroke-width:2" />
<line x1="2288" y1="1" x2="2288" y2="108" style="stroke:#ddd;stroke-width:2" />
<line x1="109" y1="1" x2="109" y2="108" style="stroke:#ddd;stroke-width:2" />
<line x1="218" y1="1" x2="218" y2="108" style="stroke:#ddd;stroke-width:2" />
<line x1="327" y1="1" x2="327" y2="108" style="stroke:#ddd;stroke-width:2" />
<line x1="436" y1="1" x2="436" y2="108" style="stroke:#ddd;stroke-width:2" />
<line x1="545" y1="1" x2="545" y2="108" style="stroke:#ddd;stroke-width:2" />
<line x1="654" y1="1" x2="654" y2="108" style="stroke:#ddd;stroke-width:2" />
<line x1="763" y1="1" x2="763" y2="108" style="stroke:#ddd;stroke-width:2" />
<line x1="872" y1="1" x2="872" y2="108" style="stroke:#ddd;stroke-width:2" />
<line x1="981" y1="1" x2="981" y2="108" style="stroke:#ddd;stroke-width:2" />
<line x1="1090" y1="1" x2="1090" y2="108" style="stroke:#ddd;stroke-width:2" />
<line x1="1199" y1="1" x2="1199" y2="108" style="stroke:#ddd;stroke-width:2" />
<line x1="1308" y1="1" x2="1308" y2="108" style="stroke:#ddd;stroke-width:2" />
<line x1="1417" y1="1" x2="1417" y2="108" style="stroke:#ddd;stroke-width:2" />
<line x1="1526" y1="1" x2="1526" y2="108" style="stroke:#ddd;stroke-width:2" />
<line x1="1635" y1="1" x2="1635" y2="108" style="stroke:#ddd;stroke-width:2" />
<line x1="1744" y1="1" x2="1744" y2="108" style="stroke:#ddd;stroke-width:2" />
<line x1="1853" y1="1" x2="1853" y2="108" style="stroke:#ddd;stroke-width:2" />
<line x1="1962" y1="1" x2="1962" y2="108" style="stroke:#ddd;stroke-width:2" />
<line x1="2071" y1="1" x2="2071" y2="108" style="stroke:#ddd;stroke-width:2" />
<line x1="2180" y1="1" x2="2180" y2="108" style="stroke:#ddd;stroke-width:2" />
<line x1="1" y1="54" x2="2288" y2="54" style="stroke:#ddd;stroke-width:2;stroke-dasharray:3 3" />
<line x1="55" y1="1" x2="55" y2="108" style="stroke:#ddd;stroke-width:2;stroke-dasharray:3 3" />
<line x1="164" y1="1" x2="164" y2="108" style="stroke:#ddd;stroke-width:2;stroke-dasharray:3 3" />
<line x1="273" y1="1" x2="273" y2="108" style="stroke:#ddd;stroke-width:2;stroke-dasharray:3 3" />
<line x1="382" y1="1" x2="382" y2="108" style="stroke:#ddd;stroke-width:2;stroke-dasharray:3 3" />
<line x1="491" y1="1" x2="491" y2="108" style="stroke:#ddd;stroke-width:2;stroke-dasharray:3 3" />
<line x1="600" y1="1" x2="600" y2="108" style="stroke:#ddd;stroke-width:2;stroke-dasharray:3 3" />
<line x1="709" y1="1" x2="709" y2="108" style="stroke:#ddd;stroke-width:2;stroke-dasharray:3 3" />
<line x1="818" y1="1" x2="818" y2="108" style="stroke:#ddd;stroke-width:2;stroke-dasharray:3 3" />
<line x1="927" y1="1" x2="927" y2="108" style="stroke:#ddd;stroke-width:2;stroke-dasharray:3 3" />
<line x1="1036" y1="1" x2="1036" y2="108" style="stroke:#ddd;stroke-width:2;stroke-dasharray:3 3" />
<line x1="1145" y1="1" x2="1145" y2="108" style="stroke:#ddd;stroke-width:2;stroke-dasharray:3 3" />
<line x1="1254" y1="1" x2="1254" y2="108" style="stroke:#ddd;stroke-width:2;stroke-dasharray:3 3" />
<line x1="1363" y1="1" x2="1363" y2="108" style="stroke:#ddd;stroke-width:2;stroke-dasharray:3 3" />
<line x1="1472" y1="1" x2="1472" y2="108" style="stroke:#ddd;stroke-width:2;stroke-dasharray:3 3" />
<line x1="1581" y1="1" x2="1581" y2="108" style="stroke:#ddd;stroke-width:2;stroke-dasharray:3 3" />
<line x1="1690" y1="1" x2="1690" y2="108" style="stroke:#ddd;stroke-width:2;stroke-dasharray:3 3" />
<line x1="1799" y1="1" x2="1799" y2="108" style="stroke:#ddd;stroke-width:2;stroke-dasharray:3 3" />
<line x1="1908" y1="1" x2="1908" y2="108" style="stroke:#ddd;stroke-width:2;stroke-dasharray:3 3" />
<line x1="2017" y1="1" x2="2017" y2="108" style="stroke:#ddd;stroke-width:2;stroke-dasharray:3 3" />
<line x1="2126" y1="1" x2="2126" y2="108" style="stroke:#ddd;stroke-width:2;stroke-dasharray:3 3" />
<line x1="2235" y1="1" x2="2235" y2="108" style="stroke:#ddd;stroke-width:2;stroke-dasharray:3 3" />
<path d="M34.76,14.75c0.06,0.31,0.12,0.79-0.12,1.23c-1.43,2.59-9.65,8.29-20.89,11.77" style="fill:none;stroke:black;stroke-width:3" />
<circle cx="34.76" cy="14.75" r="5" stroke-width="0" fill="#FF2A00" opacity="0.7" />
<path d="M143.76,14.75c0.06,0.31,0.12,0.79-0.12,1.23c-1.43,2.59-9.65,8.29-20.89,11.77" style="fill:none;stroke:#999;stroke-width:3" />
<path d="M118.12,40.87c0.32,0.13,1.17,0.34,2.03,0.39c2.35,0.13,21.56-1.93,27.43-2.58c0.85-0.09,1.07-0.13,1.6,0" style="fill:none;stroke:black;stroke-width:3" />
<circle cx="118.12" cy="40.87" r="5" stroke-width="0" fill="#FF2A00" opacity="0.7" />
<path d="M252.76,14.75c0.06,0.31,0.12,0.79-0.12,1.23c-1.43,2.59-9.65,8.29-20.89,11.77" style="fill:none;stroke:#999;stroke-width:3" />
<path d="M227.12,40.87c0.32,0.13,1.17,0.34,2.03,0.39c2.35,0.13,21.56-1.93,27.43-2.58c0.85-0.09,1.07-0.13,1.6,0" style="fill:none;stroke:#999;stroke-width:3" />
<path d="M244.81,25.66c0.18,0.87,1.12,2.95,1.19,3.8c0.08,0.85,0,60.46-0.07,65.79" style="fill:none;stroke:black;stroke-width:3" />
<circle cx="244.81" cy="25.66" r="5" stroke-width="0" fill="#FF2A00" opacity="0.7" />
<path d="M361.76,14.75c0.06,0.31,0.12,0.79-0.12,1.23c-1.43,2.59-9.65,8.29-20.89,11.77" style="fill:none;stroke:#999;stroke-width:3" />
<path d="M336.12,40.87c0.32,0.13,1.17,0.34,2.03,0.39c2.35,0.13,21.56-1.93,27.43-2.58c0.85-0.09,1.07-0.13,1.6,0" style="fill:none;stroke:#999;stroke-width:3" />
<path d="M353.81,25.66c0.18,0.87,1.12,2.95,1.19,3.8c0.08,0.85,0,60.46-0.07,65.79" style="fill:none;stroke:#999;stroke-width:3" />
<path d="M354.5,45.25C350.95,56.64,345.03,70.69,337.0,80" style="fill:none;stroke:black;stroke-width:3" />
<circle cx="354.5" cy="45.25" r="5" stroke-width="0" fill="#FF2A00" opacity="0.7" />
<path d="M470.76,14.75c0.06,0.31,0.12,0.79-0.12,1.23c-1.43,2.59-9.65,8.29-20.89,11.77" style="fill:none;stroke:#999;stroke-width:3" />
<path d="M445.12,40.87c0.32,0.13,1.17,0.34,2.03,0.39c2.35,0.13,21.56-1.93,27.43-2.58c0.85-0.09,1.07-0.13,1.6,0" style="fill:none;stroke:#999;stroke-width:3" />
<path d="M462.81,25.66c0.18,0.87,1.12,2.95,1.19,3.8c0.08,0.85,0,60.46-0.07,65.79" style="fill:none;stroke:#999;stroke-width:3" />
<path d="M463.5,45.25C459.95,56.64,454.03,70.69,446.0,80" style="fill:none;stroke:#999;stroke-width:3" />
<path d="M466.25,50.25c3.46,2.45,6.39,7.35,8.25,10.5" style="fill:none;stroke:black;stroke-width:3" />
<circle cx="466.25" cy="50.25" r="5" stroke-width="0" fill="#FF2A00" opacity="0.7" />
<path d="M579.76,14.75c0.06,0.31,0.12,0.79-0.12,1.23c-1.43,2.59-9.65,8.29-20.89,11.77" style="fill:none;stroke:#999;stroke-width:3" />
<path d="M554.12,40.87c0.32,0.13,1.17,0.34,2.03,0.39c2.35,0.13,21.56-1.93,27.43-2.58c0.85-0.09,1.07-0.13,1.6,0" style="fill:none;stroke:#999;stroke-width:3" />
<path d="M571.81,25.66c0.18,0.87,1.12,2.95,1.19,3.8c0.08,0.85,0,60.46-0.07,65.79" style="fill:none;stroke:#999;stroke-width:3" />
<path d="M572.5,45.25C568.95,56.64,563.03,70.69,555.0,80" style="fill:none;stroke:#999;stroke-width:3" />
<path d="M575.25,50.25c3.46,2.45,6.39,7.35,8.25,10.5" style="fill:none;stroke:#999;stroke-width:3" />
<path d="M602.53,11.13c0.05,0.37,0.1,0.94-0.1,1.47c-1.18,3.09-7.93,9.88-17.17,14.03" style="fill:none;stroke:black;stroke-width:3" />
<circle cx="602.53" cy="11.13" r="5" stroke-width="0" fill="#FF2A00" opacity="0.7" />
<path d="M688.76,14.75c0.06,0.31,0.12,0.79-0.12,1.23c-1.43,2.59-9.65,8.29-20.89,11.77" style="fill:none;stroke:#999;stroke-width:3" />
<path d="M663.12,40.87c0.32,0.13,1.17,0.34,2.03,0.39c2.35,0.13,21.56-1.93,27.43-2.58c0.85-0.09,1.07-0.13,1.6,0" style="fill:none;stroke:#999;stroke-width:3" />
<path d="M680.81,25.66c0.18,0.87,1.12,2.95,1.19,3.8c0.08,0.85,0,60.46-0.07,65.79" style="fill:none;stroke:#999;stroke-width:3" />
<path d="M681.5,45.25C677.95,56.64,672.03,70.69,664.0,80" style="fill:none;stroke:#999;stroke-width:3" />
<path d="M684.25,50.25c3.46,2.45,6.39,7.35,8.25,10.5" style="fill:none;stroke:#999;stroke-width:3" />
<path d="M711.53,11.13c0.05,0.37,0.1,0.94-0.1,1.47c-1.18,3.09-7.93,9.88-17.17,14.03" style="fill:none;stroke:#999;stroke-width:3" />
<path d="M709.69,16.86c3.75-0.22,13.31-1.61,18.11-2.59c2.74-0.56,3.8,0.21,1.83,2.47c-1.75,2-3.36,3.65-6.51,7.39" style="fill:none;stroke:black;stroke-width:3" />
<circle cx="709.69" cy="16.86" r="5" stroke-width="0" fill="#FF2A00" opacity="0.7" />
<path d="M797.76,14.75c0.06,0.31,0.12,0.79-0.12,1.23c-1.43,2.59-9.65,8.29-20.89,11.77" style="fill:none;stroke:#999;stroke-width:3" />
<path d="M772.12,40.87c0.32,0.13,1.17,0.34,2.03,0.39c2.35,0.13,21.56-1.93,27.43-2.58c0.85-0.09,1.07-0.13,1.6,0" style="fill:none;stroke:#999;stroke-width:3" />
<path d="M789.81,25.66c0.18,0.87,1.12,2.95,1.19,3.8c0.08,0.85,0,60.46-0.07,65.79" style="fill:none;stroke:#999;stroke-width:3" />
<path d="M790.5,45.25C786.95,56.64,781.03,70.69,773.0,80" style="fill:none;stroke:#999;stroke-width:3" />
<path d="M793.25,50.25c3.46,2.45,6.39,7.35,8.25,10.5" style="fill:none;stroke:#999;stroke-width:3" />
<path d="M820.53,11.13c0.05,0.37,0.1,0.94-0.1,1.47c-1.18,3.09-7.93,9.88-17.17,14.03" style="fill:none;stroke:#999;stroke-width:3" />
<path d="M818.69,16.86c3.75-0.22,13.31-1.61,18.11-2.59c2.74-0.56,3.8,0.21,1.83,2.47c-1.75,2-3.36,3.65-6.51,7.39" style="fill:none;stroke:#999;stroke-width:3" />
<path d="M810.77,26.43c0.41,0.57,0.47,0.94,0.65,1.69c0.61,2.57,1.02,6.56,1.31,10.12" style="fill:none;stroke:black;stroke-width:3" />
<circle cx="810.77" cy="26.43" r="5" stroke-width="0" fill="#FF2A00" opacity="0.7" />
<path d="M906.76,14.75c0.06,0.31,0.12,0.79-0.12,1.23c-1.43,2.59-9.65,8.29-20.89,11.77" style="fill:none;stroke:#999;stroke-width:3" />
<path d="M881.12,40.87c0.32,0.13,1.17,0.34,2.03,0.39c2.35,0.13,21.56-1.93,27.43-2.58c0.85-0.09,1.07-0.13,1.6,0" style="fill:none;stroke:#999;stroke-width:3" />
<path d="M898.81,25.66c0.18,0.87,1.12,2.95,1.19,3.8c0.08,0.85,0,60.46-0.07,65.79" style="fill:none;stroke:#999;stroke-width:3" />
<path d="M899.5,45.25C895.95,56.64,890.03,70.69,882.0,80" style="fill:none;stroke:#999;stroke-width:3" />
<path d="M902.25,50.25c3.46,2.45,6.39,7.35,8.25,10.5" style="fill:none;stroke:#999;stroke-width:3" />
<path d="M929.53,11.13c0.05,0.37,0.1,0.94-0.1,1.47c-1.18,3.09-7.93,9.88-17.17,14.03" style="fill:none;stroke:#999;stroke-width:3" />
<path d="M927.69,16.86c3.75-0.22,13.31-1.61,18.11-2.59c2.74-0.56,3.8,0.21,1.83,2.47c-1.75,2-3.36,3.65-6.51,7.39" style="fill:none;stroke:#999;stroke-width:3" />
<path d="M919.77,26.43c0.41,0.57,0.47,0.94,0.65,1.69c0.61,2.57,1.02,6.56,1.31,10.12" style="fill:none;stroke:#999;stroke-width:3" />
<path d="M922.03,26.81c6.96-1.29,34.07-3.04,38.49-3.91c1.62-0.32,2.52,1.17,2.23,2.54c-1.22,5.57-1.99,7.56-3.63,10.5" style="fill:none;stroke:black;stroke-width:3" />
<circle cx="922.03" cy="26.81" r="5" stroke-width="0" fill="#FF2A00" opacity="0.7" />
<path d="M1015.76,14.75c0.06,0.31,0.12,0.79-0.12,1.23c-1.43,2.59-9.65,8.29-20.89,11.77" style="fill:none;stroke:#999;stroke-width:3" />
<path d="M990.12,40.87c0.32,0.13,1.17,0.34,2.03,0.39c2.35,0.13,21.56-1.93,27.43-2.58c0.85-0.09,1.07-0.13,1.6,0" style="fill:none;stroke:#999;stroke-width:3" />
<path d="M1007.81,25.66c0.18,0.87,1.12,2.95,1.19,3.8c0.08,0.85,0,60.46-0.07,65.79" style="fill:none;stroke:#999;stroke-width:3" />
<path d="M1008.5,45.25C1004.95,56.64,999.03,70.69,991.0,80" style="fill:none;stroke:#999;stroke-width:3" />
<path d="M1011.25,50.25c3.46,2.45,6.39,7.35,8.25,10.5" style="fill:none;stroke:#999;stroke-width:3" />
<path d="M1038.53,11.13c0.05,0.37,0.1,0.94-0.1,1.47c-1.18,3.09-7.93,9.88-17.17,14.03" style="fill:none;stroke:#999;stroke-width:3" />
<path d="M1036.69,16.86c3.75-0.22,13.31-1.61,18.11-2.59c2.74-0.56,3.8,0.21,1.83,2.47c-1.75,2-3.36,3.65-6.51,7.39" style="fill:none;stroke:#999;stroke-width:3" />
<path d="M1028.77,26.43c0.41,0.57,0.47,0.94,0.65,1.69c0.61,2.57,1.02,6.56,1.31,10.12" style="fill:none;stroke:#999;stroke-width:3" />
<path d="M1031.03,26.81c6.96-1.29,34.07-3.04,38.49-3.91c1.62-0.32,2.52,1.17,2.23,2.54c-1.22,5.57-1.99,7.56-3.63,10.5" style="fill:none;stroke:#999;stroke-width:3" />
<path d="M1031.28,37.41c1.83,0,11.34-1.4,12.84-1.4" style="fill:none;stroke:black;stroke-width:3" />
<circle cx="1031.28" cy="37.41" r="5" stroke-width="0" fill="#FF2A00" opacity="0.7" />
<path d="M1124.76,14.75c0.06,0.31,0.12,0.79-0.12,1.23c-1.43,2.59-9.65,8.29-20.89,11.77" style="fill:none;stroke:#999;stroke-width:3" />
<path d="M1099.12,40.87c0.32,0.13,1.17,0.34,2.03,0.39c2.35,0.13,21.56-1.93,27.43-2.58c0.85-0.09,1.07-0.13,1.6,0" style="fill:none;stroke:#999;stroke-width:3" />
<path d="M1116.81,25.66c0.18,0.87,1.12,2.95,1.19,3.8c0.08,0.85,0,60.46-0.07,65.79" style="fill:none;stroke:#999;stroke-width:3" />
<path d="M1117.5,45.25C1113.95,56.64,1108.03,70.69,1100.0,80" style="fill:none;stroke:#999;stroke-width:3" />
<path d="M1120.25,50.25c3.46,2.45,6.39,7.35,8.25,10.5" style="fill:none;stroke:#999;stroke-width:3" />
<path d="M1147.53,11.13c0.05,0.37,0.1,0.94-0.1,1.47c-1.18,3.09-7.93,9.88-17.17,14.03" style="fill:none;stroke:#999;stroke-width:3" />
<path d="M1145.69,16.86c3.75-0.22,13.31-1.61,18.11-2.59c2.74-0.56,3.8,0.21,1.83,2.47c-1.75,2-3.36,3.65-6.51,7.39" style="fill:none;stroke:#999;stroke-width:3" />
<path d="M1137.77,26.43c0.41,0.57,0.47,0.94,0.65,1.69c0.61,2.57,1.02,6.56,1.31,10.12" style="fill:none;stroke:#999;stroke-width:3" />
<path d="M1140.03,26.81c6.96-1.29,34.07-3.04,38.49-3.91c1.62-0.32,2.52,1.17,2.23,2.54c-1.22,5.57-1.99,7.56-3.63,10.5" style="fill:none;stroke:#999;stroke-width:3" />
<path d="M1140.28,37.41c1.83,0,11.34-1.4,12.84-1.4" style="fill:none;stroke:#999;stroke-width:3" />
<path d="M1163.01,34.67c3.01-0.03,11.9-0.83,13.7-0.71" style="fill:none;stroke:black;stroke-width:3" />
<circle cx="1163.01" cy="34.67" r="5" stroke-width="0" fill="#FF2A00" opacity="0.7" />
<path d="M1233.76,14.75c0.06,0.31,0.12,0.79-0.12,1.23c-1.43,2.59-9.65,8.29-20.89,11.77" style="fill:none;stroke:#999;stroke-width:3" />
<path d="M1208.12,40.87c0.32,0.13,1.17,0.34,2.03,0.39c2.35,0.13,21.56-1.93,27.43-2.58c0.85-0.09,1.07-0.13,1.6,0" style="fill:none;stroke:#999;stroke-width:3" />
<path d="M1225.81,25.66c0.18,0.87,1.12,2.95,1.19,3.8c0.08,0.85,0,60.46-0.07,65.79" style="fill:none;stroke:#999;stroke-width:3" />
<path d="M1226.5,45.25C1222.95,56.64,1217.03,70.69,1209.0,80" style="fill:none;stroke:#999;stroke-width:3" />
<path d="M1229.25,50.25c3.46,2.45,6.39,7.35,8.25,10.5" style="fill:none;stroke:#999;stroke-width:3" />
<path d="M1256.53,11.13c0.05,0.37,0.1,0.94-0.1,1.47c-1.18,3.09-7.93,9.88-17.17,14.03" style="fill:none;stroke:#999;stroke-width:3" />
<path d="M1254.69,16.86c3.75-0.22,13.31-1.61,18.11-2.59c2.74-0.56,3.8,0.21,1.83,2.47c-1.75,2-3.36,3.65-6.51,7.39" style="fill:none;stroke:#999;stroke-width:3" />
<path d="M1246.77,26.43c0.41,0.57,0.47,0.94,0.65,1.69c0.61,2.57,1.02,6.56,1.31,10.12" style="fill:none;stroke:#999;stroke-width:3" />
<path d="M1249.03,26.81c6.96-1.29,34.07-3.04,38.49-3.91c1.62-0.32,2.52,1.17,2.23,2.54c-1.22,5.57-1.99,7.56-3.63,10.5" style="fill:none;stroke:#999;stroke-width:3" />
<path d="M1249.28,37.41c1.83,0,11.34-1.4,12.84-1.4" style="fill:none;stroke:#999;stroke-width:3" />
<path d="M1272.01,34.67c3.01-0.03,11.9-0.83,13.7-0.71" style="fill:none;stroke:#999;stroke-width:3" />
<path d="M1262.75,27.71c0,10.81,0.09,50.23-0.02,55.06C1262.5,92.25,1264.86,94.5,1280.42,94.5C1296.7,94.5,1296.0,93.11,1296.0,85" style="fill:none;stroke:black;stroke-width:3" />
<circle cx="1262.75" cy="27.71" r="5" stroke-width="0" fill="#FF2A00" opacity="0.7" />
<path d="M1342.76,14.75c0.06,0.31,0.12,0.79-0.12,1.23c-1.43,2.59-9.65,8.29-20.89,11.77" style="fill:none;stroke:#999;stroke-width:3" />
<path d="M1317.12,40.87c0.32,0.13,1.17,0.34,2.03,0.39c2.35,0.13,21.56-1.93,27.43-2.58c0.85-0.09,1.07-0.13,1.6,0" style="fill:none;stroke:#999;stroke-width:3" />
<path d="M1334.81,25.66c0.18,0.87,1.12,2.95,1.19,3.8c0.08,0.85,0,60.46-0.07,65.79" style="fill:none;stroke:#999;stroke-width:3" />
<path d="M1335.5,45.25C1331.95,56.64,1326.03,70.69,1318.0,80" style="fill:none;stroke:#999;stroke-width:3" />
<path d="M1338.25,50.25c3.46,2.45,6.39,7.35,8.25,10.5" style="fill:none;stroke:#999;stroke-width:3" />
<path d="M1365.53,11.13c0.05,0.37,0.1,0.94-0.1,1.47c-1.18,3.09-7.93,9.88-17.17,14.03" style="fill:none;stroke:#999;stroke-width:3" />
<path d="M1363.69,16.86c3.75-0.22,13.31-1.61,18.11-2.59c2.74-0.56,3.8,0.21,1.83,2.47c-1.75,2-3.36,3.65-6.51,7.39" style="fill:none;stroke:#999;stroke-width:3" />
<path d="M1355.77,26.43c0.41,0.57,0.47,0.94,0.65,1.69c0.61,2.57,1.02,6.56,1.31,10.12" style="fill:none;stroke:#999;stroke-width:3" />
<path d="M1358.03,26.81c6.96-1.29,34.07-3.04,38.49-3.91c1.62-0.32,2.52,1.17,2.23,2.54c-1.22,5.57-1.99,7.56-3.63,10.5" style="fill:none;stroke:#999;stroke-width:3" />
<path d="M1358.28,37.41c1.83,0,11.34-1.4,12.84-1.4" style="fill:none;stroke:#999;stroke-width:3" />
<path d="M1381.01,34.67c3.01-0.03,11.9-0.83,13.7-0.71" style="fill:none;stroke:#999;stroke-width:3" />
<path d="M1371.75,27.71c0,10.81,0.09,50.23-0.02,55.06C1371.5,92.25,1373.86,94.5,1389.42,94.5C1405.7,94.5,1405.0,93.11,1405.0,85" style="fill:none;stroke:#999;stroke-width:3" />
<path d="M1380.39,26.78c0.16,0.82,0,54.63-0.16,59.72" style="fill:none;stroke:black;stroke-width:3" />
<circle cx="1380.39" cy="26.78" r="5" stroke-width="0" fill="#FF2A00" opacity="0.7" />
<path d="M1451.76,14.75c0.06,0.31,0.12,0.79-0.12,1.23c-1.43,2.59-9.65,8.29-20.89,11.77" style="fill:none;stroke:#999;stroke-width:3" />
<path d="M1426.12,40.87c0.32,0.13,1.17,0.34,2.03,0.39c2.35,0.13,21.56-1.93,27.43-2.58c0.85-0.09,1.07-0.13,1.6,0" style="fill:none;stroke:#999;stroke-width:3" />
<path d="M1443.81,25.66c0.18,0.87,1.12,2.95,1.19,3.8c0.08,0.85,0,60.46-0.07,65.79" style="fill:none;stroke:#999;stroke-width:3" />
<path d="M1444.5,45.25C1440.95,56.64,1435.03,70.69,1427.0,80" style="fill:none;stroke:#999;stroke-width:3" />
<path d="M1447.25,50.25c3.46,2.45,6.39,7.35,8.25,10.5" style="fill:none;stroke:#999;stroke-width:3" />
<path d="M1474.53,11.13c0.05,0.37,0.1,0.94-0.1,1.47c-1.18,3.09-7.93,9.88-17.17,14.03" style="fill:none;stroke:#999;stroke-width:3" />
<path d="M1472.69,16.86c3.75-0.22,13.31-1.61,18.11-2.59c2.74-0.56,3.8,0.21,1.83,2.47c-1.75,2-3.36,3.65-6.51,7.39" style="fill:none;stroke:#999;stroke-width:3" />
<path d="M1464.77,26.43c0.41,0.57,0.47,0.94,0.65,1.69c0.61,2.57,1.02,6.56,1.31,10.12" style="fill:none;stroke:#999;stroke-width:3" />
<path d="M1467.03,26.81c6.96-1.29,34.07-3.04,38.49-3.91c1.62-0.32,2.52,1.17,2.23,2.54c-1.22,5.57-1.99,7.56-3.63,10.5" style="fill:none;stroke:#999;stroke-width:3" />
<path d="M1467.28,37.41c1.83,0,11.34-1.4,12.84-1.4" style="fill:none;stroke:#999;stroke-width:3" />
<path d="M1490.01,34.67c3.01-0.03,11.9-0.83,13.7-0.71" style="fill:none;stroke:#999;stroke-width:3" />
<path d="M1480.75,27.71c0,10.81,0.09,50.23-0.02,55.06C1480.5,92.25,1482.86,94.5,1498.42,94.5C1514.7,94.5,1514.0,93.11,1514.0,85" style="fill:none;stroke:#999;stroke-width:3" />
<path d="M1489.39,26.78c0.16,0.82,0,54.63-0.16,59.72" style="fill:none;stroke:#999;stroke-width:3" />
<path d="M1458.6,46.55c1.21,0.58,1.38,1.04,2.45,0.8c4.42-0.97,6.37-1.72,11.71-2.47c0.89-0.13,1.83,1.26,1.59,2.78c-0.62,3.97-1.07,6.42-1.9,13.25" style="fill:none;stroke:black;stroke-width:3" />
<circle cx="1458.6" cy="46.55" r="5" stroke-width="0" fill="#FF2A00" opacity="0.7" />
<path d="M1560.76,14.75c0.06,0.31,0.12,0.79-0.12,1.23c-1.43,2.59-9.65,8.29-20.89,11.77" style="fill:none;stroke:#999;stroke-width:3" />
<path d="M1535.12,40.87c0.32,0.13,1.17,0.34,2.03,0.39c2.35,0.13,21.56-1.93,27.43-2.58c0.85-0.09,1.07-0.13,1.6,0" style="fill:none;stroke:#999;stroke-width:3" />
<path d="M1552.81,25.66c0.18,0.87,1.12,2.95,1.19,3.8c0.08,0.85,0,60.46-0.07,65.79" style="fill:none;stroke:#999;stroke-width:3" />
<path d="M1553.5,45.25C1549.95,56.64,1544.03,70.69,1536.0,80" style="fill:none;stroke:#999;stroke-width:3" />
<path d="M1556.25,50.25c3.46,2.45,6.39,7.35,8.25,10.5" style="fill:none;stroke:#999;stroke-width:3" />
<path d="M1583.53,11.13c0.05,0.37,0.1,0.94-0.1,1.47c-1.18,3.09-7.93,9.88-17.17,14.03" style="fill:none;stroke:#999;stroke-width:3" />
<path d="M1581.69,16.86c3.75-0.22,13.31-1.61,18.11-2.59c2.74-0.56,3.8,0.21,1.83,2.47c-1.75,2-3.36,3.65-6.51,7.39" style="fill:none;stroke:#999;stroke-width:3" />
<path d="M1573.77,26.43c0.41,0.57,0.47,0.94,0.65,1.69c0.61,2.57,1.02,6.56,1.31,10.12" style="fill:none;stroke:#999;stroke-width:3" />
<path d="M1576.03,26.81c6.96-1.29,34.07-3.04,38.49-3.91c1.62-0.32,2.52,1.17,2.23,2.54c-1.22,5.57-1.99,7.56-3.63,10.5" style="fill:none;stroke:#999;stroke-width:3" />
<path d="M1576.28,37.41c1.83,0,11.34-1.4,12.84-1.4" style="fill:none;stroke:#999;stroke-width:3" />
<path d="M1599.01,34.67c3.01-0.03,11.9-0.83,13.7-0.71" style="fill:none;stroke:#999;stroke-width:3" />
<path d="M1589.75,27.71c0,10.81,0.09,50.23-0.02,55.06C1589.5,92.25,1591.86,94.5,1607.42,94.5C1623.7,94.5,1623.0,93.11,1623.0,85" style="fill:none;stroke:#999;stroke-width:3" />
<path d="M1598.39,26.78c0.16,0.82,0,54.63-0.16,59.72" style="fill:none;stroke:#999;stroke-width:3" />
<path d="M1567.6,46.55c1.21,0.58,1.38,1.04,2.45,0.8c4.42-0.97,6.37-1.72,11.71-2.47c0.89-0.13,1.83,1.26,1.59,2.78c-0.62,3.97-1.07,6.42-1.9,13.25" style="fill:none;stroke:#999;stroke-width:3" />
<path d="M1568.78,53.59c1.11,0.56,1.25,0.88,2.25,0.78c6.09-0.59,40.44-5.24,45.22-5.24c1.42,0,2.65,1.68,2.68,3.17c0.08,4.58-1.84,19.74-2.6,26.36" style="fill:none;stroke:black;stroke-width:3" />
<circle cx="1568.78" cy="53.59" r="5" stroke-width="0" fill="#FF2A00" opacity="0.7" />
<path d="M1669.76,14.75c0.06,0.31,0.12,0.79-0.12,1.23c-1.43,2.59-9.65,8.29-20.89,11.77" style="fill:none;stroke:#999;stroke-width:3" />
<path d="M1644.12,40.87c0.32,0.13,1.17,0.34,2.03,0.39c2.35,0.13,21.56-1.93,27.43-2.58c0.85-0.09,1.07-0.13,1.6,0" style="fill:none;stroke:#999;stroke-width:3" />
<path d="M1661.81,25.66c0.18,0.87,1.12,2.95,1.19,3.8c0.08,0.85,0,60.46-0.07,65.79" style="fill:none;stroke:#999;stroke-width:3" />
<path d="M1662.5,45.25C1658.95,56.64,1653.03,70.69,1645.0,80" style="fill:none;stroke:#999;stroke-width:3" />
<path d="M1665.25,50.25c3.46,2.45,6.39,7.35,8.25,10.5" style="fill:none;stroke:#999;stroke-width:3" />
<path d="M1692.53,11.13c0.05,0.37,0.1,0.94-0.1,1.47c-1.18,3.09-7.93,9.88-17.17,14.03" style="fill:none;stroke:#999;stroke-width:3" />
<path d="M1690.69,16.86c3.75-0.22,13.31-1.61,18.11-2.59c2.74-0.56,3.8,0.21,1.83,2.47c-1.75,2-3.36,3.65-6.51,7.39" style="fill:none;stroke:#999;stroke-width:3" />
<path d="M1682.77,26.43c0.41,0.57,0.47,0.94,0.65,1.69c0.61,2.57,1.02,6.56,1.31,10.12" style="fill:none;stroke:#999;stroke-width:3" />
<path d="M1685.03,26.81c6.96-1.29,34.07-3.04,38.49-3.91c1.62-0.32,2.52,1.17,2.23,2.54c-1.22,5.57-1.99,7.56-3.63,10.5" style="fill:none;stroke:#999;stroke-width:3" />
<path d="M1685.28,37.41c1.83,0,11.34-1.4,12.84-1.4" style="fill:none;stroke:#999;stroke-width:3" />
<path d="M1708.01,34.67c3.01-0.03,11.9-0.83,13.7-0.71" style="fill:none;stroke:#999;stroke-width:3" />
<path d="M1698.75,27.71c0,10.81,0.09,50.23-0.02,55.06C1698.5,92.25,1700.86,94.5,1716.42,94.5C1732.7,94.5,1732.0,93.11,1732.0,85" style="fill:none;stroke:#999;stroke-width:3" />
<path d="M1707.39,26.78c0.16,0.82,0,54.63-0.16,59.72" style="fill:none;stroke:#999;stroke-width:3" />
<path d="M1676.6,46.55c1.21,0.58,1.38,1.04,2.45,0.8c4.42-0.97,6.37-1.72,11.71-2.47c0.89-0.13,1.83,1.26,1.59,2.78c-0.62,3.97-1.07,6.42-1.9,13.25" style="fill:none;stroke:#999;stroke-width:3" />
<path d="M1677.78,53.59c1.11,0.56,1.25,0.88,2.25,0.78c6.09-0.59,40.44-5.24,45.22-5.24c1.42,0,2.65,1.68,2.68,3.17c0.08,4.58-1.84,19.74-2.6,26.36" style="fill:none;stroke:#999;stroke-width:3" />
<path d="M1676.92,63c0.56,0.09,1.58,0.4,2.25,0.28c7.85-1.4,11.05-2.39,11.72-2.3" style="fill:none;stroke:black;stroke-width:3" />
<circle cx="1676.92" cy="63.0" r="5" stroke-width="0" fill="#FF2A00" opacity="0.7" />
<path d="M1778.76,14.75c0.06,0.31,0.12,0.79-0.12,1.23c-1.43,2.59-9.65,8.29-20.89,11.77" style="fill:none;stroke:#999;stroke-width:3" />
<path d="M1753.12,40.87c0.32,0.13,1.17,0.34,2.03,0.39c2.35,0.13,21.56-1.93,27.43-2.58c0.85-0.09,1.07-0.13,1.6,0" style="fill:none;stroke:#999;stroke-width:3" />
<path d="M1770.81,25.66c0.18,0.87,1.12,2.95,1.19,3.8c0.08,0.85,0,60.46-0.07,65.79" style="fill:none;stroke:#999;stroke-width:3" />
<path d="M1771.5,45.25C1767.95,56.64,1762.03,70.69,1754.0,80" style="fill:none;stroke:#999;stroke-width:3" />
<path d="M1774.25,50.25c3.46,2.45,6.39,7.35,8.25,10.5" style="fill:none;stroke:#999;stroke-width:3" />
<path d="M1801.53,11.13c0.05,0.37,0.1,0.94-0.1,1.47c-1.18,3.09-7.93,9.88-17.17,14.03" style="fill:none;stroke:#999;stroke-width:3" />
<path d="M1799.69,16.86c3.75-0.22,13.31-1.61,18.11-2.59c2.74-0.56,3.8,0.21,1.83,2.47c-1.75,2-3.36,3.65-6.51,7.39" style="fill:none;stroke:#999;stroke-width:3" />
<path d="M1791.77,26.43c0.41,0.57,0.47,0.94,0.65,1.69c0.61,2.57,1.02,6.56,1.31,10.12" style="fill:none;stroke:#999;stroke-width:3" />
<path d="M1794.03,26.81c6.96-1.29,34.07-3.04,38.49-3.91c1.62-0.32,2.52,1.17,2.23,2.54c-1.22,5.57-1.99,7.56-3.63,10.5" style="fill:none;stroke:#999;stroke-width:3" />
<path d="M1794.28,37.41c1.83,0,11.34-1.4,12.84-1.4" style="fill:none;stroke:#999;stroke-width:3" />
<path d="M1817.01,34.67c3.01-0.03,11.9-0.83,13.7-0.71" style="fill:none;stroke:#999;stroke-width:3" />
<path d="M1807.75,27.71c0,10.81,0.09,50.23-0.02,55.06C1807.5,92.25,1809.86,94.5,1825.42,94.5C1841.7,94.5,1841.0,93.11,1841.0,85" style="fill:none;stroke:#999;stroke-width:3" />
<path d="M1816.39,26.78c0.16,0.82,0,54.63-0.16,59.72" style="fill:none;stroke:#999;stroke-width:3" />
<path d="M1785.6,46.55c1.21,0.58,1.38,1.04,2.45,0.8c4.42-0.97,6.37-1.72,11.71-2.47c0.89-0.13,1.83,1.26,1.59,2.78c-0.62,3.97-1.07,6.42-1.9,13.25" style="fill:none;stroke:#999;stroke-width:3" />
<path d="M1786.78,53.59c1.11,0.56,1.25,0.88,2.25,0.78c6.09-0.59,40.44-5.24,45.22-5.24c1.42,0,2.65,1.68,2.68,3.17c0.08,4.58-1.84,19.74-2.6,26.36" style="fill:none;stroke:#999;stroke-width:3" />
<path d="M1785.92,63c0.56,0.09,1.58,0.4,2.25,0.28c7.85-1.4,11.05-2.39,11.72-2.3" style="fill:none;stroke:#999;stroke-width:3" />
<path d="M1786.49,70.05c0.99,0.15,1.48,0.48,2.39,0.3c3.71-0.72,5.99-1.22,9.66-1.97c1.28-0.26,1.53,0.76,1.33,2.28c-0.52,3.97-0.4,10.42-1.09,17.25" style="fill:none;stroke:black;stroke-width:3" />
<circle cx="1786.49" cy="70.05" r="5" stroke-width="0" fill="#FF2A00" opacity="0.7" />
<path d="M1887.76,14.75c0.06,0.31,0.12,0.79-0.12,1.23c-1.43,2.59-9.65,8.29-20.89,11.77" style="fill:none;stroke:#999;stroke-width:3" />
<path d="M1862.12,40.87c0.32,0.13,1.17,0.34,2.03,0.39c2.35,0.13,21.56-1.93,27.43-2.58c0.85-0.09,1.07-0.13,1.6,0" style="fill:none;stroke:#999;stroke-width:3" />
<path d="M1879.81,25.66c0.18,0.87,1.12,2.95,1.19,3.8c0.08,0.85,0,60.46-0.07,65.79" style="fill:none;stroke:#999;stroke-width:3" />
<path d="M1880.5,45.25C1876.95,56.64,1871.03,70.69,1863.0,80" style="fill:none;stroke:#999;stroke-width:3" />
<path d="M1883.25,50.25c3.46,2.45,6.39,7.35,8.25,10.5" style="fill:none;stroke:#999;stroke-width:3" />
<path d="M1910.53,11.13c0.05,0.37,0.1,0.94-0.1,1.47c-1.18,3.09-7.93,9.88-17.17,14.03" style="fill:none;stroke:#999;stroke-width:3" />
<path d="M1908.69,16.86c3.75-0.22,13.31-1.61,18.11-2.59c2.74-0.56,3.8,0.21,1.83,2.47c-1.75,2-3.36,3.65-6.51,7.39" style="fill:none;stroke:#999;stroke-width:3" />
<path d="M1900.77,26.43c0.41,0.57,0.47,0.94,0.65,1.69c0.61,2.57,1.02,6.56,1.31,10.12" style="fill:none;stroke:#999;stroke-width:3" />
<path d="M1903.03,26.81c6.96-1.29,34.07-3.04,38.49-3.91c1.62-0.32,2.52,1.17,2.23,2.54c-1.22,5.57-1.99,7.56-3.63,10.5" style="fill:none;stroke:#999;stroke-width:3" />
<path d="M1903.28,37.41c1.83,0,11.34-1.4,12.84-1.4" style="fill:none;stroke:#999;stroke-width:3" />
<path d="M1926.01,34.67c3.01-0.03,11.9-0.83,13.7-0.71" style="fill:none;stroke:#999;stroke-width:3" />
<path d="M1916.75,27.71c0,10.81,0.09,50.23-0.02,55.06C1916.5,92.25,1918.86,94.5,1934.42,94.5C1950.7,94.5,1950.0,93.11,1950.0,85" style="fill:none;stroke:#999;stroke-width:3" />
<path d="M1925.39,26.78c0.16,0.82,0,54.63-0.16,59.72" style="fill:none;stroke:#999;stroke-width:3" />
<path d="M1894.6,46.55c1.21,0.58,1.38,1.04,2.45,0.8c4.42-0.97,6.37-1.72,11.71-2.47c0.89-0.13,1.83,1.26,1.59,2.78c-0.62,3.97-1.07,6.42-1.9,13.25" style="fill:none;stroke:#999;stroke-width:3" />
<path d="M1895.78,53.59c1.11,0.56,1.25,0.88,2.25,0.78c6.09-0.59,40.44-5.24,45.22-5.24c1.42,0,2.65,1.68,2.68,3.17c0.08,4.58-1.84,19.74-2.6,26.36" style="fill:none;stroke:#999;stroke-width:3" />
<path d="M1894.92,63c0.56,0.09,1.58,0.4,2.25,0.28c7.85-1.4,11.05-2.39,11.72-2.3" style="fill:none;stroke:#999;stroke-width:3" />
<path d="M1895.49,70.05c0.99,0.15,1.48,0.48,2.39,0.3c3.71-0.72,5.99-1.22,9.66-1.97c1.28-0.26,1.53,0.76,1.33,2.28c-0.52,3.97-0.4,10.42-1.09,17.25" style="fill:none;stroke:#999;stroke-width:3" />
<path d="M1894.68,79.08c0.96,0.35,2.48,0.77,3.57,0.66c9.54-1,36.12-3.79,45.35-4.74" style="fill:none;stroke:black;stroke-width:3" />
<circle cx="1894.68" cy="79.08" r="5" stroke-width="0" fill="#FF2A00" opacity="0.7" />
<path d="M1996.76,14.75c0.06,0.31,0.12,0.79-0.12,1.23c-1.43,2.59-9.65,8.29-20.89,11.77" style="fill:none;stroke:#999;stroke-width:3" />
<path d="M1971.12,40.87c0.32,0.13,1.17,0.34,2.03,0.39c2.35,0.13,21.56-1.93,27.43-2.58c0.85-0.09,1.07-0.13,1.6,0" style="fill:none;stroke:#999;stroke-width:3" />
<path d="M1988.81,25.66c0.18,0.87,1.12,2.95,1.19,3.8c0.08,0.85,0,60.46-0.07,65.79" style="fill:none;stroke:#999;stroke-width:3" />
<path d="M1989.5,45.25C1985.95,56.64,1980.03,70.69,1972.0,80" style="fill:none;stroke:#999;stroke-width:3" />
<path d="M1992.25,50.25c3.46,2.45,6.39,7.35,8.25,10.5" style="fill:none;stroke:#999;stroke-width:3" />
<path d="M2019.53,11.13c0.05,0.37,0.1,0.94-0.1,1.47c-1.18,3.09-7.93,9.88-17.17,14.03" style="fill:none;stroke:#999;stroke-width:3" />
<path d="M2017.69,16.86c3.75-0.22,13.31-1.61,18.11-2.59c2.74-0.56,3.8,0.21,1.83,2.47c-1.75,2-3.36,3.65-6.51,7.39" style="fill:none;stroke:#999;stroke-width:3" />
<path d="M2009.77,26.43c0.41,0.57,0.47,0.94,0.65,1.69c0.61,2.57,1.02,6.56,1.31,10.12" style="fill:none;stroke:#999;stroke-width:3" />
<path d="M2012.03,26.81c6.96-1.29,34.07-3.04,38.49-3.91c1.62-0.32,2.52,1.17,2.23,2.54c-1.22,5.57-1.99,7.56-3.63,10.5" style="fill:none;stroke:#999;stroke-width:3" />
<path d="M2012.28,37.41c1.83,0,11.34-1.4,12.84-1.4" style="fill:none;stroke:#999;stroke-width:3" />
<path d="M2035.01,34.67c3.01-0.03,11.9-0.83,13.7-0.71" style="fill:none;stroke:#999;stroke-width:3" />
<path d="M2025.75,27.71c0,10.81,0.09,50.23-0.02,55.06C2025.5,92.25,2027.86,94.5,2043.42,94.5C2059.7,94.5,2059.0,93.11,2059.0,85" style="fill:none;stroke:#999;stroke-width:3" />
<path d="M2034.39,26.78c0.16,0.82,0,54.63-0.16,59.72" style="fill:none;stroke:#999;stroke-width:3" />
<path d="M2003.6,46.55c1.21,0.58,1.38,1.04,2.45,0.8c4.42-0.97,6.37-1.72,11.71-2.47c0.89-0.13,1.83,1.26,1.59,2.78c-0.62,3.97-1.07,6.42-1.9,13.25" style="fill:none;stroke:#999;stroke-width:3" />
<path d="M2004.78,53.59c1.11,0.56,1.25,0.88,2.25,0.78c6.09-0.59,40.44-5.24,45.22-5.24c1.42,0,2.65,1.68,2.68,3.17c0.08,4.58-1.84,19.74-2.6,26.36" style="fill:none;stroke:#999;stroke-width:3" />
<path d="M2003.92,63c0.56,0.09,1.58,0.4,2.25,0.28c7.85-1.4,11.05-2.39,11.72-2.3" style="fill:none;stroke:#999;stroke-width:3" />
<path d="M2004.49,70.05c0.99,0.15,1.48,0.48,2.39,0.3c3.71-0.72,5.99-1.22,9.66-1.97c1.28-0.26,1.53,0.76,1.33,2.28c-0.52,3.97-0.4,10.42-1.09,17.25" style="fill:none;stroke:#999;stroke-width:3" />
<path d="M2003.68,79.08c0.96,0.35,2.48,0.77,3.57,0.66c9.54-1,36.12-3.79,45.35-4.74" style="fill:none;stroke:#999;stroke-width:3" />
<path d="M2004.5,88.98c0.44,0.12,1.25,0.42,1.78,0.35c3.72-0.5,8.4-1.44,10.2-1.74" style="fill:none;stroke:black;stroke-width:3" />
<circle cx="2004.5" cy="88.98" r="5" stroke-width="0" fill="#FF2A00" opacity="0.7" />
<path d="M2105.76,14.75c0.06,0.31,0.12,0.79-0.12,1.23c-1.43,2.59-9.65,8.29-20.89,11.77" style="fill:none;stroke:#999;stroke-width:3" />
<path d="M2080.12,40.87c0.32,0.13,1.17,0.34,2.03,0.39c2.35,0.13,21.56-1.93,27.43-2.58c0.85-0.09,1.07-0.13,1.6,0" style="fill:none;stroke:#999;stroke-width:3" />
<path d="M2097.81,25.66c0.18,0.87,1.12,2.95,1.19,3.8c0.08,0.85,0,60.46-0.07,65.79" style="fill:none;stroke:#999;stroke-width:3" />
<path d="M2098.5,45.25C2094.95,56.64,2089.0299999999997,70.69,2081.0,80" style="fill:none;stroke:#999;stroke-width:3" />
<path d="M2101.25,50.25c3.46,2.45,6.39,7.35,8.25,10.5" style="fill:none;stroke:#999;stroke-width:3" />
<path d="M2128.5299999999997,11.13c0.05,0.37,0.1,0.94-0.1,1.47c-1.18,3.09-7.93,9.88-17.17,14.03" style="fill:none;stroke:#999;stroke-width:3" />
<path d="M2126.69,16.86c3.75-0.22,13.31-1.61,18.11-2.59c2.74-0.56,3.8,0.21,1.83,2.47c-1.75,2-3.36,3.65-6.51,7.39" style="fill:none;stroke:#999;stroke-width:3" />
<path d="M2118.77,26.43c0.41,0.57,0.47,0.94,0.65,1.69c0.61,2.57,1.02,6.56,1.31,10.12" style="fill:none;stroke:#999;stroke-width:3" />
<path d="M2121.0299999999997,26.81c6.96-1.29,34.07-3.04,38.49-3.91c1.62-0.32,2.52,1.17,2.23,2.54c-1.22,5.57-1.99,7.56-3.63,10.5" style="fill:none;stroke:#999;stroke-width:3" />
<path d="M2121.2799999999997,37.41c1.83,0,11.34-1.4,12.84-1.4" style="fill:none;stroke:#999;stroke-width:3" />
<path d="M2144.01,34.67c3.01-0.03,11.9-0.83,13.7-0.71" style="fill:none;stroke:#999;stroke-width:3" />
<path d="M2134.75,27.71c0,10.81,0.09,50.23-0.02,55.06C2134.5,92.25,2136.8599999999997,94.5,2152.42,94.5C2168.7,94.5,2168.0,93.11,2168.0,85" style="fill:none;stroke:#999;stroke-width:3" />
<path d="M2143.3900000000003,26.78c0.16,0.82,0,54.63-0.16,59.72" style="fill:none;stroke:#999;stroke-width:3" />
<path d="M2112.6,46.55c1.21,0.58,1.38,1.04,2.45,0.8c4.42-0.97,6.37-1.72,11.71-2.47c0.89-0.13,1.83,1.26,1.59,2.78c-0.62,3.97-1.07,6.42-1.9,13.25" style="fill:none;stroke:#999;stroke-width:3" />
<path d="M2113.7799999999997,53.59c1.11,0.56,1.25,0.88,2.25,0.78c6.09-0.59,40.44-5.24,45.22-5.24c1.42,0,2.65,1.68,2.68,3.17c0.08,4.58-1.84,19.74-2.6,26.36" style="fill:none;stroke:#999;stroke-width:3" />
<path d="M2112.92,63c0.56,0.09,1.58,0.4,2.25,0.28c7.85-1.4,11.05-2.39,11.72-2.3" style="fill:none;stroke:#999;stroke-width:3" />
<path d="M2113.49,70.05c0.99,0.15,1.48,0.48,2.39,0.3c3.71-0.72,5.99-1.22,9.66-1.97c1.28-0.26,1.53,0.76,1.33,2.28c-0.52,3.97-0.4,10.42-1.09,17.25" style="fill:none;stroke:#999;stroke-width:3" />
<path d="M2112.6800000000003,79.08c0.96,0.35,2.48,0.77,3.57,0.66c9.54-1,36.12-3.79,45.35-4.74" style="fill:none;stroke:#999;stroke-width:3" />
<path d="M2113.5,88.98c0.44,0.12,1.25,0.42,1.78,0.35c3.72-0.5,8.4-1.44,10.2-1.74" style="fill:none;stroke:#999;stroke-width:3" />
<path d="M2157.38,54.02c0.03,0.42,0.06,1.08-0.05,1.69c-0.64,3.56-4.31,11.36-9.33,16.14" style="fill:none;stroke:black;stroke-width:3" />
<circle cx="2157.38" cy="54.02" r="5" stroke-width="0" fill="#FF2A00" opacity="0.7" />
<path d="M2214.76,14.75c0.06,0.31,0.12,0.79-0.12,1.23c-1.43,2.59-9.65,8.29-20.89,11.77" style="fill:none;stroke:#999;stroke-width:3" />
<path d="M2189.12,40.87c0.32,0.13,1.17,0.34,2.03,0.39c2.35,0.13,21.56-1.93,27.43-2.58c0.85-0.09,1.07-0.13,1.6,0" style="fill:none;stroke:#999;stroke-width:3" />
<path d="M2206.81,25.66c0.18,0.87,1.12,2.95,1.19,3.8c0.08,0.85,0,60.46-0.07,65.79" style="fill:none;stroke:#999;stroke-width:3" />
<path d="M2207.5,45.25C2203.95,56.64,2198.0299999999997,70.69,2190.0,80" style="fill:none;stroke:#999;stroke-width:3" />
<path d="M2210.25,50.25c3.46,2.45,6.39,7.35,8.25,10.5" style="fill:none;stroke:#999;stroke-width:3" />
<path d="M2237.5299999999997,11.13c0.05,0.37,0.1,0.94-0.1,1.47c-1.18,3.09-7.93,9.88-17.17,14.03" style="fill:none;stroke:#999;stroke-width:3" />
<path d="M2235.69,16.86c3.75-0.22,13.31-1.61,18.11-2.59c2.74-0.56,3.8,0.21,1.83,2.47c-1.75,2-3.36,3.65-6.51,7.39" style="fill:none;stroke:#999;stroke-width:3" />
<path d="M2227.77,26.43c0.41,0.57,0.47,0.94,0.65,1.69c0.61,2.57,1.02,6.56,1.31,10.12" style="fill:none;stroke:#999;stroke-width:3" />
<path d="M2230.0299999999997,26.81c6.96-1.29,34.07-3.04,38.49-3.91c1.62-0.32,2.52,1.17,2.23,2.54c-1.22,5.57-1.99,7.56-3.63,10.5" style="fill:none;stroke:#999;stroke-width:3" />
<path d="M2230.2799999999997,37.41c1.83,0,11.34-1.4,12.84-1.4" style="fill:none;stroke:#999;stroke-width:3" />
<path d="M2253.01,34.67c3.01-0.03,11.9-0.83,13.7-0.71" style="fill:none;stroke:#999;stroke-width:3" />
<path d="M2243.75,27.71c0,10.81,0.09,50.23-0.02,55.06C2243.5,92.25,2245.8599999999997,94.5,2261.42,94.5C2277.7,94.5,2277.0,93.11,2277.0,85" style="fill:none;stroke:#999;stroke-width:3" />
<path d="M2252.3900000000003,26.78c0.16,0.82,0,54.63-0.16,59.72" style="fill:none;stroke:#999;stroke-width:3" />
<path d="M2221.6,46.55c1.21,0.58,1.38,1.04,2.45,0.8c4.42-0.97,6.37-1.72,11.71-2.47c0.89-0.13,1.83,1.26,1.59,2.78c-0.62,3.97-1.07,6.42-1.9,13.25" style="fill:none;stroke:#999;stroke-width:3" />
<path d="M2222.7799999999997,53.59c1.11,0.56,1.25,0.88,2.25,0.78c6.09-0.59,40.44-5.24,45.22-5.24c1.42,0,2.65,1.68,2.68,3.17c0.08,4.58-1.84,19.74-2.6,26.36" style="fill:none;stroke:#999;stroke-width:3" />
<path d="M2221.92,63c0.56,0.09,1.58,0.4,2.25,0.28c7.85-1.4,11.05-2.39,11.72-2.3" style="fill:none;stroke:#999;stroke-width:3" />
<path d="M2222.49,70.05c0.99,0.15,1.48,0.48,2.39,0.3c3.71-0.72,5.99-1.22,9.66-1.97c1.28-0.26,1.53,0.76,1.33,2.28c-0.52,3.97-0.4,10.42-1.09,17.25" style="fill:none;stroke:#999;stroke-width:3" />
<path d="M2221.6800000000003,79.08c0.96,0.35,2.48,0.77,3.57,0.66c9.54-1,36.12-3.79,45.35-4.74" style="fill:none;stroke:#999;stroke-width:3" />
<path d="M2222.5,88.98c0.44,0.12,1.25,0.42,1.78,0.35c3.72-0.5,8.4-1.44,10.2-1.74" style="fill:none;stroke:#999;stroke-width:3" />
<path d="M2266.38,54.02c0.03,0.42,0.06,1.08-0.05,1.69c-0.64,3.56-4.31,11.36-9.33,16.14" style="fill:none;stroke:#999;stroke-width:3" />
<path d="M2258.04,58.21c2.79,2.05,7.2,8.44,7.9,11.63" style="fill:none;stroke:black;stroke-width:3" />
<circle cx="2258.04" cy="58.21" r="5" stroke-width="0" fill="#FF2A00" opacity="0.7" />
</svg>